<?xml version="1.0" encoding="UTF-8"?>
<svg version="1.1" xmlns="http://www.w3.org/2000/svg" width="512" height="512">
<path d="M0 0 C6.38025459 2.67460272 11.38257856 8.0091322 16.3984375 12.64453125 C19.03023263 15.02737279 21.7375104 17.27055416 24.5 19.5 C28.0947765 22.4081338 31.58260628 25.38541332 35 28.5 C38.31989486 31.52282421 41.69764112 34.42512161 45.1875 37.25 C51.62711993 42.46518515 57.85455403 47.91331752 64.10351562 53.35351562 C67.07855189 55.93637409 70.0694406 58.50056914 73.0625 61.0625 C73.63589111 61.55339111 74.20928223 62.04428223 74.80004883 62.55004883 C75.95530518 63.53885203 77.11065976 64.52754049 78.26611328 65.51611328 C81.17894046 68.00895524 84.08934061 70.50462766 87 73 C88.16665518 74.0000134 89.33332184 75.00001341 90.5 76 C125.5 106 125.5 106 127.25073242 107.50073242 C128.41481977 108.49845195 129.57904456 109.49601114 130.7434082 110.4934082 C133.70069887 113.02698743 136.65538369 115.56350137 139.60546875 118.10546875 C144.93835322 122.69606553 150.28185945 127.25761398 155.75 131.6875 C160.12507747 135.23745321 164.30549192 138.95563821 168.46875 142.75 C171.0884481 145.07862053 173.7751531 147.29562947 176.5 149.5 C180.96276213 153.11032442 185.22719533 156.88427929 189.46875 160.75 C192.0884481 163.07862053 194.7751531 165.29562947 197.5 167.5 C201.96708963 171.11382531 206.23567038 174.8912648 210.48046875 178.76171875 C213.03204917 181.02847158 215.65171532 183.17540087 218.3125 185.3125 C222.68069945 188.85698184 226.90557406 192.52482217 231.0625 196.3125 C231.62300049 196.81628174 232.18350098 197.32006348 232.76098633 197.83911133 C236.44736275 201.23507004 238.71701002 203.56702121 239.30078125 208.5859375 C239.3240065 214.1135481 239.32373299 218.34677381 236 223 C230.50823496 228.37460739 226.77793623 229.14361607 219.2734375 229.09765625 C217.97921371 229.09553383 217.97921371 229.09553383 216.65884399 229.09336853 C213.8975277 229.08776188 211.13629188 229.07520827 208.375 229.0625 C206.5052095 229.05748586 204.63541774 229.0529228 202.765625 229.04882812 C198.17705223 229.03779029 193.58853977 229.0205212 189 229 C189.00151888 229.57326542 189.00303776 230.14653085 189.00460267 230.73716795 C189.09409854 264.70715202 189.16273789 298.67710929 189.20426132 332.64718554 C189.2092642 336.72523978 189.21444148 340.80329378 189.21972656 344.88134766 C189.2207758 345.69322101 189.22182505 346.50509437 189.22290608 347.34156995 C189.24031534 360.49046849 189.27185589 373.63929713 189.30861118 386.7881542 C189.34600614 400.27826685 189.36823279 413.76834287 189.37635398 427.25850523 C189.38184477 435.58390997 189.39919211 443.90911717 189.43166587 452.23446111 C189.45279593 457.94205438 189.45920348 463.6495454 189.45400551 469.35717495 C189.45144132 472.65115629 189.45757586 475.94471897 189.4768219 479.23865509 C189.49667002 482.81014775 189.4919571 486.38078941 189.48101807 489.95230103 C189.49266943 490.99316191 189.5043208 492.0340228 189.51632524 493.10642493 C189.46680348 499.07220816 188.95759624 502.44885453 185 507 C180.41317092 511.04077799 178.09012069 512.12447983 172.02347183 512.13422108 C170.10021462 512.14090784 170.10021462 512.14090784 168.13810372 512.14772969 C166.70179001 512.14764039 165.26547629 512.14745052 163.8291626 512.14717102 C162.31378515 512.1504686 160.79840857 512.15419394 159.28303313 512.1583125 C155.10335503 512.16835272 150.92369128 512.17205253 146.74400282 512.17470181 C142.24217077 512.17859888 137.74035016 512.18817761 133.23852539 512.19691467 C122.35900109 512.21669592 111.47947583 512.22674736 100.59993804 512.23564246 C95.48025745 512.24002261 90.3605779 512.24539012 85.24089813 512.25063133 C68.22822916 512.26764521 51.21556085 512.28214027 34.20288467 512.28938007 C29.78597259 512.29129006 25.3690605 512.29321038 20.95214844 512.29516602 C19.85430707 512.29564976 18.7564657 512.2961335 17.62535641 512.2966319 C-0.16637603 512.30493549 -17.95804129 512.33027727 -35.74974439 512.36274669 C-54.00405835 512.39578956 -72.25833816 512.41382632 -90.5126822 512.41702431 C-100.766714 512.41919198 -111.02064786 512.427978 -121.27465057 512.45348549 C-130.00596678 512.47515464 -138.73716126 512.48326161 -147.4685013 512.47351871 C-151.92494006 512.468963 -156.38112749 512.4709337 -160.83753204 512.49028015 C-164.91624229 512.50783432 -168.9945164 512.50697759 -173.07323077 512.49138286 C-174.54972008 512.48899495 -176.02623897 512.49339138 -177.50268289 512.50521151 C-179.50843734 512.52027612 -181.51434044 512.50829983 -183.52010727 512.49498463 C-184.63464145 512.49596144 -185.74917564 512.49693824 -186.89748359 512.49794465 C-191.91395569 511.69281581 -195.01348659 509.11982604 -198.3125 505.375 C-200.63846533 502.10141916 -201.12486865 500.4644516 -201.12304783 496.50597954 C-201.12503888 495.55451384 -201.12702993 494.60304815 -201.12908131 493.62275016 C-201.12471205 492.04398178 -201.12471205 492.04398178 -201.12025452 490.43331909 C-201.12110894 489.320884 -201.12196337 488.20844891 -201.12284368 487.06230366 C-201.12449964 483.30958614 -201.1189752 479.55691266 -201.11352539 475.80419922 C-201.11324352 473.1241343 -201.11335715 470.44407215 -201.1139679 467.76400757 C-201.11449303 461.98108331 -201.11134735 456.1981703 -201.10573006 450.41524887 C-201.0976136 442.05404777 -201.09499969 433.69285214 -201.09374207 425.33164753 C-201.09155178 411.76715646 -201.08489231 398.2026714 -201.07543945 384.63818359 C-201.06626474 371.45914744 -201.0591842 358.28011292 -201.05493164 345.10107422 C-201.05466892 344.28913687 -201.05440619 343.47719952 -201.05413551 342.64065801 C-201.0528305 338.5675319 -201.05156679 334.49440579 -201.05032361 330.42127967 C-201.03995171 296.61418209 -201.02233401 262.80709178 -201 229 C-202.15000488 229.02094727 -203.30000977 229.04189453 -204.48486328 229.06347656 C-208.76745056 229.13609063 -213.04998383 229.18187729 -217.33300781 229.21972656 C-219.18368696 229.23979339 -221.03430309 229.26705345 -222.88476562 229.30175781 C-225.55093977 229.35049433 -228.21627287 229.37301787 -230.8828125 229.390625 C-231.70492218 229.41127014 -232.52703186 229.43191528 -233.37405396 229.45318604 C-238.74497356 229.45526545 -241.72682584 228.54463565 -246 225 C-249.91930966 220.65698119 -251.16000523 217.49032719 -251.3125 211.6875 C-251.34988281 210.76324219 -251.38726562 209.83898437 -251.42578125 208.88671875 C-250.47729944 202.45618613 -245.55662378 198.32479489 -240.9375 194.1875 C-240.36604248 193.66760498 -239.79458496 193.14770996 -239.20581055 192.61206055 C-234.79812534 188.63469158 -230.24197903 184.86222628 -225.61328125 181.14453125 C-223.00152377 179.00125044 -220.49634698 176.7761967 -218 174.5 C-213.70008209 170.58108748 -209.24080453 166.90829131 -204.71875 163.25 C-202.07852271 161.06498431 -199.5327028 158.80828609 -197 156.5 C-192.70008209 152.58108748 -188.24080453 148.90829131 -183.71875 145.25 C-181.07852271 143.06498431 -178.5327028 140.80828609 -176 138.5 C-172.68010514 135.47717579 -169.30235888 132.57487839 -165.8125 129.75 C-159.37288007 124.53481485 -153.14544597 119.08668248 -146.89648438 113.64648438 C-143.92144811 111.06362591 -140.9305594 108.49943086 -137.9375 105.9375 C-137.36410889 105.44660889 -136.79071777 104.95571777 -136.19995117 104.44995117 C-135.04469482 103.46114797 -133.88934024 102.47245951 -132.73388672 101.48388672 C-129.82105954 98.99104476 -126.91065939 96.49537234 -124 94 C-122.83334482 92.9999866 -121.66667816 91.99998659 -120.5 91 C-119.9225 90.505 -119.345 90.01 -118.75 89.5 C-112.33333333 84 -105.91666667 78.5 -99.5 73 C-98.9222583 72.5047583 -98.3445166 72.0095166 -97.74926758 71.49926758 C-96.58518023 70.50154805 -95.42095544 69.50398886 -94.2565918 68.5065918 C-91.29930113 65.97301257 -88.34461631 63.43649863 -85.39453125 60.89453125 C-80.06164678 56.30393447 -74.71814055 51.74238602 -69.25 47.3125 C-64.87492253 43.76254679 -60.69450808 40.04436179 -56.53125 36.25 C-53.02200514 33.13067124 -49.36837877 30.20250867 -45.71875 27.25 C-43.07852271 25.06498431 -40.5327028 22.80828609 -38 20.5 C-13.57843912 -1.71199109 -13.57843912 -1.71199109 0 0 Z M-7 41 C-8.42196212 42.21882468 -9.84392147 43.4376526 -11.26586914 44.65649414 C-12.52282205 45.73385877 -13.77982201 46.8111685 -15.03686523 47.88842773 C-18.22226785 50.61837748 -21.40706545 53.34902212 -24.58984375 56.08203125 C-30.74301369 61.36406275 -36.91236002 66.62565236 -43.10791016 71.85791016 C-48.84168764 76.70396642 -54.53823153 81.59313781 -60.23388672 86.48388672 C-63.15442275 88.99100985 -66.07732311 91.49537328 -69 94 C-70.16667816 94.99998659 -71.33334482 95.9999866 -72.5 97 C-90 112 -90 112 -107.5 127 C-108.0777417 127.4952417 -108.6554834 127.9904834 -109.25073242 128.50073242 C-110.41481977 129.49845195 -111.57904456 130.49601114 -112.7434082 131.4934082 C-115.70069887 134.02698743 -118.65538369 136.56350137 -121.60546875 139.10546875 C-126.93835322 143.69606553 -132.28185945 148.25761398 -137.75 152.6875 C-142.12507747 156.23745321 -146.30549192 159.95563821 -150.46875 163.75 C-153.97799486 166.86932876 -157.63162123 169.79749133 -161.28125 172.75 C-164.76417058 175.63241703 -168.08926497 178.6697962 -171.4296875 181.71484375 C-175.82962481 185.62664212 -180.41246931 189.31078806 -185 193 C-182.48478625 194.67680916 -180.90643154 195.4304507 -178.125 196.3125 C-174.09730632 197.80067359 -171.67096473 199.54345741 -169 203 C-166.75876865 208.9993635 -166.70944404 214.62159175 -166.7215271 220.97813416 C-166.71574142 222.07178787 -166.70995575 223.16544159 -166.70399475 224.29223633 C-166.68698343 227.96300167 -166.684128 231.63364173 -166.68115234 235.30444336 C-166.67174151 237.97858917 -166.66155 240.65272149 -166.6503849 243.32685947 C-166.6252332 249.7625538 -166.61022944 256.19823162 -166.59880099 262.63396335 C-166.58513755 270.0805975 -166.558802 277.52715159 -166.5324707 284.97375488 C-166.46921579 304.62830489 -166.42315932 324.28290721 -166.375 343.9375 C-166.25125 387.848125 -166.1275 431.75875 -166 477 C-60.4 477 45.2 477 154 477 C154.24975195 389.44521872 154.24975195 389.44521872 154.47802734 301.89038086 C154.5324707 284.97375488 154.5324707 284.97375488 154.56045532 277.05958557 C154.57935792 271.52072781 154.59285581 265.98188901 154.60269165 260.44300842 C154.6140531 254.05547769 154.63225967 247.66801025 154.65892879 241.28052441 C154.6723564 238.01289708 154.68160556 234.74535536 154.68425441 231.47769916 C154.68756723 227.97774111 154.70301181 224.47803997 154.7215271 220.97813416 C154.71959162 219.95993371 154.71765614 218.94173326 154.715662 217.89267826 C154.76787123 211.28948748 154.94975382 205.65325976 159.125 200.25 C162.09673821 197.92429184 164.57837973 196.80296518 168.1328125 195.67578125 C170.28968623 194.97907199 170.28968623 194.97907199 173 193 C163.93742144 185.13053403 154.85390333 177.28671052 145.73388672 169.48388672 C142.8210595 166.99104473 139.91068802 164.495339 137 162 C136.42314453 161.50564453 135.84628906 161.01128906 135.25195312 160.50195312 C132.32181007 157.99086964 129.39253004 155.47879132 126.46484375 152.96484375 C120.82578344 148.12423445 115.17786575 143.29506367 109.5 138.5 C103.22831051 133.2034411 96.99408929 127.86395577 90.76611328 122.51611328 C87.84557725 120.00899015 84.92267689 117.50462672 82 115 C80.83332184 114.00001341 79.66665518 113.0000134 78.5 112 C77.9225 111.505 77.345 111.01 76.75 110.5 C43.5 82 43.5 82 41.74926758 80.49926758 C40.58518023 79.50154805 39.42095544 78.50398886 38.2565918 77.5065918 C35.29930113 74.97301257 32.34461631 72.43649863 29.39453125 69.89453125 C23.19978229 64.56203347 16.95927436 59.31055656 10.6015625 54.171875 C7.03845841 51.19727159 3.65668578 48.04070374 0.2890625 44.84765625 C-2.06619015 42.94657348 -4.14666993 41.96287287 -7 41 Z " fill="#000000" transform="translate(262,0)"/>
<path d="M0 0 C2.49289038 2.18080908 4.8710455 4.42598242 7.21484375 6.765625 C7.83875 7.37792969 8.46265625 7.99023438 9.10546875 8.62109375 C18.77038214 18.83020271 26.26917186 33.63579434 27.46875 47.75390625 C27.18017634 53.51663481 25.24389877 57.65644673 21.21484375 61.765625 C17.08502213 65.20714302 12.47630291 65.88880297 7.21484375 65.765625 C1.88390963 64.8545199 -2.01552643 62.47322308 -5.359375 58.24609375 C-7.62413814 54.30602637 -8.97435766 50.02914498 -10.46972656 45.75561523 C-14.39578453 34.86523702 -21.67677292 27.65415544 -31.97265625 22.515625 C-42.655182 18.14716945 -53.61413866 17.77359062 -64.44140625 21.73828125 C-74.41520268 26.27882129 -82.40521138 33.63866155 -86.78515625 43.765625 C-89.59905389 51.99279461 -90.30261893 59.8006544 -90.47265625 68.453125 C-90.50681641 69.64357422 -90.54097656 70.83402344 -90.57617188 72.06054688 C-90.65774291 74.96214518 -90.72718373 77.8634758 -90.78515625 80.765625 C-90.09585494 80.76285962 -89.40655363 80.76009424 -88.6963644 80.75724506 C-71.91172878 80.69094577 -55.12713473 80.64132525 -38.34239864 80.61018848 C-30.22536957 80.59473014 -22.10842799 80.57366041 -13.99145508 80.53930664 C-6.91537767 80.50937261 0.16063637 80.49004249 7.23677534 80.48335952 C10.98235798 80.47945402 14.72775932 80.47029724 18.47328377 80.44843483 C22.65813307 80.42420702 26.84266866 80.42365758 31.02758789 80.42504883 C32.26477066 80.414263 33.50195343 80.40347717 34.77662659 80.3923645 C41.89963807 80.41800779 47.64159623 80.5696327 53.17578125 85.51953125 C53.87574219 86.41478516 53.87574219 86.41478516 54.58984375 87.328125 C55.31300781 88.22724609 55.31300781 88.22724609 56.05078125 89.14453125 C58.40414603 92.42186811 58.34649126 94.68638964 58.36201477 98.6915741 C58.37274773 100.5863298 58.37274773 100.5863298 58.38369751 102.5193634 C58.38653793 103.92721533 58.38924964 105.33506752 58.3918457 106.74291992 C58.39810942 108.21952475 58.40475614 109.69612799 58.41175842 111.17272949 C58.42917917 115.19154245 58.43972359 119.2103435 58.44796395 123.22918487 C58.45311296 125.74022297 58.45918881 128.25125737 58.46547508 130.76229286 C58.48453213 138.61916525 58.49876088 146.47602823 58.50708705 154.3329193 C58.51685547 163.40117075 58.54316239 172.46917784 58.58358794 181.5373432 C58.61376079 188.54635423 58.62855712 195.55529527 58.63186806 202.56436998 C58.63421767 206.75037711 58.64316585 210.93612334 58.66832924 215.12206078 C58.69163491 219.06278089 58.69583337 223.00306882 58.68556786 226.94384003 C58.68507295 228.38737997 58.69138018 229.83094136 58.7051239 231.27441597 C58.82708045 244.84677011 58.82708045 244.84677011 54.21484375 250.765625 C49.20859096 255.40556661 45.28711104 255.91447234 38.68804932 255.91279602 C37.91455005 255.91647271 37.14105079 255.9201494 36.34411216 255.9239375 C33.74404987 255.93497832 31.14402754 255.93881885 28.54394531 255.94262695 C26.68296176 255.94889128 24.82197946 255.95553806 22.96099854 255.96253967 C17.8988885 255.97995162 12.83678791 255.9905019 7.77465534 255.9987452 C4.61250202 256.0038948 1.45035163 256.00997054 -1.71179962 256.01625633 C-11.60403316 256.03530869 -21.49625924 256.04953992 -31.3885076 256.0578683 C-42.81009735 256.06764284 -54.23149341 256.0939679 -65.6530149 256.13436919 C-74.47944039 256.16452027 -83.30581032 256.17933621 -92.13228631 256.18264931 C-97.40478368 256.18500087 -102.67707414 256.19397513 -107.9495163 256.21911049 C-112.91044796 256.24237863 -117.87103629 256.24662945 -122.83200836 256.23634911 C-124.65127199 256.23585334 -126.47055244 256.24218587 -128.2897644 256.25590515 C-130.77706294 256.27361089 -133.26312751 256.26652505 -135.75042725 256.25337219 C-136.82569314 256.26982606 -136.82569314 256.26982606 -137.92268157 256.28661233 C-143.37387961 256.21720456 -146.38101501 254.74673776 -150.78515625 251.765625 C-155.0519448 247.16198472 -155.90838426 243.89173486 -155.93232727 237.71942139 C-155.93948257 236.45487625 -155.94663788 235.19033112 -155.95401001 233.88746643 C-155.95685025 232.4832461 -155.95956198 231.0790255 -155.9621582 229.67480469 C-155.96842374 228.19805237 -155.97507062 226.72130163 -155.98207092 225.24455261 C-156.00310333 220.39221289 -156.01347267 215.53987289 -156.0234375 210.6875 C-156.02748539 209.0163598 -156.03160232 207.34521976 -156.03578758 205.6740799 C-156.05483761 197.82255029 -156.06906892 189.97103007 -156.07739955 182.1194818 C-156.08717109 173.05973044 -156.11348913 164.00022345 -156.15390044 154.9405582 C-156.18407231 147.93577326 -156.19886945 140.93105834 -156.20218056 133.92620969 C-156.20452988 129.74357081 -156.2134747 125.56119307 -156.23864174 121.37862396 C-156.26194631 117.44199435 -156.26614631 113.50579735 -156.25588036 109.56911659 C-156.25538546 108.12718834 -156.26169249 106.68523862 -156.2754364 105.24337578 C-156.39805913 91.61245128 -156.39805913 91.61245128 -151.78515625 85.765625 C-145.72629928 80.9690299 -141.05586332 80.61675646 -133.53515625 80.703125 C-132.79007813 80.70763672 -132.045 80.71214844 -131.27734375 80.71679688 C-129.44657985 80.72853254 -127.61585752 80.7464665 -125.78515625 80.765625 C-125.80610352 79.94586182 -125.82705078 79.12609863 -125.84863281 78.28149414 C-126.44095334 51.55771636 -124.72145098 28.46082457 -105.78515625 7.765625 C-105.19476563 7.08371094 -104.604375 6.40179688 -103.99609375 5.69921875 C-77.2076148 -23.42612752 -30.01186583 -24.07684047 0 0 Z M-120.78515625 115.765625 C-120.78515625 150.415625 -120.78515625 185.065625 -120.78515625 220.765625 C-73.26515625 220.765625 -25.74515625 220.765625 23.21484375 220.765625 C23.21484375 186.115625 23.21484375 151.465625 23.21484375 115.765625 C-24.30515625 115.765625 -71.82515625 115.765625 -120.78515625 115.765625 Z " fill="#000000" transform="translate(304.78515625,188.234375)"/>
<path d="M0 0 C5.55720437 3.87711933 8.48131885 8.26452043 9.6875 14.875 C9.98639085 18.52517774 10.01235961 22.15158255 10 25.8125 C10.01611328 26.76318359 10.03222656 27.71386719 10.04882812 28.69335938 C10.05387392 36.01480175 9.11671142 41.75172818 4.5 47.6875 C-0.05742948 51.23216737 -4.51310178 53.27827098 -10.375 52.8125 C-15.22405676 51.90746976 -19.53559856 50.19035643 -22.6015625 46.1953125 C-26.55488028 39.56852802 -26.52284292 33.68764599 -26.5625 26.1875 C-26.583125 25.23166016 -26.60375 24.27582031 -26.625 23.29101562 C-26.66346267 16.23792306 -26.1319385 9.41211375 -21.59375 3.71875 C-21.0059375 3.2753125 -20.418125 2.831875 -19.8125 2.375 C-19.2246875 1.9109375 -18.636875 1.446875 -18.03125 0.96875 C-12.73321114 -2.40272928 -5.73442844 -1.94754174 0 0 Z " fill="#000000" transform="translate(264.3125,331.125)"/>
</svg>
