<?xml version="1.0" encoding="UTF-8"?>
<svg version="1.1" xmlns="http://www.w3.org/2000/svg" width="512" height="512">
<path d="M0 0 C0.85247314 -0.00700928 1.70494629 -0.01401855 2.58325195 -0.02124023 C5.3995832 -0.03883756 8.21490864 -0.02719147 11.03125 -0.01367188 C12.98893425 -0.01636629 14.9466172 -0.02024829 16.90429688 -0.02526855 C21.00664007 -0.03116595 25.10863482 -0.02259281 29.2109375 -0.00390625 C34.47045628 0.01888337 39.72915864 0.00576159 44.98864746 -0.01819611 C49.0309871 -0.03264751 53.07313305 -0.0280511 57.11547852 -0.01768494 C59.05476986 -0.01501583 60.99407877 -0.01829385 62.93334961 -0.02760315 C65.6435405 -0.03775789 68.35240775 -0.02228315 71.0625 0 C71.86469971 -0.00809692 72.66689941 -0.01619385 73.4934082 -0.02453613 C77.00653496 0.02900014 79.13079167 0.23235312 82.02819824 2.29602051 C83.63247511 4.66719201 84.03580437 5.75771551 84.04882812 8.58007812 C84.06143677 9.36769531 84.07404541 10.1553125 84.08703613 10.96679688 C84.07489075 12.22943359 84.07489075 12.22943359 84.0625 13.51757812 C84.0663269 14.39027344 84.07015381 15.26296875 84.07409668 16.16210938 C84.0768149 18.00456905 84.06945994 19.84706737 84.05273438 21.68945312 C84.03132248 24.50803746 84.05253801 27.32407297 84.078125 30.14257812 C84.07548171 31.93425041 84.07035669 33.72592111 84.0625 35.51757812 C84.07059692 36.35933594 84.07869385 37.20109375 84.08703613 38.06835938 C84.02619461 41.86891335 83.96090431 43.90015594 81.74804688 47.08007812 C79.53125 48.51757812 79.53125 48.51757812 75.53125 48.51757812 C75.3370683 59.68834643 75.21917572 70.85712001 75.19703102 82.02963066 C75.18438356 87.21859922 75.14607282 92.40466317 75.04785156 97.59277344 C74.95390881 102.6058631 74.92902777 107.61509577 74.95078659 112.6289711 C74.94716361 114.53559835 74.91919947 116.44234858 74.86583328 118.34823227 C74.28399607 128.33783254 74.28399607 128.33783254 77.9025116 137.28295708 C81.68022152 140.81234405 85.98238685 143.12338406 90.53125 145.51757812 C92.18473562 146.67913975 93.8217336 147.86559658 95.421875 149.09960938 C96.50082031 149.89818359 96.50082031 149.89818359 97.6015625 150.71289062 C98.32085937 151.2465625 99.04015625 151.78023437 99.78125 152.33007812 C106.00374677 156.93150373 112.2501928 161.49643402 118.53125 166.01757812 C125.0652616 170.72870309 131.59058122 175.45144307 138.09375 180.20507812 C138.92197266 180.80578125 139.75019531 181.40648437 140.60351562 182.02539062 C141.36470703 182.58355469 142.12589844 183.14171875 142.91015625 183.71679688 C143.92444702 184.45675903 143.92444702 184.45675903 144.95922852 185.21166992 C147.64217694 187.4404463 147.55457291 188.75469435 147.90625 192.33007812 C148.13324485 195.4184028 147.67402583 196.34487026 145.66796875 198.77148438 C141.38616101 202.72737027 136.62309935 206.14464822 131.96875 209.64257812 C131.02322266 210.35800781 130.07769531 211.0734375 129.10351562 211.81054688 C126.58244127 213.71694232 124.05818493 215.6189607 121.53125 217.51757812 C120.81332275 218.08718262 120.09539551 218.65678711 119.35571289 219.24365234 C117.53125 220.51757812 117.53125 220.51757812 115.53125 220.51757812 C115.53125 269.35757813 115.53125 318.19757813 115.53125 368.51757812 C118.17125 368.51757812 120.81125 368.51757812 123.53125 368.51757812 C132.07841304 370.60225204 138.54523383 375.20821047 143.34375 382.51757812 C147.02893615 388.93028692 147.82305466 394.22246163 147.53125 401.51757812 C148.335625 401.55882812 149.14 401.60007812 149.96875 401.64257812 C157.43182633 403.47561442 163.05835939 408.16820705 167.3125 414.47851562 C172.57286095 423.27950414 173.12116229 433.59202796 170.83984375 443.52929688 C167.62796396 452.30485128 161.89217651 458.41396162 153.53125 462.51757812 C148.90167159 464.33886853 145.03769771 464.76948695 140.07419205 464.77484703 C139.34088751 464.77835311 138.60758298 464.78185918 137.8520571 464.7854715 C135.39350345 464.79477944 132.935187 464.78986377 130.47662354 464.78500366 C128.69665641 464.78874023 126.91669093 464.79334178 125.13672805 464.79873431 C120.2440916 464.81097896 115.35152346 464.81070211 110.45887518 464.80834556 C105.18265572 464.80793776 99.90645826 464.81897301 94.63024902 464.82846069 C84.29245272 464.84507982 73.95467922 464.85057066 63.61687067 464.85168545 C55.21415875 464.85263551 46.81145435 464.85674372 38.40874481 464.8630867 C14.58903424 464.88070178 -9.2306583 464.88992518 -33.05037543 464.88842575 C-34.97691909 464.88830588 -34.97691909 464.88830588 -36.94238281 464.88818359 C-38.22831228 464.88810183 -39.51424175 464.88802007 -40.83913878 464.88793583 C-61.68011402 464.88712291 -82.521017 464.90626152 -103.36197135 464.93446033 C-124.75786954 464.96318171 -146.15373247 464.97700102 -167.54965043 464.97527277 C-179.56319877 464.97460861 -191.57667135 464.98011272 -203.59020233 465.00162888 C-213.81889027 465.01983085 -224.04746811 465.02419607 -234.27616522 465.01061003 C-239.49460951 465.0040754 -244.71284253 465.00398119 -249.93126678 465.02131653 C-254.7107057 465.03703022 -259.48976553 465.03420089 -264.26919511 465.01674826 C-265.99596725 465.01367463 -267.72276757 465.01732445 -269.44950649 465.02846842 C-280.974316 465.0979063 -291.09575997 464.47855466 -299.9375 456.22070312 C-307.33116291 447.99713928 -309.05065067 439.28312178 -308.78125 428.50585938 C-308.35591893 420.98636047 -305.4349851 414.62449133 -300.3125 409.12304688 C-295.6073733 405.02599799 -290.79577476 401.51757812 -284.46875 401.51757812 C-284.55125 400.23882812 -284.63375 398.96007812 -284.71875 397.64257812 C-284.69386752 389.72995062 -281.54403413 382.80083689 -276.171875 377.04882812 C-268.88162513 370.49429154 -262.2902275 368.51757812 -252.46875 368.51757812 C-252.46875 319.67757812 -252.46875 270.83757812 -252.46875 220.51757812 C-253.78875 219.85757813 -255.10875 219.19757813 -256.46875 218.51757812 C-257.91091514 217.5309767 -259.33164292 216.51260781 -260.734375 215.47070312 C-261.54261719 214.87257812 -262.35085938 214.27445313 -263.18359375 213.65820312 C-264.43849609 212.72234375 -264.43849609 212.72234375 -265.71875 211.76757812 C-266.53988281 211.15914062 -267.36101562 210.55070313 -268.20703125 209.92382812 C-269.83863913 208.7136974 -271.4682306 207.50084282 -273.09570312 206.28515625 C-274.66691732 205.11482798 -276.24369982 203.95193538 -277.82617188 202.796875 C-278.54869141 202.26642578 -279.27121094 201.73597656 -280.015625 201.18945312 C-280.65854492 200.72120117 -281.30146484 200.25294922 -281.96386719 199.77050781 C-284.59684668 197.57835162 -284.49884737 196.21158815 -284.84375 192.70507812 C-285.07747629 189.52517041 -284.58377144 188.65437878 -282.48828125 186.16210938 C-278.83998987 182.7952981 -274.79629075 179.92547057 -270.78125 177.01757812 C-269.52538086 176.10008789 -269.52538086 176.10008789 -268.24414062 175.1640625 C-261.92780751 170.55612902 -255.58661983 165.98219163 -249.24145508 161.4140625 C-243.78969282 157.48542084 -238.37300567 153.51126136 -232.96875 149.51757812 C-226.82858731 144.98006801 -220.66520339 140.47791236 -214.46875 136.01757812 C-205.08094227 129.25774063 -195.77178505 122.39340468 -186.46875 115.51757812 C-176.4286376 108.09698139 -166.37077492 100.70561773 -156.23803711 93.41186523 C-150.78768063 89.48358932 -145.37191826 85.51045777 -139.96875 81.51757812 C-133.0917144 76.43552735 -126.17841917 71.40755015 -119.23828125 66.41210938 C-113.78791072 62.48365732 -108.37205689 58.51046299 -102.96875 54.51757812 C-96.49324912 49.7333194 -89.99554023 44.98166467 -83.46875 40.26757812 C-82.70884766 39.7184375 -81.94894531 39.16929688 -81.16601562 38.60351562 C-71.24517054 31.45106739 -71.24517054 31.45106739 -64.46875 32.51757812 C-62.02667184 33.83368594 -60.21455565 35.00123244 -58.09375 36.70507812 C-56.87155336 37.63146606 -55.64887296 38.55721601 -54.42578125 39.48242188 C-53.78463379 39.97726074 -53.14348633 40.47209961 -52.48291016 40.98193359 C-48.97385655 43.65732113 -45.36951915 46.20006932 -41.78125 48.76757812 C-29.58827802 57.56397403 -17.49644324 66.49680819 -5.46875 75.51757812 C-5.13875 66.60757813 -4.80875 57.69757813 -4.46875 48.51757812 C-6.44875 48.18757813 -8.42875 47.85757813 -10.46875 47.51757812 C-13.09068068 43.5846821 -12.79268556 40.18229937 -12.8046875 35.61523438 C-12.8113443 34.74112411 -12.8180011 33.86701385 -12.82485962 32.96641541 C-12.83498288 31.11801254 -12.83967674 29.26957314 -12.83935547 27.42114258 C-12.84372854 24.59395125 -12.88005002 21.7683213 -12.91796875 18.94140625 C-12.92383701 17.14518763 -12.92780634 15.3489616 -12.9296875 13.55273438 C-12.94405853 12.70783951 -12.95842957 11.86294464 -12.97323608 10.9924469 C-12.96708282 10.20160202 -12.96092957 9.41075714 -12.95458984 8.59594727 C-12.95743988 7.90328262 -12.96028992 7.21061798 -12.96322632 6.4969635 C-11.30121786 -0.15604519 -5.81676043 -0.0587109 0 0 Z M3.53125 16.51757812 C3.53125 21.79757813 3.53125 27.07757813 3.53125 32.51757812 C24.65125 32.51757812 45.77125 32.51757812 67.53125 32.51757812 C67.53125 27.23757812 67.53125 21.95757812 67.53125 16.51757812 C46.41125 16.51757812 25.29125 16.51757812 3.53125 16.51757812 Z M11.53125 48.51757812 C8.54426319 71.20623714 8.54426319 71.20623714 14.71875 93.64648438 C18.1559799 96.56593968 22.00621213 98.52899089 26.11035156 100.35742188 C30.20526506 102.31980882 33.70608698 105.07497797 37.34375 107.76757812 C38.74477895 108.75048548 40.1483711 109.72975091 41.5546875 110.70507812 C46.24362526 113.99254197 50.7846045 117.46103334 55.30859375 120.97070312 C57.35351994 122.7079893 57.35351994 122.7079893 59.53125 122.51757812 C59.53125 98.09757812 59.53125 73.67757812 59.53125 48.51757812 C43.69125 48.51757812 27.85125 48.51757812 11.53125 48.51757812 Z M-73.1875 54.12304688 C-73.94546875 54.68765625 -74.7034375 55.25226563 -75.484375 55.83398438 C-76.30421875 56.45144531 -77.1240625 57.06890625 -77.96875 57.70507812 C-79.70775496 59.00142727 -81.44735194 60.29698257 -83.1875 61.59179688 C-84.07179687 62.25099121 -84.95609375 62.91018555 -85.8671875 63.58935547 C-89.70779455 66.43593152 -93.5861555 69.22869046 -97.46875 72.01757812 C-103.66576637 76.47711962 -109.82859821 80.98007607 -115.96875 85.51757812 C-122.8457856 90.5996289 -129.75908083 95.6276061 -136.69921875 100.62304688 C-142.14958838 104.55149828 -147.56549016 108.52463081 -152.96875 112.51757812 C-159.10891269 117.05508824 -165.27229661 121.55724389 -171.46875 126.01757812 C-180.85655773 132.77741562 -190.16571495 139.64175157 -199.46875 146.51757812 C-209.50000578 153.93162897 -219.54754823 161.31859411 -229.6730957 168.60351562 C-236.18927309 173.29820514 -242.65384873 178.06138915 -249.1015625 182.84960938 C-253.1575815 185.85302829 -257.23936997 188.76309336 -261.46875 191.51757812 C-259.99757969 195.93108905 -256.86796418 197.61893878 -253.21875 200.33007812 C-252.54972656 200.85794922 -251.88070312 201.38582031 -251.19140625 201.9296875 C-247.49203842 204.84137831 -247.49203842 204.84137831 -243.02734375 205.23632812 C-239.19449107 202.6615874 -235.46485739 199.98944316 -231.78125 197.20507812 C-230.06960179 195.92694205 -228.35734803 194.64961655 -226.64453125 193.37304688 C-225.77908691 192.7264209 -224.91364258 192.07979492 -224.02197266 191.41357422 C-220.19944812 188.575008 -216.33594676 185.79480768 -212.46875 183.01757812 C-206.27168151 178.55810705 -200.1089796 174.05497426 -193.96875 169.51757812 C-184.1147988 162.23798299 -174.18300404 155.06927299 -164.23925781 147.91308594 C-155.78281964 141.82519062 -147.34986091 135.70889071 -138.96875 129.51757812 C-129.11467179 122.23815191 -119.18300666 115.06927488 -109.23925781 107.91308594 C-107.0026486 106.30292307 -104.76671525 104.6918288 -102.53125 103.08007812 C-101.80284912 102.55502686 -101.07444824 102.02997559 -100.32397461 101.48901367 C-93.67294688 96.68472376 -87.07074149 91.81494458 -80.48461914 86.92211914 C-79.34754517 86.07991821 -79.34754517 86.07991821 -78.1875 85.22070312 C-77.51654297 84.7221582 -76.84558594 84.22361328 -76.15429688 83.70996094 C-72.44627331 81.08684578 -68.88885652 80.81516191 -64.46875 81.51757812 C-61.57886778 82.86323182 -59.17146024 84.69805854 -56.65625 86.64257812 C-55.92978271 87.17955322 -55.20331543 87.71652832 -54.45483398 88.26977539 C-52.90695013 89.41645989 -51.36515723 90.57140544 -49.82910156 91.73388672 C-46.71159409 94.08975242 -43.55997624 96.39770059 -40.40917969 98.70874023 C-38.01076849 100.47011962 -35.61827567 102.23930506 -33.2265625 104.00976562 C-28.64183856 107.39733603 -24.03012795 110.74620971 -19.40625 114.08007812 C-18.66697266 114.61310547 -17.92769531 115.14613281 -17.16601562 115.6953125 C-14.93411063 117.30345365 -12.70156209 118.91069671 -10.46875 120.51757812 C-0.46324602 127.7182102 9.50813478 134.96008599 19.42333984 142.28466797 C27.74627749 148.42677446 36.13557215 154.47548496 44.53125 160.51757812 C54.52866096 167.71238592 64.49253337 174.94767985 74.39916992 182.26708984 C82.08510875 187.9397615 89.79627045 193.58248773 97.59179688 199.10400391 C98.89678407 200.05514638 100.17461057 201.04458272 101.42382812 202.06787109 C103.40685575 203.71434207 103.40685575 203.71434207 106.53125 205.51757812 C111.05486761 204.84220131 114.78731552 201.29294505 118.34375 198.51757812 C119.2399707 197.84082031 119.2399707 197.84082031 120.15429688 197.15039062 C121.65472581 195.9912021 123.09849504 194.75943894 124.53125 193.51757812 C124.53125 192.85757813 124.53125 192.19757813 124.53125 191.51757812 C122.62648102 190.0136496 120.71943184 188.63471072 118.71875 187.26757812 C117.42472461 186.36414179 116.13181479 185.45910613 114.83984375 184.55273438 C114.1422998 184.06434082 113.44475586 183.57594727 112.72607422 183.07275391 C108.86953217 180.34014291 105.07864431 177.5189998 101.28125 174.70507812 C95.05853047 170.103969 88.81271168 165.53815972 82.53125 161.01757812 C75.52905396 155.9775612 68.57511664 150.87544368 61.63671875 145.74804688 C56.29267179 141.80342302 50.92206451 137.89799698 45.53125 134.01757812 C35.33768537 126.6775428 25.23723373 119.21303206 15.13574219 111.74707031 C5.89320339 104.91792394 -3.3726328 98.12550883 -12.69946289 91.41186523 C-18.14981982 87.483589 -23.56555823 83.51042657 -28.96875 79.51757812 C-36.022211 74.30572537 -43.1065486 69.13938841 -50.2265625 64.01879883 C-53.48784559 61.67329046 -56.7438113 59.32305572 -59.96875 56.92773438 C-60.95875 56.19425781 -61.94875 55.46078125 -62.96875 54.70507812 C-63.8040625 54.07988281 -64.639375 53.4546875 -65.5 52.81054688 C-68.92371832 50.56203346 -70.17330674 51.85986839 -73.1875 54.12304688 Z M-72.93359375 101.86914062 C-73.64128906 102.38347656 -74.34898437 102.8978125 -75.078125 103.42773438 C-75.84640625 103.99363281 -76.6146875 104.55953125 -77.40625 105.14257812 C-78.60701172 106.01849609 -78.60701172 106.01849609 -79.83203125 106.91210938 C-82.38187824 108.77484807 -84.92612985 110.64498916 -87.46875 112.51757812 C-88.26684082 113.10506836 -89.06493164 113.69255859 -89.88720703 114.29785156 C-93.0451913 116.62382719 -96.2020605 118.9513001 -99.35693359 121.28149414 C-108.4173928 127.96897594 -117.55808675 134.54420111 -126.69824219 141.12207031 C-135.15468036 147.20996563 -143.58763909 153.32626554 -151.96875 159.51757812 C-161.82282821 166.79700434 -171.75449334 173.96588137 -181.69824219 181.12207031 C-190.94788287 187.78100201 -200.16180122 194.48393328 -209.32568359 201.26049805 C-215.7970268 206.03996492 -222.31440779 210.75352648 -228.859375 215.43164062 C-229.56707031 215.93953125 -230.27476562 216.44742188 -231.00390625 216.97070312 C-231.626604 217.41575195 -232.24930176 217.86080078 -232.89086914 218.31933594 C-234.61067627 219.56917749 -234.61067627 219.56917749 -236.46875 221.51757812 C-236.66241404 224.50107906 -236.72907427 227.39146704 -236.70925903 230.37588501 C-236.71182231 231.76889786 -236.71182231 231.76889786 -236.71443737 233.19005239 C-236.71774768 236.32095176 -236.70670327 239.4516397 -236.69580078 242.58251953 C-236.695237 244.81923925 -236.69555258 247.05595933 -236.69668579 249.29267883 C-236.6972616 255.38124135 -236.68547051 261.46972569 -236.67153788 267.55826998 C-236.65906838 273.91509388 -236.65786301 280.27191941 -236.65548706 286.62875366 C-236.64996931 297.30362466 -236.63746151 307.97846465 -236.61962891 318.65332031 C-236.6012782 329.64973814 -236.58714067 340.64614811 -236.57861328 351.64257812 C-236.57807729 352.32701532 -236.57754129 353.01145251 -236.57698905 353.71663022 C-236.57236352 359.67000516 -236.56805785 365.62338032 -236.56378365 371.57675552 C-236.54495549 397.22372348 -236.50511721 422.87061516 -236.46875 448.51757812 C-178.38875 448.51757812 -120.30875 448.51757812 -60.46875 448.51757812 C-60.43136719 434.98113281 -60.39398438 421.4446875 -60.35546875 407.49804688 C-60.32520796 398.94400001 -60.2941955 390.38996692 -60.25976562 381.8359375 C-60.20520723 368.24602482 -60.15379786 354.65615046 -60.12231445 341.06616211 C-60.09937442 331.17006143 -60.06602137 321.27406067 -60.02004844 311.37803918 C-59.99606219 306.13587818 -59.97736889 300.89381647 -59.97113609 295.65160179 C-59.96510959 290.72107599 -59.9451985 285.79080443 -59.91447449 280.86037254 C-59.90565504 279.04752362 -59.90197971 277.23464152 -59.90374184 275.421772 C-59.90538453 272.95273369 -59.88878233 270.48447979 -59.86747742 268.01554871 C-59.87474878 266.93140907 -59.87474878 266.93140907 -59.88216704 265.82536763 C-59.84202726 263.02027885 -59.75989775 260.98211632 -58.24984455 258.5727644 C-55.90042855 257.18088348 -54.30191578 257.1401423 -51.57250977 257.1366272 C-50.56302277 257.12816772 -49.55353577 257.11970825 -48.51345825 257.11099243 C-46.85357376 257.12010147 -46.85357376 257.12010147 -45.16015625 257.12939453 C-43.99410858 257.12413757 -42.82806091 257.11888062 -41.62667847 257.11346436 C-37.76140052 257.10023004 -33.89653235 257.10901494 -30.03125 257.11914062 C-27.35228968 257.11712088 -24.67334194 257.11421517 -21.99438477 257.11044312 C-16.37544288 257.10498392 -10.75661925 257.11218139 -5.13769531 257.12646484 C1.3601819 257.14279179 7.85777672 257.13750339 14.35564709 257.12098563 C19.93280296 257.10737534 25.50987379 257.10544882 31.0870409 257.11330163 C34.41883074 257.11798073 37.75045858 257.11742028 41.08224487 257.10869217 C44.79591138 257.10109939 48.50903065 257.11265218 52.22265625 257.12939453 C53.32924591 257.12332184 54.43583557 257.11724915 55.57595825 257.11099243 C56.58544525 257.1194519 57.59493225 257.12791138 58.63500977 257.1366272 C59.5132692 257.13775827 60.39152863 257.13888935 61.29640198 257.1400547 C63.53125 257.51757812 63.53125 257.51757812 65.31234455 258.5727644 C67.18714982 261.56409324 66.9529315 264.59315978 66.92997742 268.01554871 C66.93662424 268.78581982 66.94327107 269.55609094 66.95011932 270.34970361 C66.96881701 272.93859116 66.96613953 275.52701929 66.96362305 278.1159668 C66.97263609 279.96860918 66.98296217 281.82124557 66.99450684 283.6738739 C67.02215677 288.71074131 67.03137218 293.74749582 67.03736091 298.78442931 C67.04672382 304.04556641 67.07292545 309.30661848 67.09736633 314.56770325 C67.14109247 324.53363974 67.16960185 334.49955978 67.19268972 344.46556312 C67.21970865 355.81008472 67.26362216 367.15452104 67.30897844 378.49898183 C67.40191229 401.83846957 67.47295367 425.1779804 67.53125 448.51757812 C78.09125 448.51757812 88.65125 448.51757812 99.53125 448.51757812 C99.7574051 419.73547033 99.93639436 390.95354719 100.04190329 362.17072541 C100.05441007 358.77120477 100.06735332 355.37168593 100.08056641 351.97216797 C100.08318951 351.2953969 100.08581261 350.61862583 100.08851521 349.92134655 C100.13200618 338.96894276 100.21083854 328.01706487 100.30277796 317.06497288 C100.39635723 305.82361977 100.45110258 294.58252897 100.47213495 283.34076691 C100.48517416 277.02761764 100.51582263 270.71566033 100.58855057 264.40289307 C100.65646205 258.46000752 100.67735939 252.51880396 100.66232681 246.57556725 C100.66507649 244.39543196 100.6849511 242.21524008 100.72330475 240.03544044 C101.33959127 228.69569557 101.33959127 228.69569557 97.37919235 218.51570129 C94.84370055 216.45077484 92.44194087 214.98656112 89.53125 213.51757812 C88.08658716 212.48576897 86.6560381 211.43346254 85.25 210.34960938 C83.84561373 209.34050012 82.43931573 208.33404684 81.03125 207.33007812 C79.45700516 206.19990613 77.88278717 205.06969674 76.30859375 203.93945312 C75.51565918 203.37162109 74.72272461 202.80378906 73.90576172 202.21875 C70.12963575 199.51341936 66.36076455 196.79807686 62.59375 194.08007812 C61.85447266 193.54680908 61.11519531 193.01354004 60.35351562 192.46411133 C54.08475082 187.93418248 47.85996893 183.34593775 41.63916016 178.75048828 C33.31622251 172.60838179 24.92692785 166.55967129 16.53125 160.51757812 C6.52574602 153.31694605 -3.44563478 146.07507026 -13.36083984 138.75048828 C-20.93529596 133.16074124 -28.56413234 127.64814353 -36.20410156 122.1484375 C-39.32990256 119.89742945 -42.45319083 117.64295157 -45.57592773 115.38769531 C-47.10879434 114.28088372 -48.64214689 113.17474477 -50.17602539 112.06933594 C-53.45474169 109.70483849 -56.72734956 107.33403559 -59.97265625 104.92382812 C-60.96136719 104.19164063 -61.95007813 103.45945312 -62.96875 102.70507812 C-63.8040625 102.07988281 -64.639375 101.4546875 -65.5 100.81054688 C-68.79160683 98.64879715 -69.9960581 99.72024341 -72.93359375 101.86914062 Z M-44.46875 272.51757812 C-44.46875 330.59757812 -44.46875 388.67757813 -44.46875 448.51757812 C-12.78875 448.51757812 18.89125 448.51757812 51.53125 448.51757812 C51.53125 390.43757812 51.53125 332.35757812 51.53125 272.51757812 C19.85125 272.51757812 -11.82875 272.51757812 -44.46875 272.51757812 Z M-263.46875 389.51757812 C-267.34453151 394.21296935 -267.93076545 397.74288418 -267.53125 403.64257812 C-267.09702144 410.7068935 -267.09702144 410.7068935 -268.5703125 413.91992188 C-271.18367706 416.11923485 -273.43036712 416.39466519 -276.78125 416.95507812 C-282.49217388 418.12524516 -285.5657579 419.19264094 -289.46875 423.51757812 C-292.17883753 428.00291462 -292.11454015 432.41583597 -291.46875 437.51757812 C-289.12082342 442.39404102 -286.18114146 444.92095426 -281.46875 447.51757812 C-271.98416962 449.4144942 -262.14116209 448.51757812 -252.46875 448.51757812 C-252.46875 427.72757812 -252.46875 406.93757813 -252.46875 385.51757812 C-258.0227992 385.51757812 -259.27622596 386.12787784 -263.46875 389.51757812 Z M115.53125 385.51757812 C115.53125 406.30757813 115.53125 427.09757812 115.53125 448.51757812 C134.6924182 450.01933532 134.6924182 450.01933532 151.46875 443.20507812 C154.62750131 439.08912945 155.61709927 436.14871434 155.34375 430.95507812 C153.947469 425.04773545 151.48217047 421.9583989 146.53125 418.51757812 C143.20018412 417.58197609 139.89907767 417.01633076 136.4921875 416.42382812 C133.53125 415.51757812 133.53125 415.51757812 131.62890625 413.91601562 C129.80468837 409.93000219 130.44718341 405.80694497 130.73632812 401.53710938 C130.93948142 396.27494358 129.86365342 393.55468334 126.53125 389.51757812 C122.33872596 386.12787784 121.0852992 385.51757812 115.53125 385.51757812 Z " fill="#000000" transform="translate(324.46875,15.482421875)"/>
<path d="M0 0 C0.87479004 -0.0112793 1.74958008 -0.02255859 2.65087891 -0.03417969 C4.07859619 -0.0220343 4.07859619 -0.0220343 5.53515625 -0.00964355 C6.54368652 -0.01665283 7.5522168 -0.02366211 8.59130859 -0.03088379 C11.92703739 -0.04849761 15.26191873 -0.03682853 18.59765625 -0.02331543 C20.91406416 -0.02600936 23.23047097 -0.02989094 25.546875 -0.03491211 C30.40245323 -0.04081177 35.25773721 -0.03222881 40.11328125 -0.0135498 C46.34130271 0.00923961 52.5686347 -0.00388091 58.79663086 -0.02783966 C63.5801311 -0.04228475 68.36346752 -0.03769748 73.14697266 -0.02732849 C75.44352296 -0.02465766 77.74008808 -0.02794343 80.03662109 -0.0372467 C83.24486765 -0.0473907 86.45199331 -0.03194026 89.66015625 -0.00964355 C91.08787354 -0.02178894 91.08787354 -0.02178894 92.54443359 -0.03417969 C93.85661865 -0.01726074 93.85661865 -0.01726074 95.1953125 0 C95.95336182 0.0015081 96.71141113 0.0030162 97.49243164 0.00457001 C100.52136695 0.72879615 101.71706138 2.06553239 103.59765625 4.50793457 C104.10102081 6.86303711 104.10102081 6.86303711 104.10559082 9.5177002 C104.11687012 10.5271167 104.12814941 11.5365332 104.13977051 12.57653809 C104.13167358 13.67796143 104.12357666 14.77938477 104.11523438 15.91418457 C104.12224365 17.07877197 104.12925293 18.24335938 104.13647461 19.4432373 C104.15410057 23.2983779 104.14241466 27.15278631 104.12890625 31.00793457 C104.13159982 33.6830741 104.13547478 36.35819126 104.14050293 39.0333252 C104.14777822 44.64213007 104.13819496 50.2507242 104.11914062 55.85949707 C104.09737182 62.34211364 104.1044233 68.82422699 104.12644625 75.30683136 C104.14460384 80.87470046 104.14715691 86.44241816 104.13669157 92.01030731 C104.13045847 95.33489127 104.13118823 98.65918709 104.14283752 101.98376465 C104.15297373 105.69008614 104.1375411 109.39543564 104.11523438 113.10168457 C104.1233313 114.20310791 104.13142822 115.30453125 104.13977051 116.43933105 C104.12285156 117.95345581 104.12285156 117.95345581 104.10559082 119.49816895 C104.10408272 120.37420776 104.10257462 121.25024658 104.10102081 122.15283203 C103.41787667 125.34907315 102.16738738 126.53930206 99.59765625 128.50793457 C97.49243164 129.01129913 97.49243164 129.01129913 95.1953125 129.01586914 C93.88312744 129.03278809 93.88312744 129.03278809 92.54443359 129.05004883 C91.59262207 129.0419519 90.64081055 129.03385498 89.66015625 129.0255127 C88.65162598 129.03252197 87.6430957 129.03953125 86.60400391 129.04675293 C83.26827511 129.06436675 79.93339377 129.05269767 76.59765625 129.03918457 C74.28124834 129.0418785 71.96484153 129.04576008 69.6484375 129.05078125 C64.79285927 129.05668091 59.93757529 129.04809795 55.08203125 129.02941895 C48.85400979 129.00662953 42.6266778 129.01975005 36.39868164 129.0437088 C31.6151814 129.0581539 26.83184498 129.05356662 22.04833984 129.04319763 C19.75178954 129.0405268 17.45522442 129.04381257 15.15869141 129.05311584 C11.95044485 129.06325984 8.74331919 129.0478094 5.53515625 129.0255127 C4.58334473 129.03360962 3.6315332 129.04170654 2.65087891 129.05004883 C1.77608887 129.03876953 0.90129883 129.02749023 0 129.01586914 C-0.75804932 129.01436104 -1.51609863 129.01285294 -2.29711914 129.01129913 C-5.32605445 128.28707299 -6.52174888 126.95033675 -8.40234375 124.50793457 C-8.90570831 122.15283203 -8.90570831 122.15283203 -8.91027832 119.49816895 C-8.92719727 117.98404419 -8.92719727 117.98404419 -8.94445801 116.43933105 C-8.93231262 114.78719604 -8.93231262 114.78719604 -8.91992188 113.10168457 C-8.92693115 111.93709717 -8.93394043 110.77250977 -8.94116211 109.57263184 C-8.95878807 105.71749124 -8.94710216 101.86308283 -8.93359375 98.00793457 C-8.93628732 95.33279504 -8.94016228 92.65767788 -8.94519043 89.98254395 C-8.95246572 84.37373907 -8.94288246 78.76514494 -8.92382812 73.15637207 C-8.90205932 66.6737555 -8.9091108 60.19164215 -8.93113375 53.70903778 C-8.94929134 48.14116868 -8.95184441 42.57345098 -8.94137907 37.00556183 C-8.93514597 33.68097787 -8.93587573 30.35668205 -8.94752502 27.03210449 C-8.95766123 23.325783 -8.9422286 19.6204335 -8.91992188 15.91418457 C-8.9280188 14.81276123 -8.93611572 13.71133789 -8.94445801 12.57653809 C-8.93317871 11.56712158 -8.92189941 10.55770508 -8.91027832 9.5177002 C-8.90877022 8.64166138 -8.90726212 7.76562256 -8.90570831 6.86303711 C-7.87198287 2.02652378 -4.76054779 0.00947088 0 0 Z M7.59765625 16.50793457 C7.59765625 29.70793457 7.59765625 42.90793457 7.59765625 56.50793457 C18.15765625 56.50793457 28.71765625 56.50793457 39.59765625 56.50793457 C39.59765625 43.30793457 39.59765625 30.10793457 39.59765625 16.50793457 C29.03765625 16.50793457 18.47765625 16.50793457 7.59765625 16.50793457 Z M55.59765625 16.50793457 C55.59765625 29.70793457 55.59765625 42.90793457 55.59765625 56.50793457 C66.15765625 56.50793457 76.71765625 56.50793457 87.59765625 56.50793457 C87.59765625 43.30793457 87.59765625 30.10793457 87.59765625 16.50793457 C77.03765625 16.50793457 66.47765625 16.50793457 55.59765625 16.50793457 Z M7.59765625 72.50793457 C7.59765625 85.70793457 7.59765625 98.90793457 7.59765625 112.50793457 C18.15765625 112.50793457 28.71765625 112.50793457 39.59765625 112.50793457 C39.59765625 99.30793457 39.59765625 86.10793457 39.59765625 72.50793457 C29.03765625 72.50793457 18.47765625 72.50793457 7.59765625 72.50793457 Z M55.59765625 72.50793457 C55.59765625 85.70793457 55.59765625 98.90793457 55.59765625 112.50793457 C66.15765625 112.50793457 76.71765625 112.50793457 87.59765625 112.50793457 C87.59765625 99.30793457 87.59765625 86.10793457 87.59765625 72.50793457 C77.03765625 72.50793457 66.47765625 72.50793457 55.59765625 72.50793457 Z " fill="#000000" transform="translate(128.40234375,271.4920654296875)"/>
<path d="M0 0 C2.5 1.5 2.5 1.5 4 4 C4.791013 8.02098277 4.62153384 10.96411027 2.5 14.5 C-1.03588973 16.62153384 -3.97901723 16.791013 -8 16 C-10.5 14.5 -10.5 14.5 -12 12 C-12.791013 7.97901723 -12.62153384 5.03588973 -10.5 1.5 C-6.96411027 -0.62153384 -4.02098277 -0.791013 0 0 Z " fill="#000000" transform="translate(308,360)"/>
</svg>
