<?xml version="1.0" encoding="UTF-8"?>
<svg version="1.1" xmlns="http://www.w3.org/2000/svg" width="512" height="512">
<path d="M0 0 C1.89863931 0.71061789 3.77297142 1.48800065 5.625 2.3125 C18.2507187 7.81481939 30.13489897 8.2890427 43.734375 8.66601562 C64.10648741 9.2452656 80.54022395 12.90603939 95.25 28.125 C107.69098695 42.99287352 110.55906433 61.22208997 109 80 C106.46413183 99.88062602 100.46630796 116.67146641 86 131 C84.515 131.99 84.515 131.99 83 133 C84.25284074 140.03610123 88.57018387 146.47806882 94 151 C101.79287782 155.32660306 110.62228581 157.55238702 119.125 160.0625 C122.54604516 161.11711699 125.96227124 162.18555365 129.37594604 163.26377869 C131.48776273 163.92606012 133.60457146 164.57270623 135.72683716 165.20069885 C145.70053579 168.23752331 152.78096432 172.53520144 159 181 C162.72812546 188.11733043 162.16021017 196.25959244 162.16796875 204.08203125 C162.17129715 205.25078293 162.17462555 206.41953461 162.17805481 207.623703 C162.18310877 210.09231168 162.18546361 212.56092717 162.18530273 215.02954102 C162.18748617 218.7886899 162.20565015 222.54754373 162.22460938 226.30664062 C162.22754429 228.7109365 162.22952843 231.11523377 162.23046875 233.51953125 C162.23765427 234.63544144 162.24483978 235.75135162 162.25224304 236.90107727 C162.221895 247.36757446 161.11109013 255.93368881 154 264 C147.18928971 269.89170502 140.56366646 272.33923782 131.625 271.9375 C123.4484504 270.92958738 117.24407178 267.98757142 112 261.5625 C107.45538475 255.45567326 106.70689522 249.69423178 106.8046875 242.3203125 C106.80893234 241.10116653 106.80893234 241.10116653 106.81326294 239.85739136 C106.82439381 237.27977325 106.84948485 234.70251181 106.875 232.125 C106.88503899 230.36979671 106.89416323 228.61458794 106.90234375 226.859375 C106.92430985 222.57278074 106.95879022 218.2864507 107 214 C105.35 213.67 103.7 213.34 102 213 C99.82122919 219.17866515 98.5629017 225.47692553 97.28564453 231.88549805 C96.87652683 233.92987037 96.45617197 235.97172109 96.03515625 238.01367188 C95.77014408 239.33059065 95.50579904 240.64764389 95.2421875 241.96484375 C95.0035498 243.1468335 94.76491211 244.32882324 94.51904297 245.54663086 C93.3543679 253.29560959 94.62841149 260.08202556 96.1875 267.6640625 C96.40946045 268.77429779 96.6314209 269.88453308 96.86010742 271.02841187 C97.56707524 274.56191531 98.282739 278.09357268 99 281.625 C99.71658747 285.16369168 100.43115905 288.70273803 101.13989258 292.24301147 C101.58029136 294.44206805 102.02526738 296.64021409 102.4753418 298.83731079 C102.77565308 300.33444107 102.77565308 300.33444107 103.08203125 301.86181641 C103.25968018 302.73560944 103.4373291 303.60940247 103.62036133 304.50967407 C104.00702694 307.04609478 104.06744936 309.43846717 104 312 C104.66245728 312.17328323 105.32491455 312.34656647 106.00744629 312.52510071 C112.87592621 314.3553625 119.61298293 316.44897564 126.34375 318.73046875 C127.39292603 319.08458328 128.44210205 319.43869781 129.52307129 319.80354309 C131.73211731 320.55063423 133.94056552 321.29949516 136.1484375 322.05004883 C139.46107511 323.1742897 142.77725768 324.28758126 146.09375 325.40039062 C156.09038958 328.77554567 166.05102203 332.24275868 175.84375 336.17578125 C176.61827515 336.47300583 177.39280029 336.77023041 178.1907959 337.07646179 C183.07541018 339.1069878 185.53887699 341.10869918 188 346 C190.88539911 356.20785217 184.40271293 368.02962998 180.8125 377.375 C180.13052548 379.18949013 179.45017466 381.00459139 178.77148438 382.8203125 C176.87102013 387.88925424 174.94077605 392.94637662 173 398 C172.72637634 398.71385864 172.45275269 399.42771729 172.1708374 400.16320801 C170.78543691 403.77736268 169.39573021 407.38982213 168 411 C168.9065332 410.98428955 169.81306641 410.9685791 170.74707031 410.95239258 C174.16900561 410.90071028 177.59051541 410.86338508 181.01269531 410.83520508 C182.48281473 410.82028571 183.952891 410.79994273 185.42285156 410.77368164 C200.65639595 410.50870525 215.65475346 412.45926616 227.34375 423.2109375 C238.38892717 435.14181283 241.59656813 447.0898438 241.34375 462.85546875 C240.89866069 472.97939608 236.7006166 481.48264157 230 489 C229.52304687 489.59167969 229.04609375 490.18335938 228.5546875 490.79296875 C222.95882054 497.16213391 213.40932483 502.4431392 205 504 C202.4376046 504.09510055 199.90277663 504.13767451 197.34057808 504.13142776 C196.56110839 504.1334804 195.78163869 504.13553303 194.97854871 504.13764787 C192.35100935 504.14332924 189.72352222 504.14185922 187.09597778 504.14044189 C185.19939293 504.14302487 183.30280863 504.14603784 181.40622509 504.1494453 C176.18211949 504.15752632 170.95802763 504.15930548 165.73391652 504.16004276 C160.10464054 504.16189137 154.47537171 504.16943765 148.84609985 504.17617798 C136.53227795 504.18976894 124.2184593 504.19578701 111.90463114 504.20018864 C104.21988639 504.20294937 96.53514291 504.20718638 88.85039902 504.21169281 C67.58449682 504.22388572 46.31859595 504.23422087 25.05269051 504.2375679 C23.67748715 504.23778953 22.3022838 504.23801132 20.92708044 504.23823325 C19.54854416 504.23845389 18.17000788 504.23867438 16.7914716 504.2388947 C14.02585737 504.23933726 11.26024314 504.23978437 8.49462891 504.24023438 C7.80891737 504.24034377 7.12320583 504.24045316 6.41671515 504.24056586 C-15.82546133 504.24419778 -38.06760524 504.26012337 -60.30976925 504.28342474 C-83.82084653 504.30801047 -107.33189858 504.3217334 -130.84299099 504.32293582 C-143.66126419 504.3238537 -156.47949473 504.3296344 -169.2977562 504.34775543 C-180.21023598 504.36312769 -191.12265994 504.36829386 -202.03514849 504.36001733 C-207.60544463 504.35610082 -213.17562823 504.35708915 -218.74591064 504.37107468 C-223.84219578 504.38375347 -228.93828311 504.38266932 -234.03456773 504.37048396 C-235.88111254 504.3685165 -237.72767108 504.37165346 -239.57419656 504.38032833 C-242.07933843 504.39135499 -244.58377407 504.3839797 -247.0888958 504.3719368 C-248.17053594 504.38332959 -248.17053594 504.38332959 -249.27402741 504.39495254 C-253.91069017 504.34665488 -257.05655337 503.42774771 -261 501 C-265.13278719 496.52281388 -267.24488137 492.93482443 -267.26742554 486.82060242 C-267.27595551 485.77345062 -267.28448547 484.72629883 -267.29327393 483.64741516 C-267.29236755 482.50395126 -267.29146118 481.36048737 -267.29052734 480.18237305 C-267.29724457 478.97383667 -267.30396179 477.76530029 -267.31088257 476.5201416 C-267.32662709 473.20795375 -267.33323773 469.89601666 -267.33451414 466.58380866 C-267.33593687 464.51263149 -267.34020882 462.44148049 -267.34550858 460.37030983 C-267.36400836 453.13919027 -267.37217944 445.90814439 -267.37060547 438.67700195 C-267.36940474 431.94568251 -267.39049347 425.21468407 -267.4220928 418.48344582 C-267.44828353 412.69730111 -267.45897157 406.91126103 -267.45769465 401.12505752 C-267.45718574 397.6723701 -267.46282866 394.21996787 -267.48405075 390.76733971 C-267.50709305 386.91337032 -267.49789507 383.05983752 -267.48583984 379.20581055 C-267.49707886 378.06841934 -267.50831787 376.93102814 -267.51989746 375.75917053 C-267.46832168 369.26922843 -266.87616883 365.2735834 -263 360 C-257.784648 354.9218941 -252.42628405 353.7392084 -245.2890625 353.8046875 C-244.04511719 353.81113281 -242.80117187 353.81757813 -241.51953125 353.82421875 C-240.23433594 353.84097656 -238.94914062 353.85773438 -237.625 353.875 C-236.31660156 353.88402344 -235.00820312 353.89304687 -233.66015625 353.90234375 C-230.4399163 353.92584915 -227.22005293 353.95870913 -224 354 C-224.01665459 352.90791985 -224.01665459 352.90791985 -224.03364563 351.79377747 C-224.13394863 344.92303873 -224.21001607 338.05240982 -224.25906086 331.18112659 C-224.28512388 327.64867155 -224.32045866 324.11682287 -224.37719727 320.5847168 C-224.44206064 316.52126339 -224.46620732 312.45844402 -224.48828125 308.39453125 C-224.51408768 307.1297847 -224.5398941 305.86503815 -224.56648254 304.56196594 C-224.56960714 294.7920157 -224.56960714 294.7920157 -221.65698242 291.7019043 C-218.35837328 289.58901223 -216.8420434 289.19957429 -213 290 C-210.42011258 291.65252184 -209.42257476 292.380609 -208 295 C-207.28945942 299.46488134 -207.41967876 303.88374539 -207.51171875 308.39453125 C-207.51879349 309.69702316 -207.52586823 310.99951508 -207.53315735 312.34147644 C-207.55218487 315.79263884 -207.60124561 319.24273739 -207.65667725 322.69348145 C-207.70796347 326.2193334 -207.73096575 329.74536357 -207.75585938 333.27148438 C-207.80671633 340.18192699 -207.90457976 347.08945412 -208 354 C-199.42 354 -190.84 354 -182 354 C-182 306.81 -182 259.62 -182 211 C-183.65 210.34 -185.3 209.68 -187 209 C-188.63473285 208.15880583 -190.25568339 207.29039502 -191.86328125 206.3984375 C-193.19262695 205.66367187 -193.19262695 205.66367187 -194.54882812 204.9140625 C-195.46083984 204.40617188 -196.37285156 203.89828125 -197.3125 203.375 C-198.70952148 202.6015625 -198.70952148 202.6015625 -200.13476562 201.8125 C-202.42463469 200.54426483 -204.71297715 199.27335838 -207 198 C-207.00142502 198.81574997 -207.00285004 199.63149994 -207.00431824 200.4719696 C-207.02216269 208.16727893 -207.06381793 215.86191943 -207.13209057 223.5569334 C-207.16635267 227.51288593 -207.19146922 231.46845263 -207.19555664 235.42456055 C-207.19984145 239.24395479 -207.22831745 243.06247879 -207.27343178 246.88160133 C-207.28640126 248.33715556 -207.29071634 249.79281396 -207.28615379 251.24841881 C-207.28124304 253.29115619 -207.30735148 255.33135454 -207.34057617 257.3737793 C-207.34723801 258.53515915 -207.35389984 259.696539 -207.36076355 260.89311218 C-208.19595483 264.95240136 -209.79043186 266.45656003 -213 269 C-216.5625 269.625 -216.5625 269.625 -220 269 C-222.96639995 266.20271292 -223.92571274 264.54431375 -224.48101807 260.47550964 C-224.49252726 259.10502994 -224.48217096 257.73425423 -224.45410156 256.36401367 C-224.45468567 255.61225861 -224.45526978 254.86050354 -224.45587158 254.08596802 C-224.4530953 251.61282413 -224.42202675 249.14090083 -224.390625 246.66796875 C-224.38316094 244.9487626 -224.37746879 243.22954791 -224.37347412 241.5103302 C-224.35823066 236.99411363 -224.31896023 232.47841488 -224.2746582 227.96240234 C-224.23367754 223.35065719 -224.21545715 218.73882804 -224.1953125 214.12695312 C-224.15246451 205.08440841 -224.08422897 196.04224733 -224 187 C-224.93345749 186.69922546 -225.86691498 186.39845093 -226.82865906 186.08856201 C-230.00670965 184.99769692 -232.62579114 183.65086724 -235.51953125 181.953125 C-236.54240234 181.355 -237.56527344 180.756875 -238.61914062 180.140625 C-239.67294922 179.51671875 -240.72675781 178.8928125 -241.8125 178.25 C-242.85470703 177.6415625 -243.89691406 177.033125 -244.97070312 176.40625 C-268.1237519 162.80219874 -268.1237519 162.80219874 -271 152 C-271.9152434 142.2303088 -271.64661484 134.82632534 -265.4921875 127.109375 C-260.10394617 121.14471715 -253.00580365 117.72545351 -245.02734375 116.76171875 C-234.00659786 116.37032777 -224.59433867 122.03057358 -215.3125 127.375 C-213.69444458 128.29321533 -213.69444458 128.29321533 -212.04370117 129.22998047 C-203.59025426 134.04242504 -195.19832119 138.96037543 -186.81176758 143.88818359 C-180.27209446 147.71714747 -173.66989451 151.40325894 -167 155 C-156.14191451 160.85530416 -145.48860718 167.04098101 -134.86987305 173.31835938 C-132.84322765 174.50589944 -130.80726297 175.67760353 -128.76489258 176.83789062 C-127.70165771 177.44439453 -126.63842285 178.05089844 -125.54296875 178.67578125 C-124.5789917 179.22016846 -123.61501465 179.76455566 -122.62182617 180.32543945 C-116.32900833 184.34466262 -112.41374021 189.59860695 -110.43359375 196.78125 C-108.92098274 204.52145771 -110.30656589 211.33473719 -114.25390625 218.171875 C-119.00375741 225.05721782 -125.00790738 228.7364011 -133 231 C-146.75683988 232.48442689 -153.83429727 227.63583785 -166 221 C-166.33 265.22 -166.66 309.44 -167 355 C-164.03 355.33 -161.06 355.66 -158 356 C-143.88749349 360.12056894 -133.12206662 369.02566692 -125.50390625 381.4375 C-120.25224839 391.161638 -119 399.96657795 -119 411 C-108.77 411 -98.54 411 -88 411 C-87.67 408.36 -87.34 405.72 -87 403 C-82.33102477 390.22090171 -74.00001501 381.22581424 -62 375 C-60.61260369 374.45188228 -59.21824669 373.92114223 -57.81835938 373.40576172 C-56.74394592 373.00851395 -56.74394592 373.00851395 -55.64782715 372.60324097 C-55.10404419 372.40417145 -54.56026123 372.20510193 -54 372 C-53.99413376 371.14524078 -53.98826752 370.29048157 -53.98222351 369.40982056 C-53.92410248 361.31887626 -53.85191592 353.22820233 -53.76428509 345.13752174 C-53.71972937 340.97890825 -53.68044154 336.8203894 -53.65356445 332.66162109 C-53.62738264 328.64138633 -53.58687765 324.62151867 -53.53681374 320.60151291 C-53.52024488 319.0747271 -53.50866889 317.54787795 -53.50238609 316.02101517 C-53.44067114 302.39033027 -52.03960224 291.25203156 -42.16244507 281.1138916 C-40.15142214 279.26004331 -38.09274725 277.47789539 -36.01171875 275.703125 C-16.71199517 260.0638116 -16.71199517 260.0638116 -7.34861755 238.26477051 C-7.0920482 232.11159498 -7.73108451 226.01524062 -9 220 C-9.98806641 220.02094727 -10.97613281 220.04189453 -11.99414062 220.06347656 C-15.69158191 220.13637008 -19.38896087 220.18197694 -23.08691406 220.21972656 C-24.68142408 220.23973053 -26.27586178 220.26694301 -27.87011719 220.30175781 C-45.29808211 220.67256558 -45.29808211 220.67256558 -52.92578125 214.421875 C-57.68931633 208.67879609 -61.85222838 202.54357436 -66.02734375 196.3671875 C-69.03424304 191.92533627 -72.13823387 187.55620436 -75.25 183.1875 C-90.18655548 162.12858239 -90.18655548 162.12858239 -89 147 C-86.94376695 139.24442535 -82.43970063 133.22702723 -75.5 129.1875 C-68.38849707 125.31874224 -60.82229088 125.1202991 -53.0625 127 C-42.27921025 130.69159627 -36.4122256 140.16432095 -30.5625 149.375 C-29.16967276 151.52974826 -27.77522316 153.68344897 -26.37890625 155.8359375 C-25.7763501 156.78001465 -25.17379395 157.7240918 -24.55297852 158.69677734 C-23.06383525 161.06348105 -23.06383525 161.06348105 -21 163 C-18.26565038 163.3063859 -15.61720179 163.5113336 -12.875 163.625 C-11.74384766 163.68300781 -11.74384766 163.68300781 -10.58984375 163.7421875 C-8.72696816 163.83651031 -6.86351745 163.91934662 -5 164 C-4.73719238 163.28215332 -4.47438477 162.56430664 -4.20361328 161.82470703 C-2.96053938 158.9073916 -1.48276769 156.45280377 0.2578125 153.8046875 C1.19560547 152.36029297 1.19560547 152.36029297 2.15234375 150.88671875 C3.47337483 148.86985744 4.79630948 146.85424175 6.12109375 144.83984375 C7.05501953 143.39931641 7.05501953 143.39931641 8.0078125 141.9296875 C8.86850342 140.61846924 8.86850342 140.61846924 9.74658203 139.28076172 C11.24081171 136.99555844 11.24081171 136.99555844 11 134 C8.84133975 132.04586356 8.84133975 132.04586356 6.0625 130.0625 C-5.78603028 120.63545598 -14.38375699 107.05469586 -17 92 C-18.39792294 76.74569071 -16.62799944 63.45543905 -8.7578125 50.12109375 C-7.75526276 48.01957306 -7.75526276 48.01957306 -8.7109375 45.9921875 C-9.13632812 45.33476563 -9.56171875 44.67734375 -10 44 C-10.4021875 43.30261719 -10.804375 42.60523438 -11.21875 41.88671875 C-11.6415625 41.16097656 -12.064375 40.43523438 -12.5 39.6875 C-17.33562427 30.92917169 -18.43321657 22.46034974 -15.75 12.8125 C-14.31250026 8.49318798 -12.5061012 4.79957279 -10 1 C-6.712555 -0.6437225 -3.55272216 -0.51480528 0 0 Z M0 18 C-1.78505443 21.57010887 -0.95325486 25.22921337 0 29 C4.59042103 38.40186233 13.72862868 42.36064988 23.125 45.6875 C32.27402863 48.65791865 41.69093639 50.1923937 51.1796875 51.63671875 C66.96716888 54.14305099 76.64638052 61.28695179 87.6328125 72.74609375 C89.86488993 75.19116327 89.86488993 75.19116327 93 76 C93.57684642 61.55747491 92.0693733 48.79592607 81.9609375 37.77734375 C70.15573645 26.61871732 57.73982997 24.82036 42.02243042 24.65066528 C27.30718377 24.46392414 13.98456685 22.80517474 0 18 Z M6 56 C5.01649975 58.08129104 4.03835542 60.16511359 3.0625 62.25 C2.24458984 63.99023438 2.24458984 63.99023438 1.41015625 65.765625 C-2.49985568 74.73374101 -2.54346299 86.7312597 0.625 96 C2.79992447 101.07482376 5.68037832 105.60150127 9 110 C9.59683594 110.81597656 10.19367188 111.63195312 10.80859375 112.47265625 C17.53796374 120.23362307 28.73157825 127.20788598 39.06933594 128.19824219 C52.54393202 129.01681955 63.96610131 127.33392348 75 119 C79.26769261 114.89171187 83.47371325 110.40186716 86 105 C85.63950312 94.31487239 76.55661523 83.6897981 69.453125 76.28125 C61.0804829 68.49522614 52.29322484 66.80291455 41.25 65.25 C31.57580985 63.81147709 22.61903036 61.64602933 13.44921875 58.26953125 C10.94896164 57.34927807 8.59567862 56.55383374 6 56 Z M-253.375 138.1875 C-255.45519052 141.78782975 -256.04728457 144.93407167 -255 149 C-251.75117027 154.51398601 -246.45024032 156.86675955 -241 159.8125 C-238.91349951 160.96512729 -236.82758775 162.11882079 -234.7421875 163.2734375 C-233.64229492 163.87897461 -232.54240234 164.48451172 -231.40917969 165.10839844 C-226.20629338 167.9952477 -221.0485229 170.9601804 -215.88943481 173.92428589 C-205.28960024 180.01116532 -194.64625692 186.01769318 -183.97265625 191.97436523 C-177.16662793 195.77596508 -170.38881895 199.62387209 -163.625 203.5 C-161.9153962 204.47401383 -160.20576242 205.44797505 -158.49609375 206.421875 C-155.82444906 207.94599367 -153.16918024 209.48997508 -150.53515625 211.078125 C-145.0463587 214.30062891 -141.39845308 216.08448357 -135 215 C-131.23567308 213.15334906 -129.40253567 211.597311 -127.0625 208.125 C-125.81352153 204.45153392 -125.82443753 202.68342907 -127 199 C-129.7054838 195.09596688 -132.28566405 192.95612636 -136.453125 190.72265625 C-137.5344873 190.13427979 -138.61584961 189.54590332 -139.72998047 188.93969727 C-140.89158691 188.32022217 -142.05319336 187.70074707 -143.25 187.0625 C-145.71898693 185.72394803 -148.18361578 184.37745276 -150.6484375 183.03125 C-151.58255966 182.5229641 -151.58255966 182.5229641 -152.53555298 182.00440979 C-158.38749682 178.81185431 -164.136711 175.45468087 -169.875 172.0625 C-179.26876021 166.52941506 -188.77588841 161.22581784 -198.33905029 155.99386597 C-208.1657354 150.61489537 -217.87246956 145.06615994 -227.50195312 139.33984375 C-228.41912109 138.79714844 -229.33628906 138.25445312 -230.28125 137.6953125 C-231.07595703 137.22109863 -231.87066406 136.74688477 -232.68945312 136.25830078 C-240.65402005 131.92087708 -246.39850495 131.76178087 -253.375 138.1875 Z M-72.4375 147.8125 C-73.53424509 152.07761978 -73.88429828 155.22234919 -71.85546875 159.30078125 C-69.99972211 162.27629715 -68.02381498 165.13578727 -66 168 C-65.10629567 169.28482587 -64.21309443 170.57000177 -63.3203125 171.85546875 C-57.8958609 179.62560441 -52.35299463 187.3123906 -46.8125 195 C-45.96534424 196.17574585 -45.96534424 196.17574585 -45.10107422 197.37524414 C-44.57916504 198.09703857 -44.05725586 198.81883301 -43.51953125 199.5625 C-43.05651611 200.20316406 -42.59350098 200.84382813 -42.11645508 201.50390625 C-41.07903182 202.96890258 -41.07903182 202.96890258 -40 204 C-37.70848583 204.08790975 -35.41427476 204.10694038 -33.12109375 204.09765625 C-32.4344313 204.0962413 -31.74776886 204.09482635 -31.04029846 204.09336853 C-28.83932199 204.08775479 -26.63844591 204.07520007 -24.4375 204.0625 C-22.94856917 204.05748676 -21.45963676 204.05292355 -19.97070312 204.04882812 C-16.31373195 204.03863021 -12.65697883 204.01905779 -9 204 C-9 196.08 -9 188.16 -9 180 C-15.31186581 179.94804999 -15.31186581 179.94804999 -21.62353516 179.97241211 C-27.92284454 179.78968502 -27.92284454 179.78968502 -30.76098633 177.70898438 C-32.36425389 175.89354677 -33.67929391 174.03013943 -35 172 C-35.51498047 171.27063232 -36.02996094 170.54126465 -36.56054688 169.78979492 C-38.22091074 167.42337681 -39.8335529 165.0299602 -41.4375 162.625 C-44.7430229 157.68067141 -48.08938979 152.78128628 -51.66015625 148.0234375 C-52.20422119 147.29817871 -52.74828613 146.57291992 -53.30883789 145.82568359 C-55.69738403 143.24714339 -57.86571249 142.18393852 -61.3125 141.625 C-65.76786068 142.24667823 -69.62267723 144.26337564 -72.4375 147.8125 Z M62.12890625 141.98828125 C56.70170574 143.20470423 51.47839674 143.25985535 45.9375 143.1875 C44.52500977 143.1865332 44.52500977 143.1865332 43.08398438 143.18554688 C37.63740593 143.15143469 32.38852511 142.79336353 27 142 C26.57178955 142.68513672 26.1435791 143.37027344 25.70239258 144.07617188 C12 166 12 166 10.6693573 167.58300781 C5.44825028 174.32352509 6.369223 182.21281115 6.51171875 190.3125 C6.51908266 191.71418259 6.52417585 193.11587899 6.52697754 194.51757812 C6.55304756 199.67859695 6.6228542 204.83932021 6.6875 210 C6.790625 221.55 6.89375 233.1 7 245 C30.43 245 53.86 245 78 245 C82.28581668 225.61946926 82.28581668 225.61946926 85 206 C83.9378125 205.64808594 82.875625 205.29617187 81.78125 204.93359375 C71.95056503 201.55327902 63.44346057 198.47255202 58.5625 188.625 C55.66915875 181.03801628 55.13528311 173.67903276 58 166 C61.48985609 158.89059722 66.17911848 154.8651662 73 151 C72.02526874 149.33073546 71.04510211 147.66464358 70.0625 146 C69.51722656 145.071875 68.97195313 144.14375 68.41015625 143.1875 C67.94480469 142.465625 67.47945313 141.74375 67 141 C65.34322086 141 63.73419716 141.57845421 62.12890625 141.98828125 Z M73.125 169.625 C71.3800099 173.30886799 71.02506684 177.03612701 72 181 C75.86264395 186.75252741 79.60079771 188.46759957 86.09765625 190.5078125 C86.96893661 190.80058075 87.84021698 191.093349 88.73789978 191.39498901 C91.50705732 192.32340147 94.28363408 193.22610399 97.0625 194.125 C99.84391153 195.03359925 102.62300971 195.94783719 105.39781189 196.87643433 C107.11996434 197.45196311 108.84609073 198.01577093 110.57643127 198.56619263 C114.93909101 200.01573551 118.12861623 201.20602144 121 205 C122.31640606 208.94921819 122.17529854 212.74855249 122.2109375 216.8671875 C122.23900484 218.65756125 122.2676693 220.44792571 122.296875 222.23828125 C122.3381335 225.05810295 122.3750257 227.87775114 122.40136719 230.69775391 C122.42900733 233.42126122 122.47487556 236.14398355 122.5234375 238.8671875 C122.52669037 239.70692108 122.52994324 240.54665466 122.53329468 241.41183472 C122.63082259 246.06714746 122.93960046 249.25018452 126 253 C129.93494395 255.34583197 132.05932596 256.12974814 136.625 255.5 C140.37909593 253.83151292 142.42277685 252.18362859 145 249 C146.03284474 245.94281804 146.13667799 243.07958909 146.16113281 239.86767578 C146.17074036 238.84626495 146.1803479 237.82485413 146.19024658 236.77249146 C146.19449646 235.6745224 146.19874634 234.57655334 146.203125 233.4453125 C146.20882507 232.311008 146.21452515 231.17670349 146.22039795 230.00802612 C146.22984059 227.60903861 146.23637901 225.21003816 146.24023438 222.81103516 C146.24994455 219.14592846 146.28097757 215.48138149 146.3125 211.81640625 C146.31902988 209.48437833 146.32428041 207.1523464 146.328125 204.8203125 C146.3466452 203.17943161 146.3466452 203.17943161 146.36553955 201.50540161 C146.34558803 194.6730774 145.85967036 190.10028405 141.05883789 184.89550781 C136.35707238 181.98190678 131.28920972 180.41275858 126.05859375 178.671875 C124.31885033 178.08107147 124.31885033 178.08107147 122.54396057 177.47833252 C120.09713242 176.64989697 117.64859351 175.8264994 115.19848633 175.0078125 C111.44373436 173.752085 107.69524473 172.4789073 103.94726562 171.203125 C101.56805865 170.40000314 99.18851248 169.59788525 96.80859375 168.796875 C95.68561386 168.41569519 94.56263397 168.03451538 93.40562439 167.64178467 C92.36096512 167.2943219 91.31630585 166.94685913 90.23999023 166.58886719 C89.3224144 166.28116394 88.40483856 165.97346069 87.4594574 165.65643311 C81.64338744 164.10411475 77.55381931 165.78668993 73.125 169.625 Z M-33 295 C-33.58088379 295.90596924 -34.16176758 296.81193848 -34.76025391 297.74536133 C-37.09853304 301.99782447 -37.1225749 305.79015069 -37.11352539 310.60449219 C-37.11367142 311.25856552 -37.11381744 311.91263885 -37.1139679 312.58653259 C-37.11327341 314.74001426 -37.10550283 316.89340852 -37.09765625 319.046875 C-37.09579042 320.54331414 -37.09436729 322.03975388 -37.09336853 323.53619385 C-37.08955635 327.46858415 -37.07973717 331.40093732 -37.06866455 335.33331299 C-37.05842249 339.34850563 -37.05386492 343.3637043 -37.04882812 347.37890625 C-37.03811372 355.25262307 -37.02052745 363.12630264 -37 371 C-27.76 371 -18.52 371 -9 371 C-8.95101563 367.80957031 -8.90203125 364.61914062 -8.8515625 361.33203125 C-8.79753196 358.23750167 -8.74023255 355.14304865 -8.68261719 352.04858398 C-8.64436615 349.90020466 -8.60950653 347.75176213 -8.578125 345.60327148 C-8.53239063 342.51262854 -8.47440944 339.42241919 -8.4140625 336.33203125 C-8.40251129 335.37351761 -8.39096008 334.41500397 -8.37905884 333.42744446 C-8.18272968 324.52919616 -8.18272968 324.52919616 -6 321 C-4.22900391 319.8828125 -4.22900391 319.8828125 -2 319 C-0.10743488 317.96661266 1.78004012 316.92388121 3.6640625 315.875 C4.7775708 315.25584717 5.8910791 314.63669434 7.03833008 313.9987793 C9.46047565 312.64945829 11.88198767 311.29900285 14.3034668 309.94848633 C15.53169362 309.26375452 16.75996498 308.57910258 17.98828125 307.89453125 C18.59445786 307.55662064 19.20063446 307.21871002 19.82518005 306.87055969 C23.30191746 304.93547273 26.78970048 303.02330529 30.29296875 301.13671875 C45.83783083 292.74330923 63.11415877 283.19597608 71.15625 266.79833984 C71.69056641 265.71370453 72.22488281 264.62906921 72.77539062 263.51156616 C73.17951172 262.68274933 73.58363281 261.8539325 74 261 C11.35998953 254.80242816 11.35998953 254.80242816 -33 295 Z M81 281 C80.46632813 281.61746094 79.93265625 282.23492187 79.3828125 282.87109375 C68.55796249 295.17546478 56.69431113 304.65284444 42 312 C42.98579889 317.98631607 45.60777749 323.0550521 48.1875 328.5 C48.65736328 329.53253906 49.12722656 330.56507813 49.61132812 331.62890625 C50.08376953 332.62792969 50.55621094 333.62695312 51.04296875 334.65625 C51.46602295 335.56181641 51.88907715 336.46738281 52.32495117 337.40039062 C56.77656182 344.30911386 62.76345993 346.34879466 70.26953125 348.77734375 C71.76114021 349.27809166 71.76114021 349.27809166 73.28288269 349.78895569 C76.45538018 350.85108673 79.63358009 351.89476789 82.8125 352.9375 C85.94126418 353.97767665 89.06876013 355.02160709 92.19625854 356.06558228 C94.23480558 356.74498999 96.27412738 357.4220777 98.3142395 358.09677124 C105.22267442 360.38489235 112.09397458 362.76135485 118.92304993 365.27708435 C121.77050139 366.30849419 123.9429714 367 127 367 C128.70284849 362.9020339 130.38461211 358.79574223 132.0625 354.6875 C132.54783203 353.52025391 133.03316406 352.35300781 133.53320312 351.15039062 C133.98759766 350.03212891 134.44199219 348.91386719 134.91015625 347.76171875 C135.54642944 346.2142395 135.54642944 346.2142395 136.19555664 344.63549805 C137.29909389 341.93160168 137.29909389 341.93160168 136 339 C133.17951229 337.85248599 130.44849582 336.89760532 127.546875 336.00390625 C126.69450256 335.7290892 125.84213013 335.45427216 124.96392822 335.17112732 C122.22947286 334.29008856 119.49045426 333.42468427 116.75 332.5625 C113.15734207 331.43039721 109.56978332 330.28373262 105.984375 329.12890625 C105.16024109 328.87460342 104.33610718 328.6203006 103.48699951 328.35829163 C98.94169258 326.8945572 95.47582017 325.42548214 92 322 C88.42205513 314.73203006 87.40868935 306.59549481 85.9375 298.6875 C85.43359677 295.98151747 84.92069442 293.27746632 84.40234375 290.57421875 C84.18054443 289.38401123 83.95874512 288.19380371 83.73022461 286.9675293 C83.13894486 283.8402798 83.13894486 283.8402798 81 281 Z M21.90234375 323.15234375 C20.70061523 323.82233398 20.70061523 323.82233398 19.47460938 324.50585938 C18.63736328 324.97830078 17.80011719 325.45074219 16.9375 325.9375 C16.09638672 326.40607422 15.25527344 326.87464844 14.38867188 327.35742188 C10.46352562 329.35803205 10.46352562 329.35803205 7 332 C6.90499452 334.46444057 6.87442015 336.90074626 6.88647461 339.36547852 C6.88632858 340.13615662 6.88618256 340.90683472 6.8860321 341.7008667 C6.8867314 344.26024139 6.89452455 346.8195442 6.90234375 349.37890625 C6.90420787 351.14867615 6.9056318 352.91844656 6.90663147 354.68821716 C6.91045712 359.35551366 6.9202878 364.02277923 6.93133545 368.69006348 C6.94154856 373.44897035 6.94612887 378.20788221 6.95117188 382.96679688 C6.96191003 392.31121153 6.97898701 401.6556032 7 411 C7.57993713 411.00808685 8.15987427 411.01617371 8.75738525 411.02450562 C14.79209363 411.11054692 20.82647337 411.21005044 26.86083984 411.31738281 C29.11306236 411.35567157 31.365346 411.39052461 33.61767578 411.421875 C36.85471447 411.46752737 40.09133236 411.52552215 43.328125 411.5859375 C44.83925873 411.60326431 44.83925873 411.60326431 46.38092041 411.62094116 C47.32159363 411.64081085 48.26226685 411.66068054 49.23144531 411.68115234 C50.05751282 411.69447601 50.88358032 411.70779968 51.73468018 411.7215271 C54.23989579 412.02949009 55.86662355 412.66388158 58 414 C59.42041821 416.84083641 59.31452272 418.85477278 59 422 C56.77284363 425.05532861 55.5613238 425.91119022 51.7903862 426.50780869 C49.87121321 426.51333944 49.87121321 426.51333944 47.91326904 426.51898193 C46.84233533 426.53023381 46.84233533 426.53023381 45.74976659 426.541713 C43.35729673 426.56201388 40.96577243 426.55388331 38.57324219 426.54589844 C36.85837871 426.55463219 35.14352339 426.56511728 33.42868042 426.57722473 C28.77197639 426.60512969 24.11553768 426.60848843 19.45876217 426.60750484 C14.5926663 426.61063009 9.7266906 426.63624018 4.86065674 426.65948486 C-4.35444313 426.70007821 -13.56947218 426.72039341 -22.7846477 426.73345876 C-33.27553556 426.74931751 -43.7663027 426.78772839 -54.25712061 426.82805204 C-75.83804343 426.91049664 -97.41895441 426.96376029 -119 427 C-119 434.59 -119 442.18 -119 450 C-117.36387851 450.00331015 -115.72775702 450.00662029 -114.04205608 450.01003075 C-75.23441933 450.0889886 -36.4268177 450.17818566 2.38076596 450.28005161 C7.15366474 450.29257101 11.92656375 450.3050037 16.69946289 450.31738281 C18.12480574 450.3210818 18.12480574 450.3210818 19.57894339 450.32485552 C34.9801731 450.36461722 50.38141018 450.39734944 65.78266136 450.42749982 C81.57688137 450.45857536 97.37107001 450.49716795 113.16525477 450.54279006 C122.91703469 450.57071997 132.66879156 450.59273341 142.42060079 450.60726251 C149.10092303 450.61777619 155.78120074 450.63556822 162.46148948 450.65916704 C166.32000652 450.67258011 170.17846095 450.68270435 174.03700256 450.68421364 C178.21365928 450.68593088 182.39011109 450.70293358 186.56672668 450.7215271 C187.79530972 450.71959237 189.02389275 450.71765763 190.28970557 450.71566427 C191.96024498 450.72686251 191.96024498 450.72686251 193.66453266 450.73828697 C195.1118367 450.74170446 195.1118367 450.74170446 196.5883792 450.74519098 C199 451 199 451 202 453 C203 456.3125 203 456.3125 203 460 C201.3475177 462.59962074 200.62483628 463.57193479 198 465 C193.79469518 465.75833968 189.62744303 465.67656859 185.36418152 465.63923645 C184.0654233 465.64759213 182.76666507 465.6559478 181.42855054 465.66455668 C177.82534167 465.68706969 174.22277295 465.67849515 170.61954415 465.6648711 C166.7333769 465.65561398 162.84734239 465.67514814 158.96121216 465.69119263 C152.22883984 465.7150444 145.49665062 465.72063843 138.76424217 465.71384621 C129.03034198 465.70405219 119.296645 465.72177091 109.56277768 465.74621352 C93.77044432 465.78512192 77.97816901 465.80176717 62.18579102 465.80444336 C46.84461488 465.8070907 31.5035066 465.8202035 16.16235352 465.84741211 C15.21678953 465.84908549 14.27122555 465.85075887 13.29700812 465.85248295 C8.55341038 465.8609424 3.80981305 465.86960782 -0.93378413 465.87837565 C-40.28917937 465.95085173 -79.64454317 465.98683982 -119 466 C-119 473.59 -119 481.18 -119 489 C-79.16847909 489.04563727 -39.33696228 489.0810256 0.49457958 489.10213066 C5.1983721 489.10463204 9.90216458 489.10722068 14.60595703 489.10986328 C15.54238697 489.1103879 16.4788169 489.11091252 17.4436235 489.11145304 C32.60088045 489.12015273 47.75812221 489.13592031 62.91537015 489.15430559 C78.4711682 489.17301677 94.02695829 489.1841193 109.58276713 489.18817699 C119.17946473 489.19091952 128.77611938 489.19957783 138.37280376 489.21583293 C144.95597416 489.22641483 151.53912239 489.22959789 158.12230067 489.22700275 C161.91891852 489.22572335 165.7154614 489.22766774 169.51206589 489.23841095 C173.63369285 489.24998834 177.75516095 489.24596563 181.87680054 489.24050903 C183.06942989 489.24633472 184.26205924 489.2521604 185.49082887 489.25816262 C197.16677341 489.2164145 207.91639191 487.98344788 216.75 479.75 C223.69180671 472.39612257 225.35660199 464.53617574 225.28515625 454.65625 C224.73466301 447.59787089 222.12438597 440.98588905 217 436 C207.63661617 428.50160227 198.25721585 426.54441859 186.44750977 426.61523438 C185.33896133 426.6098616 184.2304129 426.60448883 183.08827209 426.59895325 C180.69955238 426.58922426 178.31079753 426.58621621 175.92206001 426.58930969 C172.14390909 426.59380653 168.36622179 426.5797374 164.58811951 426.56091309 C155.89750089 426.52112761 147.20693377 426.50849732 138.51624298 426.49738312 C129.89205245 426.48603689 121.26810276 426.46311696 112.64399529 426.41999817 C108.91740424 426.40639057 105.19109909 426.41060369 101.4644928 426.41540527 C99.19190093 426.40607064 96.91931227 426.39590334 94.64672852 426.38476562 C93.08749664 426.39398796 93.08749664 426.39398796 91.49676514 426.40339661 C90.0734362 426.39109261 90.0734362 426.39109261 88.62135315 426.37854004 C87.38397069 426.37747128 87.38397069 426.37747128 86.12159061 426.37638092 C83.49649154 425.91067505 82.61603129 425.08108294 81 423 C80.53125 421.0625 80.53125 421.0625 80.5 419 C80.4690625 418.319375 80.438125 417.63875 80.40625 416.9375 C81 415 81 415 82.97338867 413.41088867 C87.05469488 411.5083422 90.56734733 411.52267036 95.01953125 411.48828125 C95.87810226 411.47033005 96.73667328 411.45237885 97.6212616 411.43388367 C100.3516251 411.37989259 103.08181492 411.34592126 105.8125 411.3125 C107.6686439 411.279317 109.52476492 411.24482642 111.38085938 411.20898438 C115.92044738 411.12417266 120.45998486 411.05730823 125 411 C124.86287598 410.31252686 124.72575195 409.62505371 124.58447266 408.91674805 C123.42308178 402.86389489 122.6399394 396.96682146 122.375 390.8125 C122.31699219 389.67071289 122.31699219 389.67071289 122.2578125 388.50585938 C122.16548665 386.6708832 122.08176802 384.83547695 122 383 C115.1661717 380.18517955 108.2784052 377.66198339 101.26953125 375.3203125 C99.2284932 374.63157686 97.18747831 373.9427726 95.14648438 373.25390625 C91.98574587 372.19079541 88.8245592 371.12904372 85.6628418 370.06884766 C78.76130215 367.75198306 71.87105277 365.40589357 65 363 C64.21816345 362.727323 63.4363269 362.454646 62.63079834 362.17370605 C50.07442867 357.72542078 43.06358547 353.22471873 37.23144531 341.0406189 C36.30954082 339.0529476 35.40435436 337.05820836 34.5 335.0625 C33.8637485 333.69644015 33.2257401 332.33119715 32.5859375 330.96679688 C31.03693374 327.65369845 29.51195848 324.33019692 28 321 C25.41589449 321 24.15572605 321.89132629 21.90234375 323.15234375 Z M152 345 C149.97718267 349.80677129 147.97646398 354.61456266 146.01855469 359.44702148 C145.35016806 361.08130047 144.67144566 362.71139825 143.98144531 364.33666992 C138.30686901 377.73313687 135.09728115 390.15130186 139.875 404.4375 C141.03907352 407.26145612 141.83015066 408.83015066 144 411 C147.08347826 411.16681109 147.08347826 411.16681109 150 411 C153.06744161 404.33252987 155.75699341 397.56380099 158.328125 390.69140625 C158.72199402 389.64347397 159.11586304 388.59554169 159.52166748 387.51585388 C160.34653753 385.31877921 161.17002488 383.12118495 161.9921875 380.9230957 C163.25593617 377.54663987 164.52614935 374.17266346 165.796875 370.79882812 C166.59934686 368.65899983 167.40144375 366.51903087 168.203125 364.37890625 C168.77489471 362.86182823 168.77489471 362.86182823 169.35821533 361.31410217 C169.87940948 359.91640846 169.87940948 359.91640846 170.41113281 358.49047852 C170.71883606 357.66935074 171.02653931 356.84822296 171.34356689 356.00221252 C172.10384594 354.03443436 172.10384594 354.03443436 172 352 C165.4 349.69 158.8 347.38 152 345 Z M-251 371 C-251.09578593 372.5181852 -251.12188147 374.04082396 -251.12025452 375.56202698 C-251.12162918 376.54785767 -251.12300385 377.53368835 -251.12442017 378.5493927 C-251.12082489 379.63983383 -251.11722961 380.73027496 -251.11352539 381.85375977 C-251.11367142 382.99507355 -251.11381744 384.13638733 -251.1139679 385.31228638 C-251.11326818 389.10534531 -251.10547307 392.89835584 -251.09765625 396.69140625 C-251.09579228 399.31314568 -251.09436828 401.93488546 -251.09336853 404.55662537 C-251.09025551 410.76501955 -251.08204252 416.97339621 -251.07201904 423.18178266 C-251.06085699 430.24817441 -251.05534722 437.31456699 -251.05032361 444.38096535 C-251.03985988 458.92065263 -251.022261 473.46032607 -251 488 C-248.59721025 489.20139488 -247.11474633 489.12320302 -244.43161011 489.12025452 C-243.46964722 489.12162918 -242.50768433 489.12300385 -241.51657104 489.12442017 C-240.4577774 489.12082489 -239.39898376 489.11722961 -238.30810547 489.11352539 C-237.19590637 489.11367142 -236.08370728 489.11381744 -234.93780518 489.1139679 C-231.2475797 489.1132691 -227.5574042 489.10547824 -223.8671875 489.09765625 C-221.31413806 489.09579195 -218.76108826 489.0943681 -216.20803833 489.09336853 C-210.16613084 489.08993553 -204.12424492 489.08204747 -198.08234608 489.07201904 C-191.20456124 489.06085045 -184.32677555 489.05534557 -177.44898391 489.05032361 C-163.2993126 489.03986466 -149.14965729 489.02226986 -135 489 C-134.90702255 477.84665867 -134.83609466 466.69341065 -134.79275131 455.53975964 C-134.77194103 450.35978115 -134.74374397 445.18006925 -134.69824219 440.00024414 C-134.65454956 434.99463113 -134.63081365 429.98927337 -134.62049103 424.98348427 C-134.6131415 423.08064065 -134.59879027 421.17780986 -134.57707977 419.27507591 C-134.42151956 405.06718768 -135.27721314 393.58087429 -145.25 382.5 C-155.39170317 373.28026985 -164.20858369 369.83206958 -178.0090332 369.87060547 C-178.78858871 369.86885315 -179.56814423 369.86710083 -180.37132263 369.86529541 C-182.93116524 369.86091703 -185.49093803 369.86379925 -188.05078125 369.8671875 C-189.83343011 369.86651365 -191.61607887 369.86554294 -193.39872742 369.86428833 C-197.12495808 369.86281709 -200.85116471 369.86494874 -204.57739258 369.86962891 C-209.36382346 369.87534661 -214.15019852 369.87203071 -218.93662739 369.86605644 C-222.61248703 369.86245298 -226.28833331 369.86358806 -229.96419334 369.86618423 C-231.73012486 369.86685303 -233.49605757 369.86602673 -235.26198769 369.86370468 C-237.72067135 369.86117945 -240.17926271 369.86501592 -242.63793945 369.87060547 C-243.74049576 369.86756912 -243.74049576 369.86756912 -244.86532593 369.86447144 C-248.21761609 369.58352645 -248.21761609 369.58352645 -251 371 Z M-66 398 C-68.95456845 402.16453457 -70.76199291 406.04797164 -72 411 C-51.21 411 -30.42 411 -9 411 C-9 403.08 -9 395.16 -9 387 C-14.39027803 386.90772705 -19.77777174 386.82822683 -25.16821289 386.78027344 C-26.99838593 386.76026626 -28.82849592 386.73305149 -30.65844727 386.69824219 C-33.30240512 386.64923997 -35.94551165 386.62692239 -38.58984375 386.609375 C-39.39646957 386.58872986 -40.2030954 386.56808472 -41.03416443 386.54681396 C-50.79659765 386.54303323 -59.14638658 391.19951536 -66 398 Z " fill="#000000" transform="translate(271,4)"/>
<path d="M0 0 C1.20462891 -0.01836914 1.20462891 -0.01836914 2.43359375 -0.03710938 C6.75501683 -0.04778834 10.23166085 0.07483534 14.125 2.1875 C16.27704428 4.82864525 16.12109381 6.29882645 16 9.75 C15.125 13.1875 15.125 13.1875 13.38671875 14.87524414 C9.27045576 17.26351201 4.77156008 16.65801819 0.125 16.625 C-0.87273437 16.64498047 -1.87046875 16.66496094 -2.8984375 16.68554688 C-10.13520526 16.68069649 -10.13520526 16.68069649 -13.53515625 14.4140625 C-15.76505168 10.70840537 -15.35086442 8.4702798 -14.875 4.1875 C-11.43866209 -0.8851893 -5.46392942 0.00434335 0 0 Z " fill="#000000" transform="translate(68.875,443.8125)"/>
<path d="M0 0 C1.4840332 -0.03577148 1.4840332 -0.03577148 2.99804688 -0.07226562 C7.79354564 -0.06259078 10.28619882 0.00094064 14.25390625 2.87109375 C16.0625 5.5625 16.0625 5.5625 16.0625 9.1875 C15.11706241 12.37835187 14.69878553 13.66437442 12.0625 15.5625 C8.44296959 17.37226521 4.23581702 16.83286663 0.25 16.875 C-0.65298828 16.90400391 -1.55597656 16.93300781 -2.48632812 16.96289062 C-6.74485627 17.00356723 -9.27937354 16.93798021 -13.0390625 14.79296875 C-15.03485132 12.44812221 -15.60039827 11.5862596 -15.5 8.5625 C-15.50128906 7.9025 -15.50257812 7.2425 -15.50390625 6.5625 C-13.35645533 -1.02022326 -6.53143721 -0.07205349 0 0 Z " fill="#000000" transform="translate(68.9375,408.4375)"/>
</svg>
