<?xml version="1.0" encoding="UTF-8"?>
<svg version="1.1" xmlns="http://www.w3.org/2000/svg" width="512" height="512">
<path d="M0 0 C2.49564687 2.14342132 4.92209958 4.34686109 7.3359375 6.58203125 C9.945188 8.95025128 12.62734879 11.16975256 15.375 13.375 C19.92860712 17.05636689 24.23582516 20.92774473 28.51904297 24.91357422 C31.75176204 27.90412641 35.06687666 30.73771685 38.5 33.5 C43.01777813 37.13499389 47.27818516 40.9671029 51.51953125 44.9140625 C54.75211747 47.90441358 58.06705866 50.73786329 61.5 53.5 C66.01777813 57.13499389 70.27818516 60.9671029 74.51953125 64.9140625 C77.75211747 67.90441358 81.06705866 70.73786329 84.5 73.5 C89.01777813 77.13499389 93.27818516 80.9671029 97.51953125 84.9140625 C100.75211747 87.90441358 104.06705866 90.73786329 107.5 93.5 C112.01858176 97.1356405 116.27983329 100.96836402 120.52172852 104.91625977 C123.7329905 107.88715628 127.02627815 110.69961077 130.4375 113.4375 C135.21541338 117.28045479 139.68994984 121.36831329 144.16162109 125.55615234 C148.37429105 129.47906854 152.76413555 133.11911024 157.25390625 136.72265625 C160.26319052 139.21826469 163.13938654 141.83765143 166 144.5 C169.73327255 147.97419243 173.52371111 151.3006871 177.5 154.5 C182.01777813 158.13499389 186.27818516 161.9671029 190.51953125 165.9140625 C193.75211747 168.90441358 197.06705866 171.73786329 200.5 174.5 C204.47629963 177.69932154 208.26663848 181.02589136 212 184.5 C215.79677802 188.03210026 219.65571393 191.42045997 223.6875 194.6875 C224.57953125 195.41195312 225.4715625 196.13640625 226.390625 196.8828125 C228.10745397 198.27580846 229.82615577 199.6664999 231.546875 201.0546875 C237.52957053 206.07936969 241.49468215 210.21123198 242.3359375 218.18359375 C242.56460496 225.93190284 241.8513741 230.7734451 236.625 236.6875 C231.04055117 241.6071335 226.58846007 243.32953013 219.15234375 243.21875 C212.93841208 242.58720703 208.7595954 239.87257767 204 236 C203.99780016 237.71286194 203.99780016 237.71286194 203.99555588 239.46032715 C203.95896227 267.24438201 203.8995144 295.02831631 203.81609726 322.81227112 C203.8081458 325.48698911 203.80027948 328.16170734 203.79248047 330.83642578 C203.78956841 331.8336387 203.78956841 331.8336387 203.78659752 332.85099733 C203.7555941 343.60912112 203.73860151 354.36722358 203.72680578 365.12538362 C203.7143856 376.16796519 203.68656808 387.21043133 203.64538693 398.25294304 C203.6227485 404.45382309 203.60709076 410.65454371 203.60811615 416.85546875 C203.60886134 422.69299939 203.59096682 428.53017727 203.55883217 434.36761665 C203.55031964 436.50894118 203.54859239 438.65030521 203.55419731 440.79163933 C203.56083814 443.71884504 203.54291396 446.64492871 203.51898193 449.57202148 C203.53062256 450.83858959 203.53062256 450.83858959 203.54249835 452.13074493 C203.45167857 458.41985612 201.9727037 463.85906712 197.55280852 468.52908993 C190.89691345 474.29814392 184.7697364 475.12352174 176.13081551 475.12863445 C175.46106998 475.13038749 174.79132445 475.13214053 174.10128361 475.13394669 C171.85901565 475.13859538 169.61681286 475.13614411 167.37454224 475.13371277 C165.74989357 475.13558131 164.12524534 475.13788218 162.50059783 475.14057809 C158.03737362 475.14669713 153.57416814 475.14656237 149.11094069 475.14538372 C144.29693929 475.14517974 139.48294391 475.15069816 134.66894531 475.15544128 C125.23821333 475.16374877 115.8074876 475.16649616 106.37675227 475.16705366 C98.71201195 475.16752874 91.04727369 475.16958307 83.38253403 475.17275429 C61.65552099 475.18156083 39.92851289 475.18617362 18.20149805 475.18542381 C17.030116 475.18538386 15.85873395 475.1853439 14.65185547 475.18530273 C13.47904474 475.18526185 12.30623401 475.18522097 11.09788357 475.18517885 C-7.91439328 475.1847723 -26.92665032 475.19434428 -45.93892144 475.2084411 C-65.45672561 475.22279868 -84.97452013 475.22971164 -104.49232972 475.22884732 C-115.45168082 475.22851516 -126.41101116 475.23127083 -137.37035751 475.24202538 C-146.7002362 475.2511222 -156.03008471 475.25331233 -165.35996591 475.24651595 C-170.1203962 475.24324673 -174.88076858 475.24320861 -179.64119339 475.2518692 C-183.99977089 475.25971721 -188.35824439 475.25832017 -192.7168193 475.24958507 C-194.29281539 475.24804634 -195.86881918 475.24988025 -197.4448062 475.25544515 C-217.31236142 475.32094728 -217.31236142 475.32094728 -225 469 C-230.16489013 462.88588682 -231.14913784 458.14754597 -231.15821838 450.17329407 C-231.16562535 448.80350089 -231.16562535 448.80350089 -231.17318195 447.40603513 C-231.18858992 444.33359886 -231.19692651 441.26118355 -231.20532227 438.1887207 C-231.21489819 435.99125991 -231.2249081 433.79380098 -231.23532104 431.59634399 C-231.26240706 425.61945136 -231.2833966 419.6425508 -231.30332303 413.66563058 C-231.3251598 407.42357192 -231.35255977 401.18153779 -231.37937927 394.9394989 C-231.42365639 384.45894455 -231.46448636 373.97838077 -231.50268555 363.49780273 C-231.54204227 352.70221982 -231.58346892 341.90664813 -231.62768555 331.11108398 C-231.63040982 330.44577214 -231.63313409 329.7804603 -231.63594092 329.09498749 C-231.64962042 325.75735136 -231.66334292 322.41971542 -231.67708123 319.08207953 C-231.79094921 291.38807597 -231.89777775 263.69404882 -232 236 C-232.60328125 236.42152344 -233.2065625 236.84304688 -233.828125 237.27734375 C-235.02695313 238.09912109 -235.02695313 238.09912109 -236.25 238.9375 C-237.03890625 239.48277344 -237.8278125 240.02804687 -238.640625 240.58984375 C-243.68321448 243.60370932 -249.45782303 243.82846496 -255.12109375 242.50390625 C-261.39507041 240.40467398 -265.34826269 236.47760597 -269 231 C-271.04227944 224.87316167 -271.23156204 216.83921008 -268.6875 210.8125 C-263.67056824 202.40383973 -254.3201595 196.3997588 -246.81640625 190.34765625 C-243.25527685 187.37922523 -239.87356843 184.24350551 -236.48071289 181.08618164 C-232.39338994 177.30509442 -228.11956756 173.80310034 -223.78125 170.3125 C-220.75980812 167.8002899 -217.87558227 165.17599173 -215 162.5 C-210.41239887 158.23081848 -205.66557272 154.24241483 -200.78125 150.3125 C-197.75980812 147.8002899 -194.87558227 145.17599173 -192 142.5 C-187.41239887 138.23081848 -182.66557272 134.24241483 -177.78125 130.3125 C-174.75980812 127.8002899 -171.87558227 125.17599173 -169 122.5 C-164.41239887 118.23081848 -159.66557272 114.24241483 -154.78125 110.3125 C-151.75980812 107.8002899 -148.87558227 105.17599173 -146 102.5 C-141.41239887 98.23081848 -136.66557272 94.24241483 -131.78125 90.3125 C-128.75980812 87.8002899 -125.87558227 85.17599173 -123 82.5 C-118.41239887 78.23081848 -113.66557272 74.24241483 -108.78125 70.3125 C-105.22814914 67.35823636 -101.8597632 64.23086576 -98.47827148 61.08374023 C-95.2670095 58.11284372 -91.97372185 55.30038923 -88.5625 52.5625 C-84.37762693 49.19653735 -80.41685602 45.66823983 -76.5 42 C-71.73908666 37.54127805 -66.83532437 33.36202376 -61.74609375 29.27734375 C-58.73680664 26.78173296 -55.86066245 24.16229869 -53 21.5 C-48.3523457 17.17628675 -43.55430433 13.11175794 -38.6015625 9.13671875 C-36.05081249 7.04173338 -33.61859351 4.85689019 -31.1875 2.625 C-21.93673135 -5.6693612 -10.36829319 -7.89033633 0 0 Z M-19.4375 49.9375 C-22.97522057 53.19139199 -26.56039776 56.30861756 -30.3125 59.3125 C-35.12585437 63.20255931 -39.6476145 67.32871834 -44.16113281 71.55566406 C-48.37393141 75.47878593 -52.76395352 79.11896414 -57.25390625 82.72265625 C-60.26319052 85.21826469 -63.13938654 87.83765143 -66 90.5 C-70.58757439 94.76920779 -75.33443004 98.75758739 -80.21875 102.6875 C-83.24019188 105.1997101 -86.12441773 107.82400827 -89 110.5 C-93.58760113 114.76918152 -98.33442728 118.75758517 -103.21875 122.6875 C-106.24019188 125.1997101 -109.12441773 127.82400827 -112 130.5 C-116.58760113 134.76918152 -121.33442728 138.75758517 -126.21875 142.6875 C-129.24019188 145.1997101 -132.12441773 147.82400827 -135 150.5 C-139.58760113 154.76918152 -144.33442728 158.75758517 -149.21875 162.6875 C-152.77185086 165.64176364 -156.1402368 168.76913424 -159.52172852 171.91625977 C-162.7329905 174.88715628 -166.02627815 177.69961077 -169.4375 180.4375 C-170.68848842 181.4834477 -170.68848842 181.4834477 -171.96474934 182.55052567 C-174.07298312 184.25188912 -176.10402206 185.75972163 -178.33507824 187.26426315 C-183.76871851 191.19918191 -187.99001792 195.00620223 -189.17740822 201.84342194 C-189.7678064 207.87075183 -189.6099333 213.88834382 -189.47583008 219.93457031 C-189.47184312 222.28892106 -189.47359101 224.64328732 -189.48057842 226.99763107 C-189.48350221 233.27808869 -189.40841001 239.55529775 -189.31664276 245.83499146 C-189.24236021 251.73693573 -189.23910964 257.63810777 -189.2298584 263.54052734 C-189.16176354 280.77744515 -188.98026676 298.01376414 -188.8125 315.25 C-188.544375 353.7775 -188.27625 392.305 -188 432 C-73.16 432 41.68 432 160 432 C160.28875 393.493125 160.5775 354.98625 160.875 315.3125 C161.06618408 297.08704956 161.06618408 297.08704956 161.26123047 278.4934082 C161.30805786 267.58434019 161.30805786 267.58434019 161.33621216 256.67521667 C161.34923637 251.82237307 161.40160994 246.97168186 161.47805786 242.11943054 C161.57441728 235.92082696 161.60282138 229.72533207 161.58301187 223.52604902 C161.58715082 221.25682183 161.61473238 218.98748106 161.66901183 216.71889937 C162.26205804 203.97079043 162.26205804 203.97079043 156.97415543 192.85326195 C154.12312772 189.98107834 151.05794997 187.53134853 147.74065614 185.22069108 C145.16689988 183.41576176 142.78544111 181.39012651 140.375 179.375 C139.05628906 178.31925781 139.05628906 178.31925781 137.7109375 177.2421875 C134.71095469 174.76093371 131.8484797 172.15134044 129 169.5 C125.26674967 166.02578664 121.4762862 162.69931074 117.5 159.5 C112.98222187 155.86500611 108.72181484 152.0328971 104.48046875 148.0859375 C101.24788253 145.09558642 97.93294134 142.26213671 94.5 139.5 C89.98222187 135.86500611 85.72181484 132.0328971 81.48046875 128.0859375 C78.24788253 125.09558642 74.93294134 122.26213671 71.5 119.5 C66.98141824 115.8643595 62.72016671 112.03163598 58.47827148 108.08374023 C55.2670095 105.11284372 51.97372185 102.30038923 48.5625 99.5625 C43.78458662 95.71954521 39.31005016 91.63168671 34.83837891 87.44384766 C30.62570895 83.52093146 26.23586445 79.88088976 21.74609375 76.27734375 C18.73680664 73.78173296 15.86066245 71.16229869 13 68.5 C8.35714253 64.18074924 3.5640638 60.12027731 -1.3828125 56.1484375 C-4.77541097 53.36346861 -8.00538659 50.41814951 -11.22265625 47.43359375 C-14.89752986 44.46946493 -16.48001278 47.16929197 -19.4375 49.9375 Z " fill="#000000" transform="translate(270,21)"/>
<path d="M0 0 C12.78743328 10.79395509 21.16691996 25.0174327 24 41.5625 C24.07831674 43.47393363 24.10788625 45.38777121 24.09765625 47.30078125 C24.09443359 48.36748047 24.09121094 49.43417969 24.08789062 50.53320312 C24.07951172 51.63599609 24.07113281 52.73878906 24.0625 53.875 C24.05798828 54.99712891 24.05347656 56.11925781 24.04882812 57.27539062 C24.03707313 60.0378151 24.02064077 62.80012998 24 65.5625 C24.59167969 65.54509766 25.18335938 65.52769531 25.79296875 65.50976562 C35.76752123 65.33891277 42.71903495 68.38251439 50.01953125 75.26953125 C55.03561833 81.07711136 58.11629634 88.13378288 58.14044189 95.79800415 C58.14615204 96.88296173 58.15186218 97.96791931 58.15774536 99.08575439 C58.15942215 100.87176056 58.15942215 100.87176056 58.16113281 102.69384766 C58.16609772 103.94779327 58.17106262 105.20173889 58.17617798 106.49368286 C58.18829051 109.93616405 58.19574638 113.37858445 58.20018864 116.82107973 C58.20312174 118.97417112 58.20722711 121.1272572 58.21169281 123.28034592 C58.22536938 130.0234314 58.23503391 136.76650475 58.2388947 143.50960314 C58.24336884 151.28054942 58.26088597 159.05131922 58.2898953 166.82221186 C58.31156132 172.83595499 58.32160168 178.84964866 58.32293582 184.86343038 C58.32398081 188.45140773 58.3298223 192.03921923 58.34775543 195.6271553 C58.36740394 199.63647277 58.36292763 203.64542473 58.35644531 207.65478516 C58.3656601 208.83331055 58.37487488 210.01183594 58.3843689 211.22607422 C58.32858144 222.26381918 55.95636766 230.63593147 48 238.5625 C37.92965766 246.23826582 28.31201324 246.86052424 16.03173828 246.8371582 C14.62807953 246.8415118 13.22442316 246.8466971 11.82077026 246.85264587 C8.02727808 246.86597793 4.23388588 246.86662101 0.44037485 246.86408257 C-2.73534154 246.86300886 -5.91103804 246.86790648 -9.08675015 246.872688 C-16.58372764 246.88376328 -24.08065502 246.88423184 -31.57763672 246.87817383 C-39.29162148 246.87213596 -47.00542376 246.88444479 -54.7193774 246.9057439 C-61.36084075 246.92340217 -68.00224625 246.92935459 -74.64373219 246.92610615 C-78.60220821 246.92429978 -82.56055405 246.9268645 -86.51900864 246.94082069 C-90.24392218 246.95346339 -93.9685528 246.95139467 -97.69346237 246.93840981 C-99.69772846 246.93494451 -101.70200346 246.94617451 -103.70623779 246.95797729 C-114.77739842 246.89400046 -124.51461787 245.08934822 -133 237.5625 C-140.81872295 228.3859454 -142.29953244 220.81448109 -142.29052734 209.01464844 C-142.29724457 207.75211746 -142.30396179 206.48958649 -142.31088257 205.188797 C-142.32849814 201.73609209 -142.33323613 198.28348643 -142.33451414 194.83074093 C-142.33593913 192.66940985 -142.34021534 190.50810373 -142.34550858 188.34677887 C-142.36399604 180.79448353 -142.37218104 173.24225863 -142.37060547 165.68994141 C-142.36940527 158.67008243 -142.39048677 151.6505315 -142.4220928 144.63075042 C-142.44832187 138.58804572 -142.45896996 132.54544119 -142.45769465 126.50268006 C-142.45718684 122.90070137 -142.46276837 119.29899646 -142.48405075 115.69707489 C-142.50717472 111.67381554 -142.49787196 107.6512376 -142.48583984 103.62792969 C-142.50269836 101.85857811 -142.50269836 101.85857811 -142.51989746 100.05348206 C-142.43838213 89.29360579 -139.65016121 81.38696932 -132.22265625 73.54296875 C-126.36785514 68.32612488 -120.10566251 65.38447555 -112.25 65.5 C-111.45078125 65.50902344 -110.6515625 65.51804687 -109.828125 65.52734375 C-109.22484375 65.53894531 -108.6215625 65.55054688 -108 65.5625 C-108.02094727 64.914021 -108.04189453 64.26554199 -108.06347656 63.59741211 C-108.74127377 39.37045197 -105.02777955 21.62565806 -88.015625 3.44140625 C-79.03553353 -5.21796767 -67.20588996 -11.07375503 -55 -13.4375 C-53.865625 -13.664375 -52.73125 -13.89125 -51.5625 -14.125 C-32.37152165 -15.80841915 -15.50672135 -11.43021213 0 0 Z M-59 35.5625 C-66.67602949 45.83881048 -65 50.55414587 -65 65.5625 C-49.82 65.5625 -34.64 65.5625 -19 65.5625 C-17.9129214 48.64325155 -17.9129214 48.64325155 -25.3125 35.8125 C-36.02223598 26.84620941 -48.01448981 26.32468462 -59 35.5625 Z " fill="#000000" transform="translate(298,187.4375)"/>
</svg>
