<?xml version="1.0" encoding="UTF-8"?>
<svg version="1.1" xmlns="http://www.w3.org/2000/svg" width="512" height="512">
<path d="M0 0 C1.14638131 -0.00307895 1.14638131 -0.00307895 2.31592184 -0.0062201 C4.90372591 -0.01192171 7.49147729 -0.01042898 10.07928658 -0.00901413 C11.94257231 -0.01159595 13.80585749 -0.0146086 15.66914189 -0.01801753 C20.81041486 -0.02611219 25.9516739 -0.02787847 31.09295249 -0.028615 C36.62951837 -0.03046126 42.16607695 -0.03800638 47.70263863 -0.04475021 C59.81810388 -0.05835118 71.93356584 -0.06436089 84.04903746 -0.06876087 C91.60812354 -0.07152011 99.16720834 -0.07575685 106.72629356 -0.08026505 C127.63869005 -0.09245961 148.55108583 -0.10279422 169.46348572 -0.10614014 C170.81629763 -0.10636177 172.16910955 -0.10658356 173.52192146 -0.10680549 C174.87804111 -0.10702613 176.23416076 -0.10724661 177.59028041 -0.10746694 C180.31099121 -0.1079095 183.031702 -0.10835661 185.7524128 -0.10880661 C186.42699288 -0.108916 187.10157297 -0.10902539 187.79659488 -0.1091381 C209.67810279 -0.11277008 231.5595776 -0.12869509 253.44107283 -0.15199697 C276.56342179 -0.17657534 299.68575257 -0.1903053 322.80811703 -0.19150805 C335.41732285 -0.19242637 348.02648533 -0.19821795 360.63567924 -0.21632767 C371.37039964 -0.23169046 382.1050633 -0.23687177 392.83979259 -0.22858956 C398.32071598 -0.22466957 403.80152498 -0.22567813 409.28243446 -0.23964691 C414.29481008 -0.25230523 419.30698442 -0.25125992 424.31935944 -0.2390562 C426.13766486 -0.23708512 427.95598416 -0.24024201 429.77427004 -0.24890056 C432.23655158 -0.25988822 434.69810952 -0.25258066 437.16036987 -0.24050903 C438.23149646 -0.25190182 438.23149646 -0.25190182 439.32426196 -0.26352477 C442.3614348 -0.23114351 444.43662919 -0.01794142 447.11512959 1.46717381 C450.63484836 5.14918953 449.88448738 10.01001055 449.90915108 14.77986526 C449.91485115 15.62940781 449.92055122 16.47895035 449.92642403 17.3542366 C449.93586712 19.15137362 449.94240527 20.94852789 449.94626045 22.74568558 C449.95596499 25.48915813 449.98699393 28.23188103 450.01852608 30.97517776 C450.02505658 32.72256916 450.03030687 34.4699659 450.03415108 36.21736526 C450.04649788 37.03522507 450.05884468 37.85308487 450.07156563 38.6957283 C450.05370067 43.28384436 449.84334246 46.51111854 446.70602608 50.13142776 C441.70602608 52.13142776 441.70602608 52.13142776 423.70602608 52.13142776 C423.70602608 197.99142776 423.70602608 343.85142776 423.70602608 494.13142776 C437.89602608 494.13142776 452.08602608 494.13142776 466.70602608 494.13142776 C473.70602608 497.13142776 473.70602608 497.13142776 474.70602608 499.13142776 C474.94430733 501.15486526 474.94430733 501.15486526 475.01852608 503.50642776 C475.05590889 504.27728714 475.0932917 505.04814651 475.13180733 505.84236526 C474.51837111 509.14028841 473.37739188 510.10987134 470.70602608 512.13142776 C467.79532127 512.5233383 465.26385593 512.66898718 462.35385323 512.63479233 C461.4994959 512.64060609 460.64513857 512.64641985 459.76489162 512.65240979 C456.88235743 512.66708748 454.00066441 512.65308842 451.11813545 512.63936234 C449.03863017 512.64396817 446.95912813 512.65031895 444.87963295 512.65827131 C439.14991164 512.67503124 433.42045545 512.66668802 427.69073296 512.65432644 C421.51750798 512.64530547 415.34432976 512.65923096 409.17111397 512.67024612 C397.77163923 512.68703663 386.37227305 512.68553678 374.97280097 512.67460025 C364.44270479 512.66454711 353.91263974 512.66190697 343.38253975 512.66669083 C342.68467643 512.66699637 341.98681311 512.66730191 341.26780242 512.66761671 C338.43511118 512.66886201 335.60241995 512.67013561 332.76972875 512.67145576 C306.18444668 512.68369809 279.59921871 512.67258791 253.01394498 512.65106817 C229.38263053 512.63208504 205.75140228 512.63378352 182.12008858 512.65291214 C155.5841483 512.67432002 129.04825584 512.68282995 102.51230812 512.67046309 C99.68470956 512.66918017 96.85711099 512.66792881 94.02951241 512.66669083 C93.33326026 512.66637452 92.63700811 512.66605821 91.91965741 512.66573231 C81.39490197 512.66117801 70.87018104 512.66651171 60.34543037 512.67660904 C48.38105298 512.68803014 36.41677745 512.68483466 24.45240402 512.66348606 C18.34361806 512.65294648 12.23500743 512.64890329 6.12622261 512.66208267 C0.54023973 512.6739522 -5.04540435 512.66753415 -10.63135624 512.64617246 C-12.65820892 512.64168324 -14.68508988 512.64402419 -16.71192455 512.65367562 C-19.45563043 512.66574416 -22.19815797 512.65346237 -24.94180107 512.63479233 C-26.13720906 512.64883932 -26.13720906 512.64883932 -27.3567667 512.6631701 C-30.91966773 512.61432175 -32.9062362 512.42631012 -35.7827816 510.23863935 C-37.99657279 507.15172158 -37.85445023 504.9446275 -37.68459892 501.25642776 C-37.29397392 499.13142776 -37.29397392 499.13142776 -35.54397392 496.63142776 C-23.18432972 488.39166496 12.72989214 494.13142776 13.70602608 494.13142776 C13.70602608 348.27142776 13.70602608 202.41142776 13.70602608 52.13142776 C7.76602608 52.13142776 1.82602608 52.13142776 -4.29397392 52.13142776 C-9.29397392 50.13142776 -9.29397392 50.13142776 -11.08157158 48.05916214 C-12.73500522 44.06641623 -12.72444873 40.56930649 -12.69241142 36.28767776 C-12.6952816 35.44096512 -12.69815178 34.59425247 -12.70110893 33.72188187 C-12.70314496 31.9366781 -12.69764742 30.15145179 -12.6850872 28.36629105 C-12.66902654 25.64035839 -12.6849511 22.91590829 -12.70413017 20.19002151 C-12.70214766 18.45173701 -12.69830381 16.71345342 -12.69241142 14.97517776 C-12.70152046 13.75779922 -12.70152046 13.75779922 -12.71081352 12.51582718 C-12.65382405 7.90981542 -12.27487245 4.87551636 -9.29397392 1.13142776 C-6.31271058 -0.3592039 -3.26900364 -0.00804768 0 0 Z M5.70602608 18.13142776 C5.70602608 23.41142776 5.70602608 28.69142776 5.70602608 34.13142776 C146.28602608 34.13142776 286.86602608 34.13142776 431.70602608 34.13142776 C431.70602608 28.85142776 431.70602608 23.57142776 431.70602608 18.13142776 C291.12602608 18.13142776 150.54602608 18.13142776 5.70602608 18.13142776 Z M31.70602608 52.13142776 C31.70602608 197.99142776 31.70602608 343.85142776 31.70602608 494.13142776 C73.61602608 494.13142776 115.52602608 494.13142776 158.70602608 494.13142776 C158.73180733 483.49408401 158.75758858 472.85674026 158.78415108 461.89705276 C158.80930829 455.17047168 158.83546863 448.44391947 158.86618233 441.71736526 C158.91477787 431.03344782 158.95919954 420.34962647 158.97702217 409.66560745 C158.99001998 401.8851899 159.01693654 394.10496703 159.06063914 386.32465911 C159.0832963 382.20416338 159.09893423 378.08390813 159.09790993 373.96334457 C159.09716581 370.0857637 159.1150158 366.20871528 159.14719391 362.33127213 C159.15572014 360.90747632 159.15742438 359.48362098 159.15182877 358.05981064 C159.14520947 356.1168823 159.1654338 354.17391761 159.18704414 352.23109818 C159.1925749 350.59952459 159.1925749 350.59952459 159.19821739 348.93498993 C159.83659075 345.41059295 160.8354838 344.23066995 163.70602608 342.13142776 C165.90495491 341.6280632 165.90495491 341.6280632 168.33615303 341.62349319 C169.72406548 341.60657425 169.72406548 341.60657425 171.14001656 341.58931351 C172.65189049 341.60145889 172.65189049 341.60145889 174.19430733 341.61384964 C175.79488487 341.60333572 175.79488487 341.60333572 177.42779732 341.59260941 C180.95830422 341.57499062 184.48801089 341.58666659 188.01852608 341.60017776 C190.46945538 341.59748399 192.92038364 341.59360252 195.37130928 341.58858109 C200.50935218 341.58268074 205.64711704 341.59126664 210.78512764 341.60994339 C217.37634093 341.63273275 223.96690274 341.61961261 230.55809212 341.59565353 C235.6195283 341.58121033 240.68080963 341.58579487 245.74225044 341.5961647 C248.17277287 341.59883605 250.60330929 341.59554796 253.03381538 341.58624649 C256.42883823 341.57610569 259.82280108 341.59154884 263.21774483 341.61384964 C264.22566078 341.60575272 265.23357674 341.59765579 266.2720356 341.58931351 C267.19731056 341.6005928 268.12258553 341.6118721 269.07589912 341.62349319 C270.27934219 341.62575535 270.27934219 341.62575535 271.50709724 341.6280632 C274.64302863 342.34592033 275.80204163 343.56502335 277.70602608 346.13142776 C278.21383476 348.93498993 278.21383476 348.93498993 278.22500801 352.23109818 C278.23892082 353.48189163 278.25283363 354.73268509 278.26716805 356.02138138 C278.26245511 357.4047445 278.25736116 358.78810636 278.25192451 360.17146683 C278.26065983 361.63017759 278.27114547 363.08887877 278.28325081 364.54756546 C278.31113706 368.50595613 278.31451493 372.46403455 278.31353092 376.42250919 C278.31665779 380.55990804 278.34227125 384.69716578 278.36551094 388.83449173 C278.40609188 396.6683686 278.42641654 404.50216219 278.43948483 412.336128 C278.45831366 422.92266084 278.50839032 433.5090427 278.55672836 444.09547424 C278.63205889 460.7741176 278.6656023 477.45257872 278.70602608 494.13142776 C320.61602608 494.13142776 362.52602608 494.13142776 405.70602608 494.13142776 C405.70602608 348.27142776 405.70602608 202.41142776 405.70602608 52.13142776 C282.28602608 52.13142776 158.86602608 52.13142776 31.70602608 52.13142776 Z M176.70602608 359.13142776 C176.70602608 403.68142776 176.70602608 448.23142776 176.70602608 494.13142776 C187.59602608 494.13142776 198.48602608 494.13142776 209.70602608 494.13142776 C209.70602608 449.58142776 209.70602608 405.03142776 209.70602608 359.13142776 C198.81602608 359.13142776 187.92602608 359.13142776 176.70602608 359.13142776 Z M227.70602608 359.13142776 C227.70602608 403.68142776 227.70602608 448.23142776 227.70602608 494.13142776 C238.59602608 494.13142776 249.48602608 494.13142776 260.70602608 494.13142776 C260.70602608 449.58142776 260.70602608 405.03142776 260.70602608 359.13142776 C249.81602608 359.13142776 238.92602608 359.13142776 227.70602608 359.13142776 Z " fill="#000000" transform="translate(37.29397392272949,-0.13142776489257813)"/>
<path d="M0 0 C1.17487976 -0.00571014 2.34975952 -0.01142029 3.5602417 -0.01730347 C4.85070404 -0.01842133 6.14116638 -0.01953918 7.47073364 -0.02069092 C8.84235772 -0.02531981 10.21398051 -0.03034456 11.58560181 -0.03573608 C15.31291325 -0.0488544 19.04020668 -0.05530381 22.76753759 -0.05974674 C25.09614778 -0.06267809 27.42475304 -0.066783 29.75336075 -0.07125092 C37.03891695 -0.08492371 44.32446191 -0.0945917 51.61003006 -0.09845281 C60.02057608 -0.10293462 68.43095967 -0.12048906 76.84145629 -0.1494534 C83.34260608 -0.17106536 89.84371015 -0.18115681 96.34489548 -0.18249393 C100.22784616 -0.18354221 104.11064411 -0.18945503 107.99355698 -0.20731354 C111.64614602 -0.22378615 115.29846738 -0.22595382 118.95108032 -0.21717453 C120.92893416 -0.21603646 122.90677909 -0.22975969 124.88458252 -0.243927 C126.65536163 -0.23557327 126.65536163 -0.23557327 128.46191406 -0.22705078 C129.48581678 -0.22851734 130.50971951 -0.2299839 131.56464958 -0.2314949 C135.77863076 0.32961191 138.39410712 2.17660834 141.35794067 5.14044189 C141.56658801 7.58780395 141.65161014 9.92303538 141.64846802 12.37237549 C141.65518524 13.1172673 141.66190247 13.86215912 141.66882324 14.62962341 C141.68786739 17.09944272 141.69173075 19.56899117 141.69387817 22.03887939 C141.70030212 23.7527986 141.70703017 25.46671668 141.71405029 27.18063354 C141.72603944 30.77696271 141.72972949 34.37319571 141.72854614 37.96954346 C141.72834297 42.57891015 141.75563608 47.18766018 141.79009056 51.79688072 C141.81232532 55.33821445 141.81638473 58.87939905 141.81532669 62.42079544 C141.81768817 64.12007394 141.82654242 65.81935622 141.84199142 67.51856613 C141.86158111 69.89605634 141.85584188 72.27220762 141.84378052 74.64971924 C141.85501953 75.35220291 141.86625854 76.05468658 141.87783813 76.77845764 C141.83528679 80.07797449 141.5622073 81.86443212 139.57757568 84.54611206 C135.78299243 87.2717031 132.27219865 87.26730473 127.68501282 87.28088379 C125.95020912 87.28944901 125.95020912 87.28944901 124.18035889 87.29818726 C122.91533539 87.29930511 121.65031189 87.30042297 120.34695435 87.30157471 C118.99813197 87.30620524 117.64931089 87.31123021 116.30049133 87.31661987 C112.63921842 87.32972305 108.97796382 87.33618473 105.31667113 87.34063053 C103.02773973 87.34356455 100.73881331 87.34766997 98.44988441 87.3521347 C91.28392917 87.36580399 84.11798534 87.3754735 76.95201796 87.3793366 C68.68809201 87.38381646 60.42433153 87.40136331 52.16045588 87.43033719 C45.76710936 87.45197256 39.37380934 87.46204186 32.98042661 87.46337771 C29.16449543 87.46442439 25.34871992 87.47030288 21.53282738 87.48819733 C17.94177574 87.50471028 14.35099626 87.50681806 10.75992012 87.49805832 C8.82062929 87.49692435 6.88134737 87.5106167 4.94210815 87.52481079 C-1.31443926 87.49490194 -6.18357278 87.35081651 -11.64205933 84.14044189 C-13.12348414 81.17759226 -12.80669373 78.15818572 -12.81906128 74.9085083 C-12.82891808 73.79117058 -12.82891808 73.79117058 -12.838974 72.65126038 C-12.8587159 70.18150741 -12.87037071 67.71181523 -12.88034058 65.24200439 C-12.8844161 64.39932384 -12.88849163 63.5566433 -12.89269066 62.68842697 C-12.91355389 58.22940058 -12.92785524 53.77040499 -12.93722534 49.31134033 C-12.94829838 44.70201055 -12.98270753 40.0931624 -13.02239704 35.48400307 C-13.04851882 31.94268892 -13.05691314 28.40149038 -13.06050682 24.86008835 C-13.06538327 23.16079831 -13.07702732 21.46151379 -13.09554482 19.76231766 C-13.11984584 17.38487603 -13.11898855 15.00869188 -13.11203003 12.63116455 C-13.12484009 11.92868088 -13.13765015 11.2261972 -13.15084839 10.50242615 C-13.11514706 7.15791861 -12.8584176 5.42302739 -10.80018616 2.73477173 C-7.22809778 0.09586887 -4.30948824 0.01252924 0 0 Z M5.35794067 18.14044189 C5.35794067 34.97044189 5.35794067 51.80044189 5.35794067 69.14044189 C21.85794067 69.14044189 38.35794067 69.14044189 55.35794067 69.14044189 C55.35794067 52.31044189 55.35794067 35.48044189 55.35794067 18.14044189 C38.85794067 18.14044189 22.35794067 18.14044189 5.35794067 18.14044189 Z M73.35794067 18.14044189 C73.35794067 34.97044189 73.35794067 51.80044189 73.35794067 69.14044189 C89.85794067 69.14044189 106.35794067 69.14044189 123.35794067 69.14044189 C123.35794067 52.31044189 123.35794067 35.48044189 123.35794067 18.14044189 C106.85794067 18.14044189 90.35794067 18.14044189 73.35794067 18.14044189 Z " fill="#000000" transform="translate(285.6420593261719,203.85955810546875)"/>
<path d="M0 0 C1.7601519 -0.00856522 1.7601519 -0.00856522 3.55586243 -0.01730347 C4.84475372 -0.01842133 6.13364502 -0.01953918 7.46159363 -0.02069092 C8.83159519 -0.02531985 10.20159546 -0.03034462 11.57159424 -0.03573608 C15.29484072 -0.04885515 19.01806917 -0.05530412 22.74133515 -0.05974674 C25.06794302 -0.06267837 27.39454596 -0.06678336 29.72115135 -0.07125092 C37.0019042 -0.08492478 44.28264579 -0.09459188 51.56341058 -0.09845281 C59.96545663 -0.10293291 68.36733995 -0.12047899 76.76933652 -0.1494534 C83.26540644 -0.17107686 89.76143059 -0.18115745 96.25753611 -0.18249393 C100.1366064 -0.18354152 104.01552368 -0.18943938 107.89455605 -0.20731354 C111.54468589 -0.22380572 115.19454792 -0.2259443 118.84470177 -0.21717453 C120.81878482 -0.2160384 122.79285903 -0.22974707 124.76689148 -0.243927 C126.53973259 -0.23557327 126.53973259 -0.23557327 128.34838867 -0.22705078 C129.3713696 -0.22851734 130.39435053 -0.2299839 131.44833088 -0.2314949 C134.94158658 0.21401928 137.35200947 1.34390032 140.3646698 3.14044189 C141.84609462 6.10329153 141.52930421 9.12269806 141.54167175 12.37237549 C141.54824295 13.1172673 141.55481415 13.86215912 141.56158447 14.62962341 C141.58132637 17.09937638 141.59298118 19.56906856 141.60295105 22.03887939 C141.60702658 22.88155994 141.6111021 23.72424049 141.61530113 24.59245682 C141.63616436 29.05148321 141.65046572 33.5104788 141.65983582 37.96954346 C141.67090885 42.57887324 141.70531801 47.18772139 141.74500751 51.79688072 C141.77112929 55.33819487 141.77952361 58.87939341 141.78311729 62.42079544 C141.78799374 64.12008548 141.79963779 65.81936999 141.81815529 67.51856613 C141.84245632 69.89600776 141.84159903 72.27219191 141.8346405 74.64971924 C141.85385559 75.70344475 141.85385559 75.70344475 141.87345886 76.77845764 C141.83822065 80.07958094 141.5702899 81.86244842 139.58529663 84.54611206 C135.78408718 87.27524311 132.27277974 87.26651216 127.67828369 87.27415466 C126.51885757 87.27841965 125.35943146 87.28268463 124.16487122 87.28707886 C122.89670563 87.28662567 121.62854004 87.28617249 120.32194519 87.28570557 C118.96987821 87.28869846 117.61781208 87.2921013 116.26574707 87.29588318 C112.59633918 87.30471332 108.92695461 87.30706086 105.25753713 87.30769897 C102.96460112 87.30840994 100.67167103 87.31054514 98.3787365 87.31319618 C90.37835692 87.32244579 82.377994 87.32653148 74.37760925 87.32574463 C66.92153837 87.32514368 59.46553979 87.33569983 52.00948721 87.35148829 C45.60598093 87.3645645 39.20249828 87.3699285 32.79897875 87.36928922 C28.97532543 87.36903429 25.1517364 87.37188286 21.32809639 87.38246727 C17.73216845 87.39214981 14.13636626 87.39222641 10.54043388 87.38495064 C8.59361538 87.38340688 6.64679689 87.39175016 4.69999695 87.40039062 C3.53775101 87.39619614 2.37550507 87.39200165 1.17803955 87.38768005 C0.17018434 87.38822482 -0.83767088 87.38876959 -1.87606716 87.38933086 C-5.52694629 87.06001701 -8.36316868 85.97033534 -11.4225769 83.97453308 C-13.32063003 81.10403788 -13.06069386 78.12270462 -13.03938293 74.79498291 C-13.04624619 74.04994507 -13.05310944 73.30490723 -13.06018066 72.53729248 C-13.07849225 70.0727842 -13.07460504 67.6089099 -13.06892395 65.14434814 C-13.07348384 63.43185722 -13.07878883 61.71936813 -13.08480835 60.00688171 C-13.09374811 56.41647919 -13.09130675 52.82629898 -13.08137512 49.23590088 C-13.06988706 44.63437474 -13.09008958 40.03361617 -13.11929226 35.4321909 C-13.13763786 31.89512759 -13.13736506 28.35824876 -13.13165474 24.82114983 C-13.13150131 23.12467307 -13.13756372 21.42818397 -13.14994621 19.7317524 C-13.16482321 17.35911036 -13.15420479 14.98789283 -13.13703918 12.61529541 C-13.14670715 11.91438278 -13.15637512 11.21347015 -13.16633606 10.49131775 C-13.11576367 7.15353977 -12.84721799 5.41677679 -10.79147339 2.73576355 C-7.2234377 0.09578832 -4.3065092 0.01253649 0 0 Z M5.3646698 18.14044189 C5.3646698 34.97044189 5.3646698 51.80044189 5.3646698 69.14044189 C21.8646698 69.14044189 38.3646698 69.14044189 55.3646698 69.14044189 C55.3646698 52.31044189 55.3646698 35.48044189 55.3646698 18.14044189 C38.8646698 18.14044189 22.3646698 18.14044189 5.3646698 18.14044189 Z M73.3646698 18.14044189 C73.3646698 34.97044189 73.3646698 51.80044189 73.3646698 69.14044189 C89.8646698 69.14044189 106.3646698 69.14044189 123.3646698 69.14044189 C123.3646698 52.31044189 123.3646698 35.48044189 123.3646698 18.14044189 C106.8646698 18.14044189 90.3646698 18.14044189 73.3646698 18.14044189 Z " fill="#000000" transform="translate(97.63533020019531,203.85955810546875)"/>
<path d="M0 0 C1.81692856 -0.01908669 1.81692856 -0.01908669 3.67056274 -0.03855896 C5.0045796 -0.03237717 6.33859454 -0.02577119 7.67260742 -0.01878357 C9.08394268 -0.02584438 10.49527037 -0.03459009 11.90658569 -0.04489136 C15.73307388 -0.06737594 19.55914828 -0.06444821 23.38567734 -0.05556989 C26.58161758 -0.05045706 29.77748026 -0.05775483 32.97341251 -0.06504196 C40.51286166 -0.08203758 48.05210838 -0.07847812 55.59155273 -0.06175232 C63.3676267 -0.0448246 71.14313956 -0.06067483 78.91915226 -0.0929752 C85.59872369 -0.11966913 92.27812042 -0.12694788 98.95773983 -0.11846012 C102.94579969 -0.11353106 106.93352183 -0.11574519 110.92153931 -0.13624763 C114.67120878 -0.15460246 118.42007075 -0.14864975 122.16969681 -0.12404823 C123.54472068 -0.11903985 124.91980607 -0.12253105 126.29478073 -0.13519669 C136.78358615 -0.22416301 136.78358615 -0.22416301 141.28182983 2.58755493 C143.32475948 6.13908591 143.6716013 8.9838583 143.61254883 12.97950745 C143.62131042 13.71347748 143.63007202 14.44744751 143.63909912 15.20365906 C143.66103624 17.62043559 143.64656264 20.03536985 143.62963867 22.4521637 C143.63300849 24.13698171 143.6378625 25.82179735 143.64413452 27.50660706 C143.65149807 31.03394261 143.64081763 34.56064416 143.61743164 38.08790588 C143.58894344 42.60430364 143.60535029 47.11921581 143.63529396 51.63555908 C143.65338136 55.11353199 143.64760245 58.59115397 143.634655 62.06913757 C143.63132494 63.73407671 143.63539404 65.39904794 143.64705276 67.06394958 C143.65978626 69.39342853 143.64035432 71.72051853 143.61254883 74.04981995 C143.62266998 74.73464447 143.63279114 75.41946899 143.64321899 76.12504578 C143.56968097 79.45857672 142.94609249 81.5485351 141.28182983 84.44177246 C135.94251483 87.77921899 130.3979158 87.20232027 124.25854492 87.14576721 C122.84720969 87.15090785 121.43588087 87.15819024 120.02456665 87.16744995 C116.19796063 87.18595432 112.37205194 87.17303213 108.54547501 87.15335965 C104.53860932 87.13696354 100.53178746 87.14578738 96.52490234 87.15087891 C89.7963549 87.15539881 83.06808555 87.13953663 76.33959961 87.11158752 C68.5635778 87.07953591 60.78805751 87.07955158 53.01200008 87.09680229 C45.52776242 87.11267318 38.0437084 87.10593026 30.55947876 87.08886528 C27.37614038 87.08199762 24.19294933 87.08302424 21.00961304 87.09041023 C17.26000487 87.09807877 13.51096656 87.08592922 9.76145554 87.05856133 C8.38644477 87.05168224 7.01138073 87.0515745 5.63637161 87.05877686 C3.7575756 87.06748314 1.87871252 87.04906311 0 87.02932739 C-1.05080246 87.02652047 -2.10160492 87.02371355 -3.18424988 87.02082157 C-6.79056996 86.3803809 -8.4743712 85.09692225 -11.03442383 82.5146637 C-11.54059998 79.7918958 -11.72026483 77.68547889 -11.68139648 74.96388245 C-11.69015808 74.20894501 -11.69891968 73.45400757 -11.70794678 72.67619324 C-11.72992817 70.18426292 -11.71539419 67.69411158 -11.69848633 65.2021637 C-11.70185487 63.46868042 -11.7067078 61.73519944 -11.71298218 60.00172424 C-11.72035174 56.37006628 -11.70964577 52.73902354 -11.6862793 49.10743713 C-11.6577909 44.45304396 -11.67419451 39.80009224 -11.70414162 35.14575195 C-11.72221267 31.56659592 -11.71645758 27.98778145 -11.70350266 24.40861511 C-11.70016808 22.69260996 -11.70425758 20.97657375 -11.71590042 19.26060486 C-11.72860677 16.86138327 -11.70923918 14.46449291 -11.68139648 12.06544495 C-11.69151764 11.35675262 -11.70163879 10.6480603 -11.71206665 9.91789246 C-11.63686908 6.41900324 -11.37115758 4.85431828 -8.87189293 2.33337498 C-5.58505862 0.22663745 -3.87024 0.01033825 0 0 Z M6.96557617 18.5146637 C6.96557617 35.0146637 6.96557617 51.5146637 6.96557617 68.5146637 C23.46557617 68.5146637 39.96557617 68.5146637 56.96557617 68.5146637 C56.96557617 52.0146637 56.96557617 35.5146637 56.96557617 18.5146637 C40.46557617 18.5146637 23.96557617 18.5146637 6.96557617 18.5146637 Z M74.96557617 18.5146637 C74.96557617 35.0146637 74.96557617 51.5146637 74.96557617 68.5146637 C91.46557617 68.5146637 107.96557617 68.5146637 124.96557617 68.5146637 C124.96557617 52.0146637 124.96557617 35.5146637 124.96557617 18.5146637 C108.46557617 18.5146637 91.96557617 18.5146637 74.96557617 18.5146637 Z " fill="#000000" transform="translate(284.034423828125,84.48533630371094)"/>
<path d="M0 0 C1.41133523 -0.00514064 2.82266405 -0.01242302 4.23397827 -0.02168274 C8.06058429 -0.04018711 11.88649298 -0.02726492 15.71306992 -0.00759244 C19.7199356 0.00880367 23.72675746 -0.00002016 27.73364258 -0.00511169 C34.46219002 -0.0096316 41.19045937 0.00623059 47.91894531 0.03417969 C55.69496713 0.0662313 63.47048742 0.06621563 71.24654484 0.04896492 C78.7307825 0.03309403 86.21483652 0.03983695 93.69906616 0.05690193 C96.88240454 0.06376959 100.06559559 0.06274297 103.24893188 0.05535698 C106.99854005 0.04768844 110.74757836 0.059838 114.49708939 0.08720589 C115.87210015 0.09408497 117.2471642 0.09419272 118.62217331 0.08699036 C120.50096932 0.07828407 122.3798324 0.0967041 124.25854492 0.11643982 C125.30934738 0.11924674 126.36014984 0.12205366 127.4427948 0.12494564 C131.04911488 0.76538631 132.73291612 2.04884496 135.29296875 4.63110352 C135.79914491 7.35387141 135.97880975 9.46028832 135.93994141 12.18188477 C135.948703 12.9368222 135.9574646 13.69175964 135.9664917 14.46957397 C135.98847309 16.9615043 135.97393911 19.45165563 135.95703125 21.94360352 C135.96039979 23.67708679 135.96525272 25.41056777 135.9715271 27.14404297 C135.97889666 30.77570093 135.96819069 34.40674368 135.94482422 38.03833008 C135.91633582 42.69272325 135.93273943 47.34567498 135.96268654 52.00001526 C135.98075759 55.57917129 135.9750025 59.15798576 135.96204758 62.7371521 C135.958713 64.45315725 135.9628025 66.16919346 135.97444534 67.88516235 C135.98715169 70.28438394 135.9677841 72.68127431 135.93994141 75.08032227 C135.95006256 75.78901459 135.96018372 76.49770691 135.97061157 77.22787476 C135.895414 80.72676398 135.6297025 82.29144893 133.13043785 84.81239223 C129.84360355 86.91912976 128.12878492 87.13542896 124.25854492 87.14576721 C122.44161636 87.1648539 122.44161636 87.1648539 120.58798218 87.18432617 C119.25396532 87.17814438 117.91995038 87.1715384 116.5859375 87.16455078 C115.17460224 87.17161159 113.76327456 87.1803573 112.35195923 87.19065857 C108.52547104 87.21314315 104.69939664 87.21021543 100.87286758 87.2013371 C97.67692734 87.19622427 94.48106466 87.20352204 91.28513241 87.21080917 C83.74568326 87.22780479 76.20643654 87.22424533 68.66699219 87.20751953 C60.89091823 87.19059181 53.11540536 87.20644204 45.33939266 87.23874241 C38.65982124 87.26543634 31.9804245 87.27271509 25.30080509 87.26422733 C21.31274523 87.25929827 17.32502309 87.2615124 13.33700562 87.28201485 C9.58733614 87.30036967 5.83847418 87.29441696 2.08884811 87.26981544 C0.71382424 87.26480706 -0.66126115 87.26829826 -2.03623581 87.2809639 C-12.52504123 87.36993022 -12.52504123 87.36993022 -17.02328491 84.55821228 C-19.06621456 81.0066813 -19.41305638 78.16190891 -19.35400391 74.16625977 C-19.3627655 73.43228973 -19.3715271 72.6983197 -19.3805542 71.94210815 C-19.40249132 69.52533163 -19.38801771 67.11039736 -19.37109375 64.69360352 C-19.37446357 63.0087855 -19.37931757 61.32396986 -19.3855896 59.63916016 C-19.39295315 56.1118246 -19.38227271 52.58512306 -19.35888672 49.05786133 C-19.33039851 44.54146358 -19.34680537 40.0265514 -19.37674904 35.51020813 C-19.39483644 32.03223522 -19.38905753 28.55461324 -19.37611008 25.07662964 C-19.37278002 23.4116905 -19.37684912 21.74671927 -19.38850784 20.08181763 C-19.40124134 17.75233868 -19.3818094 15.42524868 -19.35400391 13.09594727 C-19.36918564 12.06871048 -19.36918564 12.06871048 -19.38467407 11.02072144 C-19.31113605 7.68719049 -18.68754757 5.59723211 -17.02328491 2.70399475 C-11.68396991 -0.63345178 -6.13937088 -0.05655306 0 0 Z M-0.70703125 18.63110352 C-0.70703125 35.13110352 -0.70703125 51.63110352 -0.70703125 68.63110352 C15.79296875 68.63110352 32.29296875 68.63110352 49.29296875 68.63110352 C49.29296875 52.13110352 49.29296875 35.63110352 49.29296875 18.63110352 C32.79296875 18.63110352 16.29296875 18.63110352 -0.70703125 18.63110352 Z M67.29296875 18.63110352 C67.29296875 35.13110352 67.29296875 51.63110352 67.29296875 68.63110352 C83.79296875 68.63110352 100.29296875 68.63110352 117.29296875 68.63110352 C117.29296875 52.13110352 117.29296875 35.63110352 117.29296875 18.63110352 C100.79296875 18.63110352 84.29296875 18.63110352 67.29296875 18.63110352 Z " fill="#000000" transform="translate(103.70703125,84.368896484375)"/>
<path d="M0 0 C1.23197113 -0.01248528 1.23197113 -0.01248528 2.48883057 -0.02522278 C5.21354873 -0.04938717 7.93802772 -0.05810333 10.6628418 -0.06469727 C12.55372695 -0.07365978 14.44461135 -0.08278155 16.335495 -0.09205627 C20.30424729 -0.10856708 24.27291502 -0.11624999 28.24169922 -0.11914062 C33.32635831 -0.12452197 38.410222 -0.16218264 43.49465656 -0.20788479 C47.40232742 -0.23763691 51.30980651 -0.2448638 55.2175808 -0.24586678 C57.09188664 -0.25007393 58.96619282 -0.26252807 60.84038734 -0.28338432 C63.46449693 -0.31025671 66.08676034 -0.30548599 68.7109375 -0.29296875 C69.48463181 -0.30780304 70.25832611 -0.32263733 71.0554657 -0.33792114 C74.85636608 -0.28632027 76.88521797 0.19221691 80.0302887 2.37730408 C82.47482248 5.9232681 82.75809043 8.606113 82.6965332 12.77124023 C82.7052948 13.50521027 82.7140564 14.2391803 82.7230835 14.99539185 C82.74502062 17.41216837 82.73054701 19.82710264 82.71362305 22.24389648 C82.71699287 23.9287145 82.72184687 25.61353014 82.7281189 27.29833984 C82.73548245 30.8256754 82.72480201 34.35237694 82.70141602 37.87963867 C82.67292781 42.39603642 82.68933466 46.9109486 82.71927834 51.42729187 C82.73736574 54.90526478 82.73158683 58.38288676 82.71863937 61.86087036 C82.71530931 63.5258095 82.71937842 65.19078073 82.73103714 66.85568237 C82.74377064 69.18516132 82.7243387 71.51225132 82.6965332 73.84155273 C82.71171494 74.86878952 82.71171494 74.86878952 82.72720337 75.91677856 C82.64878099 79.47172095 82.06144144 81.28919101 80.02830505 84.23350525 C76.23954231 86.87008354 73.20015179 87.00513682 68.74267578 86.9375 C67.91931732 86.9446553 67.09595886 86.95181061 66.24765015 86.95918274 C63.53391553 86.97605207 60.82183689 86.95668012 58.1081543 86.93530273 C56.2191606 86.93613152 54.33016697 86.93859126 52.44117737 86.94261169 C48.48595422 86.94546837 44.53129778 86.93077982 40.57617188 86.90332031 C35.50609243 86.86921436 30.43702471 86.87526469 25.36689663 86.89398289 C21.46779443 86.90454956 17.56892778 86.89561849 13.66984749 86.88059807 C11.80034141 86.87541492 9.93081075 86.87589967 8.06130791 86.88214302 C5.44935027 86.88759218 2.83884313 86.86723167 0.22705078 86.83984375 C-0.54552567 86.84636963 -1.31810211 86.85289551 -2.11408997 86.85961914 C-5.60010391 86.79744797 -7.57814494 86.58704591 -10.39903259 84.46055603 C-13.22874895 80.5314381 -13.08598551 77.14741527 -13.11157227 72.43579102 C-13.11653717 71.74112732 -13.12150208 71.04646362 -13.12661743 70.33074951 C-13.14121775 68.03355924 -13.1480373 65.73643802 -13.15356445 63.43920898 C-13.15931744 61.84121702 -13.16507516 60.24322508 -13.1708374 58.64523315 C-13.18134117 55.29449136 -13.18718799 51.94377352 -13.19067383 48.59301758 C-13.19615878 44.30337933 -13.22018925 40.01405845 -13.24864578 35.72451973 C-13.2672859 32.423361 -13.27247848 29.12227854 -13.2740097 25.82107162 C-13.27703342 24.23984923 -13.28505249 22.65862809 -13.29819489 21.07745743 C-13.31528542 18.8633241 -13.31336829 16.64996388 -13.30688477 14.43579102 C-13.3105304 13.17687042 -13.31417603 11.91794983 -13.31793213 10.62088013 C-12.35441536 1.93074619 -7.90303087 0.00673654 0 0 Z M5.04956055 18.30639648 C5.04956055 34.80639648 5.04956055 51.30639648 5.04956055 68.30639648 C24.51956055 68.30639648 43.98956055 68.30639648 64.04956055 68.30639648 C64.04956055 51.80639648 64.04956055 35.30639648 64.04956055 18.30639648 C44.57956055 18.30639648 25.10956055 18.30639648 5.04956055 18.30639648 Z " fill="#000000" transform="translate(344.950439453125,340.693603515625)"/>
<path d="M0 0 C1.23503769 -0.01073296 1.23503769 -0.01073296 2.49502563 -0.02168274 C5.20876026 -0.03855207 7.92083889 -0.01918012 10.63452148 0.00219727 C12.52351518 0.00136848 14.41250881 -0.00109126 16.30149841 -0.00511169 C20.25672156 -0.00796837 24.211378 0.00672018 28.16650391 0.03417969 C33.23658335 0.06828564 38.30565107 0.06223531 43.37577915 0.04351711 C47.27488135 0.03295044 51.173748 0.04188151 55.07282829 0.05690193 C56.94233437 0.06208508 58.81186503 0.06160033 60.68136787 0.05535698 C63.29332551 0.04990782 65.90383265 0.07026833 68.515625 0.09765625 C69.28820145 0.09113037 70.06077789 0.08460449 70.85676575 0.07788086 C74.34277969 0.14005203 76.32082073 0.35045409 79.14170837 2.47694397 C81.97142473 6.4060619 81.82866129 9.79008473 81.85424805 14.50170898 C81.8616954 15.54370453 81.8616954 15.54370453 81.86929321 16.60675049 C81.88389353 18.90394076 81.89071308 21.20106198 81.89624023 23.49829102 C81.90199323 25.09628298 81.90775094 26.69427492 81.91351318 28.29226685 C81.92401695 31.64300864 81.92986377 34.99372648 81.93334961 38.34448242 C81.93883456 42.63412067 81.96286503 46.92344155 81.99132156 51.21298027 C82.00996168 54.514139 82.01515426 57.81522146 82.01668549 61.11642838 C82.0197092 62.69765077 82.02772828 64.27887191 82.04087067 65.86004257 C82.0579612 68.0741759 82.05604408 70.28753612 82.04956055 72.50170898 C82.05502899 74.39008987 82.05502899 74.39008987 82.06060791 76.31661987 C81.55426335 80.88343401 79.89576575 83.428453 76.69311523 86.63110352 C74.00979404 86.84534043 71.42838821 86.9352107 68.74267578 86.9375 C67.92136169 86.94582352 67.10004761 86.95414703 66.25384521 86.96272278 C63.52912705 86.98688717 60.80464806 86.99560333 58.07983398 87.00219727 C56.18894883 87.01115978 54.29806443 87.02028155 52.40718079 87.02955627 C48.43842849 87.04606708 44.46976076 87.05374999 40.50097656 87.05664062 C35.41631747 87.06202197 30.33245378 87.09968264 25.24801922 87.14538479 C21.34034836 87.17513691 17.43286927 87.1823638 13.52509499 87.18336678 C11.65078914 87.18757393 9.77648297 87.20002807 7.90228844 87.22088432 C5.27817885 87.24775671 2.65591544 87.24298599 0.03173828 87.23046875 C-0.74195602 87.24530304 -1.51565033 87.26013733 -2.31278992 87.27542114 C-6.11369029 87.22382027 -8.14254219 86.74528309 -11.28761292 84.56019592 C-13.7321467 81.0142319 -14.01541465 78.331387 -13.95385742 74.16625977 C-13.96261902 73.43228973 -13.97138062 72.6983197 -13.98040771 71.94210815 C-14.00234484 69.52533163 -13.98787123 67.11039736 -13.97094727 64.69360352 C-13.97431709 63.0087855 -13.97917109 61.32396986 -13.98544312 59.63916016 C-13.99280667 56.1118246 -13.98212623 52.58512306 -13.95874023 49.05786133 C-13.93025203 44.54146358 -13.94665888 40.0265514 -13.97660255 35.51020813 C-13.99468996 32.03223522 -13.98891105 28.55461324 -13.97596359 25.07662964 C-13.97263353 23.4116905 -13.97670263 21.74671927 -13.98836136 20.08181763 C-14.00109486 17.75233868 -13.98166292 15.42524868 -13.95385742 13.09594727 C-13.96903915 12.06871048 -13.96903915 12.06871048 -13.98452759 11.02072144 C-13.90610521 7.46577905 -13.31876566 5.64830899 -11.28562927 2.70399475 C-7.49686652 0.06741646 -4.45747601 -0.06763682 0 0 Z M4.69311523 18.63110352 C4.69311523 35.13110352 4.69311523 51.63110352 4.69311523 68.63110352 C24.16311523 68.63110352 43.63311523 68.63110352 63.69311523 68.63110352 C63.69311523 52.13110352 63.69311523 35.63110352 63.69311523 18.63110352 C44.22311523 18.63110352 24.75311523 18.63110352 4.69311523 18.63110352 Z " fill="#000000" transform="translate(98.306884765625,340.368896484375)"/>
</svg>
