<?xml version="1.0" encoding="UTF-8"?>
<svg version="1.1" xmlns="http://www.w3.org/2000/svg" width="512" height="512">
<path d="M0 0 C1.19986542 -0.0071553 2.39973083 -0.01431061 3.63595581 -0.02168274 C5.61361435 -0.02571609 5.61361435 -0.02571609 7.63122559 -0.02983093 C9.03252328 -0.03609702 10.43381931 -0.04274395 11.83511353 -0.04974365 C16.44096725 -0.07077958 21.04682127 -0.08114964 25.65270996 -0.09111023 C27.24079913 -0.09515879 28.82888812 -0.09927574 30.41697693 -0.10346031 C37.88301285 -0.12251561 45.3490389 -0.1367426 52.81509447 -0.14507228 C61.41692794 -0.15482856 70.01850297 -0.18110433 78.62024546 -0.22157317 C85.27774977 -0.25181291 91.93518037 -0.26654881 98.59275198 -0.26985329 C102.5642554 -0.272196 106.53548286 -0.2810532 110.50691223 -0.30631447 C114.2498575 -0.32973649 117.99234795 -0.3337724 121.73534775 -0.32355309 C123.74785023 -0.32282803 125.76033034 -0.34182221 127.7727356 -0.36161804 C140.42283146 -0.28976085 149.93171566 3.15162836 159.30895996 11.70967102 C165.45341398 17.97183489 169.38046471 26.65913297 169.35998535 35.44477844 C169.35990982 36.52567245 169.35983429 37.60656647 169.35975647 38.72021484 C169.35459518 39.88591507 169.3494339 41.0516153 169.34411621 42.25263977 C169.34199379 44.04415215 169.34199379 44.04415215 169.33982849 45.87185669 C169.33422346 49.6928201 169.32167007 53.51372527 169.30895996 57.33467102 C169.30394561 59.9225608 169.29938259 62.5104515 169.29528809 65.0983429 C169.28425239 71.4479722 169.26750932 77.79756745 169.24645996 84.14717102 C170.24045303 84.14050919 171.23444611 84.13384735 172.25856018 84.12698364 C181.68690048 84.06581739 191.11519983 84.02102947 200.5436945 83.9917345 C205.38944415 83.97616672 210.23503194 83.95509359 215.08068848 83.92085266 C219.76860045 83.88793872 224.45635803 83.87025144 229.14437675 83.86253929 C230.92109032 83.85705265 232.69779672 83.84634114 234.47444344 83.82998085 C260.06315711 83.6040029 281.79251189 89.68267731 300.55895996 107.89717102 C309.22239213 116.68147522 315.37462869 127.44958892 319.24645996 139.14717102 C319.61798659 140.18982746 319.61798659 140.18982746 319.99701881 141.25354767 C323.37157996 152.30223364 322.66674171 163.74182653 322.63464355 175.1764679 C322.63871318 177.61194087 322.64405725 180.04741199 322.65057373 182.48287964 C322.66279376 188.38886852 322.66105974 194.29475221 322.65233581 200.20073807 C322.64553636 205.00442003 322.64465227 209.80806997 322.64790726 214.61175537 C322.64836696 215.29772977 322.64882666 215.98370416 322.64930028 216.69046566 C322.65025955 218.08439148 322.65123219 219.4783173 322.65221806 220.87224311 C322.66075473 233.9161849 322.65096496 246.96006325 322.63481696 260.00399464 C322.62141534 271.17496148 322.62374392 282.34583477 322.63757324 293.51679993 C322.65365961 306.51686468 322.65993091 319.51687395 322.65073645 332.51694727 C322.64978089 333.90549373 322.64883778 335.29404019 322.64790726 336.68258667 C322.64744443 337.36562173 322.6469816 338.04865679 322.64650475 338.75238988 C322.64392401 343.5454098 322.648266 348.33839426 322.65534592 353.13140869 C322.66468126 359.59280249 322.6579516 366.05406175 322.64066315 372.51543999 C322.63671057 374.88086595 322.63781118 377.24630682 322.64445114 379.61172676 C322.70312431 402.64430594 322.70312431 402.64430594 319.24645996 412.14717102 C319.00920889 412.80818062 318.77195782 413.46919022 318.52751732 414.15023041 C312.33898644 429.73392598 299.76278009 441.70803371 284.80895996 448.95967102 C273.47571023 453.61268669 262.77599735 454.58497388 250.64286804 454.53485107 C248.98502837 454.53903068 247.32719155 454.54451163 245.66935998 454.55117089 C241.14194101 454.56556208 236.61470506 454.56140065 232.08727634 454.55400407 C227.19347694 454.54925894 222.29971637 454.56179416 217.40592957 454.57202148 C207.82927308 454.58918884 198.25268226 454.59005373 188.67601439 454.58480858 C180.88895087 454.58076159 173.10190672 454.58221672 165.31484413 454.58755684 C164.20510564 454.58830526 163.09536714 454.58905368 161.9520002 454.58982478 C159.69731058 454.59135632 157.44262095 454.59289467 155.18793134 454.59443975 C134.05914352 454.60815748 112.93039276 454.60273234 91.8016058 454.59125454 C72.49048425 454.58132423 53.17945855 454.59426065 33.86835178 454.61818873 C14.01922166 454.64259734 -5.82986384 454.65218318 -25.67900866 454.64553601 C-36.81457124 454.64204754 -47.95006014 454.64425119 -59.08561134 454.66178703 C-68.56559482 454.67653108 -78.04545274 454.67711571 -87.52543382 454.65971612 C-92.35771497 454.65122169 -97.18977203 454.64901841 -102.02204132 454.66436768 C-106.45425651 454.67827135 -110.88605682 454.67337918 -115.31824835 454.65412844 C-116.91303041 454.65038544 -118.50784616 454.65324079 -120.10259805 454.66374009 C-140.27200877 454.78698061 -157.52183845 449.26697205 -172.16369629 434.83467102 C-188.71804014 417.65610605 -190.20565251 398.81964961 -190.15759277 376.16548157 C-190.16330145 373.73487536 -190.17026764 371.30427183 -190.1783905 368.87367249 C-190.19442855 362.97871522 -190.19643341 357.08385654 -190.1911776 351.18888911 C-190.18712077 346.39238254 -190.18859732 341.59590733 -190.19392586 336.79940224 C-190.19467428 336.11429401 -190.1954227 335.42918578 -190.1961938 334.7233167 C-190.19772543 333.33108807 -190.19926378 331.93885945 -190.20080877 330.54663084 C-190.21450819 317.51690901 -190.20911445 304.48724738 -190.19762356 291.45752696 C-190.18769664 279.56672148 -190.200627 267.67607173 -190.22455775 255.78529026 C-190.24900738 243.54339744 -190.25854209 231.30157698 -190.25190502 219.05966026 C-190.24842543 212.1997686 -190.25056085 205.33999657 -190.26815605 198.48012352 C-190.28450648 192.02608133 -190.27960554 185.57226223 -190.26085091 179.1182251 C-190.25718081 176.75889452 -190.26022701 174.39954173 -190.27073669 172.0402317 C-190.33583187 156.21004673 -189.54758406 142.03491814 -181.94104004 127.77217102 C-181.42066162 126.77032776 -181.42066162 126.77032776 -180.88977051 125.74824524 C-178.0397534 120.4007234 -174.84405517 115.63572799 -170.75354004 111.14717102 C-170.03811035 110.3402179 -169.32268066 109.53326477 -168.58557129 108.70185852 C-154.41093651 93.57916497 -135.01919255 84.76925897 -114.25527954 83.88731384 C-109.28676235 83.76685802 -104.32045292 83.80844277 -99.35119629 83.85420227 C-97.53417821 83.85981337 -95.71715551 83.86407629 -93.90013123 83.86706543 C-89.17045046 83.8783952 -84.44105616 83.90775675 -79.71148682 83.94117737 C-74.86421583 83.97213761 -70.01689751 83.98562563 -65.16955566 84.00068665 C-55.69742616 84.03264064 -46.22550713 84.08368901 -36.75354004 84.14717102 C-36.7646431 83.49730225 -36.77574615 82.84743347 -36.78718567 82.1778717 C-36.89850943 75.36374266 -36.97350822 68.54987536 -37.02819824 61.73506165 C-37.05321532 59.19784538 -37.08723988 56.66070025 -37.1307373 54.12373352 C-37.19195204 50.45949159 -37.21987954 46.79620916 -37.24182129 43.13154602 C-37.26762772 42.01229736 -37.29343414 40.89304871 -37.32002258 39.73988342 C-37.32381286 28.89847314 -34.08779427 19.69198281 -26.49572754 11.82295227 C-25.63334473 10.99344055 -25.63334473 10.99344055 -24.75354004 10.14717102 C-23.82541504 9.23967102 -22.89729004 8.33217102 -21.94104004 7.39717102 C-15.49375679 2.84614755 -7.88406376 0.03224606 0 0 Z M-5.75354004 35.14717102 C-5.75354004 51.31717102 -5.75354004 67.48717102 -5.75354004 84.14717102 C41.76645996 84.14717102 89.28645996 84.14717102 138.24645996 84.14717102 C138.24645996 67.97717102 138.24645996 51.80717102 138.24645996 35.14717102 C133.25822867 30.96139033 133.25822867 30.96139033 127.5916748 30.63923645 C126.46453064 30.62795715 125.33738647 30.61667786 124.17608643 30.60505676 C122.94891907 30.61315369 121.72175171 30.62125061 120.45739746 30.6295929 C119.15772034 30.62258362 117.85804321 30.61557434 116.51898193 30.60835266 C112.96105224 30.59014301 109.40358736 30.5971767 105.84564972 30.609869 C102.11905176 30.62000907 98.39249311 30.61060054 94.66589355 30.60432434 C88.40817127 30.59705084 82.15063793 30.60662771 75.89294434 30.62568665 C68.66223954 30.647455 61.43198591 30.6404034 54.20129204 30.61838102 C47.98881104 30.60021843 41.77646572 30.59767284 35.56396675 30.6081357 C31.85541516 30.61436598 28.1470755 30.61521929 24.4385376 30.60198975 C20.30392821 30.58827006 16.17009438 30.60729477 12.03552246 30.6295929 C10.8083551 30.62149597 9.58118774 30.61339905 8.3168335 30.60505676 C7.18968933 30.61633606 6.06254517 30.62761536 4.90124512 30.63923645 C3.43565659 30.6414986 3.43565659 30.6414986 1.94046021 30.64380646 C-1.44589498 31.05783689 -1.44589498 31.05783689 -5.75354004 35.14717102 Z M-147.75354004 132.14717102 C-158.1857625 145.55412623 -159.40992216 158.73264728 -159.27502441 175.15644836 C-159.25353686 178.27263276 -159.27492534 181.38652439 -159.30041504 184.50263977 C-159.29777228 186.51175937 -159.29264837 188.52087755 -159.28479004 190.52998352 C-159.29288696 191.44691986 -159.30098389 192.3638562 -159.30932617 193.30857849 C-159.15808625 203.88172287 -155.07100956 212.59098764 -147.75354004 220.14717102 C-140.95326819 225.25706908 -133.84929677 227.60661218 -125.65979004 229.52998352 C-123.88215271 229.96901505 -123.88215271 229.96901505 -122.06860352 230.41691589 C-118.81451856 231.21714576 -115.5574991 232.00240566 -112.29827881 232.78126526 C-108.83637611 233.61240712 -105.37922854 234.46289094 -101.92150879 235.31123352 C-95.8693404 236.7934162 -89.81431548 238.26342547 -83.75744629 239.72627258 C-73.88431253 242.11139472 -64.01769895 244.52290007 -54.15177917 246.93766403 C-33.35713551 252.02714507 -12.55692292 257.09354138 8.24645996 262.14717102 C10.34072332 259.00577599 10.98617904 256.65032784 11.93395996 253.02217102 C14.94298746 243.11332223 19.76134362 237.43449004 28.71911621 232.33857727 C33.5129473 230.07873418 37.75500485 228.89833609 43.06140137 228.84077454 C44.18341949 228.82478714 45.30543762 228.80879974 46.4614563 228.79232788 C47.66152313 228.78696518 48.86158997 228.78160248 50.09802246 228.77607727 C51.3484433 228.7670488 52.59886414 228.75802032 53.88717651 228.74871826 C56.53166089 228.73422706 59.17571377 228.72453756 61.82019043 228.72163391 C64.51069707 228.71733675 67.20024182 228.69655611 69.89050293 228.66011047 C73.79330242 228.61099605 77.6949448 228.59582124 81.59802246 228.58857727 C82.78594391 228.56904495 83.97386536 228.54951263 85.19778442 228.52938843 C95.46125851 228.58406185 105.22340215 231.2161238 112.79333496 238.51045227 C117.40867813 243.70891675 119.53538996 248.70919124 121.39099121 255.42842102 C121.74137451 256.68719055 122.09175781 257.94596008 122.45275879 259.24287415 C122.71468018 260.20129211 122.97660156 261.15971008 123.24645996 262.14717102 C127.14492918 261.20329159 131.04335363 260.25922731 134.94177246 259.31513977 C136.19597992 259.01145477 137.45018738 258.70776978 138.74240112 258.3948822 C145.88832231 256.6643389 153.03363413 254.93131808 160.17810059 253.19477844 C163.25553805 252.44698819 166.33301835 251.69937442 169.41052246 250.95185852 C170.19730125 250.76072542 170.98408005 250.56959232 171.79470062 250.37266731 C182.04448511 247.88353367 192.29842421 245.41251667 202.55763817 242.96253109 C209.683128 241.26087384 216.8067316 239.55147539 223.92914772 237.83699894 C228.25655792 236.79587122 232.58496318 235.75933724 236.91595459 234.73320007 C241.02179424 233.76034781 245.12469795 232.77594063 249.2257576 231.78313828 C250.73395408 231.42020968 252.24316434 231.06146257 253.75345993 230.70737076 C266.77412227 227.6506842 279.35204513 223.88361283 287.07164001 212.17102051 C291.03787075 205.33843815 291.70474391 198.38294475 291.68005371 190.62763977 C291.68529556 189.64781631 291.69053741 188.66799286 291.69593811 187.65847778 C291.70232567 185.59701987 291.70106398 183.53552536 291.69250488 181.47407532 C291.68401084 178.35336475 291.71277764 175.23449755 291.74450684 172.1139679 C291.78137084 161.81660684 291.80143519 152.59147937 287.24645996 143.14717102 C286.72825684 142.07080383 286.21005371 140.99443665 285.67614746 139.88545227 C277.73931596 127.50160212 267.66984279 120.061675 253.4620409 116.08900166 C246.84237197 114.66457776 240.1647583 114.86718354 233.42607117 114.88647461 C231.92542672 114.88345072 230.42478381 114.87956005 228.92414361 114.87488204 C224.8174455 114.86462377 220.71083489 114.86677832 216.60412967 114.87106264 C212.16842455 114.87353382 207.73274029 114.8645108 203.29704285 114.85702515 C194.61334584 114.84428681 185.92967976 114.8424834 177.24597498 114.84482541 C170.18583867 114.84660978 163.12571174 114.84485637 156.06557655 114.84060097 C155.06002915 114.84000578 154.05448174 114.83941059 153.0184632 114.83879736 C150.97555778 114.83758559 148.93265236 114.83637145 146.88974694 114.83515499 C127.73826877 114.82428268 108.58680822 114.82644042 89.43532906 114.83253983 C71.92616563 114.8377081 54.41705785 114.82645538 36.90790542 114.80744161 C18.91775987 114.78805572 0.92764063 114.77980858 -17.06251544 114.78356487 C-27.15787919 114.78547585 -37.25319558 114.78299943 -47.3485508 114.76885033 C-55.94337444 114.75692595 -64.53812158 114.75554347 -73.13294629 114.76764049 C-77.51519682 114.77352188 -81.89730749 114.77464914 -86.27954865 114.76263809 C-90.29717499 114.75175469 -94.31454511 114.75491166 -98.3321596 114.76889978 C-99.77960449 114.77153997 -101.22706962 114.7692016 -102.6744946 114.76116391 C-120.29625262 114.67016037 -135.5247836 118.80881097 -147.75354004 132.14717102 Z M-158.75354004 250.14717102 C-158.82368065 269.04501581 -158.87655296 287.94283411 -158.90897655 306.84078217 C-158.92443283 315.61580766 -158.94549861 324.39075219 -158.9798584 333.16572571 C-159.00979875 340.81570157 -159.02912405 348.46561878 -159.03580552 356.11565161 C-159.03970994 360.16475023 -159.04885991 364.21368108 -159.07073021 368.26272583 C-159.09116871 372.07777901 -159.09735905 375.89259609 -159.09286308 379.70769882 C-159.093685 381.10405131 -159.0996068 382.50041211 -159.11115646 383.89671707 C-159.20306106 395.58590151 -157.26563741 403.94485174 -149.75354004 413.14717102 C-141.23126514 421.57599993 -130.69558323 423.65150181 -119.07272148 423.68214464 C-117.56414452 423.67349944 -116.05556972 423.66447294 -114.54699707 423.65510559 C-112.92016607 423.65972105 -111.29333926 423.66607827 -109.66652107 423.67401457 C-105.22027579 423.69064257 -100.77437594 423.6824914 -96.32812977 423.67006969 C-91.5236819 423.66099468 -86.71929216 423.67500107 -81.91485596 423.68598938 C-72.51250508 423.70375305 -63.11028211 423.6999442 -53.70792627 423.68833882 C-46.06477467 423.6792963 -38.42165884 423.67808404 -30.77850342 423.68243408 C-29.68967743 423.68304701 -28.60085144 423.68365995 -27.47903073 423.68429145 C-25.26693264 423.68557039 -23.05483455 423.68686724 -20.84273648 423.68818182 C-0.11178822 423.69958131 20.61908924 423.68648379 41.35002589 423.66498035 C59.12869041 423.64710996 76.90725045 423.65021424 94.68591309 423.6686554 C115.34391817 423.69007323 136.00186123 423.69848273 156.65987587 423.68620634 C158.86372502 423.68493218 161.06757417 423.68367469 163.27142334 423.68243408 C164.35569009 423.68181698 165.43995683 423.68119988 166.55708015 423.68056408 C174.18888648 423.67711392 181.82065339 423.68293232 189.45245361 423.69235229 C198.75618177 423.70358378 208.05977498 423.700508 217.36348772 423.67922932 C222.10817674 423.66873443 226.85264095 423.66457045 231.59732819 423.67782593 C235.94488215 423.689788 240.29200395 423.6831247 244.63951898 423.66191572 C246.20801184 423.65746577 247.77654158 423.6596796 249.34501052 423.66941887 C261.56913879 423.73947169 271.62252121 422.18335722 281.23864746 414.13545227 C288.37655209 407.06698251 291.31055828 399.6929066 291.48696899 389.76266479 C291.49275307 387.15795541 291.48783372 384.5546907 291.47351074 381.95014954 C291.472946 380.51071175 291.47326442 379.07127339 291.47439575 377.63183594 C291.4749678 373.73976164 291.46323751 369.8478115 291.44924784 365.95576596 C291.43671577 361.88252475 291.43556803 357.80928046 291.43319702 353.73602295 C291.42698952 346.02971424 291.4105886 338.32346251 291.39049804 330.61717886 C291.36811631 321.84089165 291.3571399 313.06460167 291.34710717 304.288293 C291.32622171 286.24122008 291.29105995 268.19420014 291.24645996 250.14717102 C290.40732559 250.5178923 289.56819122 250.88861359 288.70362854 251.27056885 C277.79344425 255.8820712 266.74439819 258.77931397 255.24255371 261.52607727 C253.21127592 262.01978626 251.18023458 262.51446896 249.14941406 263.01005554 C243.76953892 264.32008057 238.38650715 265.61664798 233.00272751 266.91051865 C227.45314128 268.24684755 221.90674438 269.59628418 216.35998535 270.94429016 C203.65935762 274.02806664 190.95390881 277.09163704 178.24645996 280.14717102 C176.94197906 280.46085884 176.94197906 280.46085884 175.61114502 280.78088379 C171.02614754 281.8832648 166.44095381 282.98482574 161.8555584 284.08555031 C159.85830314 284.56501315 157.86110301 285.0447051 155.86390686 285.52441406 C150.0984805 286.90849178 144.3320325 288.28784671 138.56262207 289.65522766 C137.56267212 289.89351288 136.56272217 290.1317981 135.5324707 290.37730408 C133.71920763 290.80935749 131.90529168 291.23868488 130.09057617 291.66459656 C126.36416656 292.28787048 126.36416656 292.28787048 123.24645996 294.14717102 C123.13225621 295.88560589 123.02504534 297.62483731 122.95666504 299.36567688 C122.50246746 310.86117043 121.05081655 321.15023859 113.24645996 330.14717102 C106.31535554 336.46955569 99.02093714 340.24377324 89.59509277 340.30830383 C88.46001282 340.31791138 87.32493286 340.32751892 86.15545654 340.3374176 C84.93251892 340.34166748 83.7095813 340.34591736 82.44958496 340.35029602 C81.18684753 340.35599609 79.92411011 340.36169617 78.62310791 340.36756897 C75.94999593 340.37701634 73.27699613 340.38391441 70.60388184 340.3874054 C67.19676028 340.39287689 63.79004101 340.41688374 60.3830452 340.44537735 C57.11358943 340.46860904 53.84411168 340.4704606 50.57458496 340.47529602 C49.35974426 340.48764282 48.14490356 340.49998962 46.89324951 340.51271057 C36.31588188 340.48505174 28.50502492 337.92225302 20.24645996 331.14717102 C12.31038941 322.81429694 10.29114608 312.97305249 9.68395996 301.83467102 C9.64077637 301.09410461 9.59759277 300.35353821 9.55310059 299.5905304 C9.44775564 297.77625638 9.3466768 295.96173552 9.24645996 294.14717102 C5.29963402 292.44747401 1.372367 291.35120184 -2.80114746 290.33808899 C-3.4969608 290.16810331 -4.19277414 289.99811764 -4.90967274 289.82298088 C-7.22527305 289.25823592 -9.54211658 288.69877775 -11.85900879 288.13935852 C-13.51118358 287.73766973 -15.16328148 287.33566459 -16.81530762 286.93336487 C-20.34729702 286.07398189 -23.87984043 285.21692662 -27.41281128 284.36158752 C-32.96353875 283.01751424 -38.51253494 281.66638352 -44.06140137 280.31465149 C-61.03905718 276.18142347 -78.02212325 272.0724627 -95.0214138 268.02907944 C-99.5360234 266.95416587 -104.04934585 265.87385628 -108.56268787 264.79363441 C-112.74714127 263.7930596 -116.93387702 262.80289008 -121.12270164 261.82078552 C-123.09289203 261.35699255 -125.06174631 260.88794941 -127.03015137 260.41664124 C-129.37986366 259.85414914 -131.73148448 259.29952435 -134.08557129 258.75563049 C-142.66902191 256.6793422 -150.64039961 253.57678506 -158.75354004 250.14717102 Z M40.24645996 262.14717102 C39.79421493 264.23792487 39.79421493 264.23792487 39.85827637 266.57099915 C39.84881989 267.46202332 39.8393634 268.35304749 39.82962036 269.27107239 C39.83569305 270.23049744 39.84176575 271.18992249 39.84802246 272.17842102 C39.84515228 273.16588318 39.8422821 274.15334534 39.83932495 275.17073059 C39.83728321 277.25874912 39.84282072 279.34678672 39.85534668 281.43476868 C39.87139846 284.63490985 39.85550137 287.83378798 39.83630371 291.03388977 C39.83828612 293.06123631 39.84212976 295.08858207 39.84802246 297.11592102 C39.84194977 298.07534607 39.83587708 299.03477112 39.82962036 300.02326965 C39.83907684 300.91429382 39.84853333 301.80531799 39.85827637 302.7233429 C39.86066315 303.50705261 39.86304993 304.29076233 39.86550903 305.09822083 C40.35541347 307.73317909 41.07017902 308.60248568 43.24645996 310.14717102 C45.37801591 310.59975879 45.37801591 310.59975879 47.76208496 310.53535461 C48.67312988 310.5448111 49.5841748 310.55426758 50.52282715 310.56401062 C51.50412598 310.55793793 52.4854248 310.55186523 53.49645996 310.54560852 C54.50611816 310.5484787 55.51577637 310.55134888 56.55603027 310.55430603 C58.69112712 310.5563479 60.82624262 310.55080948 62.96130371 310.5382843 C66.23386367 310.5222328 69.50518852 310.53812927 72.77770996 310.55732727 C74.85062936 310.55534486 76.92354799 310.55150123 78.99645996 310.54560852 C79.97775879 310.55168121 80.95905762 310.55775391 81.97009277 310.56401062 C82.8811377 310.55455414 83.79218262 310.54509766 84.73083496 310.53535461 C85.53230957 310.53296783 86.33378418 310.53058105 87.1595459 310.52812195 C89.81818674 310.04280647 90.69053356 309.34222805 92.24645996 307.14717102 C92.698705 305.05641717 92.698705 305.05641717 92.63464355 302.7233429 C92.64410004 301.83231873 92.65355652 300.94129456 92.66329956 300.02326965 C92.65419052 298.58413208 92.65419052 298.58413208 92.64489746 297.11592102 C92.64920273 295.63472778 92.64920273 295.63472778 92.65359497 294.12361145 C92.65563671 292.03559292 92.65009921 289.94755532 92.63757324 287.85957336 C92.62152146 284.65943219 92.63741855 281.46055406 92.65661621 278.26045227 C92.6546338 276.23310573 92.65079017 274.20575997 92.64489746 272.17842102 C92.65097015 271.21899597 92.65704285 270.25957092 92.66329956 269.27107239 C92.65384308 268.38004822 92.6443866 267.48902405 92.63464355 266.57099915 C92.63106339 265.39543457 92.63106339 265.39543457 92.62741089 264.19612122 C92.13750645 261.56116295 91.4227409 260.69185636 89.24645996 259.14717102 C87.11490401 258.69458325 87.11490401 258.69458325 84.73083496 258.75898743 C83.81979004 258.74953094 82.90874512 258.74007446 81.97009277 258.73033142 C80.49814453 258.73944046 80.49814453 258.73944046 78.99645996 258.74873352 C77.98680176 258.74586334 76.97714355 258.74299316 75.93688965 258.74003601 C73.8017928 258.73799414 71.6666773 258.74353256 69.53161621 258.75605774 C66.25905625 258.77210924 62.9877314 258.75621278 59.71520996 258.73701477 C57.64229056 258.73899718 55.56937193 258.74284081 53.49645996 258.74873352 C52.51516113 258.74266083 51.5338623 258.73658813 50.52282715 258.73033142 C49.15625977 258.74451614 49.15625977 258.74451614 47.76208496 258.75898743 C46.55987305 258.7625676 46.55987305 258.7625676 45.33337402 258.76622009 C42.67473318 259.25153557 41.80238636 259.95211399 40.24645996 262.14717102 Z " fill="#000000" transform="translate(189.7535400390625,28.852828979492188)"/>
</svg>
