<?xml version="1.0" encoding="UTF-8"?>
<svg version="1.1" xmlns="http://www.w3.org/2000/svg" width="512" height="512">
<path d="M0 0 C15.30390381 14.32084054 25.29698465 35.76107102 26 56.65234375 C26.1565902 67.22433705 25.77650944 76.53542156 23.6875 86.98046875 C36.5575 87.47546875 36.5575 87.47546875 49.6875 87.98046875 C49.64109375 84.850625 49.5946875 81.72078125 49.546875 78.49609375 C49.51567941 75.46453473 49.49139159 72.43299359 49.46777344 69.40136719 C49.44765874 67.29451493 49.42036333 65.1877185 49.38574219 63.08105469 C49.33721832 60.05259428 49.31452984 57.02487197 49.296875 53.99609375 C49.27622986 53.0542926 49.25558472 52.11249146 49.23431396 51.14215088 C49.23208813 44.65443821 49.23208813 44.65443821 51.46191406 41.35449219 C53.6875 39.98046875 53.6875 39.98046875 57.6875 39.98046875 C57.66655273 38.66852539 57.64560547 37.35658203 57.62402344 36.00488281 C57.5516203 31.13715531 57.50569887 26.2694754 57.46777344 21.40136719 C57.44765874 19.29451493 57.42036333 17.1877185 57.38574219 15.08105469 C57.33721832 12.05259428 57.31452984 9.02487197 57.296875 5.99609375 C57.27622986 5.0542926 57.25558472 4.11249146 57.23431396 3.14215088 C57.23211659 -3.26259984 57.23211659 -3.26259984 59.14013672 -6.43408203 C62.84625561 -8.74072724 66.698211 -10.05433717 70.8359375 -11.40234375 C71.72608551 -11.70268524 72.61623352 -12.00302673 73.53335571 -12.31246948 C76.37280423 -13.26765819 79.21741567 -14.20627924 82.0625 -15.14453125 C83.96911403 -15.78276771 85.87536852 -16.42207932 87.78125 -17.0625 C92.04955984 -18.49423728 96.32096083 -19.91615921 100.5965271 -21.32608032 C102.44274702 -21.93836129 104.28426222 -22.56478926 106.125 -23.19335938 C108.63340572 -24.00209079 110.68596189 -24.34812598 113.3125 -24.39453125 C114.41464844 -24.43707031 114.41464844 -24.43707031 115.5390625 -24.48046875 C118.62711017 -23.81794216 119.71862772 -22.4558624 121.6875 -20.01953125 C122.16851807 -17.26068115 122.16851807 -17.26068115 122.14160156 -14.05761719 C122.14114838 -12.2562027 122.14114838 -12.2562027 122.14068604 -10.418396 C122.12004089 -9.12661438 122.09939575 -7.83483276 122.078125 -6.50390625 C122.07066071 -5.16441696 122.06496866 -3.82491673 122.06097412 -2.4854126 C122.04573213 1.03298311 122.00646418 4.5507139 121.9621582 8.06884766 C121.92117364 11.66169236 121.9029564 15.25464495 121.8828125 18.84765625 C121.83996745 25.89219841 121.77173446 32.93629007 121.6875 39.98046875 C122.63625 40.08359375 123.585 40.18671875 124.5625 40.29296875 C127.6875 40.98046875 127.6875 40.98046875 129.6875 43.98046875 C129.92800903 46.01164246 129.92800903 46.01164246 129.91455078 48.36010742 C129.91439972 49.24079391 129.91424866 50.12148041 129.91409302 51.02885437 C129.90377045 51.9758168 129.89344788 52.92277924 129.8828125 53.8984375 C129.87856766 55.3570092 129.87856766 55.3570092 129.87423706 56.845047 C129.86303599 59.95281241 129.83793148 63.06029034 129.8125 66.16796875 C129.80247011 68.27408438 129.79334427 70.38020453 129.78515625 72.48632812 C129.76309688 77.65115255 129.72856746 82.8157619 129.6875 87.98046875 C130.93142517 87.9715863 132.17535034 87.96270386 133.45697021 87.95355225 C145.16972494 87.87252736 156.88242293 87.81253254 168.59539413 87.77322006 C174.61742568 87.75232977 180.6392313 87.72398533 186.66113281 87.67871094 C192.47070797 87.63530535 198.28006558 87.61134251 204.08979034 87.60095978 C206.30822424 87.59355895 208.526646 87.57910718 210.74498749 87.55754852 C213.84815871 87.52858541 216.95042668 87.52450985 220.05371094 87.52636719 C220.97440369 87.51198608 221.89509644 87.49760498 222.84368896 87.48278809 C223.69060303 87.48828674 224.53751709 87.4937854 225.41009521 87.49945068 C226.14384243 87.49576351 226.87758965 87.49207634 227.63357162 87.48827744 C230.63050391 88.20644466 231.82384004 89.56899562 233.6875 91.98046875 C234.19086456 94.33557129 234.19086456 94.33557129 234.19543457 96.99023438 C234.21235352 98.50435913 234.21235352 98.50435913 234.22961426 100.04907227 C234.21746887 101.70120728 234.21746887 101.70120728 234.20507812 103.38671875 C234.21559204 105.13359985 234.21559204 105.13359985 234.22631836 106.91577148 C234.24394432 110.77091208 234.23225841 114.62532049 234.21875 118.48046875 C234.22144357 121.15560828 234.22531853 123.83072544 234.23034668 126.50585938 C234.23762197 132.11466425 234.22803871 137.72325838 234.20898438 143.33203125 C234.18721557 149.81464782 234.19426705 156.29676117 234.21629 162.77936554 C234.23444759 168.34723464 234.23700066 173.91495234 234.22653532 179.48284149 C234.22030222 182.80742545 234.22103198 186.13172127 234.23268127 189.45629883 C234.24281748 193.16262032 234.22738485 196.86796982 234.20507812 200.57421875 C234.21317505 201.67564209 234.22127197 202.77706543 234.22961426 203.91186523 C234.21269531 205.42598999 234.21269531 205.42598999 234.19543457 206.97070312 C234.19317242 208.28476135 234.19317242 208.28476135 234.19086456 209.62536621 C233.6875 211.98046875 233.6875 211.98046875 229.6875 215.98046875 C225.7275 215.98046875 221.7675 215.98046875 217.6875 215.98046875 C217.6875 284.62046875 217.6875 353.26046875 217.6875 423.98046875 C221.6475 423.98046875 225.6075 423.98046875 229.6875 423.98046875 C234.1886443 428.48161305 234.1886443 428.48161305 234.20507812 432.04296875 C234.22399109 433.22439453 234.22399109 433.22439453 234.24328613 434.4296875 C234.23114075 435.69232422 234.23114075 435.69232422 234.21875 436.98046875 C234.2225769 437.85316406 234.22640381 438.72585938 234.23034668 439.625 C234.2330649 441.46745967 234.22570994 443.30995799 234.20898438 445.15234375 C234.18757248 447.97092809 234.20878801 450.7869636 234.234375 453.60546875 C234.23173171 455.39714104 234.22660669 457.18881174 234.21875 458.98046875 C234.22684692 459.82222656 234.23494385 460.66398437 234.24328613 461.53125 C234.22437317 462.71267578 234.22437317 462.71267578 234.20507812 463.91796875 C234.20189575 464.60761719 234.19871338 465.29726563 234.19543457 466.0078125 C233.42084346 469.01607789 232.14414335 470.08618227 229.6875 471.98046875 C226.85651079 472.372445 224.41515285 472.51819423 221.58520508 472.48383331 C220.75786173 472.48964708 219.93051838 472.49546084 219.07810402 472.50145078 C216.28745485 472.51612539 213.49767497 472.50213096 210.70703125 472.48840332 C208.69352262 472.49300929 206.68001736 472.49936014 204.66651917 472.5073123 C199.11922013 472.52407052 193.57219497 472.51572979 188.02489471 472.50336742 C182.04798998 472.49434576 176.07113353 472.5082723 170.09423828 472.51928711 C159.05749932 472.53607692 148.02083604 472.53457809 136.98409653 472.52364124 C126.7890302 472.51358776 116.59399604 472.51094811 106.39892578 472.51573181 C105.72324401 472.51603735 105.04756224 472.51634289 104.35140526 472.51665769 C101.60874518 472.517903 98.86608511 472.5191766 96.12342507 472.52049675 C70.38353975 472.53273884 44.64371032 472.52162926 18.90383363 472.50010916 C-3.97559919 472.48112605 -26.85494296 472.48282453 -49.734375 472.50195312 C-75.42651232 472.5233614 -101.11860024 472.53187072 -126.81074524 472.51950407 C-129.54847208 472.51822116 -132.28619892 472.5169698 -135.02392578 472.51573181 C-135.69804752 472.5154155 -136.37216926 472.51509919 -137.06671894 472.5147733 C-147.25656964 472.51021916 -157.4463847 472.5155524 -167.63623047 472.52565002 C-179.21998683 472.53707156 -190.80365843 472.53387472 -202.3874054 472.51252705 C-208.30176771 472.50198804 -214.21594894 472.49794329 -220.13031006 472.51112366 C-225.53865637 472.5229944 -230.9466528 472.51657316 -236.35496712 472.49521345 C-238.31721715 472.49072474 -240.27949641 472.49306406 -242.24172783 472.5027166 C-244.89831396 472.51478791 -247.55368371 472.50250076 -250.21020508 472.48383331 C-251.36710877 472.49788031 -251.36710877 472.49788031 -252.54738426 472.51221108 C-256.06829573 472.46237353 -257.95952874 472.25264041 -260.78714752 470.07229948 C-262.46519894 467.7710612 -262.81710949 466.72838663 -262.83007812 463.91796875 C-262.84899109 462.73654297 -262.84899109 462.73654297 -262.86828613 461.53125 C-262.86018921 460.68949219 -262.85209229 459.84773438 -262.84375 458.98046875 C-262.8475769 458.10777344 -262.85140381 457.23507812 -262.85534668 456.3359375 C-262.8580649 454.49347783 -262.85070994 452.65097951 -262.83398438 450.80859375 C-262.81257248 447.99000941 -262.83378801 445.1739739 -262.859375 442.35546875 C-262.85673171 440.56379646 -262.85160669 438.77212576 -262.84375 436.98046875 C-262.85589539 435.71783203 -262.85589539 435.71783203 -262.86828613 434.4296875 C-262.85567749 433.64207031 -262.84306885 432.85445313 -262.83007812 432.04296875 C-262.82689575 431.35332031 -262.82371338 430.66367187 -262.82043457 429.953125 C-262.3125 427.98046875 -262.3125 427.98046875 -258.3125 423.98046875 C-254.3525 423.98046875 -250.3925 423.98046875 -246.3125 423.98046875 C-246.3125 355.34046875 -246.3125 286.70046875 -246.3125 215.98046875 C-250.2725 215.98046875 -254.2325 215.98046875 -258.3125 215.98046875 C-262.8126713 211.48029745 -262.8126713 211.48029745 -262.82043457 206.97070312 C-262.83171387 205.96128662 -262.84299316 204.95187012 -262.85461426 203.91186523 C-262.84651733 202.81044189 -262.83842041 201.70901855 -262.83007812 200.57421875 C-262.8370874 199.40963135 -262.84409668 198.24504395 -262.85131836 197.04516602 C-262.86894432 193.19002542 -262.85725841 189.33561701 -262.84375 185.48046875 C-262.84644357 182.80532922 -262.85031853 180.13021206 -262.85534668 177.45507812 C-262.86262197 171.84627325 -262.85303871 166.23767912 -262.83398438 160.62890625 C-262.81221557 154.14628968 -262.81926705 147.66417633 -262.84129 141.18157196 C-262.85944759 135.61370286 -262.86200066 130.04598516 -262.85153532 124.47809601 C-262.84530222 121.15351205 -262.84603198 117.82921623 -262.85768127 114.50463867 C-262.86781748 110.79831718 -262.85238485 107.09296768 -262.83007812 103.38671875 C-262.83817505 102.28529541 -262.84627197 101.18387207 -262.85461426 100.04907227 C-262.84333496 99.03965576 -262.83205566 98.03023926 -262.82043457 96.99023438 C-262.81892647 96.11419556 -262.81741837 95.23815674 -262.81586456 94.33557129 C-262.13111558 91.13182157 -260.89604714 89.94652986 -258.3125 87.98046875 C-256.10239792 87.47266006 -256.10239792 87.47266006 -253.65545654 87.46148682 C-252.72440094 87.44757401 -251.79334534 87.43366119 -250.83407593 87.41932678 C-249.31277573 87.42687233 -249.31277573 87.42687233 -247.76074219 87.43457031 C-246.68726532 87.42423264 -245.61378845 87.41389496 -244.50778198 87.40324402 C-240.9581613 87.37373697 -237.40910887 87.37231512 -233.859375 87.37109375 C-231.39885363 87.35611751 -228.93834233 87.33939155 -226.47784424 87.32098389 C-220.00056505 87.27723611 -213.52342149 87.25729465 -207.04602051 87.24224854 C-200.43684851 87.22270436 -193.82782355 87.1807313 -187.21875 87.140625 C-174.25004975 87.06524229 -161.28137193 87.014238 -148.3125 86.98046875 C-148.45332032 86.29702109 -148.59414064 85.61357344 -148.73922825 84.90941525 C-148.9220885 84.01117818 -149.10494875 83.11294111 -149.29335022 82.18748474 C-149.47542054 81.29778708 -149.65749086 80.40808943 -149.84507847 79.49143124 C-154.14347787 56.4006686 -148.73128206 33.5139015 -136.3125 13.98046875 C-133.85628866 10.41590966 -131.2348575 7.17056661 -128.3125 3.98046875 C-127.33603516 2.86671875 -127.33603516 2.86671875 -126.33984375 1.73046875 C-91.92698629 -35.31963573 -35.98508136 -31.42616058 0 0 Z M-114.3125 14.98046875 C-128.50619641 29.39946193 -133.60283891 46.82329637 -133.62939453 66.63378906 C-133.41830088 84.03728769 -127.0593783 99.08658887 -115.3125 111.98046875 C-114.84231445 112.65980469 -114.37212891 113.33914062 -113.88769531 114.0390625 C-110.75806851 118.01040252 -108.55726495 119.77202971 -103.48095703 120.62207031 C-98.91677432 120.86608321 -94.37489502 120.67973281 -89.8125 120.48046875 C-88.21102661 120.44028609 -86.60945614 120.4037937 -85.0078125 120.37109375 C-81.10695475 120.28347341 -77.21080752 120.14575902 -73.3125 119.98046875 C-76.48380755 118.36543144 -79.68585098 117.03013503 -83 115.73046875 C-88.62703313 113.40417091 -93.41927409 110.57693914 -98.3125 106.98046875 C-99.17875 106.40296875 -100.045 105.82546875 -100.9375 105.23046875 C-110.3950971 96.27063992 -117.05037615 82.76073402 -117.78125 69.71875 C-117.8153658 67.91044804 -117.82519799 66.10154792 -117.8125 64.29296875 C-117.80677979 63.33616211 -117.80105957 62.37935547 -117.79516602 61.39355469 C-117.47089422 48.38337719 -113.51043046 38.18808605 -105.3125 27.98046875 C-104.714375 27.09359375 -104.11625 26.20671875 -103.5 25.29296875 C-94.57610013 15.85913174 -81.04184244 9.23973888 -68.05078125 8.51171875 C-66.24247929 8.47760295 -64.43357917 8.46777076 -62.625 8.48046875 C-61.18979004 8.48904907 -61.18979004 8.48904907 -59.72558594 8.49780273 C-46.71540844 8.82207453 -36.5201173 12.78253829 -26.3125 20.98046875 C-25.425625 21.57859375 -24.53875 22.17671875 -23.625 22.79296875 C-14.17594679 31.73126233 -7.50110937 45.32160915 -6.87890625 58.34765625 C-6.85555392 60.18344569 -6.85470395 62.01964298 -6.875 63.85546875 C-6.88257324 64.82073486 -6.89014648 65.78600098 -6.89794922 66.78051758 C-7.06703392 74.10854959 -8.07461282 80.33532798 -11.3125 86.98046875 C-11.78300781 87.95371094 -12.25351562 88.92695312 -12.73828125 89.9296875 C-20.05893613 104.09808674 -31.48263854 112.71872346 -46.55859375 117.7265625 C-48.13183612 118.18555675 -49.72054113 118.59132325 -51.3125 118.98046875 C-51.3125 119.31046875 -51.3125 119.64046875 -51.3125 119.98046875 C-46.67226644 120.25536866 -42.03689557 120.45327028 -37.39038086 120.5847168 C-35.81564714 120.63956147 -34.24146114 120.71428021 -32.66870117 120.81030273 C-22.74626052 121.56479992 -22.74626052 121.56479992 -13.92382812 117.72021484 C-11.0419055 115.0782361 -8.65807195 112.10602049 -6.3125 108.98046875 C-5.51960571 108.00243286 -5.51960571 108.00243286 -4.71069336 107.00463867 C1.59672128 98.86207427 4.98069061 89.81682075 7.6875 79.98046875 C7.95469849 79.04352173 7.95469849 79.04352173 8.22729492 78.08764648 C12.0501868 60.58346622 7.87046313 41.03798335 -1.3125 25.98046875 C-3.77787997 22.44658372 -6.44378036 19.19322303 -9.3125 15.98046875 C-9.99054688 15.20832031 -10.66859375 14.43617187 -11.3671875 13.640625 C-24.74620123 -0.69403257 -42.27272117 -6.32990849 -61.3125 -8.01953125 C-82.08994822 -8.01953125 -99.70811323 0.57614208 -114.3125 14.98046875 Z M96.9296875 -1.83203125 C95.71651855 -1.42597656 94.50334961 -1.01992188 93.25341797 -0.6015625 C91.70541504 -0.07949219 90.15741211 0.44257812 88.5625 0.98046875 C83.65375 2.63046875 78.745 4.28046875 73.6875 5.98046875 C73.6875 17.20046875 73.6875 28.42046875 73.6875 39.98046875 C84.2475 39.98046875 94.8075 39.98046875 105.6875 39.98046875 C105.6875 25.46046875 105.6875 10.94046875 105.6875 -4.01953125 C102.56027651 -4.01953125 99.88529867 -2.825514 96.9296875 -1.83203125 Z M-91.0625 36.10546875 C-99.62372351 45.17387374 -101.80851257 55.90547974 -101.58984375 67.859375 C-101.08182245 78.88166803 -95.41085909 87.21701029 -87.6875 94.66796875 C-78.23853046 102.42644469 -68.13253453 104.20628405 -56.26904297 103.21972656 C-45.54726332 101.90860302 -37.31179096 95.81495102 -30.5 87.73046875 C-23.31222391 77.76787678 -21.75514281 66.97444354 -23.3125 54.98046875 C-25.94480831 43.94502237 -32.95857637 35.42948891 -42.5 29.48046875 C-59.0760521 20.44130055 -77.10312982 23.63631456 -91.0625 36.10546875 Z M65.6875 55.98046875 C65.6875 77.10046875 65.6875 98.22046875 65.6875 119.98046875 C81.5275 119.98046875 97.3675 119.98046875 113.6875 119.98046875 C113.6875 98.86046875 113.6875 77.74046875 113.6875 55.98046875 C97.8475 55.98046875 82.0075 55.98046875 65.6875 55.98046875 Z M-246.3125 103.98046875 C-246.3125 135.66046875 -246.3125 167.34046875 -246.3125 199.98046875 C-93.1925 199.98046875 59.9275 199.98046875 217.6875 199.98046875 C217.6875 168.30046875 217.6875 136.62046875 217.6875 103.98046875 C188.6475 103.98046875 159.6075 103.98046875 129.6875 103.98046875 C129.47738943 128.85693798 129.47738943 128.85693798 129.29956055 153.73364258 C129.24963379 158.54431152 129.24963379 158.54431152 129.2224884 160.79618835 C129.20633583 162.36934333 129.19604944 163.94256515 129.19038391 165.51579285 C129.18066485 167.89866901 129.15235195 170.28067006 129.11987305 172.66333008 C129.12129901 173.3645313 129.12272497 174.06573252 129.12419415 174.78818226 C129.07165064 177.48169341 128.93396868 179.54561387 127.59187317 181.91352844 C124.66040084 183.55590927 122.12718984 183.36233848 118.78515625 183.36865234 C117.73834183 183.37653778 117.73834183 183.37653778 116.67037964 183.38458252 C114.3633588 183.39778721 112.05702787 183.3890433 109.75 183.37890625 C108.14721545 183.38092686 106.54443179 183.3838382 104.94165039 183.38760376 C101.5824305 183.39202773 98.2234499 183.38559388 94.86425781 183.37158203 C90.55643161 183.35448991 86.2491661 183.36433073 81.94136047 183.38229942 C78.63167082 183.39313541 75.3221143 183.38969182 72.01242065 183.38191605 C70.42398004 183.37991352 68.83552737 183.38237518 67.24710083 183.38935471 C65.02768904 183.39696638 62.80918766 183.3853702 60.58984375 183.36865234 C59.32648193 183.36626556 58.06312012 183.36387878 56.76147461 183.36141968 C53.6875 182.98046875 53.6875 182.98046875 51.78312683 181.91352844 C50.1016364 178.9468054 50.24831752 175.98418194 50.25512695 172.66333008 C50.2449353 171.92162064 50.23474365 171.17991119 50.22424316 170.41572571 C50.19405337 167.96457424 50.18483837 165.51381316 50.17578125 163.0625 C50.15893895 161.36283564 50.14078932 159.66318378 50.12138367 157.96354675 C50.07382858 153.49032494 50.04405498 149.01715375 50.01794434 144.54376221 C49.98816651 139.97894286 49.94162669 135.41429807 49.89648438 130.84960938 C49.81038867 121.89332037 49.74307135 112.93699551 49.6875 103.98046875 C45.11645278 103.70703959 40.55021606 103.50834643 35.97290039 103.3762207 C34.41932264 103.32113388 32.86630949 103.24622706 31.31469727 103.15063477 C26.24785549 102.8464616 21.64367557 102.77762908 16.6875 103.98046875 C13.19957504 107.20024805 11.53521688 110.66423442 9.6875 114.98046875 C8.71006811 116.66047014 7.7168378 118.33175972 6.6875 119.98046875 C7.99074219 120.12742188 7.99074219 120.12742188 9.3203125 120.27734375 C17.49749529 121.33836523 22.82395896 122.64306224 28.4375 128.91796875 C33.78931466 136.20238314 33.52857295 144.29655183 32.6875 152.98046875 C30.37201445 164.25286245 23.73544443 171.99767385 14.5078125 178.47265625 C6.41545115 182.79904334 -1.01063972 183.41958861 -10.09326172 183.38452148 C-11.97067551 183.39481636 -11.97067551 183.39481636 -13.88601685 183.40531921 C-17.29539062 183.4204121 -20.70421424 183.42210118 -24.11358023 183.41637683 C-26.971141 183.41326995 -29.82865312 183.4193941 -32.68620694 183.42541558 C-39.4339128 183.43942694 -46.18149197 183.43792834 -52.92919922 183.42651367 C-59.86448072 183.41504013 -66.79937516 183.42910273 -73.73460567 183.45591015 C-79.7128564 183.47814368 -85.69098631 183.48468726 -91.6692754 183.47883373 C-95.22930689 183.47548062 -98.78909048 183.47776821 -102.34908676 183.49508476 C-106.32385899 183.51357771 -110.29816376 183.4992883 -114.27294922 183.48217773 C-115.43485779 183.4918457 -116.59676636 183.50151367 -117.79388428 183.51147461 C-129.34822695 183.40779608 -138.99498471 180.20382349 -147.3125 171.98046875 C-155.55462076 162.29517509 -158.12061871 153.30805092 -157.65625 140.734375 C-157.03425343 133.94188973 -154.83756758 130.15629491 -149.875 125.60546875 C-144.02237928 121.04931464 -138.55522779 120.51488362 -131.3125 119.98046875 C-131.78300781 119.24441406 -132.25351563 118.50835937 -132.73828125 117.75 C-133.67220703 116.28626953 -133.67220703 116.28626953 -134.625 114.79296875 C-135.23988281 113.83003906 -135.85476562 112.86710938 -136.48828125 111.875 C-138.3125 108.98046875 -138.3125 108.98046875 -139.30281067 106.33503723 C-141.02603469 103.84329098 -141.02603469 103.84329098 -143.25957298 103.53056908 C-145.94927193 103.36091695 -148.59700168 103.36295539 -151.29174805 103.4128418 C-152.31631104 103.41211166 -153.34087402 103.41138153 -154.39648438 103.41062927 C-157.78959744 103.41411812 -161.18134493 103.45304239 -164.57421875 103.4921875 C-166.92404938 103.50151096 -169.27388971 103.50862927 -171.62373352 103.5136261 C-177.81359614 103.53273238 -184.0028737 103.58186542 -190.19250488 103.637146 C-197.61629393 103.69724368 -205.04027843 103.72023732 -212.46424103 103.74941254 C-223.74740114 103.79792715 -235.02927712 103.89371921 -246.3125 103.98046875 Z M-140.3125 138.98046875 C-142.32990075 143.01527024 -141.97529929 147.95604917 -140.59375 152.17578125 C-137.12645569 159.52980063 -131.9188591 164.17450626 -124.3125 166.98046875 C-118.71716656 168.21097056 -113.19100545 168.12828518 -107.49291992 168.12573242 C-105.87469078 168.13077034 -105.87469078 168.13077034 -104.22377014 168.13591003 C-100.66349124 168.14539543 -97.10325949 168.14736196 -93.54296875 168.1484375 C-91.06203695 168.15165181 -88.58110535 168.15501601 -86.10017395 168.15852356 C-80.90100668 168.16450883 -75.70185602 168.16636408 -70.50268555 168.16577148 C-63.85165877 168.16566991 -57.20077629 168.17932007 -50.5497694 168.19654369 C-45.4255576 168.20768078 -40.30137149 168.20969016 -35.17714882 168.20916176 C-32.72563623 168.21033937 -30.27412293 168.21474884 -27.8226223 168.22249413 C-24.38842736 168.23232811 -20.95446259 168.22940236 -17.52026367 168.22338867 C-16.51476471 168.22900818 -15.50926575 168.23462769 -14.47329712 168.24041748 C-4.97389193 168.19830172 3.32209879 167.38446997 10.31640625 160.33984375 C15.23111813 154.89221131 17.17162347 150.46283085 17.01171875 143.0703125 C16.81549162 140.75726839 16.81549162 140.75726839 14.875 138.48046875 C11.19986506 135.96037622 8.24167116 135.85231021 3.90031433 135.84002686 C2.69322311 135.83431671 1.4861319 135.82860657 0.24246216 135.82272339 C-1.0972289 135.82147805 -2.43692008 135.82035295 -3.77661133 135.81933594 C-5.18602122 135.81470713 -6.59542986 135.80968238 -8.00483704 135.80429077 C-11.83551812 135.79117052 -15.66618168 135.78472251 -19.49688172 135.78028011 C-21.89049341 135.7773487 -24.2841003 135.77324375 -26.67770958 135.76877594 C-34.16776533 135.7551018 -41.65781014 135.74543482 -49.14787751 135.74157405 C-57.79216376 135.73709379 -66.43629184 135.7195471 -75.08052999 135.69057345 C-81.76343478 135.66895185 -88.44629509 135.65886951 -95.12923449 135.65753293 C-99.12008569 135.65648521 -103.1107882 135.65058462 -107.10160255 135.63271332 C-110.85678944 135.61622435 -114.61171599 135.61408101 -118.36692619 135.62285233 C-119.74315209 135.62362227 -121.11939202 135.6192855 -122.49558258 135.60939407 C-124.37846682 135.59665731 -126.26145585 135.60434937 -128.1443634 135.61297607 C-129.72308086 135.61077623 -129.72308086 135.61077623 -131.3336916 135.60853195 C-134.86151036 136.0490187 -137.27369602 137.16191221 -140.3125 138.98046875 Z M65.6875 135.98046875 C65.6875 146.54046875 65.6875 157.10046875 65.6875 167.98046875 C81.5275 167.98046875 97.3675 167.98046875 113.6875 167.98046875 C113.6875 157.42046875 113.6875 146.86046875 113.6875 135.98046875 C97.8475 135.98046875 82.0075 135.98046875 65.6875 135.98046875 Z M-230.3125 215.98046875 C-230.3125 284.62046875 -230.3125 353.26046875 -230.3125 423.98046875 C-219.7525 423.98046875 -209.1925 423.98046875 -198.3125 423.98046875 C-198.30663376 421.63185226 -198.30076752 419.28323578 -198.29472351 416.8634491 C-198.23813441 394.77537757 -198.16509497 372.68740459 -198.07678509 350.59943676 C-198.03177759 339.24265151 -197.99237443 327.88589796 -197.96606445 316.52905273 C-197.94312442 306.63295205 -197.90977137 296.7369513 -197.86379844 286.84092981 C-197.83981219 281.5987688 -197.82111889 276.35670709 -197.81488609 271.11449242 C-197.80885959 266.18396661 -197.7889485 261.25369505 -197.75822449 256.32326317 C-197.74940504 254.51041424 -197.74572971 252.69753215 -197.74749184 250.88466263 C-197.74913453 248.41562432 -197.73253233 245.94737041 -197.71122742 243.47843933 C-197.71607499 242.75567958 -197.72092257 242.03291982 -197.72591704 241.28825825 C-197.68577726 238.48316948 -197.60364775 236.44500694 -196.09359455 234.03565502 C-193.74417855 232.64377411 -192.14566578 232.60303292 -189.41625977 232.59951782 C-188.40677277 232.59105835 -187.39728577 232.58259888 -186.35720825 232.57388306 C-185.25061859 232.57995575 -184.14402893 232.58602844 -183.00390625 232.59228516 C-181.83785858 232.5870282 -180.67181091 232.58177124 -179.47042847 232.57635498 C-175.60515052 232.56312066 -171.74028235 232.57190557 -167.875 232.58203125 C-165.19603968 232.58001151 -162.51709194 232.57710579 -159.83813477 232.57333374 C-154.21919288 232.56787455 -148.60036925 232.57507201 -142.98144531 232.58935547 C-136.4835681 232.60568241 -129.98597328 232.60039401 -123.48810291 232.58387625 C-117.91094704 232.57026597 -112.33387621 232.56833944 -106.7567091 232.57619226 C-103.42491926 232.58087135 -100.09329142 232.5803109 -96.76150513 232.57158279 C-93.04783862 232.56399002 -89.33471935 232.57554281 -85.62109375 232.59228516 C-84.51450409 232.58621246 -83.40791443 232.58013977 -82.26779175 232.57388306 C-81.25830475 232.58234253 -80.24881775 232.590802 -79.20874023 232.59951782 C-78.3304808 232.6006489 -77.45222137 232.60177998 -76.54734802 232.60294533 C-74.3125 232.98046875 -74.3125 232.98046875 -72.53140545 234.03565502 C-70.65660601 237.02697456 -70.89080924 240.05605146 -70.91377258 243.47843933 C-70.90381004 244.63105759 -70.90381004 244.63105759 -70.89364624 245.80696106 C-70.87491447 248.39772554 -70.87764892 250.98803246 -70.88012695 253.57885742 C-70.87102647 255.46154333 -70.86061471 257.34422329 -70.84899426 259.22689533 C-70.82145204 264.27795066 -70.81190576 269.32889163 -70.80602264 274.38001251 C-70.79779835 279.11623716 -70.77343081 283.85232432 -70.75036621 288.58850098 C-70.69231499 302.44826499 -70.66025284 316.30812799 -70.625 330.16796875 C-70.521875 361.12609375 -70.41875 392.08421875 -70.3125 423.98046875 C19.4475 423.98046875 109.2075 423.98046875 201.6875 423.98046875 C201.6875 355.34046875 201.6875 286.70046875 201.6875 215.98046875 C59.1275 215.98046875 -83.4325 215.98046875 -230.3125 215.98046875 Z M-182.3125 247.98046875 C-182.3125 306.06046875 -182.3125 364.14046875 -182.3125 423.98046875 C-150.6325 423.98046875 -118.9525 423.98046875 -86.3125 423.98046875 C-86.3125 365.90046875 -86.3125 307.82046875 -86.3125 247.98046875 C-117.9925 247.98046875 -149.6725 247.98046875 -182.3125 247.98046875 Z M-246.3125 439.98046875 C-246.3125 445.26046875 -246.3125 450.54046875 -246.3125 455.98046875 C-93.1925 455.98046875 59.9275 455.98046875 217.6875 455.98046875 C217.6875 450.70046875 217.6875 445.42046875 217.6875 439.98046875 C64.5675 439.98046875 -88.5525 439.98046875 -246.3125 439.98046875 Z " fill="#000000" transform="translate(270.3125,32.01953125)"/>
<path d="M0 0 C0.94797958 -0.00623996 1.89595917 -0.01247993 2.87266541 -0.01890898 C6.05728845 -0.03489625 9.24115218 -0.02221207 12.42578125 -0.00964355 C14.70557096 -0.01506211 16.98535717 -0.02218326 19.26513672 -0.03088379 C25.46340485 -0.04915162 31.66140728 -0.04203519 37.85968018 -0.02936745 C44.33875254 -0.01925776 50.81780177 -0.02862747 57.296875 -0.03491211 C68.87591855 -0.04266121 80.45484057 -0.03021132 92.03386497 -0.00987476 C102.53435542 0.00799652 113.034669 0.00489249 123.53515625 -0.0135498 C135.72646104 -0.03495168 147.91763985 -0.04292622 160.10896301 -0.03110075 C166.56340788 -0.02485665 173.01773088 -0.02405542 179.47216797 -0.0372467 C185.53953207 -0.04878018 191.60656133 -0.04082497 197.67388916 -0.01766968 C199.90398604 -0.01236923 202.13411097 -0.01391904 204.36419678 -0.02272034 C207.4020357 -0.03360641 210.43879302 -0.01999576 213.4765625 0 C214.36488266 -0.00892289 215.25320282 -0.01784577 216.16844177 -0.02703905 C219.88867369 0.02065459 222.09290423 0.10133091 225.28539276 2.11267853 C227.24040331 5.33574132 227.24159845 7.57403974 227.24621582 11.33996582 C227.25245578 12.02659805 227.25869575 12.71323029 227.2651248 13.42066956 C227.28107693 15.72094078 227.26844293 18.02015554 227.25585938 20.32043457 C227.26127955 21.96969216 227.26840162 23.61894491 227.27709961 25.26818848 C227.2953485 29.74753673 227.28825905 34.22651682 227.27558327 38.70587158 C227.26546368 43.39120483 227.27484605 48.07650634 227.28112793 52.76184082 C227.28840738 60.63038804 227.27880885 68.49878514 227.25976562 76.36730957 C227.23799629 85.46739228 227.24504745 94.56711653 227.26707125 103.66719055 C227.28521679 111.47706676 227.28778772 119.28683499 227.27731657 127.09672546 C227.27107698 131.76266354 227.27025877 136.42843307 227.28346252 141.09436035 C227.29500814 145.48082274 227.28701912 149.86682251 227.2638855 154.25323486 C227.25859147 155.86410758 227.26012405 157.47501915 227.26893616 159.08587646 C227.27984865 161.28307958 227.26618265 163.47879531 227.24621582 165.67590332 C227.24470772 166.90591064 227.24319962 168.13591797 227.24164581 169.40319824 C226.73828125 172.50793457 226.73828125 172.50793457 225.28539276 174.90319061 C221.43425292 177.32950503 217.94388271 177.06074192 213.4765625 177.01586914 C212.05459312 177.02522908 212.05459312 177.02522908 210.60389709 177.03477812 C207.41927405 177.05076539 204.23541032 177.03808121 201.05078125 177.0255127 C198.77099154 177.03093125 196.49120533 177.0380524 194.21142578 177.04675293 C188.01315765 177.06502076 181.81515522 177.05790434 175.61688232 177.04523659 C169.13780996 177.0351269 162.65876073 177.04449661 156.1796875 177.05078125 C144.60064395 177.05853035 133.02172193 177.04608047 121.44269753 177.0257439 C110.94220708 177.00787262 100.4418935 177.01097665 89.94140625 177.02941895 C77.75010146 177.05082082 65.55892265 177.05879536 53.36759949 177.04696989 C46.91315462 177.0407258 40.45883162 177.03992456 34.00439453 177.05311584 C27.93703043 177.06464932 21.87000117 177.05669411 15.80267334 177.03353882 C13.57257646 177.02823837 11.34245153 177.02978818 9.11236572 177.03858948 C6.0745268 177.04947556 3.03776948 177.0358649 0 177.01586914 C-0.88832016 177.02479203 -1.77664032 177.03371491 -2.69187927 177.04290819 C-6.41211119 176.99521455 -8.61634173 176.91453823 -11.80883026 174.90319061 C-13.76384081 171.68012782 -13.76503595 169.4418294 -13.76965332 165.67590332 C-13.77901326 164.64595497 -13.77901326 164.64595497 -13.7885623 163.59519958 C-13.80451443 161.29492837 -13.79188043 158.9957136 -13.77929688 156.69543457 C-13.78471705 155.04617698 -13.79183912 153.39692423 -13.80053711 151.74768066 C-13.818786 147.26833241 -13.81169655 142.78935232 -13.79902077 138.30999756 C-13.78890118 133.62466431 -13.79828355 128.9393628 -13.80456543 124.25402832 C-13.81184488 116.3854811 -13.80224635 108.517084 -13.78320312 100.64855957 C-13.76143379 91.54847686 -13.76848495 82.44875261 -13.79050875 73.34867859 C-13.80865429 65.53880238 -13.81122522 57.72903415 -13.80075407 49.91914368 C-13.79451448 45.2532056 -13.79369627 40.58743607 -13.80690002 35.92150879 C-13.81844564 31.5350464 -13.81045662 27.14904663 -13.787323 22.76263428 C-13.78202897 21.15176156 -13.78356155 19.54084999 -13.79237366 17.92999268 C-13.80328615 15.73278956 -13.78962015 13.53707383 -13.76965332 11.33996582 C-13.76814522 10.1099585 -13.76663712 8.87995117 -13.76508331 7.6126709 C-13.26171875 4.50793457 -13.26171875 4.50793457 -11.80883026 2.11267853 C-7.95769042 -0.31363589 -4.46732021 -0.04487278 0 0 Z M2.73828125 16.50793457 C2.73828125 64.02793457 2.73828125 111.54793457 2.73828125 160.50793457 C71.37828125 160.50793457 140.01828125 160.50793457 210.73828125 160.50793457 C210.73828125 112.98793457 210.73828125 65.46793457 210.73828125 16.50793457 C142.09828125 16.50793457 73.45828125 16.50793457 2.73828125 16.50793457 Z " fill="#000000" transform="translate(229.26171875,263.4920654296875)"/>
<path d="M0 0 C3.63303084 1.69586126 5.94549046 3.73800488 8.75 6.625 C9.54921875 7.44226563 10.3484375 8.25953125 11.171875 9.1015625 C11.77515625 9.72804688 12.3784375 10.35453125 13 11 C11.35928529 15.15602074 8.33462112 17.9680782 5.23681641 21.06958008 C4.35356438 21.96531738 4.35356438 21.96531738 3.45246887 22.87915039 C1.5076035 24.84808091 -0.44481095 26.80929581 -2.3984375 28.76953125 C-3.75370916 30.13376795 -5.10890218 31.49808279 -6.46401978 32.86247253 C-9.30334788 35.71828094 -12.14703237 38.56967421 -14.99316406 41.41870117 C-18.64593804 45.07687489 -22.28226232 48.75094996 -25.91486168 52.42914295 C-28.70650035 55.25045506 -31.50925684 58.06051531 -34.31526566 60.86752892 C-35.66142055 62.21790113 -37.00343693 63.57241173 -38.341259 64.93103981 C-40.20862459 66.82513229 -42.09099556 68.70292123 -43.97802734 70.57739258 C-44.5308992 71.14509872 -45.08377106 71.71280487 -45.65339661 72.29771423 C-47.21664429 73.83137512 -47.21664429 73.83137512 -50 76 C-53.98502978 75.92711544 -56.06604937 73.3984553 -58.8125 70.6875 C-59.62332031 69.90761719 -60.43414062 69.12773437 -61.26953125 68.32421875 C-63 66 -63 66 -62.76278019 64.03190994 C-61.48165921 60.61923288 -58.75025142 58.36184093 -56.19506836 55.85449219 C-55.59020096 55.24918671 -54.98533356 54.64388123 -54.36213684 54.02023315 C-52.36173476 52.02192053 -50.35091749 50.0344427 -48.33984375 48.046875 C-46.95056499 46.66319161 -45.56194725 45.27884424 -44.17396545 43.89385986 C-40.51939089 40.2507386 -36.85589668 36.61671615 -33.19049072 32.98449707 C-29.45165739 29.27635392 -25.72130418 25.5597017 -21.99023438 21.84375 C-14.66844458 14.55413296 -7.33720638 7.27409729 0 0 Z " fill="#000000" transform="translate(401,314)"/>
<path d="M0 0 C3.63303084 1.69586126 5.94549046 3.73800488 8.75 6.625 C9.54921875 7.44226563 10.3484375 8.25953125 11.171875 9.1015625 C11.77515625 9.72804688 12.3784375 10.35453125 13 11 C11.36256066 15.17615799 8.30218208 17.9648153 5.17333984 21.05371094 C4.28045006 21.9470388 4.28045006 21.9470388 3.36952209 22.8584137 C1.40469823 24.82184643 -0.56711039 26.77810373 -2.5390625 28.734375 C-3.90427479 30.0958564 -5.26904561 31.45778061 -6.63339233 32.82012939 C-10.22273159 36.40183824 -13.8180368 39.9774999 -17.41461182 43.55194092 C-21.08471319 47.20157121 -24.74914829 50.85688092 -28.4140625 54.51171875 C-35.60383652 61.68005329 -42.79992516 68.842013 -50 76 C-53.63303084 74.30413874 -55.94549046 72.26199512 -58.75 69.375 C-59.54921875 68.55773437 -60.3484375 67.74046875 -61.171875 66.8984375 C-61.77515625 66.27195312 -62.3784375 65.64546875 -63 65 C-61.36256066 60.82384201 -58.30218208 58.0351847 -55.17333984 54.94628906 C-54.57807999 54.35073715 -53.98282013 53.75518524 -53.36952209 53.1415863 C-51.40469823 51.17815357 -49.43288961 49.22189627 -47.4609375 47.265625 C-46.09572521 45.9041436 -44.73095439 44.54221939 -43.36660767 43.17987061 C-39.77726841 39.59816176 -36.1819632 36.0225001 -32.58538818 32.44805908 C-28.91528681 28.79842879 -25.25085171 25.14311908 -21.5859375 21.48828125 C-14.39616348 14.31994671 -7.20007484 7.157987 0 0 Z " fill="#000000" transform="translate(321,314)"/>
<path d="M0 0 C5.28 0 10.56 0 16 0 C16 5.28 16 10.56 16 16 C10.72 16 5.44 16 0 16 C0 10.72 0 5.44 0 0 Z " fill="#000000" transform="translate(152,352)"/>
</svg>
