<?xml version="1.0" encoding="UTF-8"?>
<svg version="1.1" xmlns="http://www.w3.org/2000/svg" width="512" height="512">
<path d="M0 0 C0.85183483 -0.0072672 1.70366966 -0.01453441 2.58131766 -0.02202183 C5.44942188 -0.04033911 8.31620012 -0.02288532 11.18429565 -0.00571251 C13.25570423 -0.01147103 15.3271077 -0.01941033 17.39850044 -0.02934873 C23.10127895 -0.05028209 28.80364079 -0.03987726 34.50642109 -0.02441764 C40.65239137 -0.01313464 46.7982885 -0.03055168 52.94424438 -0.04431725 C64.29180969 -0.06529882 75.63920457 -0.06343387 86.98676568 -0.0497599 C97.46914755 -0.03719025 107.95148055 -0.03389481 118.43386841 -0.03987312 C119.47618355 -0.04044601 119.47618355 -0.04044601 120.53955556 -0.04103047 C123.36017036 -0.04258712 126.18078514 -0.04417912 129.00139988 -0.04582929 C155.46982959 -0.06112996 181.93817437 -0.04724803 208.40659097 -0.02034481 C231.93068256 0.00338388 255.45463884 0.00126077 278.97872925 -0.02264977 C305.39823166 -0.04941341 331.817659 -0.06004492 358.23717308 -0.04458845 C361.05269748 -0.04298482 363.8682219 -0.04142062 366.68374634 -0.03987312 C367.72365422 -0.03928004 367.72365422 -0.03928004 368.78457035 -0.03867498 C379.26127751 -0.03298367 389.73793047 -0.03964632 400.21463013 -0.05227089 C412.125176 -0.06655156 424.03556201 -0.06254412 435.94610167 -0.03586717 C442.02669824 -0.02269827 448.10701971 -0.01762909 454.18761444 -0.03411293 C459.74900746 -0.0489616 465.30986917 -0.04090813 470.87121367 -0.01422517 C472.88795816 -0.00861862 474.90474712 -0.01152896 476.92146325 -0.02360411 C479.65416015 -0.0387169 482.38501551 -0.02331245 485.11761475 0 C485.90843185 -0.01170583 486.69924896 -0.02341166 487.51403022 -0.03547221 C491.4630916 0.03228742 493.36619461 0.48313373 496.54723114 2.8955403 C498.56531727 5.63805244 499.18399106 6.68013751 499.18521976 9.99705791 C499.1976418 10.8440447 499.21006384 11.69103148 499.2228623 12.56368452 C499.21102657 13.48411038 499.19919085 14.40453623 499.18699646 15.35285378 C499.19763804 16.83123274 499.19763804 16.83123274 499.2084946 18.33947796 C499.22611163 21.64551504 499.20795018 24.95038228 499.18991089 28.25640297 C499.19504822 30.62500991 499.20232809 32.99361303 499.21159363 35.36220741 C499.22821182 41.12953575 499.2214584 46.896489 499.2035054 52.66380639 C499.18947952 57.35046242 499.18558655 62.03702647 499.18894768 66.72370148 C499.18966384 67.72424605 499.18966384 67.72424605 499.19039447 68.74500365 C499.1914208 70.10005008 499.19247616 71.45509648 499.19356024 72.81014287 C499.20212716 84.79115806 499.18545191 96.77200962 499.1557312 108.752985 C499.12688728 120.38065906 499.11981327 132.00809747 499.13522339 143.6357975 C499.1519802 156.29698839 499.15602562 168.95806741 499.13851303 181.61926121 C499.13666863 182.96901602 499.1348339 184.31877085 499.13300896 185.6685257 C499.13209687 186.33263848 499.13118478 186.99675127 499.13024505 187.68098869 C499.12463689 192.36297643 499.12794935 197.04490959 499.13455391 201.72689438 C499.1422 208.02656047 499.13014506 214.32588603 499.102705 220.625494 C499.09580282 222.94105264 499.09574269 225.25664298 499.10292053 227.57220078 C499.11157229 230.72603106 499.09573105 233.87880001 499.07347107 237.03254128 C499.08171184 237.95519785 499.0899526 238.87785442 499.09844309 239.82847029 C499.01778256 245.99338583 499.01778256 245.99338583 496.70381451 249.1989336 C493.81179773 251.12730524 491.87703765 251.11146774 488.41329956 251.08330727 C487.17231506 251.08300514 485.93133057 251.08270302 484.65274048 251.08239174 C483.30371455 251.06196685 481.95469521 251.0411029 480.60568237 251.0198307 C479.22135231 251.01236672 477.83701166 251.00667453 476.45266724 251.00267982 C472.8159142 250.98743545 469.17980412 250.94816523 465.54330444 250.90386391 C461.82981056 250.86288462 458.11621238 250.84466322 454.40255737 250.8245182 C447.12101483 250.78166872 439.84000132 250.71343324 432.55880737 250.6292057 C432.77431359 255.46397348 433.00502911 260.2977187 433.24850464 265.13115883 C433.32895559 266.76768801 433.40559526 268.40441003 433.47799683 270.04131508 C434.09215404 283.83232121 434.96823106 297.81746832 440.55880737 310.6292057 C440.81863403 311.24674721 441.07846069 311.86428871 441.34616089 312.50054359 C442.41329937 315.03646059 443.52417006 317.55186146 444.64865112 320.06279945 C447.38602423 326.53410086 446.63550103 330.91406517 444.12130737 337.2542057 C438.9871392 345.38022727 426.30975183 349.71222422 417.55880737 352.6292057 C418.21880737 357.2492057 418.87880737 361.8692057 419.55880737 366.6292057 C421.09408081 367.02494789 422.62935425 367.42069008 424.21115112 367.82842445 C430.98302262 369.6788462 437.53884738 372.0115426 444.12130737 374.4417057 C445.27566284 374.85485023 446.43001831 375.26799477 447.61935425 375.69365883 C461.31540729 380.73548437 472.95817515 387.29139093 479.99630737 400.5667057 C483.28741331 407.72326571 484.9748447 414.72449645 484.55880737 422.6292057 C485.23943237 422.7942057 485.92005737 422.9592057 486.62130737 423.1292057 C491.68001836 425.71237727 495.53306008 430.0518183 497.63658142 435.33732033 C498.63136051 438.88818411 498.83246753 441.88094369 498.86520386 445.56499672 C498.87352737 446.23083778 498.88185089 446.89667885 498.89042664 447.58269691 C498.91436705 449.76622933 498.92327638 451.94946257 498.92990112 454.13311195 C498.93887565 455.6595563 498.94799763 457.18599978 498.95726013 458.7124424 C498.97370638 461.90403819 498.98144294 465.09552957 498.98434448 468.28716469 C498.98974132 472.37185452 499.02749207 476.45556157 499.07308865 480.53997326 C499.10285324 483.68931598 499.1100678 486.83842101 499.11107063 489.98789215 C499.1152698 491.49378361 499.12769215 492.99967598 499.14858818 494.50542831 C499.17550975 496.61195783 499.17067965 498.71619436 499.15817261 500.82280922 C499.16324326 502.01938652 499.1683139 503.21596382 499.17353821 504.44880104 C498.34084005 508.75689322 497.05415898 509.98273278 493.55880737 512.6292057 C490.20446336 513.36106727 486.91565621 513.29550158 483.4934845 513.25066566 C482.47114655 513.25705449 481.44880859 513.26344331 480.39549071 513.27002573 C476.96507662 513.28530304 473.53581236 513.26479521 470.10543823 513.24444008 C467.64816403 513.24794041 465.19089209 513.25359798 462.73362732 513.26125526 C456.74968652 513.27404233 450.76619715 513.26355026 444.78231471 513.24214202 C437.81497512 513.21813016 430.84771326 513.21984647 423.88034148 513.22244793 C411.4500949 513.22613796 399.02000823 513.20531316 386.58981323 513.17119789 C374.52564452 513.13809945 362.46164362 513.1239408 350.39743042 513.13018227 C337.26160954 513.1369447 324.12585896 513.1344908 310.99004847 513.11482286 C310.29559861 513.11378338 309.60114874 513.11274389 308.88565494 513.11167291 C307.49086247 513.109582 306.09607003 513.10747103 304.70127762 513.10533974 C299.84347316 513.09844164 294.98569034 513.09777523 290.127882 513.09922218 C283.5918934 513.10081131 277.0560785 513.08593018 270.52013206 513.05999565 C268.11749497 513.05281679 265.71483649 513.05075844 263.31219101 513.05411339 C260.04028912 513.05781151 256.7689802 513.0431383 253.49714661 513.02361488 C252.5394715 513.02894281 251.58179639 513.03427073 250.59510082 513.03976011 C244.21821272 512.97381147 244.21821272 512.97381147 241.00016117 511.29205513 C237.74619817 507.53804934 238.38056682 502.88398639 238.35568237 498.1995182 C238.3499823 497.37217171 238.34428223 496.54482521 238.33840942 495.69240761 C238.32896715 493.94234938 238.32242851 492.19227344 238.318573 490.44219398 C238.3088689 487.77114139 238.27783953 485.10085895 238.24630737 482.42998695 C238.23977679 480.7281686 238.23452653 479.02634475 238.23068237 477.3245182 C238.21833557 476.52853218 238.20598877 475.73254616 238.19326782 474.91243935 C238.21159134 470.32879185 238.59495311 467.35882755 241.55880737 463.6292057 C244.39964379 462.2087875 246.41358015 462.31468298 249.55880737 462.6292057 C253.55880737 466.6292057 253.55880737 466.6292057 253.55880737 497.6292057 C329.45880737 497.6292057 405.35880737 497.6292057 483.55880737 497.6292057 C486.357764 466.57375478 486.357764 466.57375478 480.55880737 437.6292057 C475.82748546 435.37524597 471.14200673 435.34486734 465.99894714 435.37092018 C465.15064195 435.36724448 464.30233676 435.36356877 463.42832536 435.35978168 C460.59325838 435.34982224 457.75838832 435.35394833 454.92330933 435.35796547 C452.88790682 435.3535774 450.85250611 435.34827495 448.81710815 435.34212685 C444.43824986 435.33063477 440.05943991 435.32516803 435.68056679 435.32424545 C428.76080036 435.32230502 421.84113409 435.30425491 414.92140198 435.28348732 C397.73843125 435.23430211 380.55543343 435.20337814 363.37240601 435.18218422 C350.01051363 435.16568081 336.64870724 435.14293326 323.28687257 435.09916347 C316.40332913 435.07733453 309.51994885 435.06933405 302.63637316 435.07155621 C298.36202315 435.06989427 294.08778053 435.05587606 289.81346893 435.03834343 C287.82644872 435.03272534 285.83940642 435.03227566 283.85238457 435.03728104 C281.14724741 435.04338287 278.4427941 435.03126308 275.73771667 435.01447487 C274.94512162 435.02068668 274.15252657 435.0268985 273.33591348 435.03329855 C268.05857383 434.97330385 268.05857383 434.97330385 265.60621929 433.28481388 C263.95522233 430.67513949 263.62040823 428.70924874 263.55880737 425.6292057 C265.04554367 422.97147274 265.04554367 422.97147274 267.55880737 420.6292057 C270.47102475 420.13790898 272.79829489 419.9731945 275.70852661 420.02793312 C276.53682189 420.023661 277.36511716 420.01938887 278.2185123 420.01498729 C280.99818163 420.00674145 283.77634705 420.03426785 286.55587769 420.06157875 C288.54658981 420.06298888 290.53730453 420.06219793 292.52801514 420.05936623 C297.93692365 420.0579293 303.34527985 420.08736415 308.75405979 420.12223601 C314.40482866 420.15345329 320.05560963 420.1564266 325.70645142 420.16236305 C336.40914589 420.17791508 347.11158556 420.2189621 357.81416774 420.2691105 C369.99778957 420.32496155 382.18142345 420.35247983 394.36514139 420.37758768 C419.42983808 420.42987663 444.49430846 420.51784548 469.55880737 420.6292057 C468.95413719 418.55284449 468.34039117 416.47912499 467.72286987 414.40654945 C467.38207397 413.25146889 467.04127808 412.09638832 466.69015503 410.90630531 C463.60344817 401.96524659 457.7498773 397.79393262 449.55880737 393.6292057 C444.69921497 391.51974016 439.71622909 389.74257107 434.71749878 387.99468422 C432.423671 387.18814161 430.1420341 386.35210643 427.85958862 385.51397133 C426.38236699 384.98937085 424.90452194 384.46652185 423.42599487 383.94561195 C422.7549472 383.69678764 422.08389954 383.44796333 421.39251709 383.19159889 C414.93452431 380.98892209 409.6653486 382.01655177 403.15646362 383.5667057 C402.41074097 383.73944008 401.66501831 383.91217445 400.896698 384.0901432 C399.38346932 384.44864202 397.87044696 384.80801284 396.3576355 385.1682682 C375.31119927 390.0349161 352.04819796 389.02562386 331.37130737 382.8792057 C324.36065636 380.84385541 319.68754494 382.14143675 312.99630737 384.7542057 C308.25017819 386.55128374 305.39505891 387.34204479 300.55880737 385.6292057 C297.96486881 382.7920854 297.53022445 381.34377868 297.68380737 377.5042057 C298.633662 374.38325479 299.05415319 373.60492671 301.55880737 371.6292057 C303.87938704 370.64965067 306.23971221 369.76184137 308.62130737 368.9417057 C309.25874878 368.7167643 309.89619019 368.49182289 310.552948 368.26006508 C315.25715939 366.6292057 315.25715939 366.6292057 317.55880737 366.6292057 C317.89700903 365.0469051 318.22916677 363.46331196 318.55880737 361.8792057 C318.74443237 360.99748695 318.93005737 360.1157682 319.12130737 359.2073307 C319.67034412 356.40776605 319.67034412 356.40776605 319.55880737 352.6292057 C318.49661987 352.19350258 317.43443237 351.75779945 316.34005737 351.3088932 C295.64707617 342.65746595 295.64707617 342.65746595 291.55880737 333.6292057 C289.54802317 325.22047177 293.13088605 318.32513934 296.48580933 310.82525063 C303.26941103 295.52249649 303.45985507 279.65084006 304.08224487 263.1760807 C304.12824829 261.96871254 304.17425171 260.76134438 304.22164917 259.5173893 C304.33447251 256.55467777 304.44684575 253.5919499 304.55880737 250.6292057 C303.70103195 250.63586754 302.84325653 250.64252937 301.95948792 250.64939308 C293.8812894 250.70946932 285.80316577 250.75516231 277.72479534 250.78464222 C273.5714688 250.8003076 269.41832663 250.82156153 265.2651062 250.85552406 C261.25805152 250.8880868 257.25117434 250.90605215 253.24399757 250.91383743 C251.71414202 250.91938653 250.18429634 250.93022246 248.65451622 250.94639587 C246.51391883 250.96812986 244.37405765 250.97117443 242.23336792 250.96978188 C241.01425217 250.97644371 239.79513641 250.98310555 238.53907776 250.98996925 C235.55880737 250.6292057 235.55880737 250.6292057 233.67289734 249.35401344 C232.1037913 246.92476058 232.09612351 244.49866717 231.96505737 241.66436195 C232.90245128 238.45132099 234.8084559 237.43773766 237.55880737 235.6292057 C240.81755066 235.11022377 240.81755066 235.11022377 244.55221558 235.08330727 C245.23569565 235.07296959 245.91917572 235.06263191 246.62336731 235.05198097 C248.86901692 235.02262412 251.11376247 235.02105542 253.35958862 235.0198307 C254.92187715 235.00484411 256.48414986 234.98811595 258.04640198 234.96972084 C262.14809916 234.92608831 266.24958264 234.90605752 270.35147095 234.89098549 C274.54115412 234.87139947 278.73060701 234.82943119 282.9201355 234.78936195 C291.13296579 234.71410433 299.34570554 234.66378618 307.55880737 234.6292057 C308.33151978 233.01090858 308.33151978 233.01090858 309.11984253 231.35991859 C309.82039187 229.91950935 310.52142704 228.47933631 311.22286987 227.03936195 C311.55939575 226.33122353 311.89592163 225.6230851 312.24264526 224.89348793 C319.95441627 209.16708035 334.11443591 199.41840241 350.28927612 193.65654945 C367.49499725 188.55416319 385.60161416 191.33814137 401.26583862 199.6135807 C406.32685403 202.71142643 410.43387783 206.38909488 414.55880737 210.6292057 C415.62035034 211.65981117 415.62035034 211.65981117 416.70333862 212.71123695 C421.80448591 217.96844228 429.55880737 227.8676674 429.55880737 235.6292057 C447.37880737 235.6292057 465.19880737 235.6292057 483.55880737 235.6292057 C483.55880737 163.0292057 483.55880737 90.4292057 483.55880737 15.6292057 C324.49880737 15.6292057 165.43880737 15.6292057 1.55880737 15.6292057 C1.55880737 88.2292057 1.55880737 160.8292057 1.55880737 235.6292057 C13.10880737 235.6292057 24.65880737 235.6292057 36.55880737 235.6292057 C41.55880737 238.6292057 41.55880737 238.6292057 42.62130737 242.0042057 C42.55880737 245.6292057 42.55880737 245.6292057 41.22677612 248.31646156 C37.09935765 251.89433813 33.1025845 251.32714184 27.80880737 251.25811195 C26.23341187 251.26172989 26.23341187 251.26172989 24.62619019 251.26542091 C22.40707623 251.26444201 20.18793799 251.25103835 17.96896362 251.22612953 C14.57098489 251.19182863 11.17560709 251.2054675 7.77755737 251.22490883 C5.62129629 251.21801032 3.46504193 251.20833789 1.30880737 251.19561195 C0.29205933 251.20057182 -0.72468872 251.20553169 -1.77224731 251.21064186 C-2.72003052 251.19480553 -3.66781372 251.17896919 -4.64431763 251.16265297 C-5.47608521 251.15645439 -6.30785278 251.15025581 -7.16482544 251.1438694 C-10.45926249 250.39903036 -11.42814351 249.36415096 -13.44119263 246.6292057 C-14.04913208 243.43617623 -13.98481388 240.27470012 -13.95585632 237.03254128 C-13.96280185 236.04851529 -13.96974738 235.0644893 -13.97690338 234.05064434 C-13.99524099 230.74400189 -13.98489001 227.43807143 -13.97463989 224.13140297 C-13.98169493 221.76456602 -13.99043818 219.39773359 -14.00074768 217.03090858 C-14.02095442 211.26383814 -14.02225738 205.49699282 -14.01412214 199.72989697 C-14.00782457 195.04275382 -14.00895691 190.35566823 -14.01539421 185.6685257 C-14.01629587 185.00164921 -14.01719752 184.33477273 -14.0181265 183.64768786 C-14.01997769 182.29296564 -14.02184025 180.93824343 -14.02371406 179.58352124 C-14.04029736 166.87649875 -14.03156901 154.16958726 -14.01472848 141.46257143 C-14.00003255 129.83605848 -14.01465731 118.20980398 -14.04349864 106.58332432 C-14.07288863 94.64682432 -14.08386602 82.71044363 -14.07431644 70.77390903 C-14.07329388 69.42383987 -14.07229928 68.07377068 -14.07133293 66.72370148 C-14.07085654 66.05943441 -14.07038015 65.39516735 -14.06988933 64.71077098 C-14.06772457 60.0297388 -14.07753252 55.34881949 -14.09210396 50.66781235 C-14.11041796 44.36647855 -14.10455419 38.06562616 -14.07990456 31.76431847 C-14.07488317 29.44917289 -14.07842058 27.13399091 -14.09105301 24.81887436 C-14.10691326 21.66297575 -14.09209777 18.50867599 -14.06938171 15.35285378 C-14.08713531 13.972215 -14.08713531 13.972215 -14.10524756 12.56368452 C-14.09282552 11.71669774 -14.08040348 10.86971096 -14.06760502 9.99705791 C-14.06733533 9.26902401 -14.06706564 8.54099011 -14.06678778 7.79089457 C-12.01258778 0.69278768 -6.483852 -0.09597526 0 0 Z M333.55880737 220.6292057 C322.56053406 234.08110555 319.39843138 245.82395574 319.05880737 262.9417057 C318.43423945 284.53370968 316.88236384 303.95733574 307.73068237 323.8010807 C306.36740609 326.58090346 306.36740609 326.58090346 306.55880737 329.6292057 C336.7987076 346.03119735 371.56941308 350.29768617 404.91183472 341.0354557 C413.89236487 338.31421856 422.45795239 334.35209799 430.55880737 329.6292057 C430.88880737 328.9692057 431.21880737 328.3092057 431.55880737 327.6292057 C430.55878411 325.20618862 429.49874592 322.8670942 428.37130737 320.5042057 C422.22327569 307.07585179 419.64760298 293.2726682 419.16427612 278.55498695 C419.09546236 276.81732297 419.02577287 275.07969348 418.95529175 273.34209633 C418.84853755 270.64832404 418.74672854 267.95480947 418.66012573 265.26030922 C418.06616763 247.23144717 415.51394265 231.933782 401.87130737 218.8167057 C382.0094295 201.94771354 352.39901952 201.78899356 333.55880737 220.6292057 Z M335.55880737 356.6292057 C334.13621925 360.45241128 333.31838461 363.54201875 333.55880737 367.6292057 C336.05735504 368.28113258 338.55742108 368.92583634 341.05880737 369.5667057 C341.75490112 369.74910805 342.45099487 369.93151039 343.16818237 370.11944008 C362.87041505 375.13621229 385.28691132 374.05317105 404.55880737 367.6292057 C403.56880737 362.6792057 403.56880737 362.6792057 402.55880737 357.6292057 C399.09996566 356.47625847 397.60553219 356.83690954 394.05880737 357.5042057 C374.44733899 360.70741221 355.11222302 359.56079495 335.55880737 356.6292057 Z " fill="#000000" transform="translate(13.441192626953125,-0.6292057037353516)"/>
<path d="M0 0 C1.08464539 -0.00428513 2.16929077 -0.00857025 3.2868042 -0.01298523 C5.56928819 -0.01869626 7.85179037 -0.01925278 10.13427734 -0.01489258 C13.5859356 -0.01174016 17.03672904 -0.03520761 20.48828125 -0.06054688 C31.78758323 -0.09362069 42.47047825 -0.05049474 53.359375 3.30078125 C54.07673828 3.51984131 54.79410156 3.73890137 55.53320312 3.96459961 C64.59757415 7.05483579 72.11131948 12.15316043 79.359375 18.30078125 C80.08769531 18.91566406 80.81601563 19.53054687 81.56640625 20.1640625 C95.57868626 33.07083718 102.44635638 51.40872898 103.59376526 70.12387085 C103.75522996 74.44468197 103.82046839 78.76661462 103.87890625 83.08984375 C103.9053183 84.68542024 103.93207364 86.28099108 103.95915222 87.8765564 C104.01319133 91.19954543 104.06006201 94.52254403 104.10229492 97.84570312 C104.15711687 102.07993411 104.23470414 106.31341013 104.31824207 110.54715919 C104.37975524 113.83463988 104.42672996 117.12221404 104.46970177 120.40998459 C104.4922471 121.97039142 104.51972994 123.53073586 104.55249977 125.09096146 C104.80333654 137.49363147 103.94694116 148.60035555 95.359375 158.30078125 C90.49247968 162.30931761 84.843674 166.30078125 78.359375 166.30078125 C78.153125 167.08453125 77.946875 167.86828125 77.734375 168.67578125 C74.03589854 178.42631011 67.30390354 188.69435257 58.26757812 194.17651367 C56.00743713 196.04560432 55.41432861 197.04924179 54.77966309 199.95429993 C54.54399195 203.18571496 54.47680076 206.37339963 54.484375 209.61328125 C54.46375 210.73541016 54.443125 211.85753906 54.421875 213.01367188 C54.3748433 215.77678418 54.35492759 218.53735105 54.359375 221.30078125 C55.04016617 221.2918988 55.72095734 221.28301636 56.42237854 221.27386475 C63.57764191 221.18462461 70.73274445 221.12473218 77.88842773 221.08105469 C80.55086091 221.06335341 83.21240633 221.03388343 85.87475586 220.99902344 C110.51358297 220.68474089 129.76197617 222.40997052 148.359375 240.30078125 C160.63240993 254.25127252 164.73779543 269.30053752 164.78491211 287.37695312 C164.79693122 289.56099807 164.84634889 291.74231969 164.89648438 293.92578125 C164.90593834 295.32680932 164.91317828 296.72785447 164.91796875 298.12890625 C164.93142334 299.38606445 164.94487793 300.64322266 164.95874023 301.93847656 C164.19914266 306.1996488 162.66880969 307.60540242 159.359375 310.30078125 C157.9053125 311.13609375 157.9053125 311.13609375 156.421875 311.98828125 C150.13853641 316.73284304 147.09071077 324.4186319 144.21875 331.5859375 C143.359375 333.30078125 143.359375 333.30078125 141.359375 334.30078125 C138.12056819 334.58241662 135.99267409 334.6088727 133.046875 333.17578125 C130.56843992 330.4219645 130.359375 329.04475839 130.359375 325.30078125 C132.26703978 317.65827328 135.73970642 308.65473996 142.3215332 303.8762207 C146.75956226 300.60117473 146.75956226 300.60117473 149.05517578 295.74462891 C149.25621486 292.7886861 149.20619946 289.94634133 149.046875 286.98828125 C149.03591797 286.00666016 149.02496094 285.02503906 149.01367188 284.01367188 C148.64650996 270.48241185 143.79702449 259.24357193 134.578125 249.37109375 C124.67865228 240.1339097 112.46762631 237.61160638 99.359375 236.30078125 C99.359375 250.82078125 99.359375 265.34078125 99.359375 280.30078125 C101.339375 280.63078125 103.319375 280.96078125 105.359375 281.30078125 C112.5678241 285.13506269 118.33005319 291.72747672 121.359375 299.30078125 C123.94087131 307.98399612 122.3684902 316.32957859 118.359375 324.30078125 C113.49954591 331.33753135 107.63605181 335.9474129 99.359375 338.30078125 C88.43865594 339.40181506 80.66123495 337.94841095 72.109375 331.11328125 C66.19220852 325.62130038 62.92974705 319.21290697 62.15625 311.1953125 C61.95690205 302.34094111 63.75879286 295.71325388 69.609375 288.92578125 C73.25968787 285.14467541 76.55037348 282.41674192 81.359375 280.30078125 C82.349375 280.30078125 83.339375 280.30078125 84.359375 280.30078125 C84.359375 265.78078125 84.359375 251.26078125 84.359375 236.30078125 C76.00625 236.26984375 76.00625 236.26984375 67.484375 236.23828125 C64.88006592 236.19368774 64.88006592 236.19368774 62.22314453 236.14819336 C54.67040034 236.16441001 49.35202067 236.35447065 43.48046875 241.64453125 C42.08158644 243.17395497 40.70560111 244.72481047 39.359375 246.30078125 C38.02680638 247.51246788 36.67313259 248.70145567 35.296875 249.86328125 C34.70200287 250.40509033 34.10713074 250.94689941 33.49423218 251.50512695 C31.359375 253.30078125 31.359375 253.30078125 29.04469299 254.66687012 C25.6097678 256.94846487 22.92786262 259.13638865 21.84211349 263.2701416 C20.98631264 269.40235644 21.17998785 275.59371262 21.26171875 281.76953125 C21.25606164 283.77593438 21.24644545 285.78232991 21.23304749 287.78869629 C21.20848871 293.04994882 21.23747114 298.30957709 21.27783203 303.57067871 C21.30952746 308.94691458 21.29027732 314.32294576 21.27539062 319.69921875 C21.25369177 330.23349171 21.28858796 340.76675201 21.359375 351.30078125 C22.65341248 351.29634003 23.94744995 351.2918988 25.28070068 351.287323 C37.46441261 351.24681319 49.6481109 351.21681428 61.83187485 351.19715691 C68.09595289 351.18671121 74.35997664 351.17253758 80.62402344 351.14990234 C86.66700017 351.12820213 92.70992463 351.11621855 98.75293732 351.11102676 C101.06065952 351.10732594 103.3683788 351.10009936 105.6760788 351.08932114 C108.90358202 351.07484385 112.13086807 351.07280175 115.35839844 351.07373047 C116.31649414 351.06653992 117.27458984 351.05934937 118.26171875 351.05194092 C119.14228943 351.05469025 120.02286011 351.05743958 120.93011475 351.06027222 C121.69335934 351.05842863 122.45660393 351.05658504 123.24297714 351.05468559 C125.68404944 351.33853453 127.27797042 352.00698606 129.359375 353.30078125 C130.90524376 356.39251877 130.65297021 358.89507677 130.359375 362.30078125 C128.9827652 364.49559784 128.9827652 364.49559784 126.359375 366.30078125 C122.93491126 366.90423528 119.54210236 366.83987995 116.07263184 366.80871582 C115.01439634 366.81495578 113.95616084 366.82119575 112.8658576 366.8276248 C109.30813377 366.84362175 105.7510887 366.83092384 102.19335938 366.81835938 C99.64756367 366.82377749 97.1017711 366.83089839 94.5559845 366.83959961 C88.3520801 366.85597355 82.14842843 366.85353844 75.94452059 366.84194905 C70.90315768 366.83292073 65.86184902 366.8316881 60.82048035 366.83604431 C60.10335864 366.83665724 59.38623693 366.83727018 58.64738426 366.83790168 C57.1906303 366.83918056 55.73387636 366.84047742 54.27712244 366.84179205 C40.61252669 366.85320214 26.94803823 366.84007744 13.28346008 366.81859058 C1.55496783 366.80071918 -10.17336607 366.80382317 -21.90185547 366.82226562 C-35.51706917 366.84366479 -49.13218881 366.85210347 -62.74741697 366.83981657 C-64.19885475 366.83854235 -65.65029254 366.83728487 -67.10173035 366.83604431 C-67.81589211 366.83542721 -68.53005387 366.83481011 -69.26585689 366.83417431 C-74.30200147 366.83071853 -79.33808645 366.83655462 -84.3742218 366.84596252 C-91.15073241 366.85834314 -97.9268972 366.84954682 -104.70339394 366.8263855 C-107.19472569 366.8210833 -109.68608255 366.82263781 -112.1774044 366.83143616 C-115.56990764 366.84231511 -118.96144094 366.82871959 -122.35388184 366.80871582 C-123.84394548 366.82210015 -123.84394548 366.82210015 -125.36411142 366.83575487 C-131.97492887 366.75978527 -131.97492887 366.75978527 -135.25222111 364.50006008 C-137.35759889 361.1650703 -137.18974882 357.8856934 -137.14233398 354.06665039 C-137.14773697 353.23838745 -137.15313995 352.41012451 -137.15870667 351.5567627 C-137.17121948 348.81612462 -137.15467346 346.07653285 -137.13671875 343.3359375 C-137.13687381 341.42223557 -137.13836397 339.50853332 -137.14112854 337.59483337 C-137.14251413 333.57732305 -137.1299382 329.56016897 -137.10717773 325.54272461 C-137.0789652 320.42543586 -137.08148122 315.30874672 -137.09426785 310.19141483 C-137.10127362 306.23364775 -137.09337742 302.27601574 -137.08101082 298.31826591 C-137.07653147 296.43386798 -137.07612834 294.54945535 -137.08007622 292.66505623 C-137.10220289 272.78798018 -134.39160992 255.37897382 -119.875 240.47265625 C-119.13765625 239.7559375 -118.4003125 239.03921875 -117.640625 238.30078125 C-117.02703125 237.6665625 -116.4134375 237.03234375 -115.78125 236.37890625 C-103.00927554 224.04358049 -86.02578102 220.78306478 -68.90234375 221.0078125 C-67.03217339 221.01417976 -67.03217339 221.01417976 -65.1242218 221.02067566 C-61.1919578 221.03729692 -57.26023074 221.07491807 -53.328125 221.11328125 C-50.6412891 221.13006789 -47.95443888 221.14224088 -45.26757812 221.15429688 C-38.72505757 221.18714616 -32.18293191 221.23881254 -25.640625 221.30078125 C-25.640625 213.38078125 -25.640625 205.46078125 -25.640625 197.30078125 C-27.620625 196.31078125 -27.620625 196.31078125 -29.640625 195.30078125 C-38.98840043 188.49102515 -45.87219356 178.76733831 -50.640625 168.30078125 C-50.640625 167.64078125 -50.640625 166.98078125 -50.640625 166.30078125 C-51.465625 166.23890625 -52.290625 166.17703125 -53.140625 166.11328125 C-61.52021512 164.16801926 -67.85251506 158.29715475 -72.640625 151.30078125 C-75.13306685 145.60075364 -76.06785496 141.14399979 -75.93701172 134.96386719 C-75.93251511 134.17242813 -75.92801849 133.38098907 -75.92338562 132.56556702 C-75.90444485 129.9716869 -75.863131 127.37874372 -75.8203125 124.78515625 C-75.79985276 122.9644675 -75.78034789 121.14376779 -75.76174927 119.32305908 C-75.71931993 115.51350653 -75.66587866 111.70431244 -75.60449219 107.89501953 C-75.52709569 103.04257385 -75.47621156 98.19029023 -75.4336071 93.33742905 C-75.39775306 89.57775643 -75.34803289 85.81836171 -75.2942543 82.05890656 C-75.27022872 80.2714161 -75.25028492 78.48386546 -75.23470688 76.69628143 C-75.11053832 63.73400205 -74.09973239 51.95384575 -68.015625 40.23828125 C-67.67080078 39.56418213 -67.32597656 38.89008301 -66.97070312 38.19555664 C-57.93469095 21.15975362 -43.33582434 9.62978649 -25.29296875 3.34375 C-16.8000213 0.91849121 -8.82505528 -0.00788527 0 0 Z M-45.640625 34.30078125 C-53.36831076 43.22571411 -59.78814863 54.78236908 -59.75415039 66.88574219 C-59.75407486 67.7863739 -59.75399933 68.68700562 -59.75392151 69.6149292 C-59.74876022 70.57860413 -59.74359894 71.54227905 -59.73828125 72.53515625 C-59.7368663 73.52831848 -59.73545135 74.52148071 -59.73399353 75.54473877 C-59.72840088 78.71345037 -59.7158497 81.88209104 -59.703125 85.05078125 C-59.69810905 87.20051981 -59.69354631 89.35025948 -59.68945312 91.5 C-59.67843386 96.76695124 -59.661703 102.03386118 -59.640625 107.30078125 C-57.62070399 106.48893094 -57.62070399 106.48893094 -55.640625 105.30078125 C-55.08371756 102.61802551 -55.08371756 102.61802551 -55.140625 99.55078125 C-54.87363433 94.12631218 -54.24938878 91.34697094 -50.640625 87.30078125 C-48.01149855 85.98621803 -46.06858409 86.18330194 -43.12451172 86.19067383 C-41.96925995 86.19009476 -40.81400818 86.18951569 -39.62374878 86.18891907 C-38.36861481 86.1910289 -37.11348083 86.19313873 -35.8203125 86.1953125 C-33.17445823 86.18185262 -30.52864587 86.16693017 -27.8828125 86.15039062 C-23.70232947 86.12611593 -19.52234032 86.11028842 -15.34179688 86.12573242 C-12.62003006 86.13516927 -9.89919806 86.12873891 -7.17752075 86.10466003 C-4.61550551 86.08220966 -2.05316999 86.08216616 0.50881958 86.1073761 C8.27943459 85.99923891 12.83860885 84.87006313 18.359375 79.30078125 C18.97120636 78.69414139 19.58303772 78.08750153 20.21340942 77.46247864 C21.33619213 76.3289646 22.45230394 75.18881331 23.5625 74.04296875 C28.5391055 69.21782516 33.098199 65.51462886 40.171875 65.05078125 C44.24539051 65.12552465 46.93753105 65.96770583 50.359375 68.30078125 C55.04635981 73.36779185 55.12474351 78.70763637 55.359375 85.30078125 C55.96934326 85.31012695 56.57931152 85.31947266 57.20776367 85.32910156 C59.98826987 85.38299451 62.76712762 85.46660194 65.546875 85.55078125 C66.98643555 85.57205078 66.98643555 85.57205078 68.45507812 85.59375 C72.89006606 85.74720979 75.63634956 85.85444685 79.47265625 88.22265625 C82.63520787 91.70604644 82.60395066 94.29316938 82.921875 98.92578125 C83.00566406 100.11429687 83.08945313 101.3028125 83.17578125 102.52734375 C83.23636719 103.44257813 83.29695312 104.3578125 83.359375 105.30078125 C85.009375 105.96078125 86.659375 106.62078125 88.359375 107.30078125 C88.45972745 101.8971879 88.53152836 96.49415996 88.57910156 91.08984375 C88.59897397 89.25901824 88.62608163 87.42825407 88.66113281 85.59765625 C89.04176312 65.17795961 86.18266763 47.8804436 71.5703125 32.515625 C70.47589844 31.41927734 70.47589844 31.41927734 69.359375 30.30078125 C68.51246094 29.43646484 68.51246094 29.43646484 67.6484375 28.5546875 C53.67645119 15.43465157 35.68827128 14.8029375 17.66040039 14.90966797 C14.4326743 14.92572752 11.20620332 14.90977168 7.97851562 14.890625 C-13.32851138 14.86698969 -30.40255169 18.01900429 -45.640625 34.30078125 Z M37.64453125 80.98828125 C36.54431641 82.13296875 36.54431641 82.13296875 35.421875 83.30078125 C32.17299456 86.56510803 28.88328503 89.70885856 25.359375 92.67578125 C24.616875 93.30226563 23.874375 93.92875 23.109375 94.57421875 C15.54837615 99.32132314 7.84686635 99.76130144 -0.89453125 99.8125 C-2.60672096 99.8394268 -2.60672096 99.8394268 -4.35350037 99.86689758 C-7.97000525 99.92072545 -11.58638024 99.95480848 -15.203125 99.98828125 C-17.66733568 100.02147854 -20.13152927 100.05597041 -22.59570312 100.09179688 C-28.61056052 100.17643606 -34.62543532 100.24490163 -40.640625 100.30078125 C-40.71733963 106.77449868 -40.76950075 113.24809682 -40.80541992 119.72216797 C-40.8204104 121.91980368 -40.84080966 124.11740996 -40.86694336 126.31494141 C-41.10230373 146.62977223 -39.8399327 163.60100124 -24.984375 179.05078125 C-17.87548035 185.87532011 -10.95577784 190.00702555 -1.640625 193.30078125 C-0.64289063 193.67203125 -0.64289063 193.67203125 0.375 194.05078125 C13.40457314 198.12960415 27.91838335 195.17777837 39.859375 189.36328125 C53.94710501 181.26494544 62.69508992 169.21879413 67.44238281 153.77832031 C68.72254236 148.47500931 68.60905599 143.22850668 68.5546875 137.80078125 C68.5518576 136.72449463 68.54902771 135.64820801 68.54611206 134.53930664 C68.53498231 131.12634826 68.50989095 127.71365935 68.484375 124.30078125 C68.47433589 121.97656631 68.46521167 119.65234723 68.45703125 117.328125 C68.4350666 111.65225294 68.40166125 105.97653636 68.359375 100.30078125 C67.12960938 100.26339844 65.89984375 100.22601563 64.6328125 100.1875 C62.99997099 100.12181097 61.36715982 100.05536466 59.734375 99.98828125 C58.92613281 99.96572266 58.11789063 99.94316406 57.28515625 99.91992188 C52.30853058 99.69738983 48.64365984 99.09516796 44.359375 96.30078125 C41.15472942 90.88603527 40.721562 85.50791709 40.359375 79.30078125 C39.07718643 79.18388103 39.07718643 79.18388103 37.64453125 80.98828125 Z M-56.640625 123.30078125 C-60.54530136 128.91375352 -61.77522386 133.4713689 -60.640625 140.30078125 C-59.54833523 142.94675906 -58.28939722 144.93067118 -56.640625 147.30078125 C-56.310625 147.30078125 -55.980625 147.30078125 -55.640625 147.30078125 C-55.640625 139.38078125 -55.640625 131.46078125 -55.640625 123.30078125 C-55.970625 123.30078125 -56.300625 123.30078125 -56.640625 123.30078125 Z M83.359375 123.30078125 C83.359375 131.22078125 83.359375 139.14078125 83.359375 147.30078125 C87.34394298 143.31621327 89.29235648 141.02403246 89.39453125 135.34765625 C89.00100019 130.31813733 87.49792679 127.22397099 84.359375 123.30078125 C84.029375 123.30078125 83.699375 123.30078125 83.359375 123.30078125 Z M-11.640625 205.30078125 C-13.19092682 217.45506214 -13.19092682 217.45506214 -9.47265625 228.609375 C-6.65217286 231.10307135 -3.77105312 233.21382917 -0.640625 235.30078125 C0.7959254 236.54909401 2.21515362 237.81786296 3.609375 239.11328125 C6.99546285 242.13435504 10.65322228 244.68962819 14.359375 247.30078125 C15.24238281 246.55054688 16.12539062 245.8003125 17.03515625 245.02734375 C17.89923096 244.29342407 17.89923096 244.29342407 18.78076172 243.54467773 C20.05321608 242.45538715 21.31909134 241.35836892 22.57861328 240.25415039 C25.54489728 237.65837092 28.47584159 235.16213587 31.73828125 232.9453125 C37.19482657 229.008229 37.19482657 229.008229 39.81884766 223.01513672 C40.29300698 217.39907804 39.92816904 211.89679538 39.359375 206.30078125 C38.63492188 206.43355469 37.91046875 206.56632813 37.1640625 206.703125 C36.19726562 206.87972656 35.23046875 207.05632812 34.234375 207.23828125 C33.28304687 207.41230469 32.33171875 207.58632813 31.3515625 207.765625 C29.87042969 208.03052734 29.87042969 208.03052734 28.359375 208.30078125 C27.40933594 208.48125 26.45929688 208.66171875 25.48046875 208.84765625 C12.58883137 210.7192832 0.77165564 208.78056956 -11.640625 205.30078125 Z M-109.953125 251.48828125 C-120.77354427 264.53055253 -121.94537979 278.19408443 -121.8359375 294.3671875 C-121.83299131 295.82743171 -121.83095442 297.28767805 -121.82983398 298.7479248 C-121.81941339 304.11974282 -121.79149097 309.4915154 -121.765625 314.86328125 C-121.724375 326.88765625 -121.683125 338.91203125 -121.640625 351.30078125 C-79.400625 351.30078125 -37.160625 351.30078125 6.359375 351.30078125 C6.565625 336.47140625 6.771875 321.64203125 6.984375 306.36328125 C7.12093506 299.35992554 7.12093506 299.35992554 7.26025391 292.21508789 C7.29371417 288.00137186 7.29371417 288.00137186 7.31381226 283.7875824 C7.32909134 281.92190144 7.3641062 280.0563146 7.41513062 278.19126892 C8.03691936 267.13120381 8.03691936 267.13120381 4.20941162 257.14059448 C1.70199828 254.86053876 -0.76914037 253.08671719 -3.640625 251.30078125 C-5.01509221 250.13683817 -6.37342716 248.95311756 -7.703125 247.73828125 C-8.35619629 247.18390381 -9.00926758 246.62952637 -9.68212891 246.05834961 C-11.640625 244.30078125 -11.640625 244.30078125 -13.51708984 242.23266602 C-17.83519764 237.7148679 -20.87681365 235.76986857 -27.20703125 235.51953125 C-29.54035376 235.57211317 -31.87306601 235.66667714 -34.203125 235.80078125 C-35.40259766 235.836875 -36.60207031 235.87296875 -37.83789062 235.91015625 C-40.7735323 236.00372252 -43.70751108 236.14719274 -46.640625 236.30078125 C-46.640625 240.26078125 -46.640625 244.22078125 -46.640625 248.30078125 C-44.990625 248.83703125 -43.340625 249.37328125 -41.640625 249.92578125 C-36.78372047 251.66799991 -33.13588847 253.82243106 -29.19921875 257.12890625 C-27.69919915 258.50110162 -27.69919915 258.50110162 -25.640625 258.30078125 C-25.36089844 258.88730469 -25.08117187 259.47382813 -24.79296875 260.078125 C-23.72216919 262.14349771 -22.52642834 263.95459139 -21.203125 265.86328125 C-15.95130972 274.28794346 -15.18458756 283.45568151 -15.2421875 293.171875 C-15.23931732 294.25662613 -15.23644714 295.34137726 -15.23348999 296.45899963 C-15.2314637 298.73040292 -15.2368921 301.00182423 -15.24951172 303.27319336 C-15.2656957 306.75348438 -15.24955743 310.23263343 -15.23046875 313.71289062 C-15.23244929 315.92838798 -15.23628905 318.14388462 -15.2421875 320.359375 C-15.23611481 321.39791122 -15.23004211 322.43644745 -15.2237854 323.50645447 C-15.23797012 324.95430077 -15.23797012 324.95430077 -15.25244141 326.43139648 C-15.25482819 327.27758041 -15.25721497 328.12376434 -15.25967407 328.99559021 C-15.72864339 331.83339368 -16.6818521 333.2203226 -18.640625 335.30078125 C-21.04492188 335.80249023 -21.04492188 335.80249023 -23.859375 335.796875 C-24.87386719 335.79751953 -25.88835937 335.79816406 -26.93359375 335.79882812 C-27.99191406 335.77884766 -29.05023438 335.75886719 -30.140625 335.73828125 C-31.19894531 335.74537109 -32.25726563 335.75246094 -33.34765625 335.75976562 C-41.0975789 335.69575737 -41.0975789 335.69575737 -43.43945312 333.99243164 C-45.47340532 331.12794897 -45.06253305 328.67604565 -44.640625 325.30078125 C-41.62989902 322.2759535 -39.06371143 321.86167925 -34.890625 321.61328125 C-33.90578125 321.54753906 -32.9209375 321.48179687 -31.90625 321.4140625 C-30.78476563 321.35798828 -30.78476563 321.35798828 -29.640625 321.30078125 C-29.54109867 315.91143058 -29.46884841 310.52262515 -29.42089844 305.13256836 C-29.40089126 303.30239532 -29.37367649 301.47228533 -29.33886719 299.64233398 C-29.28986497 296.99837613 -29.26754739 294.3552696 -29.25 291.7109375 C-29.22935486 290.90431168 -29.20870972 290.09768585 -29.18743896 289.26661682 C-29.1845481 281.80195914 -31.72187911 276.23533379 -35.765625 270.05078125 C-41.08640667 264.96133792 -46.7728369 262.04049493 -54.203125 261.73828125 C-62.48598371 262.18221444 -68.61372515 265.37719091 -74.203125 271.4453125 C-79.65646747 278.48427357 -79.8006048 286.87771217 -79.73828125 295.421875 C-79.73615883 296.53901634 -79.73615883 296.53901634 -79.73399353 297.6787262 C-79.72844489 300.03195398 -79.71590233 302.38508275 -79.703125 304.73828125 C-79.69810335 306.34439966 -79.69354161 307.95051957 -79.68945312 309.55664062 C-79.67849235 313.47139168 -79.66126384 317.38606974 -79.640625 321.30078125 C-78.88136719 321.36136719 -78.12210938 321.42195313 -77.33984375 321.484375 C-75.84904297 321.61005859 -75.84904297 321.61005859 -74.328125 321.73828125 C-72.84892578 321.86009766 -72.84892578 321.86009766 -71.33984375 321.984375 C-68.640625 322.30078125 -68.640625 322.30078125 -65.640625 323.30078125 C-63.29752877 329.21430984 -63.29752877 329.21430984 -64.390625 332.67578125 C-65.640625 334.30078125 -65.640625 334.30078125 -67.640625 335.30078125 C-71.28121286 335.54127751 -74.93047319 335.48597407 -78.578125 335.48828125 C-80.10083008 335.50665039 -80.10083008 335.50665039 -81.65429688 335.52539062 C-83.11512695 335.52829102 -83.11512695 335.52829102 -84.60546875 335.53125 C-85.94532837 335.53741333 -85.94532837 335.53741333 -87.31225586 335.54370117 C-89.640625 335.30078125 -89.640625 335.30078125 -92.640625 333.30078125 C-93.02830505 331.04627991 -93.02830505 331.04627991 -93.04467773 328.19946289 C-93.05736191 327.1339772 -93.07004608 326.06849152 -93.08311462 324.97071838 C-93.08017899 323.81249069 -93.07724335 322.654263 -93.07421875 321.4609375 C-93.0794606 320.26907333 -93.08470245 319.07720917 -93.09010315 317.84922791 C-93.09654049 315.31803161 -93.09516439 312.78680546 -93.08666992 310.25561523 C-93.07822776 306.41008843 -93.10678977 302.56608041 -93.13867188 298.72070312 C-93.14028579 296.25911503 -93.13970272 293.79752432 -93.13671875 291.3359375 C-93.14795273 290.19592789 -93.15918671 289.05591827 -93.17076111 287.88136292 C-93.07136937 276.29190171 -89.87949589 266.64992384 -81.640625 258.30078125 C-75.45539628 252.95757526 -69.5481256 250.22117425 -61.640625 248.30078125 C-61.640625 244.34078125 -61.640625 240.38078125 -61.640625 236.30078125 C-80.30988974 235.63069797 -96.29553518 237.20989189 -109.953125 251.48828125 Z M81.359375 298.30078125 C78.58066717 302.1183373 76.98434701 305.65103468 77.359375 310.42578125 C78.3950376 315.64511057 80.69249602 319.16427285 85.109375 322.17578125 C90.45814553 324.02727874 95.01154347 324.25690993 100.109375 321.80078125 C104.08148287 319.21344493 106.10732044 315.83124182 107.359375 311.30078125 C107.78145018 305.66607757 105.98471519 301.6310487 102.359375 297.30078125 C98.52309842 293.91583133 94.72189073 293.77784233 89.79296875 293.9609375 C86.03006996 294.48641454 84.10041868 295.69026346 81.359375 298.30078125 Z " fill="#000000" transform="translate(136.640625,85.69921875)"/>
<path d="M0 0 C1.60186157 -0.01891296 1.60186157 -0.01891296 3.23608398 -0.03820801 C4.95807007 -0.02606262 4.95807007 -0.02606262 6.71484375 -0.01367188 C7.89828369 -0.01749878 9.08172363 -0.02132568 10.30102539 -0.02526855 C12.80258027 -0.02798997 15.30416349 -0.02061291 17.80566406 -0.00390625 C21.63801424 0.01749809 25.46848949 -0.00370232 29.30078125 -0.02929688 C31.73047289 -0.02665364 34.16016337 -0.02152876 36.58984375 -0.01367188 C37.73783447 -0.0217688 38.8858252 -0.02986572 40.06860352 -0.03820801 C41.67046509 -0.01929504 41.67046509 -0.01929504 43.3046875 0 C44.7122229 0.00477356 44.7122229 0.00477356 46.14819336 0.00964355 C49.40499256 0.67024322 50.60813458 1.9498888 52.65234375 4.51757812 C53.10644531 7.08300781 53.10644531 7.08300781 53.04296875 9.93945312 C53.03007812 10.96425781 53.0171875 11.9890625 53.00390625 13.04492188 C52.97039062 14.10839844 52.936875 15.171875 52.90234375 16.26757812 C52.88429688 17.34652344 52.86625 18.42546875 52.84765625 19.53710938 C52.8005579 22.198166 52.73479975 24.85742067 52.65234375 27.51757812 C53.6127356 27.49401245 53.6127356 27.49401245 54.5925293 27.4699707 C57.50821006 27.40740698 60.4237493 27.36852005 63.33984375 27.33007812 C64.34724609 27.30494141 65.35464844 27.27980469 66.39257812 27.25390625 C75.9341206 27.15943553 75.9341206 27.15943553 79.65234375 30.51757812 C80.6354168 33.46679729 80.78439643 35.4011582 80.79760742 38.47631836 C80.80398727 39.48423935 80.81036713 40.49216034 80.81694031 41.53062439 C80.81805313 42.61815506 80.81916595 43.70568573 80.8203125 44.82617188 C80.8253051 46.50357201 80.8253051 46.50357201 80.83039856 48.21485901 C80.83546382 50.58114205 80.83780701 52.94743224 80.83764648 55.3137207 C80.83983292 58.93713116 80.85799299 62.56023719 80.87695312 66.18359375 C80.8798871 68.48111875 80.88187187 70.7786452 80.8828125 73.07617188 C80.88999802 74.16167831 80.89718353 75.24718475 80.90458679 76.36558533 C80.90151016 77.37665848 80.89843353 78.38773163 80.89526367 79.42944336 C80.89668869 80.31752182 80.89811371 81.20560028 80.89958191 82.12059021 C80.63100123 84.72449505 80.06173803 86.32133299 78.65234375 88.51757812 C75.24272663 90.34667121 72.40266923 90.75991341 68.5703125 90.71289062 C67.63896484 90.70644531 66.70761719 90.7 65.74804688 90.69335938 C64.30848633 90.66822266 64.30848633 90.66822266 62.83984375 90.64257812 C61.3712793 90.62904297 61.3712793 90.62904297 59.87304688 90.61523438 C57.46589314 90.59174995 55.05924632 90.55890653 52.65234375 90.51757812 C52.68376465 91.53126465 52.68376465 91.53126465 52.71582031 92.56542969 C52.79906018 95.63266066 52.85102841 98.69965394 52.90234375 101.76757812 C52.93585938 102.83105469 52.969375 103.89453125 53.00390625 104.99023438 C53.02324219 106.52744141 53.02324219 106.52744141 53.04296875 108.09570312 C53.07438965 109.50964355 53.07438965 109.50964355 53.10644531 110.95214844 C52.5052808 114.34840471 51.30662128 115.36269456 48.65234375 117.51757812 C46.14819336 118.0255127 46.14819336 118.0255127 43.3046875 118.03515625 C42.23677979 118.04776489 41.16887207 118.06037354 40.06860352 118.07336426 C38.92061279 118.06526733 37.77262207 118.05717041 36.58984375 118.04882812 C34.81468384 118.05456848 34.81468384 118.05456848 33.00366211 118.0604248 C30.50210723 118.06314622 28.00052401 118.05576916 25.49902344 118.0390625 C21.66667326 118.01765816 17.83619801 118.03885857 14.00390625 118.06445312 C11.57421461 118.06180989 9.14452413 118.05668501 6.71484375 118.04882812 C5.56685303 118.05692505 4.4188623 118.06502197 3.23608398 118.07336426 C2.16817627 118.06075562 1.10026855 118.04814697 0 118.03515625 C-0.93835693 118.03197388 -1.87671387 118.0287915 -2.84350586 118.0255127 C-6.10030506 117.36491303 -7.30344708 116.08526745 -9.34765625 113.51757812 C-9.80175781 110.95214844 -9.80175781 110.95214844 -9.73828125 108.09570312 C-9.72539062 107.07089844 -9.7125 106.04609375 -9.69921875 104.99023438 C-9.66570312 103.92675781 -9.6321875 102.86328125 -9.59765625 101.76757812 C-9.57960938 100.68863281 -9.5615625 99.6096875 -9.54296875 98.49804688 C-9.4958704 95.83699025 -9.43011225 93.17773558 -9.34765625 90.51757812 C-9.98791748 90.53328857 -10.62817871 90.54899902 -11.2878418 90.56518555 C-14.20352256 90.62774927 -17.1190618 90.6666362 -20.03515625 90.70507812 C-21.04255859 90.73021484 -22.04996094 90.75535156 -23.08789062 90.78125 C-32.48700756 90.87431056 -32.48700756 90.87431056 -36.34765625 87.51757812 C-37.59913203 85.01462656 -37.48811438 83.28970053 -37.50878906 80.48876953 C-37.51839661 79.44073151 -37.52800415 78.39269348 -37.53790283 77.31289673 C-37.54215271 76.17645721 -37.54640259 75.0400177 -37.55078125 73.86914062 C-37.55648132 72.70506683 -37.5621814 71.54099304 -37.5680542 70.34164429 C-37.57751347 67.87523307 -37.58404185 65.40880916 -37.58789062 62.94238281 C-37.59759826 59.16514084 -37.62861459 55.38844234 -37.66015625 51.61132812 C-37.66668587 49.2181022 -37.6719365 46.82487237 -37.67578125 44.43164062 C-37.69430145 42.73305405 -37.69430145 42.73305405 -37.7131958 41.00015259 C-37.7101947 39.94581024 -37.7071936 38.8914679 -37.70410156 37.80517578 C-37.70774719 36.87855133 -37.71139282 35.95192688 -37.71514893 34.9972229 C-37.27405602 32.02096301 -36.42054859 30.67362777 -34.34765625 28.51757812 C-31.34749713 27.51752509 -29.37341869 27.40182227 -26.2421875 27.41992188 C-25.25927734 27.42314453 -24.27636719 27.42636719 -23.26367188 27.4296875 C-21.72743164 27.44225586 -21.72743164 27.44225586 -20.16015625 27.45507812 C-18.60651367 27.4618457 -18.60651367 27.4618457 -17.02148438 27.46875 C-14.46348359 27.48053802 -11.90559892 27.49699297 -9.34765625 27.51757812 C-9.36860352 26.84178711 -9.38955078 26.16599609 -9.41113281 25.46972656 C-9.49437268 22.40249559 -9.54634091 19.33550231 -9.59765625 16.26757812 C-9.63117188 15.20410156 -9.6646875 14.140625 -9.69921875 13.04492188 C-9.71210938 12.02011719 -9.725 10.9953125 -9.73828125 9.93945312 C-9.75922852 8.99682617 -9.78017578 8.05419922 -9.80175781 7.08300781 C-8.82811579 1.58245387 -5.18970612 0.01760053 0 0 Z M5.65234375 15.51757812 C5.44265174 22.57723223 5.44265174 22.57723223 5.2644043 29.63769531 C5.2312915 30.52102539 5.19817871 31.40435547 5.1640625 32.31445312 C5.13787842 33.21518555 5.11169434 34.11591797 5.0847168 35.04394531 C4.55882959 38.05257838 3.8757886 39.41858874 1.65234375 41.51757812 C-0.89135742 42.06347656 -0.89135742 42.06347656 -3.890625 42.12695312 C-5.34118286 42.17287598 -5.34118286 42.17287598 -6.82104492 42.21972656 C-8.65953003 42.24341309 -8.65953003 42.24341309 -10.53515625 42.26757812 C-16.38234375 42.39132813 -16.38234375 42.39132813 -22.34765625 42.51757812 C-22.34765625 53.40757813 -22.34765625 64.29757813 -22.34765625 75.51757812 C-14.58471526 75.68792586 -14.58471526 75.68792586 -6.82104492 75.81542969 C-5.85400635 75.84604492 -4.88696777 75.87666016 -3.890625 75.90820312 C-2.9008667 75.92915039 -1.9111084 75.95009766 -0.89135742 75.97167969 C1.65234375 76.51757812 1.65234375 76.51757812 3.46679688 78.23046875 C4.84960476 80.89812613 5.07697238 82.72480296 5.1640625 85.72070312 C5.19717529 86.6040332 5.23028809 87.48736328 5.2644043 88.39746094 C5.28929932 89.50959961 5.31419434 90.62173828 5.33984375 91.76757812 C5.49453125 97.08882812 5.49453125 97.08882812 5.65234375 102.51757812 C16.21234375 102.51757812 26.77234375 102.51757812 37.65234375 102.51757812 C37.8621867 95.08376164 37.8621867 95.08376164 38.0402832 87.64916992 C38.08995239 86.25952026 38.08995239 86.25952026 38.140625 84.84179688 C38.16680908 83.89393311 38.19299316 82.94606934 38.2199707 81.96948242 C38.65234375 79.51757812 38.65234375 79.51757812 39.83789062 77.71679688 C42.33959953 76.0633531 44.20911454 76.08485932 47.1953125 76.00585938 C48.64587036 75.95619019 48.64587036 75.95619019 50.12573242 75.90551758 C51.35138916 75.88062256 52.5770459 75.85572754 53.83984375 75.83007812 C57.73796875 75.72695312 61.63609375 75.62382813 65.65234375 75.51757812 C65.65234375 64.62757812 65.65234375 53.73757812 65.65234375 42.51757812 C52.78234375 42.02257812 52.78234375 42.02257812 39.65234375 41.51757812 C38.65778466 38.53390086 38.45674743 36.31715892 38.3359375 33.19335938 C38.27877563 31.80370972 38.27877563 31.80370972 38.22045898 30.38598633 C38.17735596 29.21253662 38.13425293 28.03908691 38.08984375 26.83007812 C37.94546875 23.09695312 37.80109375 19.36382812 37.65234375 15.51757812 C27.09234375 15.51757812 16.53234375 15.51757812 5.65234375 15.51757812 Z " fill="#000000" transform="translate(388.34765625,26.482421875)"/>
<path d="M0 0 C1.02148353 -0.00779995 2.04296705 -0.01559991 3.09540462 -0.02363622 C6.52889172 -0.04362943 9.96127946 -0.0277622 13.39477539 -0.01205444 C15.8519048 -0.01882726 18.30902913 -0.02772849 20.7661438 -0.03860474 C26.75354407 -0.05907071 32.74051058 -0.05602929 38.72789407 -0.04154153 C43.59335163 -0.03025532 48.45872134 -0.02871568 53.32418823 -0.03416061 C54.01633169 -0.03492678 54.70847515 -0.03569294 55.42159265 -0.03648233 C56.82761362 -0.03808093 58.23363456 -0.039702 59.63965547 -0.04134528 C72.82786087 -0.05560734 86.01589258 -0.03920298 99.2040695 -0.01234345 C110.52325898 0.00999582 121.8421921 0.00611582 133.16137695 -0.01693726 C146.30196766 -0.04368729 159.44240608 -0.05423401 172.58302021 -0.03887594 C173.98390513 -0.03728317 175.38479008 -0.03571132 176.78567505 -0.03416061 C177.8196022 -0.03300355 177.8196022 -0.03300355 178.87441677 -0.03182311 C183.73474557 -0.02750369 188.59497789 -0.03479781 193.45529175 -0.04655838 C199.99544272 -0.06203562 206.53518364 -0.05103652 213.07531357 -0.0220871 C215.47956408 -0.01546003 217.88385526 -0.01740139 220.28808975 -0.02840042 C223.562571 -0.04200269 226.83548288 -0.02500286 230.10986328 0 C231.54739913 -0.01673041 231.54739913 -0.01673041 233.0139761 -0.03379881 C239.40579427 0.06130199 239.40579427 0.06130199 242.67259216 2.9480381 C244.58434901 6.66395704 244.29784758 8.68683229 243.05493164 12.63491821 C238.57716944 16.51455157 233.75674655 16.05583233 228.14819336 16.01586914 C226.6402461 16.0228891 226.6402461 16.0228891 225.10183525 16.03005087 C221.72929615 16.04202808 218.35716134 16.03253277 214.98461914 16.02310181 C212.5683773 16.02716628 210.15213733 16.03250746 207.73590088 16.03903198 C201.85202285 16.05130339 195.96825002 16.04949074 190.0843749 16.04079406 C185.30239514 16.03401867 180.52044755 16.03310016 175.73846436 16.03636551 C175.05784655 16.03682521 174.37722875 16.03728491 173.67598617 16.03775854 C172.29332049 16.03871771 170.91065481 16.03969035 169.52798915 16.04067631 C156.56297766 16.04923077 143.5980298 16.03939521 130.63302875 16.02327521 C119.50865722 16.00987196 108.3843796 16.01220004 97.26000977 16.02603149 C84.34136725 16.04208633 71.42278051 16.04840679 58.50412941 16.0391947 C57.12655259 16.03823906 55.74897576 16.03729594 54.37139893 16.03636551 C53.6936063 16.03590268 53.01581367 16.03543986 52.31748188 16.034963 C47.54129184 16.03237282 42.76513719 16.03674471 37.98895264 16.04380417 C31.56050399 16.05309691 25.13219109 16.04647998 18.70375824 16.0291214 C16.3418482 16.02514832 13.97992325 16.02630458 11.6180191 16.03290939 C8.39903289 16.04108228 5.18061944 16.03085434 1.96166992 16.01586914 C0.55287221 16.02590739 0.55287221 16.02590739 -0.88438606 16.03614843 C-5.65965021 15.99289929 -9.16476836 15.91025472 -12.94506836 12.63491821 C-14.1879843 8.68683229 -14.47448573 6.66395704 -12.56272888 2.9480381 C-8.62216442 -0.53407807 -5.09934946 -0.05934754 0 0 Z " fill="#000000" transform="translate(67.945068359375,32.365081787109375)"/>
<path d="M0 0 C1.02148353 -0.00779995 2.04296705 -0.01559991 3.09540462 -0.02363622 C6.52889172 -0.04362943 9.96127946 -0.0277622 13.39477539 -0.01205444 C15.8519048 -0.01882726 18.30902913 -0.02772849 20.7661438 -0.03860474 C26.75354407 -0.05907071 32.74051058 -0.05602929 38.72789407 -0.04154153 C43.59335163 -0.03025532 48.45872134 -0.02871568 53.32418823 -0.03416061 C54.01633169 -0.03492678 54.70847515 -0.03569294 55.42159265 -0.03648233 C56.82761362 -0.03808093 58.23363456 -0.039702 59.63965547 -0.04134528 C72.82786087 -0.05560734 86.01589258 -0.03920298 99.2040695 -0.01234345 C110.52325898 0.00999582 121.8421921 0.00611582 133.16137695 -0.01693726 C146.30196766 -0.04368729 159.44240608 -0.05423401 172.58302021 -0.03887594 C173.98390513 -0.03728317 175.38479008 -0.03571132 176.78567505 -0.03416061 C177.8196022 -0.03300355 177.8196022 -0.03300355 178.87441677 -0.03182311 C183.73474557 -0.02750369 188.59497789 -0.03479781 193.45529175 -0.04655838 C199.99544272 -0.06203562 206.53518364 -0.05103652 213.07531357 -0.0220871 C215.47956408 -0.01546003 217.88385526 -0.01740139 220.28808975 -0.02840042 C223.562571 -0.04200269 226.83548288 -0.02500286 230.10986328 0 C231.54739913 -0.01673041 231.54739913 -0.01673041 233.0139761 -0.03379881 C239.40579427 0.06130199 239.40579427 0.06130199 242.67259216 2.9480381 C244.58434901 6.66395704 244.29784758 8.68683229 243.05493164 12.63491821 C238.57716944 16.51455157 233.75674655 16.05583233 228.14819336 16.01586914 C226.6402461 16.0228891 226.6402461 16.0228891 225.10183525 16.03005087 C221.72929615 16.04202808 218.35716134 16.03253277 214.98461914 16.02310181 C212.5683773 16.02716628 210.15213733 16.03250746 207.73590088 16.03903198 C201.85202285 16.05130339 195.96825002 16.04949074 190.0843749 16.04079406 C185.30239514 16.03401867 180.52044755 16.03310016 175.73846436 16.03636551 C175.05784655 16.03682521 174.37722875 16.03728491 173.67598617 16.03775854 C172.29332049 16.03871771 170.91065481 16.03969035 169.52798915 16.04067631 C156.56297766 16.04923077 143.5980298 16.03939521 130.63302875 16.02327521 C119.50865722 16.00987196 108.3843796 16.01220004 97.26000977 16.02603149 C84.34136725 16.04208633 71.42278051 16.04840679 58.50412941 16.0391947 C57.12655259 16.03823906 55.74897576 16.03729594 54.37139893 16.03636551 C53.6936063 16.03590268 53.01581367 16.03543986 52.31748188 16.034963 C47.54129184 16.03237282 42.76513719 16.03674471 37.98895264 16.04380417 C31.56050399 16.05309691 25.13219109 16.04647998 18.70375824 16.0291214 C16.3418482 16.02514832 13.97992325 16.02630458 11.6180191 16.03290939 C8.39903289 16.04108228 5.18061944 16.03085434 1.96166992 16.01586914 C0.55287221 16.02590739 0.55287221 16.02590739 -0.88438606 16.03614843 C-5.65965021 15.99289929 -9.16476836 15.91025472 -12.94506836 12.63491821 C-14.1879843 8.68683229 -14.47448573 6.66395704 -12.56272888 2.9480381 C-8.62216442 -0.53407807 -5.09934946 -0.05934754 0 0 Z " fill="#000000" transform="translate(67.945068359375,62.365081787109375)"/>
<path d="M0 0 C1.10314545 -0.0131424 1.10314545 -0.0131424 2.22857666 -0.02655029 C4.65559171 -0.04852782 7.08077948 -0.03399939 9.5078125 -0.01708984 C11.19645538 -0.0204585 12.88509589 -0.02531154 14.57373047 -0.03158569 C18.11123764 -0.03895472 21.64811318 -0.02825114 25.18554688 -0.00488281 C29.71888503 0.02360571 34.25074325 0.0072018 38.7840271 -0.02274513 C42.27053976 -0.04081773 45.75670184 -0.03506042 49.2432251 -0.02210617 C50.91457291 -0.01877201 52.58595261 -0.02285964 54.25726318 -0.03450394 C56.59424056 -0.04721301 58.92882576 -0.02783961 61.265625 0 C61.95561584 -0.01012115 62.64560669 -0.02024231 63.35650635 -0.03067017 C66.98546298 0.04937614 68.41035601 0.43743587 71.08935547 2.96084595 C72.6328125 5.64697266 72.6328125 5.64697266 72.6953125 9.27197266 C71.6328125 12.64697266 71.6328125 12.64697266 69.51000977 14.33364868 C65.98291999 15.94362225 63.40962113 16.02777531 59.53515625 16.03515625 C58.49272263 16.04304169 58.49272263 16.04304169 57.42922974 16.05108643 C55.1426922 16.06423995 52.85685655 16.05556537 50.5703125 16.04541016 C48.97517768 16.04743224 47.38004377 16.0503448 45.78491211 16.05410767 C42.44603654 16.0585247 39.10740217 16.0521201 35.76855469 16.03808594 C31.49461161 16.02099423 27.22123375 16.03083877 22.9473114 16.04880333 C19.65470136 16.05965804 16.36222472 16.05618712 13.0696106 16.04841995 C11.49398735 16.0464226 9.91835189 16.04886087 8.34274292 16.05585861 C6.13832645 16.06350113 3.93481782 16.05183094 1.73046875 16.03515625 C0.47758057 16.03276947 -0.77530762 16.03038269 -2.06616211 16.02792358 C-5.65605655 15.61363607 -7.54943609 14.88582117 -10.3671875 12.64697266 C-11.4296875 9.27197266 -11.4296875 9.27197266 -11.3671875 5.64697266 C-8.42364323 0.52423019 -5.57829822 -0.08182546 0 0 Z " fill="#000000" transform="translate(239.3671875,92.35302734375)"/>
<path d="M0 0 C1.16801147 -0.0157608 2.33602295 -0.03152161 3.53942871 -0.04776001 C4.79678833 -0.03763885 6.05414795 -0.0275177 7.34960938 -0.01708984 C8.64402954 -0.02187347 9.93844971 -0.0266571 11.27209473 -0.03158569 C14.00933729 -0.03894873 16.74576277 -0.02827222 19.48291016 -0.00488281 C22.98731771 0.02360748 26.48981091 0.00720005 29.99414825 -0.02274513 C33.34195448 -0.04518339 36.68924878 -0.02946212 40.03710938 -0.01708984 C41.29446899 -0.027211 42.55182861 -0.03733215 43.84729004 -0.04776001 C45.59930725 -0.0241188 45.59930725 -0.0241188 47.38671875 0 C48.41390015 0.00397797 49.44108154 0.00795593 50.49938965 0.01205444 C53.19335938 0.64697266 53.19335938 0.64697266 55.54846191 2.96084595 C57.19335938 5.64697266 57.19335938 5.64697266 57.31835938 9.27197266 C56.19335938 12.64697266 56.19335938 12.64697266 53.87109375 14.33300781 C48.63059726 16.20530946 43.74999061 16.075652 38.22460938 16.04541016 C36.49410339 16.04971542 36.49410339 16.04971542 34.7286377 16.05410767 C32.29450997 16.05614509 29.86036575 16.0506378 27.42626953 16.03808594 C23.70633233 16.02202865 19.98748165 16.03794654 16.26757812 16.05712891 C13.89908615 16.05514642 11.53059485 16.05130263 9.16210938 16.04541016 C7.49782898 16.0545192 7.49782898 16.0545192 5.79992676 16.06381226 C-4.22585429 15.97276223 -4.22585429 15.97276223 -8.80664062 12.64697266 C-9.93164062 9.27197266 -9.93164062 9.27197266 -9.80664062 5.64697266 C-7.03714374 1.12436883 -5.26476304 0.02038885 0 0 Z " fill="#000000" transform="translate(254.806640625,122.35302734375)"/>
<path d="M0 0 C1.09123169 -0.00938095 2.18246338 -0.0187619 3.3067627 -0.02842712 C4.48492554 -0.01719315 5.66308838 -0.00595917 6.87695312 0.00561523 C8.08637573 0.00416 9.29579834 0.00270477 10.54187012 0.00120544 C13.1006918 0.00286656 15.65952326 0.01445137 18.21826172 0.03515625 C22.1426828 0.06409454 26.0657527 0.05577175 29.99023438 0.04272461 C32.47331388 0.04896214 34.95638911 0.0573532 37.43945312 0.06811523 C39.20669739 0.06371178 39.20669739 0.06371178 41.00964355 0.05921936 C42.64649109 0.07824562 42.64649109 0.07824562 44.31640625 0.09765625 C45.27776489 0.10305923 46.23912354 0.10846222 47.22961426 0.11402893 C50.0890145 0.57048019 50.96292773 1.1914945 52.65820312 3.50170898 C53.5081179 6.57447778 53.891304 8.66254582 53.03320312 11.75170898 C51.18470124 14.10434775 49.47974708 14.5610466 46.65820312 15.50170898 C44.26831055 15.75567627 44.26831055 15.75567627 41.76367188 15.76049805 C40.3469519 15.76995453 40.3469519 15.76995453 38.90161133 15.77960205 C37.89316162 15.77555359 36.88471191 15.77150513 35.84570312 15.76733398 C34.79922607 15.76924744 33.75274902 15.77116089 32.67456055 15.77313232 C30.4656551 15.77449117 28.25674159 15.77081574 26.04785156 15.76245117 C22.67039012 15.75174761 19.29346057 15.76235686 15.91601562 15.77514648 C13.76757695 15.77382484 11.61913861 15.77126233 9.47070312 15.76733398 C8.46225342 15.77138245 7.45380371 15.77543091 6.41479492 15.77960205 C5.47031494 15.77329773 4.52583496 15.76699341 3.55273438 15.76049805 C2.72620361 15.75890686 1.89967285 15.75731567 1.0480957 15.75567627 C-2.84389918 15.34208472 -5.5721261 14.27137976 -8.34179688 11.50170898 C-8.66813085 7.97730208 -8.86217832 5.46516873 -7.15612793 2.3065033 C-4.72439171 -0.11245089 -3.39395531 0.00058664 0 0 Z " fill="#000000" transform="translate(258.341796875,152.498291015625)"/>
<path d="M0 0 C1.63684753 -0.01418472 1.63684753 -0.01418472 3.3067627 -0.02865601 C5.07400696 -0.01954697 5.07400696 -0.01954697 6.87695312 -0.01025391 C8.69108704 -0.01455917 8.69108704 -0.01455917 10.54187012 -0.01895142 C13.10067208 -0.02099426 15.65948957 -0.01544908 18.21826172 -0.00292969 C22.14260667 0.01311981 26.06592159 -0.00277203 29.99023438 -0.02197266 C32.47330957 -0.01999026 34.95638413 -0.01614668 37.43945312 -0.01025391 C38.61761597 -0.0163266 39.79577881 -0.02239929 41.00964355 -0.02865601 C42.10087524 -0.01919952 43.19210693 -0.00974304 44.31640625 0 C45.27776489 0.00238678 46.23912354 0.00477356 47.22961426 0.00723267 C50.09234957 0.45628425 50.96245733 1.07594601 52.65820312 3.38818359 C53.5393302 6.57379687 53.95044366 8.55642208 52.84570312 11.70068359 C51.65820312 13.38818359 51.65820312 13.38818359 49.65820312 14.38818359 C47.91783663 14.49406963 46.1734725 14.53696153 44.42993164 14.54931641 C43.33862442 14.55892395 42.2473172 14.56853149 41.12294006 14.57843018 C39.93961594 14.58268005 38.75629181 14.58692993 37.53710938 14.59130859 C36.32627182 14.59700867 35.11543427 14.60270874 33.86790466 14.60858154 C31.30314002 14.61804063 28.73836318 14.62456912 26.17358398 14.62841797 C22.24050851 14.63813466 18.30795297 14.66915494 14.375 14.70068359 C11.88737291 14.70721225 9.39974206 14.71246326 6.91210938 14.71630859 C5.14015953 14.7348288 5.14015953 14.7348288 3.33241272 14.75372314 C1.69072365 14.7492215 1.69072365 14.7492215 0.01586914 14.74462891 C-1.43069313 14.75009735 -1.43069313 14.75009735 -2.90647888 14.75567627 C-5.75723744 14.32549307 -6.64080741 13.67344313 -8.34179688 11.38818359 C-8.74023438 9.45068359 -8.74023438 9.45068359 -8.71679688 7.38818359 C-8.72453125 6.70755859 -8.73226562 6.02693359 -8.74023438 5.32568359 C-7.74166726 0.46990626 -4.43674274 0.01101517 0 0 Z " fill="#000000" transform="translate(258.341796875,182.61181640625)"/>
</svg>
