<?xml version="1.0" encoding="UTF-8"?>
<svg version="1.1" xmlns="http://www.w3.org/2000/svg" width="512" height="512">
<path d="M0 0 C0.68520218 -0.00540298 1.37040436 -0.01080597 2.07637024 -0.01637268 C4.33065622 -0.02883174 6.58365785 -0.0123896 8.83789062 0.00561523 C10.41060452 0.00546018 11.9833188 0.00397011 13.55603027 0.00120544 C16.84791002 -0.00017727 20.1393534 0.01235766 23.43115234 0.03515625 C27.64458966 0.06354087 31.85730221 0.06080204 36.07079315 0.04806614 C39.3170996 0.0411015 42.56323938 0.04890714 45.80952454 0.06132317 C47.36281189 0.06583006 48.91611719 0.06618113 50.46940613 0.06225777 C52.64273573 0.05933773 54.81507678 0.07588859 56.98828125 0.09765625 C58.84096619 0.10576073 58.84096619 0.10576073 60.7310791 0.11402893 C64.28555905 0.53633202 66.1502426 1.36840621 68.99414062 3.50170898 C72.79584672 8.80583604 72.44359294 14.29780548 72.36914062 20.56420898 C72.38074219 21.54454102 72.39234375 22.52487305 72.40429688 23.53491211 C72.36794382 32.45958678 72.36794382 32.45958678 68.99414062 36.50170898 C64.56170819 40.50170898 64.56170819 40.50170898 61.99414062 40.50170898 C61.99414062 42.81170898 61.99414062 45.12170898 61.99414062 47.50170898 C69.97493558 41.58690169 77.90210169 35.63332564 85.61914062 29.37670898 C90.52755646 25.41179469 95.50097421 21.56781177 100.61914062 17.87670898 C101.18713379 17.46275879 101.75512695 17.04880859 102.34033203 16.62231445 C108.84107995 11.99839223 114.10318996 10.57622712 121.99414062 11.50170898 C129.29041814 13.52845274 135.23102993 19.34719337 141.05175781 23.96557617 C144.68027614 26.83518871 148.34047891 29.66423372 151.99414062 32.50170898 C153.54626286 33.70999235 155.09834676 34.91832495 156.65039062 36.12670898 C160.25560285 38.93076293 163.87126827 41.72051405 167.49414062 44.50170898 C173.46403233 49.08465615 179.40368555 53.70581385 185.34179688 58.32983398 C189.7155814 61.73413327 194.0977277 65.12668492 198.49414062 68.50170898 C203.67729863 72.48069897 208.83853924 76.48708816 213.99414062 80.50170898 C221.30694632 86.19547432 228.64110733 91.85999546 235.99414062 97.50170898 C244.12788701 103.74243511 252.23495114 110.01583228 260.32299805 116.31567383 C264.86699883 119.85327869 269.42360552 123.37348243 273.99414062 126.87670898 C277.90159601 129.88282485 281.80564369 132.89259798 285.68164062 135.93920898 C286.46925781 136.55666992 287.256875 137.17413086 288.06835938 137.81030273 C291.07966631 140.45512201 291.94825228 142.15362913 292.47460938 146.14624023 C292.32994413 151.55325833 289.48648665 155.01775798 286.30664062 159.18920898 C285.77619141 159.92204102 285.24574219 160.65487305 284.69921875 161.40991211 C277.08144748 171.77568921 277.08144748 171.77568921 272.11914062 173.50170898 C264.19808689 173.50170898 258.42978826 168.03260398 252.55664062 163.31420898 C251.72970703 162.66000977 250.90277344 162.00581055 250.05078125 161.33178711 C248.02630618 159.72859009 246.00774375 158.11852417 243.99414062 156.50170898 C243.97996094 157.61030273 243.96578125 158.71889648 243.95117188 159.86108398 C243.90426217 161.32466682 243.85601482 162.78820721 243.80664062 164.25170898 C243.79793945 165.34612305 243.79793945 165.34612305 243.7890625 166.46264648 C243.63085131 170.33003109 243.33747123 172.14018868 240.63476562 174.98608398 C237.39763672 176.84408105 235.66903688 177.12722324 231.99414062 176.50170898 C229.14633444 174.26964467 228.14416396 172.951779 226.99414062 169.50170898 C227.02975988 167.57451055 227.11956205 165.64811177 227.24023438 163.72436523 C228.10423685 151.56443083 228.10423685 151.56443083 224.62255859 140.25170898 C221.04387913 136.55863327 216.68986895 134.17167777 212.18847656 131.76000977 C208.64127131 129.72593146 205.61637638 127.12473793 202.49414062 124.50170898 C197.41570475 120.37857603 192.24526918 116.40196694 186.99414062 112.50170898 C181.74247584 108.60105274 176.5815334 104.61433615 171.49414062 100.50170898 C165.72805943 95.84159725 159.85284908 91.35556055 153.90429688 86.93139648 C149.54805521 83.68540318 145.25291824 80.37433022 140.99414062 77.00170898 C139.28071506 75.65330572 137.56601732 74.30654384 135.85058594 72.96069336 C134.53015278 71.92296209 133.21203379 70.88228329 131.89550781 69.83959961 C129.7298612 68.13064085 127.55110785 66.43975817 125.36914062 64.75170898 C124.3559375 63.94443359 124.3559375 63.94443359 123.32226562 63.12084961 C122.68546875 62.63293945 122.04867187 62.1450293 121.39257812 61.64233398 C120.83231934 61.204375 120.27206055 60.76641602 119.69482422 60.31518555 C118.00079824 59.32080399 118.00079824 59.32080399 115.97387695 59.72631836 C112.62149873 61.03932283 110.04416257 63.46966547 107.30664062 65.75170898 C105.95641798 66.85491338 104.60480389 67.95641651 103.25195312 69.05639648 C102.55102539 69.62712891 101.85009766 70.19786133 101.12792969 70.78588867 C97.69445608 73.54681001 94.19042345 76.21258024 90.68164062 78.87670898 C84.67503961 83.446245 78.6968252 88.04962585 72.74414062 92.68920898 C67.67223392 96.64186147 62.59494052 100.58639651 57.49414062 104.50170898 C52.31098204 108.48069942 47.14979988 112.48716182 41.99414062 116.50170898 C36.7096141 120.61515083 31.42398151 124.72698046 26.11914062 128.81420898 C24.69848504 129.9090447 23.27990825 131.00759588 21.89669418 132.14936924 C19.99414062 133.50170898 19.99414062 133.50170898 17.0899086 134.87589169 C12.58901894 137.37071033 8.87361826 139.644114 7.29691219 144.76714063 C6.13799505 151.97375319 6.43050213 159.29046585 6.54003906 166.56445312 C6.53355819 169.03867441 6.52180109 171.51288665 6.50517273 173.98706055 C6.48126729 179.30463152 6.49389553 184.62017289 6.54018402 189.93745613 C6.60704102 197.62483055 6.6073514 205.31109196 6.59173265 212.99868887 C6.56818283 225.47256674 6.59800277 237.94571803 6.66162109 250.41943359 C6.72328331 262.53212828 6.7596638 274.64446661 6.76220703 286.75732422 C6.76237272 287.5046956 6.7625384 288.25206698 6.76270911 289.02208597 C6.76338493 292.77165219 6.76356544 296.52121823 6.76349974 300.2707845 C6.7635953 331.34813625 6.85129635 362.42466977 6.99414062 393.50170898 C8.29303223 393.47343018 8.29303223 393.47343018 9.61816406 393.44458008 C10.76833008 393.42991699 11.91849609 393.41525391 13.10351562 393.40014648 C14.23756836 393.38129395 15.37162109 393.36244141 16.54003906 393.34301758 C27.12965685 393.82953522 36.06130177 399.01731002 43.74414062 406.00170898 C45.99414063 408.50170898 45.99414063 408.50170898 48.05664062 411.57202148 C50.27164278 414.22383054 51.92077193 415.02581206 55.32226562 415.58764648 C56.9598295 415.72663955 58.60161744 415.82146324 60.24414062 415.87670898 C61.09806396 415.9136084 61.9519873 415.95050781 62.83178711 415.98852539 C68.01316925 416.01532308 71.15928803 415.58446064 75.05664062 411.87670898 C75.70375 411.13936523 76.35085937 410.40202148 77.01757812 409.64233398 C80.33282899 406.05190419 84.55695461 404.38693827 88.99414062 402.50170898 C89.94289062 402.08920898 90.89164063 401.67670898 91.86914062 401.25170898 C105.54252063 397.97009778 118.61201039 399.91689548 130.99414062 406.50170898 C142.2044237 413.70259182 149.21757155 423.93985799 152.59179688 436.77514648 C153.13524039 440.45789962 153.09976474 444.10221743 153.05664062 447.81420898 C153.05212891 448.55477539 153.04761719 449.2953418 153.04296875 450.05834961 C153.03126237 451.87283797 153.0133296 453.68728433 152.99414062 455.50170898 C153.71859375 455.51588867 154.44304687 455.53006836 155.18945312 455.54467773 C161.881659 455.87482656 165.43911851 456.47950512 169.99414062 461.50170898 C174.17876858 469.87096489 171.99414062 480.14459642 171.99414062 489.50170898 C190.47414062 489.50170898 208.95414062 489.50170898 227.99414062 489.50170898 C227.94773437 480.83663086 227.90132813 472.17155273 227.85351562 463.24389648 C227.8304806 457.05916425 227.8099753 450.87446422 227.79312515 444.68971634 C227.77095692 436.67675552 227.7428102 428.66396121 227.69238281 420.65112305 C227.65247725 414.30715668 227.62669891 407.96331592 227.61778665 401.61922753 C227.61257809 398.26092547 227.60036238 394.90298273 227.5712204 391.54479599 C227.54221643 387.7930743 227.53818356 384.04209884 227.54003906 380.2902832 C227.52565796 379.1804155 227.51127686 378.07054779 227.49645996 376.92704773 C227.52831432 370.98122246 227.74756175 367.05801816 231.99414062 362.50170898 C236.10897333 359.09463909 240.13142596 359.06216653 245.26928711 359.08178711 C246.08943298 359.07331757 246.90957886 359.06484802 247.75457764 359.05612183 C250.45828881 359.03277516 253.16143014 359.03172907 255.86523438 359.03295898 C257.74943773 359.02585621 259.63363893 359.01815704 261.51783752 359.0098877 C265.46450821 358.99644841 269.41097887 358.99487174 273.35766602 359.00073242 C278.40967346 359.00662931 283.46072016 358.97603494 288.51254177 358.93561554 C292.40311331 358.90973876 296.29345347 358.90686108 300.1840992 358.9105072 C302.04640175 358.90881607 303.908715 358.89917415 305.77093315 358.88136292 C308.37780555 358.85917198 310.98273262 358.86887446 313.58959961 358.88647461 C314.3549855 358.87321136 315.1203714 358.85994812 315.90895081 358.84628296 C319.77728992 358.90682179 322.3852451 359.41908939 325.39442444 361.79016113 C329.90952596 366.49948821 330.24670326 369.2463674 330.28466797 375.77709961 C330.29138519 376.50277634 330.29810242 377.22845306 330.30502319 377.97612 C330.32399058 380.37013632 330.32792633 382.76387225 330.33007812 385.15795898 C330.33650558 386.82417923 330.3432339 388.49039834 330.35025024 390.15661621 C330.36221886 393.64683653 330.36593136 397.13695788 330.36474609 400.62719727 C330.36454262 405.09975106 330.39187595 409.57167149 330.42629051 414.04407501 C330.4485221 417.48418089 330.45258484 420.92413323 330.45152664 424.36430359 C330.45388705 426.01334319 330.46273532 427.66238674 330.47819138 429.31135559 C330.49778213 431.61679598 330.49204249 433.92085588 330.47998047 436.22631836 C330.48283051 437.53773804 330.48568054 438.84915771 330.48861694 440.20031738 C329.91223912 444.0485278 329.08145553 445.21180666 325.99414062 447.50170898 C322.85583486 448.41704817 320.88331614 448.7734015 317.74414062 447.81420898 C315.56116052 446.1769739 314.98393201 445.0513507 313.99414062 442.50170898 C313.75363159 439.47711182 313.75363159 439.47711182 313.76708984 435.8972168 C313.76684877 435.23261822 313.7666077 434.56801964 313.76635933 433.88328171 C313.76784746 431.74032776 313.78305682 429.59772538 313.79882812 427.45483398 C313.80084229 426.1417627 313.80285645 424.82869141 313.80493164 423.47583008 C313.81540084 418.56775421 313.84332338 413.65972811 313.86914062 408.75170898 C313.91039062 397.77920898 313.95164062 386.80670898 313.99414062 375.50170898 C290.89414062 375.50170898 267.79414063 375.50170898 243.99414062 375.50170898 C243.99414062 413.12170898 243.99414062 450.74170898 243.99414062 489.50170898 C267.09414063 489.50170898 290.19414062 489.50170898 313.99414062 489.50170898 C313.99414062 483.89170898 313.99414062 478.28170898 313.99414062 472.50170898 C316.99414063 468.50170898 316.99414063 468.50170898 320.36914062 467.56420898 C324.36931995 467.49524038 325.90133196 468.04565504 328.99414062 470.50170898 C331.83041361 476.17425495 329.99414062 483.15960979 329.99414062 489.50170898 C349.46414063 489.50170898 368.93414062 489.50170898 388.99414062 489.50170898 C389.11197332 469.31686485 389.18406551 449.13354378 389.17292309 428.94839573 C389.16921124 419.57558758 389.18595255 410.20365728 389.2512207 400.83105469 C389.30807177 392.65964747 389.32616293 384.48921949 389.29814702 376.31764644 C389.28465993 371.99230583 389.29028454 367.66893279 389.34236717 363.34384346 C389.39083997 359.26758432 389.38725222 355.19459702 389.34472656 351.1183033 C389.33816459 349.62720354 389.35019001 348.13588062 389.38277626 346.64512253 C389.58002633 338.0380834 389.58002633 338.0380834 385.57120705 330.64629936 C382.80902608 328.36351232 380.02694974 326.40378932 376.99414062 324.50170898 C375.88738602 323.65878405 374.78955927 322.80372428 373.70898438 321.92749023 C372.79246094 321.23010742 371.8759375 320.53272461 370.93164062 319.81420898 C369.83620368 318.97747301 368.74117643 318.1402005 367.64648438 317.30249023 C367.06624512 316.85856934 366.48600586 316.41464844 365.88818359 315.95727539 C362.24330786 313.15619919 358.62029777 310.32694583 354.99414062 307.50170898 C349.83868502 303.48690263 344.67729717 299.48069785 339.49414062 295.50170898 C333.52424892 290.91876181 327.5845957 286.29760412 321.64648438 281.67358398 C316.2583999 277.47981265 310.85181542 273.31136742 305.43554688 269.15405273 C300.30035034 265.20402057 295.19355558 261.2172159 290.08398438 257.23413086 C289.35179687 256.6637207 288.61960937 256.09331055 287.86523438 255.50561523 C287.21482178 254.99844971 286.56440918 254.49128418 285.89428711 253.96875 C283.94129053 252.46090515 281.97138373 250.9775709 279.99414062 249.50170898 C277.33448695 250.76496285 274.98420424 252.13316958 272.63085938 253.90014648 C271.99921875 254.37323242 271.36757813 254.84631836 270.71679688 255.33374023 C270.04519531 255.84291992 269.37359375 256.35209961 268.68164062 256.87670898 C267.97523438 257.4090918 267.26882813 257.94147461 266.54101562 258.48999023 C261.16349557 262.56386906 255.89055881 266.75724179 250.64355469 270.99707031 C245.48637157 275.14861623 240.21036301 279.12388137 234.89990234 283.07641602 C229.42606165 287.15754366 224.04987794 291.35046006 218.69335938 295.58374023 C208.33269511 303.77095731 197.87476339 311.83577636 187.40039062 319.87670898 C183.25172695 323.06798874 179.12381581 326.28592198 174.99414062 329.50170898 C168.8235714 334.30674458 162.6385147 339.09128957 156.43164062 343.84936523 C153.73207978 345.92526248 151.04919673 348.02179127 148.36914062 350.12280273 C147.56283203 350.75379883 146.75652344 351.38479492 145.92578125 352.03491211 C144.33929358 353.27734221 142.7545718 354.52203151 141.171875 355.76928711 C130.74322803 363.92963421 130.74322803 363.92963421 125.99414062 363.93920898 C125.03507812 363.96821289 125.03507812 363.96821289 124.05664062 363.99780273 C117.88045782 362.51224361 114.2728654 356.21140787 110.74414062 351.37670898 C110.20273438 350.64838867 109.66132813 349.92006836 109.10351562 349.16967773 C103.39183467 341.44462924 103.39183467 341.44462924 103.55664062 335.69702148 C105.38266959 326.53426902 117.92118941 320.14323977 124.95263672 315.01000977 C127.97437485 312.77749384 130.92512191 310.46025653 133.86914062 308.12670898 C135.01094447 307.22420929 136.1528746 306.32186936 137.29492188 305.41967773 C137.8848291 304.95352051 138.47473633 304.48736328 139.08251953 304.00708008 C148.86037851 296.30717223 158.71584314 288.70525049 168.58789062 281.12670898 C172.73655451 277.93542907 176.8644431 274.71746762 180.99414062 271.50170898 C189.41209276 264.94747439 197.85980816 258.43352968 206.33007812 251.94702148 C206.89106201 251.51679688 207.4520459 251.08657227 208.0300293 250.64331055 C209.56301031 249.46768519 211.09689706 248.29324114 212.63085938 247.11889648 C213.13665527 246.70712158 213.64245117 246.29534668 214.16357422 245.87109375 C215.99414062 244.50170898 215.99414062 244.50170898 218.57861328 243.02099609 C223.1302044 240.12235974 225.61605087 238.14555887 226.85620117 232.75366211 C227.25019446 228.27127609 227.1323841 223.80618136 226.99414062 219.31420898 C226.96567878 216.99408582 226.95127751 214.67445526 226.94482422 212.35417175 C226.93625006 210.91820895 226.91264506 209.48223039 226.87158203 208.04682922 C226.7960279 204.06119531 227.13787964 201.05419427 228.99414062 197.50170898 C231.65387633 195.33451693 233.08251659 195.50636035 236.55664062 195.68920898 C240.98674621 196.73632485 240.98674621 196.73632485 242.99414062 199.50170898 C243.3347168 202.04541016 243.3347168 202.04541016 243.28710938 205.04467773 C243.27744141 206.11782227 243.26777344 207.1909668 243.2578125 208.29663086 C243.23267578 209.41618164 243.20753906 210.53573242 243.18164062 211.68920898 C243.16810547 212.82036133 243.15457031 213.95151367 243.140625 215.11694336 C243.10524021 217.91234216 243.05587011 220.70678791 242.99414062 223.50170898 C243.79335938 222.88424805 244.59257812 222.26678711 245.41601562 221.63061523 C247.71884825 219.85259944 250.02719811 218.0819943 252.33789062 216.31420898 C254.64825919 214.5448761 256.93890421 212.75500411 259.21289062 210.93920898 C266.20340413 205.46210562 272.2725267 201.07092294 281.43164062 201.43920898 C290.06284111 202.87276477 296.67056321 208.8880711 303.11499023 214.40795898 C307.24046183 217.93016235 311.51288494 221.20810655 315.86914062 224.43920898 C321.6231052 228.71143366 327.30207251 233.06023052 332.92431641 237.50415039 C337.19548602 240.87918575 341.49894807 244.20946207 345.8190918 247.52172852 C350.56064709 251.16054693 355.27863111 254.82922292 359.99414062 258.50170898 C365.14968414 262.51640345 370.3109832 266.52271944 375.49414062 270.50170898 C381.46403233 275.08465615 387.40368555 279.70581385 393.34179688 284.32983398 C397.7155814 287.73413327 402.0977277 291.12668492 406.49414062 294.50170898 C411.6772995 298.48069964 416.83845345 302.48719733 421.99414062 306.50170898 C434.86633578 316.69689458 434.86633578 316.69689458 448.11914062 326.37670898 C453.64138789 330.45837001 453.64138789 330.45837001 454.31542969 334.36279297 C454.74198975 341.47291724 452.08000089 345.3422795 447.80664062 350.81420898 C447.22849609 351.59860352 446.65035156 352.38299805 446.0546875 353.19116211 C438.72725171 362.93623772 438.72725171 362.93623772 432.36914062 364.25170898 C426.08970969 363.9106912 421.70996107 359.24360999 416.99414062 355.50170898 C413.03414063 352.53170898 409.07414062 349.56170898 404.99414062 346.50170898 C404.99414062 393.69170898 404.99414062 440.88170898 404.99414062 489.50170898 C413.24414062 489.50170898 421.49414062 489.50170898 429.99414062 489.50170898 C433.99414062 492.50170898 433.99414062 492.50170898 434.93164062 495.37670898 C435.0066769 499.12852249 434.33120155 500.60052991 431.99414062 503.50170898 C428.32175448 506.04811625 424.43269056 505.78150391 420.1344862 505.75618458 C419.33336724 505.75939106 418.53224829 505.76259753 417.706853 505.76590118 C415.00560263 505.77424384 412.30457152 505.76826202 409.60331726 505.7624054 C407.65382182 505.76542414 405.70432757 505.76931222 403.75483543 505.77399796 C398.38442244 505.78432255 393.01407588 505.78208482 387.64365733 505.77781737 C381.85689288 505.77535819 376.07014476 505.78435426 370.28338623 505.79185486 C358.94100191 505.80462676 347.59864124 505.80639242 336.25625094 505.8040546 C327.03920197 505.80227393 317.82216019 505.80401566 308.60511208 505.80827904 C307.29492923 505.80887423 305.98474638 505.80946942 304.63486103 505.81008264 C301.97348628 505.81129435 299.31211153 505.81250849 296.65073679 505.81372502 C278.77171574 505.82167118 260.89269723 505.82542842 243.01367474 505.82140827 C241.96449627 505.82117371 241.96449627 505.82117371 240.89412228 505.82093441 C237.34889351 505.8201286 233.80366475 505.81928283 230.25843599 505.8184211 C229.55432327 505.81825002 228.85021054 505.81807893 228.12476107 505.81790266 C226.70087295 505.817556 225.27698482 505.81720747 223.85309669 505.81685707 C201.69867958 505.81150017 179.54430227 505.81942831 157.38989258 505.83789062 C132.50747871 505.85860195 107.62508951 505.86933492 82.74266654 505.86531514 C69.56498394 505.86340027 56.38733759 505.86591836 43.20966148 505.88002968 C31.99051713 505.89192176 20.77143136 505.89337287 9.55228623 505.88123951 C3.82592466 505.87533534 -1.90032965 505.87429376 -7.62668419 505.88624191 C-12.8667407 505.89704848 -18.10659974 505.89405985 -23.34664681 505.87998023 C-25.2443511 505.87731882 -27.14207061 505.8797448 -29.03976003 505.88771609 C-31.61630677 505.89778939 -34.19216271 505.8894283 -36.76868153 505.87643909 C-37.50800443 505.88374844 -38.24732734 505.89105779 -39.00905398 505.89858863 C-44.12955721 505.84496491 -47.5364388 504.82501452 -52.00585938 502.50170898 C-58.14840621 496.19751618 -57.18861363 489.46023522 -57.19335938 481.12670898 C-57.20560547 480.00264648 -57.21785156 478.87858398 -57.23046875 477.72045898 C-57.2417841 471.33860033 -56.89836064 466.28671151 -54.00585938 460.50170898 C-53.71351752 458.29611994 -53.44658751 456.08713028 -53.19335938 453.87670898 C-52.38302944 448.01232124 -51.26082459 443.44443394 -48.00585938 438.50170898 C-47.42835937 437.61483398 -46.85085937 436.72795898 -46.25585938 435.81420898 C-43.24420952 432.71890219 -39.85354146 430.45886329 -36.00585938 428.50170898 C-35.34585938 428.50170898 -34.68585937 428.50170898 -34.00585938 428.50170898 C-33.87050781 427.89584961 -33.73515625 427.28999023 -33.59570312 426.66577148 C-30.71232083 415.44302604 -24.12168185 407.47547423 -15.00585938 400.50170898 C-13.71856037 400.00109845 -13.71856037 400.00109845 -12.40525532 399.49037457 C-9.88533784 397.80273904 -9.88533784 397.80273904 -9.54740465 395.64702284 C-9.37096375 393.08314965 -9.36429815 390.56147009 -9.40458679 387.99165344 C-9.39817861 386.51160435 -9.39817861 386.51160435 -9.39164096 385.00165528 C-9.38337464 381.68001043 -9.41095703 378.35961534 -9.43823242 375.03808594 C-9.4396421 372.66328969 -9.43885249 370.28849126 -9.4360199 367.91369629 C-9.43473076 362.12466922 -9.45645389 356.33605463 -9.4882082 350.54712192 C-9.52391889 343.81215987 -9.53143118 337.0772569 -9.53714905 330.34221341 C-9.5480962 318.33108236 -9.58138165 306.32012095 -9.62866211 294.30908203 C-9.67454692 282.64047088 -9.70994406 270.97190579 -9.73120117 259.30322266 C-9.73251479 258.58414489 -9.73382841 257.86506713 -9.73518183 257.12419913 C-9.74170695 253.51685015 -9.74802551 249.90950085 -9.75424135 246.30215132 C-9.80608742 216.36855167 -9.89453528 186.43515015 -10.00585938 156.50170898 C-10.93527344 157.23776367 -11.8646875 157.97381836 -12.82226562 158.73217773 C-14.07089688 159.71793926 -15.31959858 160.70361156 -16.56835938 161.68920898 C-17.48198242 162.41333984 -17.48198242 162.41333984 -18.4140625 163.15209961 C-31.5420905 173.50170898 -31.5420905 173.50170898 -38.00585938 173.50170898 C-43.62242887 170.6667633 -47.0798046 166.29445887 -51.00585938 161.50170898 C-51.6890625 160.67799805 -52.37226562 159.85428711 -53.07617188 159.00561523 C-56.71254174 154.2871677 -58.78621265 150.72798773 -58.74023438 144.70483398 C-56.63137824 138.37826559 -50.7504048 134.53962536 -45.56835938 130.81420898 C-44.12856867 129.75696025 -42.68978398 128.69834028 -41.25195312 127.63842773 C-40.53507324 127.11168457 -39.81819336 126.58494141 -39.07958984 126.04223633 C-35.51157563 123.39163947 -31.98932573 120.67482689 -28.57383728 117.82969666 C-25.33241784 115.16624962 -22.12180513 112.9569575 -18.4296875 110.95776367 C-12.15075223 107.29994862 -6.28081178 103.56580139 -4.01507568 96.34344482 C-2.68090095 87.99711617 -2.95453682 79.60307313 -3.30633545 71.19024658 C-3.43149648 67.72458778 -3.45212356 64.2583273 -3.48242188 60.79077148 C-3.55652928 54.02371468 -3.74376873 47.26403245 -4.00585938 40.50170898 C-4.94816406 40.22069336 -5.89046875 39.93967773 -6.86132812 39.65014648 C-10.62993696 38.273785 -11.85888349 36.84144925 -14.00585938 33.50170898 C-15.38403548 29.10040028 -15.22798734 24.69772317 -15.25585938 20.12670898 C-15.27648438 19.28881836 -15.29710937 18.45092773 -15.31835938 17.58764648 C-15.35051433 12.47500863 -14.96437376 8.86230193 -12.00585938 4.50170898 C-8.054919 0.6239352 -5.48191141 0.00073751 0 0 Z M0.99414062 15.50170898 C0.99414062 18.80170898 0.99414062 22.10170898 0.99414062 25.50170898 C19.14414063 25.50170898 37.29414063 25.50170898 55.99414062 25.50170898 C55.99414062 22.20170898 55.99414062 18.90170898 55.99414062 15.50170898 C37.84414062 15.50170898 19.69414062 15.50170898 0.99414062 15.50170898 Z M109.36914062 31.62670898 C108.21042472 32.54615409 107.05156213 33.46541435 105.89257812 34.38452148 C105.26834961 34.885 104.64412109 35.38547852 104.00097656 35.90112305 C100.36062613 38.80454609 96.67320249 41.64762538 92.99414062 44.50170898 C91.44194896 45.70990316 89.88986412 46.91823458 88.33789062 48.12670898 C83.70644625 51.7289435 79.05452425 55.30383873 74.40039062 58.87670898 C70.25172695 62.06798874 66.12381581 65.28592198 61.99414062 68.50170898 C55.81267939 73.31522622 49.6149218 78.10595778 43.40039062 82.87670898 C39.25172674 86.0679889 35.12383815 89.28595034 30.99414062 92.50170898 C22.66861903 98.98397697 14.31077485 105.42244999 5.93945312 111.84545898 C-1.16977125 117.30591062 -8.25455624 122.79685359 -15.32373047 128.30908203 C-18.82586162 131.03790375 -22.33275356 133.75878075 -25.86914062 136.44311523 C-26.45630859 136.88977539 -27.04347656 137.33643555 -27.6484375 137.79663086 C-29.19886463 138.97350478 -30.75261653 140.1459951 -32.30664062 141.31811523 C-35.06969634 143.55335133 -37.53968956 145.94569692 -40.00585938 148.50170898 C-38.35585938 150.48170898 -36.70585938 152.46170898 -35.00585938 154.50170898 C-27.61762649 149.86940424 -20.84522339 144.52072685 -14.03027344 139.10375977 C-10.35220404 136.19306374 -6.6471186 133.31709577 -2.94335938 130.43920898 C-1.78815796 129.54105469 -1.78815796 129.54105469 -0.60961914 128.62475586 C4.77578212 124.44062962 10.17830693 120.27952071 15.58789062 116.12670898 C19.7365543 112.93542923 23.86446544 109.71749599 27.99414062 106.50170898 C34.17560186 101.68819175 40.37335945 96.89746019 46.58789062 92.12670898 C50.7365543 88.93542923 54.86446544 85.71749599 58.99414062 82.50170898 C65.17786274 77.6864312 71.37686709 72.89266563 77.59570312 68.12280273 C80.92804642 65.56000058 84.23738128 62.9681542 87.54785156 60.37719727 C90.6085496 57.98671098 93.67903666 55.60908307 96.75292969 53.2355957 C98.22674218 52.09539784 99.69754362 50.95129535 101.16503906 49.80297852 C103.18069513 48.22968078 105.20999394 46.67598674 107.24414062 45.12670898 C107.83952637 44.65628174 108.43491211 44.18585449 109.04833984 43.70117188 C111.64184415 41.75326886 113.76106588 40.55072867 116.94726562 39.88061523 C121.33559676 40.77515966 124.04944121 43.04344501 127.49414062 45.81420898 C128.19192627 46.35674316 128.88971191 46.89927734 129.60864258 47.45825195 C131.74793957 49.12616199 133.87150571 50.81267172 135.99414062 52.50170898 C137.22618646 53.46786391 138.4592062 54.43277866 139.69335938 55.39624023 C142.0164665 57.21241727 144.33368042 59.035713 146.64648438 60.86499023 C150.34426657 63.78507695 154.07991697 66.65489257 157.8190918 69.52172852 C162.56064709 73.16054693 167.27863111 76.82922292 171.99414062 80.50170898 C177.14968414 84.51640345 182.3109832 88.52271944 187.49414062 92.50170898 C193.46403233 97.08465615 199.40368555 101.70581385 205.34179688 106.32983398 C209.7155814 109.73413327 214.0977277 113.12668492 218.49414062 116.50170898 C223.67729921 120.48069942 228.83848137 124.48716182 233.99414062 128.50170898 C245.25466973 137.26683324 256.55580613 145.96932974 267.99414062 154.50170898 C270.55664038 152.18938476 270.55664038 152.18938476 272.99414062 149.50170898 C273.34513666 146.51448198 273.34513666 146.51448198 271.5480957 145.03466797 C270.87673584 144.52750244 270.20537598 144.02033691 269.51367188 143.49780273 C268.76859375 142.92739258 268.02351563 142.35698242 267.25585938 141.76928711 C266.44761719 141.16536133 265.639375 140.56143555 264.80664062 139.93920898 C263.56914063 138.99658203 263.56914063 138.99658203 262.30664062 138.03491211 C260.63977356 136.76596743 258.97003214 135.50078911 257.29736328 134.23950195 C254.34718956 132.01358118 251.42023059 129.75919303 248.49414062 127.50170898 C247.47320312 126.71795898 246.45226562 125.93420898 245.40039062 125.12670898 C240.46559527 121.33071255 235.55868931 117.49872859 230.64648438 113.67358398 C226.27269985 110.26928469 221.89055355 106.87673305 217.49414062 103.50170898 C212.31098262 99.522719 207.14974201 95.51632981 201.99414062 91.50170898 C194.68133493 85.80794365 187.34717392 80.14342251 179.99414062 74.50170898 C172.64110634 68.8599947 165.30702886 63.19536941 157.99414062 57.50170898 C151.80124107 52.68063794 145.60552716 47.86415546 139.36914062 43.09936523 C136.74492607 41.09040098 134.14917187 39.04746764 131.55664062 36.99780273 C130.01501057 35.79072472 128.47334421 34.58369308 126.93164062 33.37670898 C126.20452881 32.79526123 125.47741699 32.21381348 124.72827148 31.61474609 C124.04128174 31.07986572 123.35429199 30.54498535 122.64648438 29.99389648 C121.73370728 29.27242432 121.73370728 29.27242432 120.80249023 28.53637695 C115.9588114 25.76501056 113.11043351 28.62014028 109.36914062 31.62670898 Z M11.99414062 40.50170898 C11.99414062 55.68170898 11.99414062 70.86170898 11.99414062 86.50170898 C15.27958379 84.53044308 18.07969493 82.76143444 21.03320312 80.42749023 C21.77393066 79.84733154 22.5146582 79.26717285 23.27783203 78.66943359 C24.86530506 77.41153917 26.44818453 76.14782985 28.02685547 74.87890625 C34.85511372 69.4377896 34.85511372 69.4377896 38.61914062 67.54077148 C41.97525024 65.74909838 43.85032193 64.66902822 45.99414062 61.50170898 C47.29819039 54.48289526 46.48241339 47.60385837 45.99414062 40.50170898 C34.77414063 40.50170898 23.55414063 40.50170898 11.99414062 40.50170898 Z M270.74414062 222.81420898 C269.66495361 223.63236084 269.66495361 223.63236084 268.56396484 224.46704102 C262.89334144 228.77961065 257.28196376 233.16568472 251.69335938 237.58374023 C239.20101957 247.45545263 226.57133916 257.15347482 213.93945312 266.84545898 C206.82104608 272.31296365 199.72965249 277.81420812 192.64770508 283.32885742 C187.24752428 287.53210564 181.82854363 291.70964203 176.40039062 295.87670898 C172.25172695 299.06798874 168.12381581 302.28592198 163.99414062 305.50170898 C157.82727017 310.30386435 151.64535935 315.08483317 145.44335938 319.84155273 C142.70686213 321.94610639 139.98411449 324.06785383 137.26367188 326.19311523 C136.44382813 326.83313477 135.62398437 327.4731543 134.77929688 328.13256836 C133.1544342 329.40191211 131.53070056 330.6727027 129.90820312 331.94506836 C128.80025391 332.81035156 128.80025391 332.81035156 127.66992188 333.69311523 C127.00903564 334.21075439 126.34814941 334.72839355 125.66723633 335.26171875 C123.99414062 336.50170898 123.99414062 336.50170898 121.99414062 337.50170898 C123.44273488 340.88176225 125.36744234 342.96043178 127.99414062 345.50170898 C129.0846875 344.57551758 129.0846875 344.57551758 130.19726562 343.63061523 C136.2022779 338.5725472 142.28752799 333.71876159 148.59960938 329.04467773 C152.75989884 325.94867762 156.84289367 322.75372141 160.93164062 319.56420898 C166.10740597 315.52777654 171.28698667 311.49759072 176.49414062 307.50170898 C181.67729863 303.522719 186.83853924 299.51632981 191.99414062 295.50170898 C200.31966222 289.01944099 208.6775064 282.58096798 217.04882812 276.15795898 C223.38104459 271.29431142 229.69400675 266.40686024 235.99414062 261.50170898 C248.68441636 251.62253682 248.68441636 251.62253682 254.63476562 247.09936523 C257.22936538 245.11549191 259.76263834 243.06531265 262.29101562 240.99780273 C263.03923584 240.39782471 263.78745605 239.79784668 264.55834961 239.1796875 C266.02090267 238.0068181 267.47174681 236.81914465 268.90844727 235.61474609 C272.2243053 232.98369775 274.8295092 231.12280098 279.13867188 230.87670898 C283.58988637 231.59828378 285.44173902 232.73803175 288.86914062 235.62670898 C289.99092122 236.54673048 291.11335561 237.46595521 292.23632812 238.38452148 C292.83541992 238.885 293.43451172 239.38547852 294.05175781 239.90112305 C297.63288841 242.85208989 301.32283057 245.66440218 304.99414062 248.50170898 C306.54657615 249.7095898 308.09866466 250.91791675 309.65039062 252.12670898 C313.25560285 254.93076293 316.87126827 257.72051405 320.49414062 260.50170898 C325.67729863 264.48069897 330.83853924 268.48708816 335.99414062 272.50170898 C343.30694632 278.19547432 350.64110733 283.85999546 357.99414062 289.50170898 C366.1337009 295.7468959 374.24590181 302.02560667 382.34057617 308.32885742 C386.71474774 311.73350803 391.09731433 315.12636759 395.49414062 318.50170898 C402.2307821 323.67387662 408.93329379 328.88956015 415.63476562 334.10717773 C416.34439453 334.65680176 417.05402344 335.20642578 417.78515625 335.77270508 C419.34740451 336.99549931 420.89705475 338.23446963 422.4375 339.48461914 C423.23478516 340.1257666 424.03207031 340.76691406 424.85351562 341.42749023 C425.57506836 342.01570557 426.29662109 342.6039209 427.04003906 343.20996094 C429.02083468 344.77743348 429.02083468 344.77743348 431.99414062 344.50170898 C433.31414062 342.19170898 434.63414062 339.88170898 435.99414062 337.50170898 C435.0015625 336.76307617 434.00898438 336.02444336 432.98632812 335.26342773 C425.14269304 329.41232114 417.37058654 323.48718114 409.69335938 317.41967773 C405.45617287 314.07136292 401.19496832 310.75414014 396.93164062 307.43920898 C396.16094238 306.83995605 395.39024414 306.24070312 394.59619141 305.62329102 C389.21122643 301.43982557 383.80937989 297.27906438 378.40039062 293.12670898 C373.46559527 289.33071255 368.55868931 285.49872859 363.64648438 281.67358398 C359.27269985 278.26928469 354.89055355 274.87673305 350.49414062 271.50170898 C344.52424892 266.91876181 338.5845957 262.29760412 332.64648438 257.67358398 C327.24442253 253.46893348 321.82436585 249.2889976 316.39257812 245.12280273 C313.82533489 243.14841537 311.27122477 241.15780325 308.72070312 239.16186523 C301.36721046 233.40907934 293.99676215 227.68437639 286.49414062 222.12670898 C285.55078857 221.42106812 285.55078857 221.42106812 284.58837891 220.70117188 C278.22970967 216.03193986 276.53357951 218.3828698 270.74414062 222.81420898 Z M-13.00585938 420.50170898 C-16.24388574 425.03831884 -18.01660979 429.32737699 -19.19335938 434.75170898 C-20.04817799 437.96224868 -20.52652035 439.16286588 -23.27148438 441.10327148 C-25.03623678 441.94436693 -26.82215952 442.74255592 -28.62695312 443.49389648 C-32.56538546 445.16239491 -34.41266018 447.28565063 -36.25585938 451.06420898 C-37.1529023 453.55455254 -37.1529023 453.55455254 -37.00585938 456.50170898 C-36.14808395 456.50535461 -35.29030853 456.50900024 -34.40653992 456.51275635 C-26.32807876 456.55060193 -18.25002272 456.60741508 -10.17184734 456.68561172 C-6.0186014 456.72514396 -1.86556929 456.75730394 2.2878418 456.77270508 C6.29516097 456.78783427 10.30189249 456.82221194 14.30895042 456.87001801 C15.83872562 456.88487067 17.36858471 456.89275222 18.89843178 456.89359283 C21.03945401 456.89595279 23.17883925 456.92294872 25.31958008 456.95581055 C27.14825371 456.96913422 27.14825371 456.96913422 29.01387024 456.98272705 C31.99414062 457.50170898 31.99414062 457.50170898 33.90666199 459.3883667 C35.2484016 461.99582487 35.14592505 463.3815871 34.68164062 466.25170898 C34.56175781 467.05092773 34.441875 467.85014648 34.31835938 468.67358398 C34.21136719 469.27686523 34.104375 469.88014648 33.99414062 470.50170898 C29.95435263 471.45572586 26.14676958 471.65473889 22.00073242 471.70703125 C21.31725235 471.71693085 20.63377228 471.72683044 19.92958069 471.73703003 C17.68420808 471.76846304 15.43881436 471.79332993 13.19335938 471.81811523 C11.63108286 471.83870051 10.06881171 471.85969739 8.50654602 471.88108826 C4.40490077 471.93614649 0.30320661 471.98562706 -3.79852295 472.03393555 C-7.98812181 472.08426959 -12.17765009 472.13989338 -16.3671875 472.19506836 C-24.58001994 472.30245106 -32.7929127 472.40345061 -41.00585938 472.50170898 C-41.00585938 478.11170898 -41.00585938 483.72170898 -41.00585938 489.50170898 C24.00414063 489.50170898 89.01414063 489.50170898 155.99414062 489.50170898 C155.99414062 483.89170898 155.99414062 478.28170898 155.99414062 472.50170898 C153.20307861 472.47665283 150.4120166 472.45159668 147.53637695 472.42578125 C138.31624766 472.34231676 129.09617393 472.25362958 119.87611866 472.16236973 C114.2858405 472.10719789 108.69555706 472.05378703 103.10522461 472.00439453 C97.71058827 471.95666639 92.31601472 471.90432049 86.92145348 471.84876823 C84.86298879 471.82838298 82.80450692 471.80966363 80.74601173 471.79263496 C77.86357028 471.76850618 74.98124674 471.73846319 72.09887695 471.70703125 C71.24723465 471.70127579 70.39559235 471.69552032 69.5181427 471.68959045 C65.55068125 471.64039199 61.86707998 471.47882685 57.99414062 470.50170898 C57.74353873 469.08867661 57.51952141 467.67091425 57.30664062 466.25170898 C57.17902344 465.46280273 57.05140625 464.67389648 56.91992188 463.86108398 C56.99414062 461.50170898 56.99414062 461.50170898 57.90039062 459.25170898 C61.26785938 456.43710823 64.92268785 456.82417376 69.18164062 456.75170898 C70.02662109 456.72206055 70.87160156 456.69241211 71.7421875 456.66186523 C73.82565884 456.59123909 75.90990568 456.54420103 77.99414062 456.50170898 C79.33704638 448.99239924 78.19591797 444.17133789 74.30664062 437.68920898 C69.6281041 433.26356633 65.15668912 431.26482999 58.68164062 431.18920898 C55.7630327 431.27626322 53.7958568 431.56780359 50.99414062 432.50170898 C44.79279834 433.06546737 44.79279834 433.06546737 41.86914062 431.00170898 C39.80836546 428.25400877 38.0594366 425.39044994 36.27539062 422.45874023 C31.90346471 415.78088998 25.56836572 411.65652516 17.99414062 409.50170898 C5.58855673 408.14780008 -4.6198885 411.03005438 -13.00585938 420.50170898 Z M84.99414062 423.50170898 C84.66414062 424.16170898 84.33414063 424.82170898 83.99414062 425.50170898 C84.47625 426.15397461 84.95835937 426.80624023 85.45507812 427.47827148 C92.31913508 436.97588499 93.99414062 444.82946988 93.99414062 456.50170898 C107.85414063 456.50170898 121.71414062 456.50170898 135.99414062 456.50170898 C138.18479855 449.92973522 138.03864741 442.01607968 135.30664062 435.62670898 C134.57226144 434.23189852 133.80241587 432.85503827 132.99414062 431.50170898 C132.46820313 430.56391602 132.46820313 430.56391602 131.93164062 429.60717773 C127.38281437 422.35748588 120.6959604 418.7152155 112.55664062 416.62670898 C102.16474145 414.31739806 93.48914896 417.18622804 84.99414062 423.50170898 Z " fill="#000000" transform="translate(58.005859375,3.498291015625)"/>
<path d="M0 0 C0.75011856 -0.0049649 1.50023712 -0.00992981 2.27308655 -0.01504517 C4.75001958 -0.02962727 7.22688855 -0.03646229 9.70385742 -0.04199219 C11.43015036 -0.04774703 13.15644329 -0.05350472 14.88273621 -0.05926514 C18.50157976 -0.06976398 22.12040118 -0.0756139 25.73925781 -0.07910156 C30.36608217 -0.08458298 34.99261176 -0.10860813 39.61934376 -0.13707352 C43.18565209 -0.15573909 46.75188998 -0.16090759 50.31824303 -0.16243744 C52.02341002 -0.16545581 53.72857601 -0.1734567 55.43369484 -0.18662262 C57.82451136 -0.20376498 60.21461494 -0.20178318 62.60546875 -0.1953125 C63.30337524 -0.20452728 64.00128174 -0.21374207 64.72033691 -0.22323608 C69.75371303 -0.1807733 73.10142694 0.87948143 77.49682617 3.16113281 C81.33308499 7.30025416 82.61913694 9.77082344 82.64399719 15.33453369 C82.6511525 16.43086624 82.6583078 17.52719879 82.66567993 18.65675354 C82.66836884 19.86508347 82.67105774 21.07341339 82.67382812 22.31835938 C82.68039932 23.58673141 82.68697052 24.85510345 82.69374084 26.16191101 C82.71479052 30.37518039 82.72514502 34.58845016 82.73510742 38.80175781 C82.73915484 40.25220509 82.74327175 41.70265218 82.7474575 43.15309906 C82.76651229 49.96825983 82.78074191 56.78340975 82.78906947 63.59859204 C82.79883918 71.46414951 82.82515022 79.32942535 82.86557037 87.19488358 C82.89574166 93.27479994 82.91053935 99.35463563 82.91385049 105.43462539 C82.91620015 109.06561633 82.9251488 112.69630651 82.95031166 116.3272171 C82.97794669 120.380434 82.97375821 124.43302298 82.96679688 128.48632812 C82.97960693 129.68656113 82.99241699 130.88679413 83.00561523 132.12339783 C82.96726642 138.24043666 82.93197212 142.50803403 78.49682617 147.16113281 C74.38199347 150.5682027 70.35954083 150.60067527 65.22167969 150.58105469 C64.40153381 150.58952423 63.58138794 150.59799377 62.73638916 150.60671997 C60.03267799 150.63006664 57.32953665 150.63111273 54.62573242 150.62988281 C52.74152907 150.63698558 50.85732787 150.64468475 48.97312927 150.6529541 C45.02645859 150.66639338 41.07998793 150.66797006 37.13330078 150.66210938 C32.08129334 150.65621249 27.03024664 150.68680686 21.97842503 150.72722626 C18.08785349 150.75310304 14.19751333 150.75598072 10.3068676 150.75233459 C8.44456504 150.75402573 6.58225179 150.76366765 4.72003365 150.78147888 C2.11316125 150.80366982 -0.49176583 150.79396734 -3.09863281 150.77636719 C-3.86401871 150.78963043 -4.6294046 150.80289368 -5.41798401 150.81655884 C-9.28632312 150.75602 -11.8942783 150.24375241 -14.90345764 147.87268066 C-18.74808503 143.86266942 -19.75197027 141.28056033 -19.76387024 135.7472229 C-19.77095505 134.64814102 -19.77803986 133.54905914 -19.78533936 132.41667175 C-19.78162323 130.61496269 -19.78162323 130.61496269 -19.77783203 128.77685547 C-19.78294296 127.50819138 -19.78805389 126.23952728 -19.7933197 124.93241882 C-19.80670602 121.45506168 -19.8072887 117.97781324 -19.8047564 114.50043535 C-19.80368625 111.59544259 -19.80857129 108.69047178 -19.81336182 105.78548372 C-19.82445615 98.93021461 -19.82489512 92.0750003 -19.81884766 85.21972656 C-19.81280963 78.15330159 -19.82511458 71.08707582 -19.84641773 64.02068484 C-19.86404685 57.94921019 -19.87003295 51.87779886 -19.86677998 45.80629957 C-19.86496876 42.18211729 -19.86758692 38.55807705 -19.88149452 34.933918 C-19.89643015 30.89054739 -19.88709133 26.84758075 -19.87548828 22.80419922 C-19.88313202 21.60710831 -19.89077576 20.4100174 -19.89865112 19.176651 C-19.83346531 8.91018967 -19.83346531 8.91018967 -16.50317383 4.16113281 C-11.23430205 0.2432538 -6.38912797 0.01014539 0 0 Z M-3.50317383 16.16113281 C-3.50317383 26.06113281 -3.50317383 35.96113281 -3.50317383 46.16113281 C5.40682617 46.16113281 14.31682617 46.16113281 23.49682617 46.16113281 C23.49682617 36.26113281 23.49682617 26.36113281 23.49682617 16.16113281 C14.58682617 16.16113281 5.67682617 16.16113281 -3.50317383 16.16113281 Z M39.49682617 16.16113281 C39.49682617 26.06113281 39.49682617 35.96113281 39.49682617 46.16113281 C48.40682617 46.16113281 57.31682617 46.16113281 66.49682617 46.16113281 C66.49682617 36.26113281 66.49682617 26.36113281 66.49682617 16.16113281 C57.58682617 16.16113281 48.67682617 16.16113281 39.49682617 16.16113281 Z M-3.50317383 62.16113281 C-3.50317383 71.07113281 -3.50317383 79.98113281 -3.50317383 89.16113281 C5.40682617 89.16113281 14.31682617 89.16113281 23.49682617 89.16113281 C23.49682617 80.25113281 23.49682617 71.34113281 23.49682617 62.16113281 C14.58682617 62.16113281 5.67682617 62.16113281 -3.50317383 62.16113281 Z M39.49682617 62.16113281 C39.49682617 71.07113281 39.49682617 79.98113281 39.49682617 89.16113281 C48.40682617 89.16113281 57.31682617 89.16113281 66.49682617 89.16113281 C66.49682617 80.25113281 66.49682617 71.34113281 66.49682617 62.16113281 C57.58682617 62.16113281 48.67682617 62.16113281 39.49682617 62.16113281 Z M-3.50317383 105.16113281 C-3.50317383 114.73113281 -3.50317383 124.30113281 -3.50317383 134.16113281 C5.40682617 134.16113281 14.31682617 134.16113281 23.49682617 134.16113281 C23.49682617 124.59113281 23.49682617 115.02113281 23.49682617 105.16113281 C14.58682617 105.16113281 5.67682617 105.16113281 -3.50317383 105.16113281 Z M39.49682617 105.16113281 C39.49682617 114.73113281 39.49682617 124.30113281 39.49682617 134.16113281 C48.40682617 134.16113281 57.31682617 134.16113281 66.49682617 134.16113281 C66.49682617 124.59113281 66.49682617 115.02113281 66.49682617 105.16113281 C57.58682617 105.16113281 48.67682617 105.16113281 39.49682617 105.16113281 Z " fill="#000000" transform="translate(143.503173828125,114.8388671875)"/>
<path d="M0 0 C2.80957608 2.11539765 3.87405035 3.29878837 4.50170898 6.79321289 C4.49985596 7.8424292 4.49800293 8.89164551 4.49609375 9.97265625 C4.49673828 11.11927734 4.49738281 12.26589844 4.49804688 13.44726562 C4.47806641 14.64029297 4.45808594 15.83332031 4.4375 17.0625 C4.44458984 18.25939453 4.45167969 19.45628906 4.45898438 20.68945312 C4.39475119 29.46963579 4.39475119 29.46963579 2.65258789 31.81030273 C0.11946141 33.63389933 -1.90529505 33.8762118 -5 34 C-8.01375242 32.76710128 -9.53468674 31.83691761 -11.125 28.9765625 C-12.35513223 24.79191627 -12.28985958 20.8380515 -12.25 16.5 C-12.25773437 15.65824219 -12.26546875 14.81648438 -12.2734375 13.94921875 C-12.2597167 9.59286594 -12.23446432 5.87307149 -10 2 C-6.2794164 -0.48038907 -4.40203429 -0.46337203 0 0 Z " fill="#000000" transform="translate(317,415)"/>
</svg>
