<?xml version="1.0" encoding="UTF-8"?>
<svg version="1.1" xmlns="http://www.w3.org/2000/svg" width="512" height="512">
<path d="M0 0 C2.93423195 1.79646854 4.47205355 2.9441071 6 6 C6.713158 9.49851095 6.6705089 12.49251623 6 16 C4.52006662 18.17029333 4.52006662 18.17029333 2.43845177 20.35829926 C1.61400779 21.23011683 0.7895638 22.10193441 -0.05986333 23.00017071 C-1.03806526 24.00191742 -2.018237 25.00174307 -3 26 C-3.53686108 26.54952115 -4.07372217 27.0990423 -4.62685177 27.66521561 C-9.26287781 32.40106552 -13.95037257 37.08477305 -18.64022827 41.76721191 C-20.22999227 43.35812937 -21.81953841 44.94926454 -23.40888655 46.54059744 C-27.75872127 50.89459428 -32.11165422 55.24548187 -36.46512151 59.59584618 C-40.68287512 63.81156638 -44.89827582 68.02963769 -49.11375744 72.24762947 C-58.2614863 81.40061309 -67.4120612 90.55074716 -76.56386403 99.69965715 C-84.56849562 107.70177096 -92.57219439 115.70481631 -100.57497025 123.70878601 C-101.37192494 124.50585529 -101.37192494 124.50585529 -102.18497974 125.31902697 C-104.34175623 127.4761148 -106.49852918 129.63320616 -108.65529633 131.79030333 C-128.87022355 152.0082869 -149.08806142 172.22335759 -169.30720967 192.43711977 C-187.27578107 210.40094105 -205.2417589 228.36735235 -223.20556641 246.3359375 C-243.39347114 266.52919346 -263.58298598 286.72083735 -283.77511275 306.90987158 C-285.92605313 309.06049124 -288.07698957 311.21111484 -290.22792435 313.36174011 C-290.75753336 313.89127005 -291.28714237 314.42079998 -291.83280014 314.96637628 C-299.83711036 322.9695481 -307.84018426 330.97395483 -315.84266281 338.97895813 C-324.93457358 348.07372307 -334.02825897 357.16670934 -343.12431447 366.25732905 C-347.76794366 370.89827489 -352.41070886 375.540079 -357.05134964 380.18401337 C-361.29387443 384.42950378 -365.53867504 388.67270444 -369.78535362 392.91403979 C-371.3263787 394.45394189 -372.86654918 395.99469975 -374.40580671 397.53636867 C-376.487895 399.62147004 -378.57299711 401.70350898 -380.65892601 403.78476715 C-381.26454099 404.3927233 -381.87015597 405.00067945 -382.49412292 405.62705851 C-389.18579459 412.28853791 -389.18579459 412.28853791 -394.875 412.375 C-398.5506949 412.31060826 -399.8344576 412.10135249 -403.0625 410.125 C-406.30517013 406.56852309 -406.69078345 403.59055941 -406.54199219 398.86206055 C-405.89428964 395.44178264 -404.92211114 394.24782049 -402.5390625 391.73828125 C-401.71647949 390.8683252 -400.89389648 389.99836914 -400.04638672 389.10205078 C-399.03316359 388.06583967 -398.0174933 387.03201838 -397 386 C-396.41188538 385.40096863 -395.82377075 384.80193726 -395.21783447 384.18475342 C-390.90195673 379.80070646 -386.55078418 375.45276274 -382.18930054 371.11413574 C-379.70751897 368.64523953 -377.22898193 366.17312589 -374.7512207 363.70019531 C-369.5036352 358.46396314 -364.25209486 353.23170862 -359 348 C-352.88354934 341.90715265 -346.76873149 335.81268474 -340.65808105 329.71401978 C-338.21321121 327.27564293 -335.76535752 324.84028847 -333.31738281 322.4050293 C-331.8299317 320.92120797 -330.34261926 319.43724761 -328.85546875 317.953125 C-327.83011269 316.93551842 -327.83011269 316.93551842 -326.78404236 315.89735413 C-326.16461258 315.27799484 -325.5451828 314.65863556 -324.90698242 314.02050781 C-324.09628548 313.21314178 -324.09628548 313.21314178 -323.26921082 312.38946533 C-321.88892105 311.00537438 -321.88892105 311.00537438 -321 309 C-321.63550781 308.77957031 -322.27101563 308.55914062 -322.92578125 308.33203125 C-337.74072529 301.91284965 -351.16847226 291.65961913 -364 282 C-364.60424805 281.54882812 -365.20849609 281.09765625 -365.83105469 280.6328125 C-376.83589935 272.4025604 -387.30462835 263.55679564 -397.46044922 254.30419922 C-399.05999961 252.85288634 -400.66621163 251.40884945 -402.28173828 249.9753418 C-408.63134238 244.33454605 -414.69582688 238.4553186 -420.6875 232.4375 C-421.58533203 231.54353516 -422.48316406 230.64957031 -423.40820312 229.72851562 C-428.4805123 224.6487745 -433.356836 219.47429186 -438 214 C-439.1456969 212.66654943 -440.29152507 211.33321164 -441.4375 210 C-442.283125 209.01 -443.12875 208.02 -444 207 C-442.4186938 203.26077871 -440.06769602 200.70350263 -437.3125 197.75 C-436.48363281 196.85796875 -435.65476562 195.9659375 -434.80078125 195.046875 C-434.35114014 194.563396 -433.90149902 194.07991699 -433.43823242 193.58178711 C-431.88333911 191.8716948 -430.38542501 190.11944975 -428.8828125 188.36328125 C-424.50584277 183.34216718 -419.80198812 178.65185086 -415.0847168 173.9543457 C-413.56508332 172.4400742 -412.05087483 170.9205257 -410.53710938 169.40039062 C-405.19676796 164.05612208 -399.75766548 158.8964523 -394 154 C-392.95141412 153.07485221 -391.90446348 152.14784679 -390.859375 151.21875 C-381.00677553 142.56198471 -370.57862318 134.74231035 -360 127 C-358.91114502 126.1951416 -358.91114502 126.1951416 -357.80029297 125.37402344 C-346.0421112 116.70198584 -333.70569698 109.20005496 -321 102 C-320.25782227 101.57589844 -319.51564453 101.15179688 -318.75097656 100.71484375 C-265.44583056 70.48281897 -203.48285354 59.55401995 -143.84765625 75.20507812 C-130.75062415 78.86110835 -117.83206412 83.17433674 -105.609375 89.1640625 C-103.0996594 90.26636996 -103.0996594 90.26636996 -101.06977177 89.27049255 C-98.81272299 87.88504334 -97.14214098 86.3852881 -95.27427673 84.50805664 C-94.18710609 83.42284225 -94.18710609 83.42284225 -93.07797241 82.31570435 C-91.9003685 81.12495804 -91.9003685 81.12495804 -90.69897461 79.91015625 C-89.86440231 79.07426971 -89.02983002 78.23838318 -88.16996765 77.37716675 C-85.88552169 75.08734445 -83.60554501 72.79317889 -81.327317 70.49717331 C-78.94097212 68.09458413 -76.54854627 65.69806719 -74.15663147 63.30102539 C-69.62682767 58.75984735 -65.10172259 54.2140203 -60.57864624 49.66614246 C-52.47671387 41.51986214 -44.36918312 33.3791628 -36.25641829 25.24367046 C-33.87640262 22.85662597 -31.49769415 20.46830488 -29.12177849 18.07717896 C-26.47383931 15.41262402 -23.82300471 12.75098033 -21.17163086 10.08984375 C-19.9909906 8.89909744 -19.9909906 8.89909744 -18.78649902 7.68429565 C-17.70355812 6.59908127 -17.70355812 6.59908127 -16.59873962 5.49194336 C-15.65939024 4.54731483 -15.65939024 4.54731483 -14.70106411 3.58360291 C-10.10741151 -0.69285061 -6.00981883 -0.80514319 0 0 Z M-278.43798828 140.20410156 C-296.26869815 160.70468015 -303.68642066 188.22950608 -302 215 C-300.39460537 233.19035613 -293.74516336 251.22291767 -283 266 C-281.68 266.99 -280.36 267.98 -279 269 C-232.14 222.14 -185.28 175.28 -137 127 C-153.00614042 110.99385958 -177.15301832 103.83412039 -199.4375 103.75 C-230.80540474 103.79548427 -257.3572998 117.33971134 -278.43798828 140.20410156 Z " fill="#000000" transform="translate(456,50)"/>
<path d="M0 0 C7.73926836 4.3911661 7.73926836 4.3911661 10.2890625 6.41015625 C10.83143555 6.83699707 11.37380859 7.26383789 11.93261719 7.70361328 C12.49110352 8.1520459 13.04958984 8.60047852 13.625 9.0625 C14.52460449 9.77768799 14.52460449 9.77768799 15.44238281 10.50732422 C24.36394291 17.63942614 33.04891112 25.03742702 41.48828125 32.734375 C42.86711053 33.97810903 44.25240417 35.21525217 45.6652832 36.42016602 C51.39109145 41.32118784 56.73121377 46.57848057 62.0456543 51.9152832 C63.5599258 53.43491668 65.0794743 54.94912517 66.59960938 56.46289062 C71.94234718 61.80186728 77.12340838 67.22692829 82 73 C83.14546335 74.3336512 84.29128457 75.66699513 85.4375 77 C86.283125 77.99 87.12875 78.98 88 80 C86.4186938 83.73922129 84.06769602 86.29649737 81.3125 89.25 C80.06919922 90.58804688 80.06919922 90.58804688 78.80078125 91.953125 C78.35114014 92.436604 77.90149902 92.92008301 77.43823242 93.41821289 C75.88333911 95.1283052 74.38542501 96.88055025 72.8828125 98.63671875 C68.50584277 103.65783282 63.80198812 108.34814914 59.0847168 113.0456543 C57.56508332 114.5599258 56.05087483 116.0794743 54.53710938 117.59960938 C49.19676796 122.94387792 43.75766548 128.1035477 38 133 C36.95141412 133.92514779 35.90446348 134.85215321 34.859375 135.78125 C14.96500219 153.26341017 -6.98866678 168.88578455 -30 182 C-30.79180664 182.45729492 -31.58361328 182.91458984 -32.39941406 183.38574219 C-86.52483823 214.49914441 -148.78303496 228.38551918 -210 212 C-207.41861396 205.57271429 -201.43895003 200.55118805 -196.71020508 195.62548828 C-195.45061801 194.29767965 -194.20838093 192.9531828 -192.98461914 191.59228516 C-182.80710146 180.29368996 -182.80710146 180.29368996 -176.04003906 179.58569336 C-172.23388949 180.11432524 -168.69602437 180.96302639 -165 182 C-162.03467032 182.3048235 -159.10425026 182.33804363 -156.125 182.3125 C-155.37726318 182.30613525 -154.62952637 182.29977051 -153.85913086 182.29321289 C-126.37266519 181.68971764 -102.15371768 170.35839374 -83 151 C-81.78376953 149.81664062 -81.78376953 149.81664062 -80.54296875 148.609375 C-61.63200285 129.1353856 -54.50861741 102.10805208 -54.75473022 75.63468933 C-54.94557502 72.83115545 -54.94557502 72.83115545 -55.89492798 69.52217102 C-58.2654076 59.77054212 -58.2654076 59.77054212 -56.1484375 55.13554955 C-53.01300991 50.47346989 -48.82887105 46.76195233 -44.7265625 42.96875 C-43.44184661 41.71765948 -42.16108579 40.46249594 -40.88412476 39.20349121 C-37.53245171 35.92014408 -34.13035582 32.69445569 -30.71429443 29.47833252 C-27.23014054 26.17922119 -23.79717007 22.82774199 -20.359375 19.48046875 C-13.62165934 12.93507842 -6.82944061 6.44953269 0 0 Z " fill="#000000" transform="translate(412,175)"/>
</svg>
