<?xml version="1.0" encoding="UTF-8"?>
<svg version="1.1" xmlns="http://www.w3.org/2000/svg" width="512" height="512">
<path d="M0 0 C10.61999175 8.02021777 17.94945471 17.43731652 20.6875 30.6875 C21.19416168 35.67309344 21.2876182 40.61629292 21.3125 45.625 C21.35761719 46.91857422 21.40273438 48.21214844 21.44921875 49.54492188 C21.51492691 58.81446576 19.50019909 64.45970675 13.6875 71.6875 C14.50581299 71.78925537 15.32412598 71.89101074 16.16723633 71.99584961 C27.83509619 73.52381878 36.71435631 77.93686046 44.6875 86.6875 C48.76932967 92.2639611 50.76300399 96.95176396 52.6875 103.6875 C68.5275 104.1825 68.5275 104.1825 84.6875 104.6875 C84.52949706 95.65234723 84.52949706 95.65234723 84.32714844 86.61816406 C84.3171582 85.49120117 84.30716797 84.36423828 84.296875 83.203125 C84.27592773 82.05102539 84.25498047 80.89892578 84.23339844 79.71191406 C84.6875 76.6875 84.6875 76.6875 86.18658447 74.53082275 C89.70694132 71.93611142 92.94914173 72.12745784 97.15625 72.16992188 C98.00872314 72.1629126 98.86119629 72.15590332 99.73950195 72.14868164 C102.5558332 72.13108432 105.37115864 72.1427304 108.1875 72.15625 C110.14518425 72.15355558 112.1028672 72.14967358 114.06054688 72.14465332 C118.16289007 72.13875592 122.26488482 72.14732907 126.3671875 72.16601562 C131.62670628 72.18880525 136.88540864 72.17568347 142.14489746 72.15172577 C146.1872371 72.13727437 150.22938305 72.14187077 154.27172852 72.15223694 C156.21101986 72.15490604 158.15032877 72.15162803 160.08959961 72.14231873 C162.7997905 72.13216398 165.50865775 72.14763872 168.21875 72.16992188 C169.42204956 72.15777649 169.42204956 72.15777649 170.6496582 72.14538574 C174.20761323 72.19960515 176.28559443 72.39127181 179.18841553 74.53082275 C181.26431272 77.51733908 181.14382131 79.58982817 181.078125 83.203125 C181.05878906 85.07871094 181.05878906 85.07871094 181.0390625 86.9921875 C180.98878906 88.94511719 180.98878906 88.94511719 180.9375 90.9375 C180.91945313 92.25492187 180.90140625 93.57234375 180.8828125 94.9296875 C180.83566271 98.18302308 180.76986044 101.43489625 180.6875 104.6875 C181.75709961 104.66655273 182.82669922 104.64560547 183.92871094 104.62402344 C187.90188173 104.55155374 191.87499425 104.50567537 195.84863281 104.46777344 C197.56748279 104.44767372 199.28626452 104.42038911 201.00488281 104.38574219 C203.47738489 104.33714966 205.9489821 104.31451565 208.421875 104.296875 C209.57209137 104.26590729 209.57209137 104.26590729 210.74554443 104.23431396 C214.03850868 104.23293304 216.31082204 104.46575918 219.17089844 106.14941406 C221.43589292 109.93996182 221.26051116 113.34600189 221.21875 117.6875 C221.2225769 118.56019531 221.22640381 119.43289063 221.23034668 120.33203125 C221.2330649 122.17449092 221.22570994 124.01698924 221.20898438 125.859375 C221.18757248 128.67795934 221.20878801 131.49399485 221.234375 134.3125 C221.23173171 136.10417229 221.22660669 137.89584299 221.21875 139.6875 C221.22684692 140.52925781 221.23494385 141.37101563 221.24328613 142.23828125 C221.22437317 143.41970703 221.22437317 143.41970703 221.20507812 144.625 C221.20189575 145.31464844 221.19871338 146.00429688 221.19543457 146.71484375 C220.6875 148.6875 220.6875 148.6875 216.6875 152.6875 C212.7275 152.6875 208.7675 152.6875 204.6875 152.6875 C204.6875 187.0075 204.6875 221.3275 204.6875 256.6875 C199.4075 256.6875 194.1275 256.6875 188.6875 256.6875 C188.6875 222.3675 188.6875 188.0475 188.6875 152.6875 C143.8075 152.6875 98.9275 152.6875 52.6875 152.6875 C52.6875 174.1375 52.6875 195.5875 52.6875 217.6875 C54.6675 218.3475 56.6475 219.0075 58.6875 219.6875 C63.41807479 223.16883562 67.52679543 227.82179656 68.6875 233.6875 C69.44070054 241.57727562 69.85533531 249.25289726 64.6875 255.6875 C60.00656112 260.60297444 55.60711297 264.35800638 48.6270628 264.94476891 C46.90184257 264.94979644 46.90184257 264.94979644 45.14176941 264.95492554 C44.49794054 264.95945665 43.85411167 264.96398776 43.19077283 264.96865618 C41.04141479 264.98127878 38.89231084 264.97968124 36.74291992 264.97802734 C35.1985288 264.98401398 33.65414067 264.99081984 32.10975647 264.99838257 C27.91955036 265.01603696 23.72942595 265.02073774 19.53918624 265.02201414 C16.91940384 265.02343672 14.29964214 265.02770836 11.67986488 265.03300858 C2.53485421 265.05150764 -6.61009819 265.05967942 -15.75512695 265.05810547 C-24.27062416 265.05690439 -32.78586777 265.07800031 -41.30130082 265.1095928 C-48.61952491 265.13577303 -55.93766626 265.14647202 -63.2559368 265.14519465 C-67.6235586 265.14468549 -71.99095502 265.15034302 -76.35853004 265.17155075 C-80.4683871 265.19096245 -84.57780451 265.19103781 -88.68767738 265.17651749 C-90.19206893 265.17443184 -91.69648821 265.17911574 -93.20083237 265.1912384 C-102.35706322 265.2602168 -109.35955238 265.02780079 -116.5546875 258.72265625 C-117.09351563 258.07167969 -117.63234375 257.42070312 -118.1875 256.75 C-118.74179688 256.10160156 -119.29609375 255.45320313 -119.8671875 254.78515625 C-124.34662097 248.28392443 -123.98713728 241.31609083 -123.3125 233.6875 C-121.64200306 227.06894883 -116.8673862 222.43053856 -111.3125 218.6875 C-109.9925 218.3575 -108.6725 218.0275 -107.3125 217.6875 C-107.3125 196.2375 -107.3125 174.7875 -107.3125 152.6875 C-152.1925 152.6875 -197.0725 152.6875 -243.3125 152.6875 C-243.3125 187.0075 -243.3125 221.3275 -243.3125 256.6875 C-248.5925 256.6875 -253.8725 256.6875 -259.3125 256.6875 C-259.3125 222.3675 -259.3125 188.0475 -259.3125 152.6875 C-263.2725 152.6875 -267.2325 152.6875 -271.3125 152.6875 C-275.8136443 148.1863557 -275.8136443 148.1863557 -275.83007812 144.625 C-275.84268677 143.83738281 -275.85529541 143.04976562 -275.86828613 142.23828125 C-275.85614075 140.97564453 -275.85614075 140.97564453 -275.84375 139.6875 C-275.8475769 138.81480469 -275.85140381 137.94210937 -275.85534668 137.04296875 C-275.8580649 135.20050908 -275.85070994 133.35801076 -275.83398438 131.515625 C-275.81257248 128.69704066 -275.83378801 125.88100515 -275.859375 123.0625 C-275.85673171 121.27082771 -275.85160669 119.47915701 -275.84375 117.6875 C-275.85184692 116.84574219 -275.85994385 116.00398438 -275.86828613 115.13671875 C-275.81157624 111.59425257 -275.64079825 109.27962155 -273.90527344 106.14941406 C-269.81877701 103.84527653 -265.90582179 104.19584268 -261.296875 104.296875 C-260.32590881 104.30253479 -259.35494263 104.30819458 -258.35455322 104.31402588 C-255.25669831 104.33639689 -252.16000467 104.38659527 -249.0625 104.4375 C-246.96095422 104.45756403 -244.85939028 104.47581497 -242.7578125 104.4921875 C-237.6089283 104.5362642 -232.46091097 104.60529742 -227.3125 104.6875 C-227.33344727 103.37555664 -227.35439453 102.06361328 -227.37597656 100.71191406 C-227.4483797 95.84418656 -227.49430113 90.97650665 -227.53222656 86.10839844 C-227.55234126 84.00154618 -227.57963667 81.89474975 -227.61425781 79.78808594 C-227.66278168 76.75962553 -227.68547016 73.73190322 -227.703125 70.703125 C-227.72377014 69.76132385 -227.74441528 68.81952271 -227.76568604 67.84918213 C-227.76790767 61.37370251 -227.76790767 61.37370251 -225.5859375 58.0859375 C-222.97271682 56.47849247 -221.59373728 56.21875033 -218.546875 56.296875 C-217.65742188 56.30976563 -216.76796875 56.32265625 -215.8515625 56.3359375 C-214.47097656 56.38621094 -214.47097656 56.38621094 -213.0625 56.4375 C-211.65871094 56.46457031 -211.65871094 56.46457031 -210.2265625 56.4921875 C-207.92143562 56.53923091 -205.61683646 56.61097222 -203.3125 56.6875 C-203.3125 51.4075 -203.3125 46.1275 -203.3125 40.6875 C-198.0325 40.6875 -192.7525 40.6875 -187.3125 40.6875 C-187.3125 45.9675 -187.3125 51.2475 -187.3125 56.6875 C-185.3325 57.0175 -183.3525 57.3475 -181.3125 57.6875 C-179.22229847 60.82280229 -179.0650405 61.5058177 -179.08544922 65.06713867 C-179.08560028 65.94782516 -179.08575134 66.82851166 -179.08590698 67.73588562 C-179.09622955 68.68284805 -179.10655212 69.62981049 -179.1171875 70.60546875 C-179.1200174 71.57784988 -179.12284729 72.55023102 -179.12576294 73.55207825 C-179.13696401 76.65984366 -179.16206852 79.76732159 -179.1875 82.875 C-179.19752989 84.98111563 -179.20665573 87.08723578 -179.21484375 89.19335938 C-179.23690312 94.3581838 -179.27143254 99.52279315 -179.3125 104.6875 C-174.0325 104.6875 -168.7525 104.6875 -163.3125 104.6875 C-163.3439209 102.71958496 -163.3439209 102.71958496 -163.37597656 100.71191406 C-163.4483797 95.84418656 -163.49430113 90.97650665 -163.53222656 86.10839844 C-163.55234126 84.00154618 -163.57963667 81.89474975 -163.61425781 79.78808594 C-163.66278168 76.75962553 -163.68547016 73.73190322 -163.703125 70.703125 C-163.72377014 69.76132385 -163.74441528 68.81952271 -163.76568604 67.84918213 C-163.76790767 61.37370251 -163.76790767 61.37370251 -161.5859375 58.0859375 C-158.97271682 56.47849247 -157.59373728 56.21875033 -154.546875 56.296875 C-153.65742188 56.30976563 -152.76796875 56.32265625 -151.8515625 56.3359375 C-150.47097656 56.38621094 -150.47097656 56.38621094 -149.0625 56.4375 C-147.65871094 56.46457031 -147.65871094 56.46457031 -146.2265625 56.4921875 C-143.92143562 56.53923091 -141.61683646 56.61097222 -139.3125 56.6875 C-139.3125 51.4075 -139.3125 46.1275 -139.3125 40.6875 C-134.0325 40.6875 -128.7525 40.6875 -123.3125 40.6875 C-123.3125 45.9675 -123.3125 51.2475 -123.3125 56.6875 C-120.3425 57.1825 -120.3425 57.1825 -117.3125 57.6875 C-115.22229847 60.82280229 -115.0650405 61.5058177 -115.08544922 65.06713867 C-115.08567581 66.38816841 -115.08567581 66.38816841 -115.08590698 67.73588562 C-115.09622955 68.68284805 -115.10655212 69.62981049 -115.1171875 70.60546875 C-115.1200174 71.57784988 -115.12284729 72.55023102 -115.12576294 73.55207825 C-115.13696401 76.65984366 -115.16206852 79.76732159 -115.1875 82.875 C-115.19752989 84.98111563 -115.20665573 87.08723578 -115.21484375 89.19335938 C-115.23690312 94.3581838 -115.27143254 99.52279315 -115.3125 104.6875 C-112.6725 104.3575 -110.0325 104.0275 -107.3125 103.6875 C-107.10496094 102.99785156 -106.89742187 102.30820312 -106.68359375 101.59765625 C-103.12668803 90.74834967 -97.12833135 82.69560027 -87.3125 76.6875 C-81.12549522 73.78375596 -75.10990632 72.2005118 -68.3125 71.6875 C-68.80983643 71.06673584 -69.30717285 70.44597168 -69.81958008 69.80639648 C-75.63632768 61.79607885 -76.30751105 55.47808752 -76 45.75 C-76.00193359 44.46931641 -76.00386719 43.18863281 -76.00585938 41.86914062 C-75.78510048 26.92604693 -71.11944539 15.84454373 -61 4.9375 C-44.70456176 -10.48496833 -18.58433045 -12.3339951 0 0 Z M-52.3125 20.6875 C-56.89674333 26.85814815 -58.49614505 33.13873629 -59.3125 40.6875 C-59.48910156 41.66332031 -59.66570312 42.63914062 -59.84765625 43.64453125 C-61.08757833 54.97485369 -53.94705538 63.17202084 -47.3125 71.6875 C-44.40665635 74.59334365 -34.51902937 73.2835466 -30.44116211 73.3671875 C-28.6588838 73.41375342 -26.87702722 73.48183536 -25.09643555 73.57226562 C-14.59493232 74.42319891 -14.59493232 74.42319891 -5.41845703 70.32177734 C-3.38857446 67.52528771 -1.83742386 64.7811595 -0.3125 61.6875 C0.66093178 60.37569462 1.65529883 59.07858196 2.6875 57.8125 C7.0536551 50.62377999 5.14515353 40.19370856 3.50390625 32.3203125 C0.78782692 23.56128154 -4.61043726 16.96337087 -12.48828125 12.4375 C-26.49552076 5.83506959 -42.15140049 9.25909187 -52.3125 20.6875 Z M-211.3125 72.6875 C-211.3125 83.2475 -211.3125 93.8075 -211.3125 104.6875 C-206.0325 104.6875 -200.7525 104.6875 -195.3125 104.6875 C-195.3125 94.1275 -195.3125 83.5675 -195.3125 72.6875 C-200.5925 72.6875 -205.8725 72.6875 -211.3125 72.6875 Z M-147.3125 72.6875 C-147.3125 83.2475 -147.3125 93.8075 -147.3125 104.6875 C-142.0325 104.6875 -136.7525 104.6875 -131.3125 104.6875 C-131.3125 94.1275 -131.3125 83.5675 -131.3125 72.6875 C-136.5925 72.6875 -141.8725 72.6875 -147.3125 72.6875 Z M-84.3125 95.6875 C-91.12101143 103.60196253 -91.61615564 113.22914483 -91.53955078 123.25610352 C-91.53979185 124.28805564 -91.54003292 125.32000776 -91.5402813 126.38323116 C-91.53879905 129.69437996 -91.52361644 133.0052982 -91.5078125 136.31640625 C-91.50486869 138.37235404 -91.50283033 140.42830334 -91.50170898 142.48425293 C-91.49126083 150.07285828 -91.46333829 157.66143145 -91.4375 165.25 C-91.39625 182.224375 -91.355 199.19875 -91.3125 216.6875 C-49.0725 216.6875 -6.8325 216.6875 36.6875 216.6875 C36.72875 199.713125 36.77 182.73875 36.8125 165.25 C36.83070801 159.90240479 36.84891602 154.55480957 36.86767578 149.04516602 C36.87436717 144.22600684 36.87436717 144.22600684 36.87838745 139.40684509 C36.88144629 137.27056545 36.88845475 135.13428912 36.89865112 132.99803162 C36.91336781 129.75066179 36.91530939 126.50350187 36.91455078 123.25610352 C36.92534511 121.84321344 36.92534511 121.84321344 36.9363575 120.40178013 C36.90847113 111.43726355 35.90837574 102.57386477 29.6875 95.6875 C21.7940049 89.53324959 14.53568152 88.53594208 4.69189453 88.54223633 C3.92504333 88.53887772 3.15819214 88.5355191 2.36810303 88.53205872 C-0.14784397 88.52261884 -2.66372393 88.5206092 -5.1796875 88.51953125 C-6.94174221 88.51631409 -8.70379666 88.51294968 -10.46585083 88.50944519 C-14.15253315 88.50347152 -17.83919209 88.5016035 -21.52587891 88.50219727 C-26.23194435 88.50229885 -30.93785879 88.4886428 -35.64388847 88.47142506 C-39.28147053 88.4602655 -42.91901651 88.45827926 -46.55661392 88.45880699 C-48.29081874 88.45763299 -50.02502468 88.45324402 -51.75921249 88.44547462 C-69.16696213 88.05720448 -69.16696213 88.05720448 -84.3125 95.6875 Z M100.6875 88.6875 C100.6875 93.9675 100.6875 99.2475 100.6875 104.6875 C121.8075 104.6875 142.9275 104.6875 164.6875 104.6875 C164.6875 99.4075 164.6875 94.1275 164.6875 88.6875 C143.5675 88.6875 122.4475 88.6875 100.6875 88.6875 Z M-259.3125 120.6875 C-259.3125 125.9675 -259.3125 131.2475 -259.3125 136.6875 C-209.1525 136.6875 -158.9925 136.6875 -107.3125 136.6875 C-107.3125 131.4075 -107.3125 126.1275 -107.3125 120.6875 C-157.4725 120.6875 -207.6325 120.6875 -259.3125 120.6875 Z M52.6875 120.6875 C52.6875 125.9675 52.6875 131.2475 52.6875 136.6875 C102.8475 136.6875 153.0075 136.6875 204.6875 136.6875 C204.6875 131.4075 204.6875 126.1275 204.6875 120.6875 C154.5275 120.6875 104.3675 120.6875 52.6875 120.6875 Z M-105.3125 235.6875 C-106.73291821 238.52833641 -106.62702272 240.54227278 -106.3125 243.6875 C-104.08043569 246.53530619 -102.76257001 247.53747666 -99.3125 248.6875 C-97.38532833 248.78486875 -95.45493645 248.82248226 -93.52531433 248.82794189 C-92.31822311 248.83365204 -91.1111319 248.83936218 -89.86746216 248.84524536 C-88.5277711 248.8464907 -87.18807992 248.8476158 -85.84838867 248.84863281 C-84.43897878 248.85326162 -83.02957014 248.85828637 -81.62016296 248.86367798 C-77.78948188 248.87679823 -73.95881832 248.88324624 -70.12811828 248.88768864 C-67.73450659 248.89062005 -65.3408997 248.894725 -62.94729042 248.89919281 C-55.45723467 248.91286695 -47.96718986 248.92253393 -40.47712249 248.9263947 C-31.83283624 248.93087496 -23.18870816 248.94842165 -14.54447001 248.9773953 C-7.86156522 248.9990169 -1.17870491 249.00909924 5.50423449 249.01043582 C9.49508569 249.01148354 13.4857882 249.01738413 17.47660255 249.03525543 C21.23178944 249.0517444 24.98671599 249.05388774 28.74192619 249.04511642 C30.11815209 249.04434648 31.49439202 249.04868325 32.87058258 249.05857468 C34.75346682 249.07131144 36.63645585 249.06361938 38.5193634 249.05499268 C40.09808086 249.05719252 40.09808086 249.05719252 41.7086916 249.0594368 C45.23651036 248.61895005 47.64869602 247.50605654 50.6875 245.6875 C52.10791821 242.84666359 52.00202272 240.83272722 51.6875 237.6875 C49.45543569 234.83969381 48.13757001 233.83752334 44.6875 232.6875 C42.76032833 232.59013125 40.82993645 232.55251774 38.90031433 232.54705811 C37.69322311 232.54134796 36.4861319 232.53563782 35.24246216 232.52975464 C33.9027711 232.5285093 32.56307992 232.5273842 31.22338867 232.52636719 C29.81397878 232.52173838 28.40457014 232.51671363 26.99516296 232.51132202 C23.16448188 232.49820177 19.33381832 232.49175376 15.50311828 232.48731136 C13.10950659 232.48437995 10.7158997 232.480275 8.32229042 232.47580719 C0.83223467 232.46213305 -6.65781014 232.45246607 -14.14787751 232.4486053 C-22.79216376 232.44412504 -31.43629184 232.42657835 -40.08052999 232.3976047 C-46.76343478 232.3759831 -53.44629509 232.36590076 -60.12923449 232.36456418 C-64.12008569 232.36351646 -68.1107882 232.35761587 -72.10160255 232.33974457 C-75.85678944 232.3232556 -79.61171599 232.32111226 -83.36692619 232.32988358 C-84.74315209 232.33065352 -86.11939202 232.32631675 -87.49558258 232.31642532 C-89.37846682 232.30368856 -91.26145585 232.31138062 -93.1443634 232.32000732 C-94.72308086 232.31780748 -94.72308086 232.31780748 -96.3336916 232.3155632 C-99.86151036 232.75604995 -102.27369602 233.86894346 -105.3125 235.6875 Z " fill="#000000" transform="translate(283.3125,239.3125)"/>
<path d="M0 0 C1.14404297 -0.0112793 2.28808594 -0.02255859 3.46679688 -0.03417969 C5.34334961 -0.0220343 5.34334961 -0.0220343 7.2578125 -0.00964355 C8.59180465 -0.01506511 9.9257908 -0.02218797 11.25976562 -0.03088379 C14.87966598 -0.04911656 18.49911024 -0.04205017 22.11901855 -0.02936745 C25.9074832 -0.01923938 29.69590882 -0.02863258 33.484375 -0.03491211 C39.84642548 -0.04218911 46.20829022 -0.03259956 52.5703125 -0.0135498 C59.92541387 0.00821921 67.28007173 0.00116786 74.63516235 -0.02085543 C80.95036617 -0.03900805 87.26543648 -0.04156848 93.58065796 -0.03110075 C97.35234853 -0.02486499 101.12383064 -0.02403225 104.89550781 -0.0372467 C108.44153603 -0.04880278 111.98699253 -0.04078487 115.53295898 -0.01766968 C117.45490737 -0.00985857 119.37690412 -0.02174065 121.29882812 -0.03417969 C123.01489258 -0.01726074 123.01489258 -0.01726074 124.765625 0 C125.75965332 0.0015081 126.75368164 0.0030162 127.77783203 0.00457001 C131.15688917 0.65751065 132.33635121 1.77626933 134.3828125 4.50793457 C134.88617706 6.61315918 134.88617706 6.61315918 134.89074707 8.91027832 C134.90202637 9.78506836 134.91330566 10.6598584 134.92492676 11.56115723 C134.91682983 12.51296875 134.90873291 13.46478027 134.90039062 14.44543457 C134.9073999 15.45396484 134.91440918 16.46249512 134.92163086 17.50158691 C134.93924468 20.83731571 134.9275756 24.17219705 134.9140625 27.50793457 C134.91675643 29.82434248 134.92063801 32.14074929 134.92565918 34.45715332 C134.93155884 39.31273155 134.92297588 44.16801553 134.90429688 49.02355957 C134.88150746 55.25158103 134.89462798 61.47891302 134.91858673 67.70690918 C134.93303182 72.49040942 134.92844455 77.27374584 134.91807556 82.05725098 C134.91540473 84.35380128 134.9186905 86.6503664 134.92799377 88.94689941 C134.93813777 92.15514597 134.92268733 95.36227163 134.90039062 98.57043457 C134.90848755 99.52224609 134.91658447 100.47405762 134.92492676 101.45471191 C134.91364746 102.32950195 134.90236816 103.20429199 134.89074707 104.10559082 C134.88923897 104.86364014 134.88773087 105.62168945 134.88617706 106.40270996 C134.15699773 109.45236102 132.86061492 110.63131094 130.3828125 112.50793457 C127.77783203 113.01129913 127.77783203 113.01129913 124.765625 113.01586914 C123.62158203 113.02714844 122.47753906 113.03842773 121.29882812 113.05004883 C120.04779297 113.0419519 118.79675781 113.03385498 117.5078125 113.0255127 C116.17382035 113.03093425 114.8398342 113.03805711 113.50585938 113.04675293 C109.88595902 113.0649857 106.26651476 113.05791931 102.64660645 113.04523659 C98.8581418 113.03510852 95.06971618 113.04450172 91.28125 113.05078125 C84.91919952 113.05805825 78.55733478 113.0484687 72.1953125 113.02941895 C64.84021113 113.00764993 57.48555327 113.01470128 50.13046265 113.03672457 C43.81525883 113.05487719 37.50018852 113.05743762 31.18496704 113.04696989 C27.41327647 113.04073413 23.64179436 113.03990139 19.87011719 113.05311584 C16.32408897 113.06467192 12.77863247 113.05665401 9.23266602 113.03353882 C7.31071763 113.02572771 5.38872088 113.03760979 3.46679688 113.05004883 C1.75073242 113.03312988 1.75073242 113.03312988 0 113.01586914 C-0.99402832 113.01436104 -1.98805664 113.01285294 -3.01220703 113.01129913 C-6.39126417 112.35835849 -7.57072621 111.23959981 -9.6171875 108.50793457 C-10.12055206 106.40270996 -10.12055206 106.40270996 -10.12512207 104.10559082 C-10.13640137 103.23080078 -10.14768066 102.35601074 -10.15930176 101.45471191 C-10.15120483 100.50290039 -10.14310791 99.55108887 -10.13476562 98.57043457 C-10.1417749 97.5619043 -10.14878418 96.55337402 -10.15600586 95.51428223 C-10.17361968 92.17855343 -10.1619506 88.84367209 -10.1484375 85.50793457 C-10.15113143 83.19152666 -10.15501301 80.87511985 -10.16003418 78.55871582 C-10.16593384 73.70313759 -10.15735088 68.84785361 -10.13867188 63.99230957 C-10.11588246 57.76428811 -10.12900298 51.53695612 -10.15296173 45.30895996 C-10.16740682 40.52545972 -10.16281955 35.7421233 -10.15245056 30.95861816 C-10.14977973 28.66206786 -10.1530655 26.36550274 -10.16236877 24.06896973 C-10.17251277 20.86072317 -10.15706233 17.65359751 -10.13476562 14.44543457 C-10.14286255 13.49362305 -10.15095947 12.54181152 -10.15930176 11.56115723 C-10.14802246 10.68636719 -10.13674316 9.81157715 -10.12512207 8.91027832 C-10.12361397 8.152229 -10.12210587 7.39417969 -10.12055206 6.61315918 C-8.82263972 1.18489265 -5.09814057 0.00773471 0 0 Z M6.3828125 16.50793457 C6.3828125 42.90793457 6.3828125 69.30793457 6.3828125 96.50793457 C43.3428125 96.50793457 80.3028125 96.50793457 118.3828125 96.50793457 C118.3828125 70.10793457 118.3828125 43.70793457 118.3828125 16.50793457 C81.4228125 16.50793457 44.4628125 16.50793457 6.3828125 16.50793457 Z " fill="#000000" transform="translate(353.6171875,135.4920654296875)"/>
<path d="M0 0 C1.14404297 -0.0112793 2.28808594 -0.02255859 3.46679688 -0.03417969 C5.34334961 -0.0220343 5.34334961 -0.0220343 7.2578125 -0.00964355 C8.59180465 -0.01506511 9.9257908 -0.02218797 11.25976562 -0.03088379 C14.87966598 -0.04911656 18.49911024 -0.04205017 22.11901855 -0.02936745 C25.9074832 -0.01923938 29.69590882 -0.02863258 33.484375 -0.03491211 C39.84642548 -0.04218911 46.20829022 -0.03259956 52.5703125 -0.0135498 C59.92541387 0.00821921 67.28007173 0.00116786 74.63516235 -0.02085543 C80.95036617 -0.03900805 87.26543648 -0.04156848 93.58065796 -0.03110075 C97.35234853 -0.02486499 101.12383064 -0.02403225 104.89550781 -0.0372467 C108.44153603 -0.04880278 111.98699253 -0.04078487 115.53295898 -0.01766968 C117.45490737 -0.00985857 119.37690412 -0.02174065 121.29882812 -0.03417969 C123.01489258 -0.01726074 123.01489258 -0.01726074 124.765625 0 C125.75965332 0.0015081 126.75368164 0.0030162 127.77783203 0.00457001 C131.15688917 0.65751065 132.33635121 1.77626933 134.3828125 4.50793457 C134.88617706 6.61315918 134.88617706 6.61315918 134.89074707 8.91027832 C134.90202637 9.78506836 134.91330566 10.6598584 134.92492676 11.56115723 C134.91682983 12.51296875 134.90873291 13.46478027 134.90039062 14.44543457 C134.9073999 15.45396484 134.91440918 16.46249512 134.92163086 17.50158691 C134.93924468 20.83731571 134.9275756 24.17219705 134.9140625 27.50793457 C134.91675643 29.82434248 134.92063801 32.14074929 134.92565918 34.45715332 C134.93155884 39.31273155 134.92297588 44.16801553 134.90429688 49.02355957 C134.88150746 55.25158103 134.89462798 61.47891302 134.91858673 67.70690918 C134.93303182 72.49040942 134.92844455 77.27374584 134.91807556 82.05725098 C134.91540473 84.35380128 134.9186905 86.6503664 134.92799377 88.94689941 C134.93813777 92.15514597 134.92268733 95.36227163 134.90039062 98.57043457 C134.90848755 99.52224609 134.91658447 100.47405762 134.92492676 101.45471191 C134.91364746 102.32950195 134.90236816 103.20429199 134.89074707 104.10559082 C134.88923897 104.86364014 134.88773087 105.62168945 134.88617706 106.40270996 C134.15699773 109.45236102 132.86061492 110.63131094 130.3828125 112.50793457 C127.77783203 113.01129913 127.77783203 113.01129913 124.765625 113.01586914 C123.62158203 113.02714844 122.47753906 113.03842773 121.29882812 113.05004883 C120.04779297 113.0419519 118.79675781 113.03385498 117.5078125 113.0255127 C116.17382035 113.03093425 114.8398342 113.03805711 113.50585938 113.04675293 C109.88595902 113.0649857 106.26651476 113.05791931 102.64660645 113.04523659 C98.8581418 113.03510852 95.06971618 113.04450172 91.28125 113.05078125 C84.91919952 113.05805825 78.55733478 113.0484687 72.1953125 113.02941895 C64.84021113 113.00764993 57.48555327 113.01470128 50.13046265 113.03672457 C43.81525883 113.05487719 37.50018852 113.05743762 31.18496704 113.04696989 C27.41327647 113.04073413 23.64179436 113.03990139 19.87011719 113.05311584 C16.32408897 113.06467192 12.77863247 113.05665401 9.23266602 113.03353882 C7.31071763 113.02572771 5.38872088 113.03760979 3.46679688 113.05004883 C1.75073242 113.03312988 1.75073242 113.03312988 0 113.01586914 C-0.99402832 113.01436104 -1.98805664 113.01285294 -3.01220703 113.01129913 C-6.39126417 112.35835849 -7.57072621 111.23959981 -9.6171875 108.50793457 C-10.12055206 106.40270996 -10.12055206 106.40270996 -10.12512207 104.10559082 C-10.13640137 103.23080078 -10.14768066 102.35601074 -10.15930176 101.45471191 C-10.15120483 100.50290039 -10.14310791 99.55108887 -10.13476562 98.57043457 C-10.1417749 97.5619043 -10.14878418 96.55337402 -10.15600586 95.51428223 C-10.17361968 92.17855343 -10.1619506 88.84367209 -10.1484375 85.50793457 C-10.15113143 83.19152666 -10.15501301 80.87511985 -10.16003418 78.55871582 C-10.16593384 73.70313759 -10.15735088 68.84785361 -10.13867188 63.99230957 C-10.11588246 57.76428811 -10.12900298 51.53695612 -10.15296173 45.30895996 C-10.16740682 40.52545972 -10.16281955 35.7421233 -10.15245056 30.95861816 C-10.14977973 28.66206786 -10.1530655 26.36550274 -10.16236877 24.06896973 C-10.17251277 20.86072317 -10.15706233 17.65359751 -10.13476562 14.44543457 C-10.14286255 13.49362305 -10.15095947 12.54181152 -10.15930176 11.56115723 C-10.14802246 10.68636719 -10.13674316 9.81157715 -10.12512207 8.91027832 C-10.12361397 8.152229 -10.12210587 7.39417969 -10.12055206 6.61315918 C-8.82263972 1.18489265 -5.09814057 0.00773471 0 0 Z M6.3828125 16.50793457 C6.3828125 42.90793457 6.3828125 69.30793457 6.3828125 96.50793457 C43.3428125 96.50793457 80.3028125 96.50793457 118.3828125 96.50793457 C118.3828125 70.10793457 118.3828125 43.70793457 118.3828125 16.50793457 C81.4228125 16.50793457 44.4628125 16.50793457 6.3828125 16.50793457 Z " fill="#000000" transform="translate(33.6171875,135.4920654296875)"/>
<path d="M0 0 C1.14404297 -0.0112793 2.28808594 -0.02255859 3.46679688 -0.03417969 C5.34334961 -0.0220343 5.34334961 -0.0220343 7.2578125 -0.00964355 C8.59180465 -0.01506511 9.9257908 -0.02218797 11.25976562 -0.03088379 C14.87966598 -0.04911656 18.49911024 -0.04205017 22.11901855 -0.02936745 C25.9074832 -0.01923938 29.69590882 -0.02863258 33.484375 -0.03491211 C39.84642548 -0.04218911 46.20829022 -0.03259956 52.5703125 -0.0135498 C59.92541387 0.00821921 67.28007173 0.00116786 74.63516235 -0.02085543 C80.95036617 -0.03900805 87.26543648 -0.04156848 93.58065796 -0.03110075 C97.35234853 -0.02486499 101.12383064 -0.02403225 104.89550781 -0.0372467 C108.44153603 -0.04880278 111.98699253 -0.04078487 115.53295898 -0.01766968 C117.45490737 -0.00985857 119.37690412 -0.02174065 121.29882812 -0.03417969 C123.01489258 -0.01726074 123.01489258 -0.01726074 124.765625 0 C125.75965332 0.0015081 126.75368164 0.0030162 127.77783203 0.00457001 C131.15688917 0.65751065 132.33635121 1.77626933 134.3828125 4.50793457 C134.88617706 6.61315918 134.88617706 6.61315918 134.89074707 8.91027832 C134.90202637 9.78506836 134.91330566 10.6598584 134.92492676 11.56115723 C134.91682983 12.51296875 134.90873291 13.46478027 134.90039062 14.44543457 C134.9073999 15.45396484 134.91440918 16.46249512 134.92163086 17.50158691 C134.93924468 20.83731571 134.9275756 24.17219705 134.9140625 27.50793457 C134.91675643 29.82434248 134.92063801 32.14074929 134.92565918 34.45715332 C134.93155884 39.31273155 134.92297588 44.16801553 134.90429688 49.02355957 C134.88150746 55.25158103 134.89462798 61.47891302 134.91858673 67.70690918 C134.93303182 72.49040942 134.92844455 77.27374584 134.91807556 82.05725098 C134.91540473 84.35380128 134.9186905 86.6503664 134.92799377 88.94689941 C134.93813777 92.15514597 134.92268733 95.36227163 134.90039062 98.57043457 C134.90848755 99.52224609 134.91658447 100.47405762 134.92492676 101.45471191 C134.91364746 102.32950195 134.90236816 103.20429199 134.89074707 104.10559082 C134.88923897 104.86364014 134.88773087 105.62168945 134.88617706 106.40270996 C134.15699773 109.45236102 132.86061492 110.63131094 130.3828125 112.50793457 C127.77783203 113.01129913 127.77783203 113.01129913 124.765625 113.01586914 C123.62158203 113.02714844 122.47753906 113.03842773 121.29882812 113.05004883 C120.04779297 113.0419519 118.79675781 113.03385498 117.5078125 113.0255127 C116.17382035 113.03093425 114.8398342 113.03805711 113.50585938 113.04675293 C109.88595902 113.0649857 106.26651476 113.05791931 102.64660645 113.04523659 C98.8581418 113.03510852 95.06971618 113.04450172 91.28125 113.05078125 C84.91919952 113.05805825 78.55733478 113.0484687 72.1953125 113.02941895 C64.84021113 113.00764993 57.48555327 113.01470128 50.13046265 113.03672457 C43.81525883 113.05487719 37.50018852 113.05743762 31.18496704 113.04696989 C27.41327647 113.04073413 23.64179436 113.03990139 19.87011719 113.05311584 C16.32408897 113.06467192 12.77863247 113.05665401 9.23266602 113.03353882 C7.31071763 113.02572771 5.38872088 113.03760979 3.46679688 113.05004883 C1.75073242 113.03312988 1.75073242 113.03312988 0 113.01586914 C-0.99402832 113.01436104 -1.98805664 113.01285294 -3.01220703 113.01129913 C-6.39126417 112.35835849 -7.57072621 111.23959981 -9.6171875 108.50793457 C-10.12055206 106.40270996 -10.12055206 106.40270996 -10.12512207 104.10559082 C-10.13640137 103.23080078 -10.14768066 102.35601074 -10.15930176 101.45471191 C-10.15120483 100.50290039 -10.14310791 99.55108887 -10.13476562 98.57043457 C-10.1417749 97.5619043 -10.14878418 96.55337402 -10.15600586 95.51428223 C-10.17361968 92.17855343 -10.1619506 88.84367209 -10.1484375 85.50793457 C-10.15113143 83.19152666 -10.15501301 80.87511985 -10.16003418 78.55871582 C-10.16593384 73.70313759 -10.15735088 68.84785361 -10.13867188 63.99230957 C-10.11588246 57.76428811 -10.12900298 51.53695612 -10.15296173 45.30895996 C-10.16740682 40.52545972 -10.16281955 35.7421233 -10.15245056 30.95861816 C-10.14977973 28.66206786 -10.1530655 26.36550274 -10.16236877 24.06896973 C-10.17251277 20.86072317 -10.15706233 17.65359751 -10.13476562 14.44543457 C-10.14286255 13.49362305 -10.15095947 12.54181152 -10.15930176 11.56115723 C-10.14802246 10.68636719 -10.13674316 9.81157715 -10.12512207 8.91027832 C-10.12361397 8.152229 -10.12210587 7.39417969 -10.12055206 6.61315918 C-8.82263972 1.18489265 -5.09814057 0.00773471 0 0 Z M6.3828125 16.50793457 C6.3828125 42.90793457 6.3828125 69.30793457 6.3828125 96.50793457 C43.3428125 96.50793457 80.3028125 96.50793457 118.3828125 96.50793457 C118.3828125 70.10793457 118.3828125 43.70793457 118.3828125 16.50793457 C81.4228125 16.50793457 44.4628125 16.50793457 6.3828125 16.50793457 Z " fill="#000000" transform="translate(353.6171875,7.4920654296875)"/>
<path d="M0 0 C1.14404297 -0.0112793 2.28808594 -0.02255859 3.46679688 -0.03417969 C5.34334961 -0.0220343 5.34334961 -0.0220343 7.2578125 -0.00964355 C8.59180465 -0.01506511 9.9257908 -0.02218797 11.25976562 -0.03088379 C14.87966598 -0.04911656 18.49911024 -0.04205017 22.11901855 -0.02936745 C25.9074832 -0.01923938 29.69590882 -0.02863258 33.484375 -0.03491211 C39.84642548 -0.04218911 46.20829022 -0.03259956 52.5703125 -0.0135498 C59.92541387 0.00821921 67.28007173 0.00116786 74.63516235 -0.02085543 C80.95036617 -0.03900805 87.26543648 -0.04156848 93.58065796 -0.03110075 C97.35234853 -0.02486499 101.12383064 -0.02403225 104.89550781 -0.0372467 C108.44153603 -0.04880278 111.98699253 -0.04078487 115.53295898 -0.01766968 C117.45490737 -0.00985857 119.37690412 -0.02174065 121.29882812 -0.03417969 C123.01489258 -0.01726074 123.01489258 -0.01726074 124.765625 0 C125.75965332 0.0015081 126.75368164 0.0030162 127.77783203 0.00457001 C131.15688917 0.65751065 132.33635121 1.77626933 134.3828125 4.50793457 C134.88617706 6.61315918 134.88617706 6.61315918 134.89074707 8.91027832 C134.90202637 9.78506836 134.91330566 10.6598584 134.92492676 11.56115723 C134.91682983 12.51296875 134.90873291 13.46478027 134.90039062 14.44543457 C134.9073999 15.45396484 134.91440918 16.46249512 134.92163086 17.50158691 C134.93924468 20.83731571 134.9275756 24.17219705 134.9140625 27.50793457 C134.91675643 29.82434248 134.92063801 32.14074929 134.92565918 34.45715332 C134.93155884 39.31273155 134.92297588 44.16801553 134.90429688 49.02355957 C134.88150746 55.25158103 134.89462798 61.47891302 134.91858673 67.70690918 C134.93303182 72.49040942 134.92844455 77.27374584 134.91807556 82.05725098 C134.91540473 84.35380128 134.9186905 86.6503664 134.92799377 88.94689941 C134.93813777 92.15514597 134.92268733 95.36227163 134.90039062 98.57043457 C134.90848755 99.52224609 134.91658447 100.47405762 134.92492676 101.45471191 C134.91364746 102.32950195 134.90236816 103.20429199 134.89074707 104.10559082 C134.88923897 104.86364014 134.88773087 105.62168945 134.88617706 106.40270996 C134.15699773 109.45236102 132.86061492 110.63131094 130.3828125 112.50793457 C127.77783203 113.01129913 127.77783203 113.01129913 124.765625 113.01586914 C123.62158203 113.02714844 122.47753906 113.03842773 121.29882812 113.05004883 C120.04779297 113.0419519 118.79675781 113.03385498 117.5078125 113.0255127 C116.17382035 113.03093425 114.8398342 113.03805711 113.50585938 113.04675293 C109.88595902 113.0649857 106.26651476 113.05791931 102.64660645 113.04523659 C98.8581418 113.03510852 95.06971618 113.04450172 91.28125 113.05078125 C84.91919952 113.05805825 78.55733478 113.0484687 72.1953125 113.02941895 C64.84021113 113.00764993 57.48555327 113.01470128 50.13046265 113.03672457 C43.81525883 113.05487719 37.50018852 113.05743762 31.18496704 113.04696989 C27.41327647 113.04073413 23.64179436 113.03990139 19.87011719 113.05311584 C16.32408897 113.06467192 12.77863247 113.05665401 9.23266602 113.03353882 C7.31071763 113.02572771 5.38872088 113.03760979 3.46679688 113.05004883 C1.75073242 113.03312988 1.75073242 113.03312988 0 113.01586914 C-0.99402832 113.01436104 -1.98805664 113.01285294 -3.01220703 113.01129913 C-6.39126417 112.35835849 -7.57072621 111.23959981 -9.6171875 108.50793457 C-10.12055206 106.40270996 -10.12055206 106.40270996 -10.12512207 104.10559082 C-10.13640137 103.23080078 -10.14768066 102.35601074 -10.15930176 101.45471191 C-10.15120483 100.50290039 -10.14310791 99.55108887 -10.13476562 98.57043457 C-10.1417749 97.5619043 -10.14878418 96.55337402 -10.15600586 95.51428223 C-10.17361968 92.17855343 -10.1619506 88.84367209 -10.1484375 85.50793457 C-10.15113143 83.19152666 -10.15501301 80.87511985 -10.16003418 78.55871582 C-10.16593384 73.70313759 -10.15735088 68.84785361 -10.13867188 63.99230957 C-10.11588246 57.76428811 -10.12900298 51.53695612 -10.15296173 45.30895996 C-10.16740682 40.52545972 -10.16281955 35.7421233 -10.15245056 30.95861816 C-10.14977973 28.66206786 -10.1530655 26.36550274 -10.16236877 24.06896973 C-10.17251277 20.86072317 -10.15706233 17.65359751 -10.13476562 14.44543457 C-10.14286255 13.49362305 -10.15095947 12.54181152 -10.15930176 11.56115723 C-10.14802246 10.68636719 -10.13674316 9.81157715 -10.12512207 8.91027832 C-10.12361397 8.152229 -10.12210587 7.39417969 -10.12055206 6.61315918 C-8.82263972 1.18489265 -5.09814057 0.00773471 0 0 Z M6.3828125 16.50793457 C6.3828125 42.90793457 6.3828125 69.30793457 6.3828125 96.50793457 C43.3428125 96.50793457 80.3028125 96.50793457 118.3828125 96.50793457 C118.3828125 70.10793457 118.3828125 43.70793457 118.3828125 16.50793457 C81.4228125 16.50793457 44.4628125 16.50793457 6.3828125 16.50793457 Z " fill="#000000" transform="translate(193.6171875,7.4920654296875)"/>
<path d="M0 0 C1.14404297 -0.0112793 2.28808594 -0.02255859 3.46679688 -0.03417969 C5.34334961 -0.0220343 5.34334961 -0.0220343 7.2578125 -0.00964355 C8.59180465 -0.01506511 9.9257908 -0.02218797 11.25976562 -0.03088379 C14.87966598 -0.04911656 18.49911024 -0.04205017 22.11901855 -0.02936745 C25.9074832 -0.01923938 29.69590882 -0.02863258 33.484375 -0.03491211 C39.84642548 -0.04218911 46.20829022 -0.03259956 52.5703125 -0.0135498 C59.92541387 0.00821921 67.28007173 0.00116786 74.63516235 -0.02085543 C80.95036617 -0.03900805 87.26543648 -0.04156848 93.58065796 -0.03110075 C97.35234853 -0.02486499 101.12383064 -0.02403225 104.89550781 -0.0372467 C108.44153603 -0.04880278 111.98699253 -0.04078487 115.53295898 -0.01766968 C117.45490737 -0.00985857 119.37690412 -0.02174065 121.29882812 -0.03417969 C123.01489258 -0.01726074 123.01489258 -0.01726074 124.765625 0 C125.75965332 0.0015081 126.75368164 0.0030162 127.77783203 0.00457001 C131.15688917 0.65751065 132.33635121 1.77626933 134.3828125 4.50793457 C134.88617706 6.61315918 134.88617706 6.61315918 134.89074707 8.91027832 C134.90202637 9.78506836 134.91330566 10.6598584 134.92492676 11.56115723 C134.91682983 12.51296875 134.90873291 13.46478027 134.90039062 14.44543457 C134.9073999 15.45396484 134.91440918 16.46249512 134.92163086 17.50158691 C134.93924468 20.83731571 134.9275756 24.17219705 134.9140625 27.50793457 C134.91675643 29.82434248 134.92063801 32.14074929 134.92565918 34.45715332 C134.93155884 39.31273155 134.92297588 44.16801553 134.90429688 49.02355957 C134.88150746 55.25158103 134.89462798 61.47891302 134.91858673 67.70690918 C134.93303182 72.49040942 134.92844455 77.27374584 134.91807556 82.05725098 C134.91540473 84.35380128 134.9186905 86.6503664 134.92799377 88.94689941 C134.93813777 92.15514597 134.92268733 95.36227163 134.90039062 98.57043457 C134.90848755 99.52224609 134.91658447 100.47405762 134.92492676 101.45471191 C134.91364746 102.32950195 134.90236816 103.20429199 134.89074707 104.10559082 C134.88923897 104.86364014 134.88773087 105.62168945 134.88617706 106.40270996 C134.15699773 109.45236102 132.86061492 110.63131094 130.3828125 112.50793457 C127.77783203 113.01129913 127.77783203 113.01129913 124.765625 113.01586914 C123.62158203 113.02714844 122.47753906 113.03842773 121.29882812 113.05004883 C120.04779297 113.0419519 118.79675781 113.03385498 117.5078125 113.0255127 C116.17382035 113.03093425 114.8398342 113.03805711 113.50585938 113.04675293 C109.88595902 113.0649857 106.26651476 113.05791931 102.64660645 113.04523659 C98.8581418 113.03510852 95.06971618 113.04450172 91.28125 113.05078125 C84.91919952 113.05805825 78.55733478 113.0484687 72.1953125 113.02941895 C64.84021113 113.00764993 57.48555327 113.01470128 50.13046265 113.03672457 C43.81525883 113.05487719 37.50018852 113.05743762 31.18496704 113.04696989 C27.41327647 113.04073413 23.64179436 113.03990139 19.87011719 113.05311584 C16.32408897 113.06467192 12.77863247 113.05665401 9.23266602 113.03353882 C7.31071763 113.02572771 5.38872088 113.03760979 3.46679688 113.05004883 C1.75073242 113.03312988 1.75073242 113.03312988 0 113.01586914 C-0.99402832 113.01436104 -1.98805664 113.01285294 -3.01220703 113.01129913 C-6.39126417 112.35835849 -7.57072621 111.23959981 -9.6171875 108.50793457 C-10.12055206 106.40270996 -10.12055206 106.40270996 -10.12512207 104.10559082 C-10.13640137 103.23080078 -10.14768066 102.35601074 -10.15930176 101.45471191 C-10.15120483 100.50290039 -10.14310791 99.55108887 -10.13476562 98.57043457 C-10.1417749 97.5619043 -10.14878418 96.55337402 -10.15600586 95.51428223 C-10.17361968 92.17855343 -10.1619506 88.84367209 -10.1484375 85.50793457 C-10.15113143 83.19152666 -10.15501301 80.87511985 -10.16003418 78.55871582 C-10.16593384 73.70313759 -10.15735088 68.84785361 -10.13867188 63.99230957 C-10.11588246 57.76428811 -10.12900298 51.53695612 -10.15296173 45.30895996 C-10.16740682 40.52545972 -10.16281955 35.7421233 -10.15245056 30.95861816 C-10.14977973 28.66206786 -10.1530655 26.36550274 -10.16236877 24.06896973 C-10.17251277 20.86072317 -10.15706233 17.65359751 -10.13476562 14.44543457 C-10.14286255 13.49362305 -10.15095947 12.54181152 -10.15930176 11.56115723 C-10.14802246 10.68636719 -10.13674316 9.81157715 -10.12512207 8.91027832 C-10.12361397 8.152229 -10.12210587 7.39417969 -10.12055206 6.61315918 C-8.82263972 1.18489265 -5.09814057 0.00773471 0 0 Z M6.3828125 16.50793457 C6.3828125 42.90793457 6.3828125 69.30793457 6.3828125 96.50793457 C43.3428125 96.50793457 80.3028125 96.50793457 118.3828125 96.50793457 C118.3828125 70.10793457 118.3828125 43.70793457 118.3828125 16.50793457 C81.4228125 16.50793457 44.4628125 16.50793457 6.3828125 16.50793457 Z " fill="#000000" transform="translate(33.6171875,7.4920654296875)"/>
<path d="M0 0 C1.14404297 -0.0112793 2.28808594 -0.02255859 3.46679688 -0.03417969 C5.34334961 -0.0220343 5.34334961 -0.0220343 7.2578125 -0.00964355 C8.59180465 -0.01506511 9.9257908 -0.02218797 11.25976562 -0.03088379 C14.87966598 -0.04911656 18.49911024 -0.04205017 22.11901855 -0.02936745 C25.9074832 -0.01923938 29.69590882 -0.02863258 33.484375 -0.03491211 C39.84642548 -0.04218911 46.20829022 -0.03259956 52.5703125 -0.0135498 C59.92541387 0.00821921 67.28007173 0.00116786 74.63516235 -0.02085543 C80.95036617 -0.03900805 87.26543648 -0.04156848 93.58065796 -0.03110075 C97.35234853 -0.02486499 101.12383064 -0.02403225 104.89550781 -0.0372467 C108.44153603 -0.04880278 111.98699253 -0.04078487 115.53295898 -0.01766968 C117.45490737 -0.00985857 119.37690412 -0.02174065 121.29882812 -0.03417969 C123.01489258 -0.01726074 123.01489258 -0.01726074 124.765625 0 C125.75965332 0.0015081 126.75368164 0.0030162 127.77783203 0.00457001 C131.15688917 0.65751065 132.33635121 1.77626933 134.3828125 4.50793457 C134.88617706 6.61315918 134.88617706 6.61315918 134.89074707 8.91027832 C134.90202637 9.78506836 134.91330566 10.6598584 134.92492676 11.56115723 C134.91682983 12.51296875 134.90873291 13.46478027 134.90039062 14.44543457 C134.9073999 15.45396484 134.91440918 16.46249512 134.92163086 17.50158691 C134.93924468 20.83731571 134.9275756 24.17219705 134.9140625 27.50793457 C134.91675643 29.82434248 134.92063801 32.14074929 134.92565918 34.45715332 C134.93155884 39.31273155 134.92297588 44.16801553 134.90429688 49.02355957 C134.88150746 55.25158103 134.89462798 61.47891302 134.91858673 67.70690918 C134.93303182 72.49040942 134.92844455 77.27374584 134.91807556 82.05725098 C134.91540473 84.35380128 134.9186905 86.6503664 134.92799377 88.94689941 C134.93813777 92.15514597 134.92268733 95.36227163 134.90039062 98.57043457 C134.90848755 99.52224609 134.91658447 100.47405762 134.92492676 101.45471191 C134.84211177 107.87760556 134.84211177 107.87760556 132.49359131 111.10064697 C129.97411186 112.78042136 128.62543127 112.97569403 125.6171875 112.89855957 C124.28300781 112.87922363 124.28300781 112.87922363 122.921875 112.85949707 C122.00148438 112.82598145 121.08109375 112.79246582 120.1328125 112.75793457 C119.19695312 112.7398877 118.26109375 112.72184082 117.296875 112.70324707 C114.99174812 112.65620366 112.68714896 112.58446235 110.3828125 112.50793457 C110.3828125 107.22793457 110.3828125 101.94793457 110.3828125 96.50793457 C113.0228125 96.50793457 115.6628125 96.50793457 118.3828125 96.50793457 C118.3828125 70.10793457 118.3828125 43.70793457 118.3828125 16.50793457 C81.4228125 16.50793457 44.4628125 16.50793457 6.3828125 16.50793457 C6.3828125 42.90793457 6.3828125 69.30793457 6.3828125 96.50793457 C9.0228125 96.50793457 11.6628125 96.50793457 14.3828125 96.50793457 C14.3828125 101.78793457 14.3828125 107.06793457 14.3828125 112.50793457 C11.1319247 112.61589763 7.88462071 112.69522752 4.6328125 112.75793457 C3.71242187 112.7914502 2.79203125 112.82496582 1.84375 112.85949707 C0.50957031 112.87883301 0.50957031 112.87883301 -0.8515625 112.89855957 C-1.66850586 112.91950684 -2.48544922 112.9404541 -3.32714844 112.96203613 C-6.67574439 112.29802883 -7.59625099 111.28140925 -9.6171875 108.50793457 C-10.22606112 105.20118508 -10.16330058 101.9247826 -10.13476562 98.57043457 C-10.1417749 97.5619043 -10.14878418 96.55337402 -10.15600586 95.51428223 C-10.17361968 92.17855343 -10.1619506 88.84367209 -10.1484375 85.50793457 C-10.15113143 83.19152666 -10.15501301 80.87511985 -10.16003418 78.55871582 C-10.16593384 73.70313759 -10.15735088 68.84785361 -10.13867188 63.99230957 C-10.11588246 57.76428811 -10.12900298 51.53695612 -10.15296173 45.30895996 C-10.16740682 40.52545972 -10.16281955 35.7421233 -10.15245056 30.95861816 C-10.14977973 28.66206786 -10.1530655 26.36550274 -10.16236877 24.06896973 C-10.17251277 20.86072317 -10.15706233 17.65359751 -10.13476562 14.44543457 C-10.14286255 13.49362305 -10.15095947 12.54181152 -10.15930176 11.56115723 C-10.14802246 10.68636719 -10.13674316 9.81157715 -10.12512207 8.91027832 C-10.12361397 8.152229 -10.12210587 7.39417969 -10.12055206 6.61315918 C-8.82263972 1.18489265 -5.09814057 0.00773471 0 0 Z " fill="#000000" transform="translate(193.6171875,135.4920654296875)"/>
<path d="M0 0 C3.63303084 1.69586126 5.94549046 3.73800488 8.75 6.625 C9.54921875 7.44226563 10.3484375 8.25953125 11.171875 9.1015625 C11.77515625 9.72804687 12.3784375 10.35453125 13 11 C11.70949477 13.82779011 10.34597974 15.9140819 8.17431641 18.13208008 C7.60677643 18.71560745 7.03923645 19.29913483 6.45449829 19.90034485 C5.84302948 20.51717636 5.23156067 21.13400787 4.6015625 21.76953125 C3.97019379 22.40992844 3.33882507 23.05032562 2.68832397 23.71012878 C1.35452493 25.05840931 0.01791882 26.40391793 -1.32128906 27.74682617 C-3.37294379 29.81043182 -5.40520923 31.89195356 -7.4375 33.97460938 C-8.7358272 35.28239464 -10.03526905 36.58907447 -11.3359375 37.89453125 C-11.94335785 38.52148392 -12.5507782 39.14843658 -13.17660522 39.79438782 C-14.91552734 41.51489258 -14.91552734 41.51489258 -18 44 C-22.01479725 43.55920526 -23.99035361 41.47317277 -26.8125 38.6875 C-27.62332031 37.90761719 -28.43414062 37.12773437 -29.26953125 36.32421875 C-31 34 -31 34 -30.78736877 32.05523682 C-29.89351721 29.72205229 -28.90514446 28.54231838 -27.13256836 26.79199219 C-26.53202133 26.19167175 -25.9314743 25.59135132 -25.31272888 24.97283936 C-24.66167679 24.33727112 -24.01062469 23.70170288 -23.33984375 23.046875 C-22.67537735 22.38665344 -22.01091095 21.72643188 -21.3263092 21.04620361 C-19.20364437 18.9403236 -17.07078395 16.84511672 -14.9375 14.75 C-13.49606066 13.32360768 -12.05529691 11.8965323 -10.61523438 10.46875 C-7.08461168 6.97119406 -3.54480947 3.48317435 0 0 Z " fill="#000000" transform="translate(449,170)"/>
<path d="M0 0 C3.63303084 1.69586126 5.94549046 3.73800488 8.75 6.625 C9.54921875 7.44226563 10.3484375 8.25953125 11.171875 9.1015625 C11.77515625 9.72804687 12.3784375 10.35453125 13 11 C11.70949477 13.82779011 10.34597974 15.9140819 8.17431641 18.13208008 C7.60677643 18.71560745 7.03923645 19.29913483 6.45449829 19.90034485 C5.84302948 20.51717636 5.23156067 21.13400787 4.6015625 21.76953125 C3.97019379 22.40992844 3.33882507 23.05032562 2.68832397 23.71012878 C1.35452493 25.05840931 0.01791882 26.40391793 -1.32128906 27.74682617 C-3.37294379 29.81043182 -5.40520923 31.89195356 -7.4375 33.97460938 C-8.7358272 35.28239464 -10.03526905 36.58907447 -11.3359375 37.89453125 C-11.94335785 38.52148392 -12.5507782 39.14843658 -13.17660522 39.79438782 C-14.91552734 41.51489258 -14.91552734 41.51489258 -18 44 C-22.01479725 43.55920526 -23.99035361 41.47317277 -26.8125 38.6875 C-27.62332031 37.90761719 -28.43414062 37.12773437 -29.26953125 36.32421875 C-31 34 -31 34 -30.78736877 32.05523682 C-29.89351721 29.72205229 -28.90514446 28.54231838 -27.13256836 26.79199219 C-26.53202133 26.19167175 -25.9314743 25.59135132 -25.31272888 24.97283936 C-24.66167679 24.33727112 -24.01062469 23.70170288 -23.33984375 23.046875 C-22.67537735 22.38665344 -22.01091095 21.72643188 -21.3263092 21.04620361 C-19.20364437 18.9403236 -17.07078395 16.84511672 -14.9375 14.75 C-13.49606066 13.32360768 -12.05529691 11.8965323 -10.61523438 10.46875 C-7.08461168 6.97119406 -3.54480947 3.48317435 0 0 Z " fill="#000000" transform="translate(401,170)"/>
<path d="M0 0 C3.63303084 1.69586126 5.94549046 3.73800488 8.75 6.625 C9.54921875 7.44226562 10.3484375 8.25953125 11.171875 9.1015625 C11.77515625 9.72804688 12.3784375 10.35453125 13 11 C11.70949477 13.82779011 10.34597974 15.9140819 8.17431641 18.13208008 C7.60677643 18.71560745 7.03923645 19.29913483 6.45449829 19.90034485 C5.84302948 20.51717636 5.23156067 21.13400787 4.6015625 21.76953125 C3.97019379 22.40992844 3.33882507 23.05032562 2.68832397 23.71012878 C1.35452493 25.05840931 0.01791882 26.40391793 -1.32128906 27.74682617 C-3.37294379 29.81043182 -5.40520923 31.89195356 -7.4375 33.97460938 C-8.7358272 35.28239464 -10.03526905 36.58907447 -11.3359375 37.89453125 C-11.94335785 38.52148392 -12.5507782 39.14843658 -13.17660522 39.79438782 C-14.91552734 41.51489258 -14.91552734 41.51489258 -18 44 C-22.01479725 43.55920526 -23.99035361 41.47317277 -26.8125 38.6875 C-27.62332031 37.90761719 -28.43414062 37.12773438 -29.26953125 36.32421875 C-31 34 -31 34 -30.78736877 32.05523682 C-29.89351721 29.72205229 -28.90514446 28.54231838 -27.13256836 26.79199219 C-26.53202133 26.19167175 -25.9314743 25.59135132 -25.31272888 24.97283936 C-24.66167679 24.33727112 -24.01062469 23.70170288 -23.33984375 23.046875 C-22.67537735 22.38665344 -22.01091095 21.72643188 -21.3263092 21.04620361 C-19.20364437 18.9403236 -17.07078395 16.84511672 -14.9375 14.75 C-13.49606066 13.32360768 -12.05529691 11.8965323 -10.61523438 10.46875 C-7.08461168 6.97119406 -3.54480947 3.48317435 0 0 Z " fill="#000000" transform="translate(449,42)"/>
<path d="M0 0 C3.63303084 1.69586126 5.94549046 3.73800488 8.75 6.625 C9.54921875 7.44226562 10.3484375 8.25953125 11.171875 9.1015625 C11.77515625 9.72804688 12.3784375 10.35453125 13 11 C11.70949477 13.82779011 10.34597974 15.9140819 8.17431641 18.13208008 C7.60677643 18.71560745 7.03923645 19.29913483 6.45449829 19.90034485 C5.84302948 20.51717636 5.23156067 21.13400787 4.6015625 21.76953125 C3.97019379 22.40992844 3.33882507 23.05032562 2.68832397 23.71012878 C1.35452493 25.05840931 0.01791882 26.40391793 -1.32128906 27.74682617 C-3.37294379 29.81043182 -5.40520923 31.89195356 -7.4375 33.97460938 C-8.7358272 35.28239464 -10.03526905 36.58907447 -11.3359375 37.89453125 C-11.94335785 38.52148392 -12.5507782 39.14843658 -13.17660522 39.79438782 C-14.91552734 41.51489258 -14.91552734 41.51489258 -18 44 C-22.01479725 43.55920526 -23.99035361 41.47317277 -26.8125 38.6875 C-27.62332031 37.90761719 -28.43414062 37.12773438 -29.26953125 36.32421875 C-31 34 -31 34 -30.78736877 32.05523682 C-29.89351721 29.72205229 -28.90514446 28.54231838 -27.13256836 26.79199219 C-26.53202133 26.19167175 -25.9314743 25.59135132 -25.31272888 24.97283936 C-24.66167679 24.33727112 -24.01062469 23.70170288 -23.33984375 23.046875 C-22.67537735 22.38665344 -22.01091095 21.72643188 -21.3263092 21.04620361 C-19.20364437 18.9403236 -17.07078395 16.84511672 -14.9375 14.75 C-13.49606066 13.32360768 -12.05529691 11.8965323 -10.61523438 10.46875 C-7.08461168 6.97119406 -3.54480947 3.48317435 0 0 Z " fill="#000000" transform="translate(401,42)"/>
<path d="M0 0 C3.63303084 1.69586126 5.94549046 3.73800488 8.75 6.625 C9.54921875 7.44226563 10.3484375 8.25953125 11.171875 9.1015625 C11.77515625 9.72804687 12.3784375 10.35453125 13 11 C11.70280076 13.85779017 10.3363174 15.91008536 8.11083984 18.11621094 C7.5303891 18.69651062 6.94993835 19.2768103 6.35189819 19.87469482 C5.72788116 20.48838928 5.10386414 21.10208374 4.4609375 21.734375 C3.82008209 22.37240051 3.17922668 23.01042603 2.51895142 23.66778564 C0.47562179 25.69994069 -1.57455982 27.72502218 -3.625 29.75 C-5.0134786 31.1284453 -6.4015049 32.50734636 -7.7890625 33.88671875 C-11.18748697 37.26311894 -14.59207254 40.63319288 -18 44 C-21.63303084 42.30413874 -23.94549046 40.26199512 -26.75 37.375 C-27.54921875 36.55773437 -28.3484375 35.74046875 -29.171875 34.8984375 C-29.77515625 34.27195313 -30.3784375 33.64546875 -31 33 C-29.70280076 30.14220983 -28.3363174 28.08991464 -26.11083984 25.88378906 C-25.5303891 25.30348938 -24.94993835 24.7231897 -24.35189819 24.12530518 C-23.72788116 23.51161072 -23.10386414 22.89791626 -22.4609375 22.265625 C-21.82008209 21.62759949 -21.17922668 20.98957397 -20.51895142 20.33221436 C-18.47562179 18.30005931 -16.42544018 16.27497782 -14.375 14.25 C-12.9865214 12.8715547 -11.5984951 11.49265364 -10.2109375 10.11328125 C-6.81251303 6.73688106 -3.40792746 3.36680712 0 0 Z " fill="#000000" transform="translate(289,170)"/>
<path d="M0 0 C3.63303084 1.69586126 5.94549046 3.73800488 8.75 6.625 C9.54921875 7.44226563 10.3484375 8.25953125 11.171875 9.1015625 C11.77515625 9.72804687 12.3784375 10.35453125 13 11 C11.70280076 13.85779017 10.3363174 15.91008536 8.11083984 18.11621094 C7.5303891 18.69651062 6.94993835 19.2768103 6.35189819 19.87469482 C5.72788116 20.48838928 5.10386414 21.10208374 4.4609375 21.734375 C3.82008209 22.37240051 3.17922668 23.01042603 2.51895142 23.66778564 C0.47562179 25.69994069 -1.57455982 27.72502218 -3.625 29.75 C-5.0134786 31.1284453 -6.4015049 32.50734636 -7.7890625 33.88671875 C-11.18748697 37.26311894 -14.59207254 40.63319288 -18 44 C-21.63303084 42.30413874 -23.94549046 40.26199512 -26.75 37.375 C-27.54921875 36.55773437 -28.3484375 35.74046875 -29.171875 34.8984375 C-29.77515625 34.27195313 -30.3784375 33.64546875 -31 33 C-29.70280076 30.14220983 -28.3363174 28.08991464 -26.11083984 25.88378906 C-25.5303891 25.30348938 -24.94993835 24.7231897 -24.35189819 24.12530518 C-23.72788116 23.51161072 -23.10386414 22.89791626 -22.4609375 22.265625 C-21.82008209 21.62759949 -21.17922668 20.98957397 -20.51895142 20.33221436 C-18.47562179 18.30005931 -16.42544018 16.27497782 -14.375 14.25 C-12.9865214 12.8715547 -11.5984951 11.49265364 -10.2109375 10.11328125 C-6.81251303 6.73688106 -3.40792746 3.36680712 0 0 Z " fill="#000000" transform="translate(241,170)"/>
<path d="M0 0 C3.63303084 1.69586126 5.94549046 3.73800488 8.75 6.625 C9.54921875 7.44226563 10.3484375 8.25953125 11.171875 9.1015625 C11.77515625 9.72804687 12.3784375 10.35453125 13 11 C11.70280076 13.85779017 10.3363174 15.91008536 8.11083984 18.11621094 C7.5303891 18.69651062 6.94993835 19.2768103 6.35189819 19.87469482 C5.72788116 20.48838928 5.10386414 21.10208374 4.4609375 21.734375 C3.82008209 22.37240051 3.17922668 23.01042603 2.51895142 23.66778564 C0.47562179 25.69994069 -1.57455982 27.72502218 -3.625 29.75 C-5.0134786 31.1284453 -6.4015049 32.50734636 -7.7890625 33.88671875 C-11.18748697 37.26311894 -14.59207254 40.63319288 -18 44 C-21.63303084 42.30413874 -23.94549046 40.26199512 -26.75 37.375 C-27.54921875 36.55773437 -28.3484375 35.74046875 -29.171875 34.8984375 C-29.77515625 34.27195313 -30.3784375 33.64546875 -31 33 C-29.70280076 30.14220983 -28.3363174 28.08991464 -26.11083984 25.88378906 C-25.5303891 25.30348938 -24.94993835 24.7231897 -24.35189819 24.12530518 C-23.72788116 23.51161072 -23.10386414 22.89791626 -22.4609375 22.265625 C-21.82008209 21.62759949 -21.17922668 20.98957397 -20.51895142 20.33221436 C-18.47562179 18.30005931 -16.42544018 16.27497782 -14.375 14.25 C-12.9865214 12.8715547 -11.5984951 11.49265364 -10.2109375 10.11328125 C-6.81251303 6.73688106 -3.40792746 3.36680712 0 0 Z " fill="#000000" transform="translate(129,170)"/>
<path d="M0 0 C3.63303084 1.69586126 5.94549046 3.73800488 8.75 6.625 C9.54921875 7.44226563 10.3484375 8.25953125 11.171875 9.1015625 C11.77515625 9.72804687 12.3784375 10.35453125 13 11 C11.70280076 13.85779017 10.3363174 15.91008536 8.11083984 18.11621094 C7.5303891 18.69651062 6.94993835 19.2768103 6.35189819 19.87469482 C5.72788116 20.48838928 5.10386414 21.10208374 4.4609375 21.734375 C3.82008209 22.37240051 3.17922668 23.01042603 2.51895142 23.66778564 C0.47562179 25.69994069 -1.57455982 27.72502218 -3.625 29.75 C-5.0134786 31.1284453 -6.4015049 32.50734636 -7.7890625 33.88671875 C-11.18748697 37.26311894 -14.59207254 40.63319288 -18 44 C-21.63303084 42.30413874 -23.94549046 40.26199512 -26.75 37.375 C-27.54921875 36.55773437 -28.3484375 35.74046875 -29.171875 34.8984375 C-29.77515625 34.27195313 -30.3784375 33.64546875 -31 33 C-29.70280076 30.14220983 -28.3363174 28.08991464 -26.11083984 25.88378906 C-25.5303891 25.30348938 -24.94993835 24.7231897 -24.35189819 24.12530518 C-23.72788116 23.51161072 -23.10386414 22.89791626 -22.4609375 22.265625 C-21.82008209 21.62759949 -21.17922668 20.98957397 -20.51895142 20.33221436 C-18.47562179 18.30005931 -16.42544018 16.27497782 -14.375 14.25 C-12.9865214 12.8715547 -11.5984951 11.49265364 -10.2109375 10.11328125 C-6.81251303 6.73688106 -3.40792746 3.36680712 0 0 Z " fill="#000000" transform="translate(81,170)"/>
<path d="M0 0 C3.63303084 1.69586126 5.94549046 3.73800488 8.75 6.625 C9.54921875 7.44226562 10.3484375 8.25953125 11.171875 9.1015625 C11.77515625 9.72804688 12.3784375 10.35453125 13 11 C11.70280076 13.85779017 10.3363174 15.91008536 8.11083984 18.11621094 C7.5303891 18.69651062 6.94993835 19.2768103 6.35189819 19.87469482 C5.72788116 20.48838928 5.10386414 21.10208374 4.4609375 21.734375 C3.82008209 22.37240051 3.17922668 23.01042603 2.51895142 23.66778564 C0.47562179 25.69994069 -1.57455982 27.72502218 -3.625 29.75 C-5.0134786 31.1284453 -6.4015049 32.50734636 -7.7890625 33.88671875 C-11.18748697 37.26311894 -14.59207254 40.63319288 -18 44 C-21.63303084 42.30413874 -23.94549046 40.26199512 -26.75 37.375 C-27.54921875 36.55773437 -28.3484375 35.74046875 -29.171875 34.8984375 C-29.77515625 34.27195313 -30.3784375 33.64546875 -31 33 C-29.70280076 30.14220983 -28.3363174 28.08991464 -26.11083984 25.88378906 C-25.5303891 25.30348938 -24.94993835 24.7231897 -24.35189819 24.12530518 C-23.72788116 23.51161072 -23.10386414 22.89791626 -22.4609375 22.265625 C-21.82008209 21.62759949 -21.17922668 20.98957397 -20.51895142 20.33221436 C-18.47562179 18.30005931 -16.42544018 16.27497782 -14.375 14.25 C-12.9865214 12.8715547 -11.5984951 11.49265364 -10.2109375 10.11328125 C-6.81251303 6.73688106 -3.40792746 3.36680712 0 0 Z " fill="#000000" transform="translate(289,42)"/>
<path d="M0 0 C3.63303084 1.69586126 5.94549046 3.73800488 8.75 6.625 C9.54921875 7.44226562 10.3484375 8.25953125 11.171875 9.1015625 C11.77515625 9.72804688 12.3784375 10.35453125 13 11 C11.70280076 13.85779017 10.3363174 15.91008536 8.11083984 18.11621094 C7.5303891 18.69651062 6.94993835 19.2768103 6.35189819 19.87469482 C5.72788116 20.48838928 5.10386414 21.10208374 4.4609375 21.734375 C3.82008209 22.37240051 3.17922668 23.01042603 2.51895142 23.66778564 C0.47562179 25.69994069 -1.57455982 27.72502218 -3.625 29.75 C-5.0134786 31.1284453 -6.4015049 32.50734636 -7.7890625 33.88671875 C-11.18748697 37.26311894 -14.59207254 40.63319288 -18 44 C-21.63303084 42.30413874 -23.94549046 40.26199512 -26.75 37.375 C-27.54921875 36.55773437 -28.3484375 35.74046875 -29.171875 34.8984375 C-29.77515625 34.27195313 -30.3784375 33.64546875 -31 33 C-29.70280076 30.14220983 -28.3363174 28.08991464 -26.11083984 25.88378906 C-25.5303891 25.30348938 -24.94993835 24.7231897 -24.35189819 24.12530518 C-23.72788116 23.51161072 -23.10386414 22.89791626 -22.4609375 22.265625 C-21.82008209 21.62759949 -21.17922668 20.98957397 -20.51895142 20.33221436 C-18.47562179 18.30005931 -16.42544018 16.27497782 -14.375 14.25 C-12.9865214 12.8715547 -11.5984951 11.49265364 -10.2109375 10.11328125 C-6.81251303 6.73688106 -3.40792746 3.36680712 0 0 Z " fill="#000000" transform="translate(241,42)"/>
<path d="M0 0 C3.63303084 1.69586126 5.94549046 3.73800488 8.75 6.625 C9.54921875 7.44226562 10.3484375 8.25953125 11.171875 9.1015625 C11.77515625 9.72804688 12.3784375 10.35453125 13 11 C11.70280076 13.85779017 10.3363174 15.91008536 8.11083984 18.11621094 C7.5303891 18.69651062 6.94993835 19.2768103 6.35189819 19.87469482 C5.72788116 20.48838928 5.10386414 21.10208374 4.4609375 21.734375 C3.82008209 22.37240051 3.17922668 23.01042603 2.51895142 23.66778564 C0.47562179 25.69994069 -1.57455982 27.72502218 -3.625 29.75 C-5.0134786 31.1284453 -6.4015049 32.50734636 -7.7890625 33.88671875 C-11.18748697 37.26311894 -14.59207254 40.63319288 -18 44 C-21.63303084 42.30413874 -23.94549046 40.26199512 -26.75 37.375 C-27.54921875 36.55773437 -28.3484375 35.74046875 -29.171875 34.8984375 C-29.77515625 34.27195313 -30.3784375 33.64546875 -31 33 C-29.70280076 30.14220983 -28.3363174 28.08991464 -26.11083984 25.88378906 C-25.5303891 25.30348938 -24.94993835 24.7231897 -24.35189819 24.12530518 C-23.72788116 23.51161072 -23.10386414 22.89791626 -22.4609375 22.265625 C-21.82008209 21.62759949 -21.17922668 20.98957397 -20.51895142 20.33221436 C-18.47562179 18.30005931 -16.42544018 16.27497782 -14.375 14.25 C-12.9865214 12.8715547 -11.5984951 11.49265364 -10.2109375 10.11328125 C-6.81251303 6.73688106 -3.40792746 3.36680712 0 0 Z " fill="#000000" transform="translate(129,42)"/>
<path d="M0 0 C3.63303084 1.69586126 5.94549046 3.73800488 8.75 6.625 C9.54921875 7.44226562 10.3484375 8.25953125 11.171875 9.1015625 C11.77515625 9.72804688 12.3784375 10.35453125 13 11 C11.70280076 13.85779017 10.3363174 15.91008536 8.11083984 18.11621094 C7.5303891 18.69651062 6.94993835 19.2768103 6.35189819 19.87469482 C5.72788116 20.48838928 5.10386414 21.10208374 4.4609375 21.734375 C3.82008209 22.37240051 3.17922668 23.01042603 2.51895142 23.66778564 C0.47562179 25.69994069 -1.57455982 27.72502218 -3.625 29.75 C-5.0134786 31.1284453 -6.4015049 32.50734636 -7.7890625 33.88671875 C-11.18748697 37.26311894 -14.59207254 40.63319288 -18 44 C-21.63303084 42.30413874 -23.94549046 40.26199512 -26.75 37.375 C-27.54921875 36.55773437 -28.3484375 35.74046875 -29.171875 34.8984375 C-29.77515625 34.27195313 -30.3784375 33.64546875 -31 33 C-29.70280076 30.14220983 -28.3363174 28.08991464 -26.11083984 25.88378906 C-25.5303891 25.30348938 -24.94993835 24.7231897 -24.35189819 24.12530518 C-23.72788116 23.51161072 -23.10386414 22.89791626 -22.4609375 22.265625 C-21.82008209 21.62759949 -21.17922668 20.98957397 -20.51895142 20.33221436 C-18.47562179 18.30005931 -16.42544018 16.27497782 -14.375 14.25 C-12.9865214 12.8715547 -11.5984951 11.49265364 -10.2109375 10.11328125 C-6.81251303 6.73688106 -3.40792746 3.36680712 0 0 Z " fill="#000000" transform="translate(81,42)"/>
</svg>
