<?xml version="1.0" encoding="UTF-8"?>
<svg version="1.1" xmlns="http://www.w3.org/2000/svg" width="512" height="512">
<path d="M0 0 C4.56153718 2.08741757 8.83448398 4.60116191 13.125 7.1875 C14.38002836 7.92676272 15.63598294 8.66445512 16.89282227 9.40063477 C20.03148327 11.24403287 23.15841162 13.10633398 26.28216553 14.97485352 C28.75040506 16.44781678 31.22842842 17.90393445 33.70703125 19.359375 C37.23427919 21.43290199 40.75598873 23.51536283 44.2734375 25.60546875 C50.85470314 29.51273301 57.45822289 33.38182579 64.0625 37.25 C65.29809975 37.97387004 66.53369544 38.69774702 67.76928711 39.42163086 C70.2668392 40.88475295 72.76449732 42.34769387 75.26220703 43.81054688 C80.74057987 47.01929537 86.21752247 50.2304835 91.69454956 53.44152832 C94.7129722 55.21112266 97.73149105 56.98055288 100.75 58.75 C101.95833379 59.45833255 103.16666713 60.16666588 104.375 60.875 C104.973125 61.225625 105.57125 61.57625 106.1875 61.9375 C169.62499998 99.12499999 169.62499998 99.12499999 171.43743896 100.18746948 C172.64596963 100.89591498 173.85450641 101.60435004 175.06304932 102.31277466 C178.08091377 104.0818063 181.09867216 105.85101836 184.11621094 107.62060547 C190.20533257 111.19120656 196.29629276 114.75861146 202.390625 118.3203125 C214.32628635 125.2975716 226.2477036 132.29875922 238.125 139.375 C239.18041992 139.99971191 240.23583984 140.62442383 241.32324219 141.26806641 C242.29165039 141.84733887 243.26005859 142.42661133 244.2578125 143.0234375 C245.1048877 143.52794434 245.95196289 144.03245117 246.82470703 144.55224609 C248.95184536 145.96795095 250.43287253 146.98741297 252 149 C252.37719816 151.66991132 252.37719816 151.66991132 252.38031673 154.96460629 C252.38875668 156.21865165 252.39719662 157.47269701 252.40589231 158.76474375 C252.40009651 160.16412212 252.39401545 161.56349933 252.38768005 162.96287537 C252.39185028 164.44342121 252.39732608 165.92396387 252.40399987 167.40450054 C252.41851423 171.48322827 252.41419119 175.56175497 252.40683305 179.64049399 C252.40211841 184.0352614 252.41459607 188.42998425 252.42485046 192.82473755 C252.4420774 201.43840489 252.44287042 210.05199941 252.43763756 218.66567951 C252.43360185 225.66453324 252.43503227 232.6633654 252.44038582 239.66221809 C252.44113424 240.65701142 252.44188266 241.65180474 252.44265376 242.67674332 C252.44418519 244.6974388 252.44572353 246.71813427 252.44726873 248.73882974 C252.46100787 267.70358233 252.45554617 286.66829372 252.44408352 305.63304538 C252.43414965 322.99605019 252.44709197 340.35894845 252.47101771 357.72193681 C252.49538015 375.5355777 252.50502362 393.3491689 252.49836498 411.16282612 C252.4948664 421.16972867 252.49714684 431.17654926 252.51461601 441.18343925 C252.52930236 449.70217006 252.53002034 458.22076117 252.5125451 466.73948913 C252.50400317 471.08834027 252.50196291 475.43694152 252.51719666 479.78577995 C252.53095936 483.76382649 252.52639028 487.74140705 252.50695742 491.71942604 C252.50317103 493.16152311 252.50619468 494.60365675 252.51656907 496.04572146 C252.52963491 498.00029544 252.51583608 499.95499454 252.50057125 501.90955257 C252.50046391 502.99696426 252.50035658 504.08437595 252.50024599 505.20473951 C251.87889167 508.67672572 250.74800983 509.85691659 248 512 C245.61647034 512.5146637 245.61647034 512.5146637 242.94360352 512.53344727 C241.93898575 512.5492836 240.93436798 512.56511993 239.89930725 512.58143616 C238.82007492 512.57647629 237.74084259 512.57151642 236.62890625 512.56640625 C235.51442612 512.57260483 234.39994598 512.57880341 233.25169373 512.58518982 C230.89558791 512.5922914 228.53943194 512.58910817 226.18334961 512.57641602 C222.57897479 512.56256332 218.97720187 512.59660427 215.37304688 512.63476562 C213.0833327 512.63571693 210.79361527 512.63385739 208.50390625 512.62890625 C207.42669815 512.64216446 206.34949005 512.65542267 205.23963928 512.66908264 C204.23186935 512.65654953 203.22409943 512.64401642 202.18579102 512.63110352 C200.86152855 512.62966087 200.86152855 512.62966087 199.51051331 512.62818909 C195.73969842 511.6846431 194.38342491 510.0546942 192 507 C191.27724728 503.84969471 191.34613393 500.77365759 191.39872742 497.55314636 C191.39444733 496.5997084 191.39016724 495.64627045 191.38575745 494.66394043 C191.37747645 491.45671981 191.40510328 488.25080261 191.43237305 485.04370117 C191.43390456 482.71022489 191.43323754 480.3767463 191.43054676 478.04327106 C191.42941691 471.78839854 191.45841736 465.53400328 191.49359894 459.27924347 C191.52205204 453.41226174 191.52341332 447.54539669 191.52697754 441.67834473 C191.55322495 424.51466648 191.62303061 407.35107723 191.6875 390.1875 C191.790625 351.845625 191.89375 313.50375 192 274 C62.64 274 -66.72 274 -200 274 C-199.80196131 350.45553194 -199.80196131 350.45553194 -199.54956055 426.91088867 C-199.52697754 441.67834473 -199.52697754 441.67834473 -199.52278137 448.58564758 C-199.518112 453.42304384 -199.49933101 458.26016736 -199.47212219 463.0974884 C-199.43790397 469.26235388 -199.42752967 475.42682104 -199.43463862 481.59177268 C-199.43315145 483.85768854 -199.42319059 486.1236179 -199.40392435 488.38945234 C-199.37914808 491.44452527 -199.3850127 494.49803959 -199.39872742 497.55314636 C-199.38416409 498.44491735 -199.36960077 499.33668833 -199.35459614 500.25548267 C-199.40824823 504.6850555 -199.56905343 506.44768136 -202.38067245 510.05116653 C-205.29746381 512.22131918 -206.59877784 512.62719585 -210.18579102 512.63110352 C-211.19356094 512.64363663 -212.20133087 512.65616974 -213.23963928 512.66908264 C-214.85545143 512.64919533 -214.85545143 512.64919533 -216.50390625 512.62890625 C-217.61934311 512.63131821 -218.73477997 512.63373016 -219.88401794 512.63621521 C-222.23838868 512.63523704 -224.5927825 512.62185088 -226.94702148 512.59692383 C-230.55336448 512.56258698 -234.15726127 512.57627548 -237.76367188 512.59570312 C-240.05209378 512.58880555 -242.34050935 512.57913398 -244.62890625 512.56640625 C-245.70813858 512.57136612 -246.78737091 512.57632599 -247.89930725 512.58143616 C-249.4062339 512.55768166 -249.4062339 512.55768166 -250.94360352 512.53344727 C-251.82564957 512.52724869 -252.70769562 512.52105011 -253.61647034 512.5146637 C-256.8659806 511.81301312 -257.93557765 510.58339614 -260 508 C-260.50254732 505.15574461 -260.50254732 505.15574461 -260.50615788 501.79020023 C-260.51720556 500.50691336 -260.52825325 499.22362648 -260.53963572 497.90145212 C-260.5316781 496.47426209 -260.5233404 495.04707414 -260.5146637 493.61988831 C-260.51998686 492.10619092 -260.52705121 490.59249881 -260.53571075 489.07881683 C-260.55439586 484.91301672 -260.54801308 480.74757068 -260.53755772 476.58175552 C-260.53058226 472.09154052 -260.54655105 467.60139949 -260.55955505 463.11120605 C-260.58122824 454.31216814 -260.58105966 445.51325939 -260.57292951 436.71420354 C-260.56663662 429.56425202 -260.56776 422.41433824 -260.57420158 415.26438713 C-260.57510324 414.24781513 -260.57600489 413.23124313 -260.57693387 412.18386592 C-260.57878502 410.1188817 -260.58064758 408.05389749 -260.58252143 405.98891329 C-260.59911152 386.61207876 -260.59037048 367.23531699 -260.57353585 347.85848682 C-260.55883844 330.12113988 -260.57346575 312.38396233 -260.60230602 294.64663721 C-260.63168085 276.44535818 -260.64267785 258.24415738 -260.63312382 240.04285568 C-260.63210124 237.98504668 -260.63110663 235.92723766 -260.6301403 233.86942863 C-260.62966391 232.85688368 -260.62918752 231.84433872 -260.6286967 230.80111058 C-260.62653 223.65847462 -260.63635024 216.5159125 -260.65091133 209.37329292 C-260.66840508 200.67050065 -260.66835996 191.96792439 -260.64555968 183.26514072 C-260.63439038 178.82295164 -260.63131543 174.38114352 -260.64986038 169.93897057 C-260.6666106 165.87446916 -260.66038915 161.81068259 -260.63564359 157.74622797 C-260.6307418 156.27386234 -260.63432621 154.80143965 -260.64713103 153.32912154 C-260.66325543 151.33134779 -260.64571107 149.33338651 -260.62641239 147.33564091 C-260.6261427 146.22484891 -260.62587301 145.11405691 -260.62559515 143.96960455 C-259.79676432 140.03527128 -258.02882931 138.5532346 -255 136 C-252.59423828 134.4453125 -252.59423828 134.4453125 -250.0703125 133.125 C-249.12236816 132.62170166 -248.17442383 132.11840332 -247.19775391 131.59985352 C-245.67674072 130.80792603 -245.67674072 130.80792603 -244.125 130 C-241.94691021 128.84434282 -239.76985086 127.68674175 -237.59375 126.52734375 C-236.4903125 125.94065918 -235.386875 125.35397461 -234.25 124.74951172 C-229.32903918 122.10050291 -224.47708477 119.33505924 -219.625 116.5625 C-210.27208798 111.23564917 -200.82491717 106.10153645 -191.33813477 101.01757812 C-183.01369219 96.55465695 -174.74255128 92.00621293 -166.49902344 87.39599609 C-161.39975185 84.5474581 -156.29322071 81.71195696 -151.1875 78.875 C-150.04273193 78.23884766 -148.89796387 77.60269531 -147.71850586 76.94726562 C-135.71230037 70.27776575 -123.68540906 63.64586909 -111.65722656 57.01611328 C-106.20739394 54.0120725 -100.75899316 51.00543653 -95.31048584 47.99899292 C-92.29038271 46.33255534 -89.27018665 44.66628621 -86.25 43 C-85.04166622 42.33333414 -83.83333289 41.66666747 -82.625 41 C-75.375 37 -75.375 37 -73.56274414 36.00013733 C-72.35359404 35.33301828 -71.14444691 34.66589384 -69.93530273 33.99876404 C-66.92699022 32.33897487 -63.91862727 30.67927725 -60.91015625 29.01977539 C-55.323685 25.93809957 -49.73768855 22.85557343 -44.15344238 19.76986694 C-41.55911257 18.33638092 -38.96450239 16.90340276 -36.36987305 15.47045898 C-35.15114686 14.79720784 -33.93255306 14.12371697 -32.71411133 13.44995117 C-29.91069074 11.89976882 -27.10498961 10.35437229 -24.29296875 8.81982422 C-22.02946192 7.5689212 -19.78267777 6.28742534 -17.55078125 4.98095703 C-5.67211946 -1.82808601 -5.67211946 -1.82808601 0 0 Z M-10.51953125 21.9375 C-11.67235596 22.5771167 -12.82518066 23.2167334 -14.01293945 23.87573242 C-15.27946925 24.58380441 -16.54598916 25.29189409 -17.8125 26 C-19.12108504 26.72742445 -20.42992686 27.45438714 -21.73901367 28.1809082 C-24.46636946 29.69508341 -27.19259807 31.2112587 -29.91796875 32.72900391 C-35.60549199 35.89504728 -41.3028179 39.04329811 -47.00198364 42.18832397 C-48.21343684 42.85689291 -49.42476 43.52569754 -50.63595581 44.19473267 C-58.85870605 48.73643608 -67.10593848 53.23055636 -75.375 57.6875 C-84.0996752 62.39095543 -92.742501 67.22370656 -101.35693359 72.12573242 C-109.18757494 76.57013243 -117.09528428 80.86073549 -125.02392578 85.12719727 C-131.85680102 88.81363028 -138.62899111 92.59468942 -145.375 96.4375 C-154.72871274 101.76298917 -164.17504138 106.89844134 -173.66186523 111.98242188 C-181.96440401 116.43359993 -190.21352733 120.97024402 -198.43505859 125.56884766 C-201.49136829 127.27416723 -204.55216385 128.97129451 -207.61328125 130.66796875 C-208.80282567 131.32753745 -209.9923601 131.98712419 -211.18188477 132.64672852 C-213.48279822 133.92260195 -215.78412009 135.1977283 -218.08569336 136.47241211 C-226.096348 140.91773102 -234.04402579 145.45372902 -242 150 C-242 263.52 -242 377.04 -242 494 C-234.08 494 -226.16 494 -218 494 C-217.99191315 490.25045959 -217.98382629 486.50091919 -217.97549438 482.63775635 C-217.9004622 448.27500211 -217.81558986 413.9122835 -217.71994839 379.54958023 C-217.70742912 375.04835317 -217.6949964 370.54712588 -217.68261719 366.04589844 C-217.68015119 365.14976325 -217.6776852 364.25362806 -217.67514448 363.33033726 C-217.63539171 348.80923128 -217.60265553 334.2881175 -217.57250018 319.76698878 C-217.54141561 304.87338252 -217.5028191 289.97980947 -217.45720994 275.08624053 C-217.42929152 265.89184045 -217.40727306 256.69746474 -217.39273749 247.50303361 C-217.38221715 241.20301759 -217.36441792 234.9030487 -217.34083296 228.60306814 C-217.32743085 224.96518053 -217.31729732 221.32735913 -217.31578636 217.6894455 C-217.31406638 213.74962516 -217.29704929 209.80995714 -217.2784729 205.87017822 C-217.28040763 204.7145451 -217.28234237 203.55891198 -217.28433573 202.36825967 C-217.27313749 200.78878537 -217.27313749 200.78878537 -217.26171303 199.1774025 C-217.25943471 198.26759259 -217.25715638 197.35778267 -217.25480902 196.42040277 C-216.97112706 193.72573916 -216.58516421 192.20310144 -215 190 C-211.04857628 187.76818603 -207.43781069 187.7494826 -202.96437073 187.74831772 C-202.26448953 187.74541084 -201.56460833 187.74250396 -200.84351861 187.73950899 C-198.49267842 187.7321962 -196.14209817 187.73915824 -193.79125977 187.74603271 C-192.09108884 187.74372879 -190.39091891 187.74055272 -188.69075108 187.73657823 C-184.01422548 187.72821223 -179.33778129 187.73236369 -174.66125536 187.73855066 C-169.61961338 187.74306677 -164.57798561 187.73609558 -159.53634644 187.73059082 C-149.65795904 187.72168617 -139.779602 187.7236236 -129.90121341 187.7294161 C-121.87457959 187.73392837 -113.8479543 187.73454738 -105.82131958 187.73236847 C-104.67999181 187.732062 -103.53866405 187.73175554 -102.36275059 187.73143978 C-100.04434291 187.73080035 -97.72593524 187.73015192 -95.40752757 187.7294946 C-73.65530374 187.72378817 -51.90309675 187.73035411 -30.15087569 187.74109533 C-11.47655192 187.75003113 7.19774699 187.74847917 25.87207031 187.73925781 C47.5451616 187.72856071 69.21823811 187.72433752 90.89133167 187.73048234 C93.20132764 187.73111945 95.51132361 187.7317482 97.82131958 187.73236847 C99.52627198 187.7328313 99.52627198 187.7328313 101.26566786 187.73330347 C109.28493411 187.73503209 117.30419101 187.73211171 125.32345581 187.72740936 C135.09298685 187.72180675 144.86248574 187.72330391 154.63201308 187.73397085 C159.61889144 187.73923592 164.60571615 187.74127011 169.59259415 187.73467255 C174.1546032 187.72872825 178.71650869 187.73196302 183.27850831 187.74262765 C184.93186787 187.74486814 186.58523611 187.74371092 188.23859012 187.73887607 C190.48064252 187.7328209 192.72233719 187.73900567 194.96437073 187.74831772 C196.83479459 187.74880478 196.83479459 187.74880478 198.7430048 187.74930167 C201.99847838 187.99988288 204.16192303 188.39701832 207 190 C209.13875623 192.97249768 209.25270625 195.58069735 209.26171303 199.1774025 C209.26917852 200.23038536 209.27664401 201.28336823 209.28433573 202.36825967 C209.28143363 204.10170935 209.28143363 204.10170935 209.2784729 205.87017822 C209.2842653 207.09866163 209.2900577 208.32714504 209.29602563 209.59285522 C209.3101069 213.00435026 209.31525731 216.4156494 209.31667423 219.8271594 C209.32036507 223.50540232 209.33551896 227.18359991 209.34928894 230.86181641 C209.37157554 237.23510515 209.38658039 243.60837779 209.39665604 249.98169708 C209.41123426 259.1964697 209.43676867 268.41118624 209.46498732 277.62592599 C209.5104709 292.5757978 209.54707923 307.52567768 209.578125 322.47558594 C209.60830413 336.99903785 209.64265147 351.52247002 209.68261719 366.04589844 C209.68630951 367.38847011 209.68630951 367.38847011 209.69007643 368.75816444 C209.7024509 373.24830347 209.71490746 377.73844226 209.72740483 382.22858095 C209.83099608 419.48569402 209.91964528 456.7428301 210 494 C217.92 494 225.84 494 234 494 C234 383.12 234 272.24 234 158 C227.07 154.04 220.14 150.08 213 146 C208.59571608 143.40823891 204.19843565 140.80955334 199.8125 138.1875 C190.80933407 132.82799565 181.7717966 127.53377219 172.6875 122.3125 C163.93183196 117.27932896 155.20992602 112.19509149 146.52246094 107.04516602 C139.00730918 102.59087014 131.47536805 98.16569116 123.9375 93.75 C123.32723969 93.39246643 122.71697937 93.03493286 122.08822632 92.66656494 C118.97154708 90.84063579 115.85471432 89.01496894 112.73779297 87.18945312 C107.25942013 83.98070463 101.78247753 80.7695165 96.30545044 77.55847168 C93.2870278 75.78887734 90.26850895 74.01944712 87.25 72.25 C86.04166621 71.54166745 84.83333287 70.83333412 83.625 70.125 C83.026875 69.774375 82.42875 69.42375 81.8125 69.0625 C76.375 65.875 76.375 65.875 74.56256104 64.81253052 C73.35403037 64.10408502 72.14549359 63.39564996 70.93695068 62.68722534 C67.91908623 60.9181937 64.90132784 59.14898164 61.88378906 57.37939453 C56.41110691 54.1702675 50.93764368 50.96251078 45.46025085 47.76142883 C42.9986637 46.32275829 40.53752556 44.88332124 38.0765686 43.443573 C36.86620308 42.73548904 35.65573476 42.02758077 34.44515991 41.31985474 C27.83519675 37.45392171 21.24445715 33.55941646 14.69140625 29.59765625 C14.10650421 29.24445312 13.52160217 28.89125 12.91897583 28.52734375 C10.1383654 26.84729093 7.36126016 25.16184864 4.58886719 23.46826172 C3.61723633 22.87932129 2.64560547 22.29038086 1.64453125 21.68359375 C0.79221924 21.16337646 -0.06009277 20.64315918 -0.93823242 20.10717773 C-4.8697919 17.995914 -6.8430347 19.88825759 -10.51953125 21.9375 Z M-200 205 C-200 210.28 -200 215.56 -200 221 C-70.64 221 58.72 221 192 221 C192 215.72 192 210.44 192 205 C62.64 205 -66.72 205 -200 205 Z M-200 239 C-200 244.61 -200 250.22 -200 256 C-70.64 256 58.72 256 192 256 C192 250.39 192 244.78 192 239 C62.64 239 -66.72 239 -200 239 Z " fill="#000000" transform="translate(260,0)"/>
<path d="M0 0 C0.93093979 -0.00852997 1.86187958 -0.01705994 2.82102966 -0.02584839 C3.84548691 -0.02494202 4.86994415 -0.02403564 5.92544556 -0.02310181 C7.00195877 -0.02981903 8.07847198 -0.03653625 9.18760681 -0.04345703 C12.76123619 -0.06252037 16.33467859 -0.06636549 19.90835571 -0.06851196 C22.38456298 -0.07493426 24.86076946 -0.08166218 27.3369751 -0.08868408 C32.53396362 -0.10067785 37.73088557 -0.10436276 42.92788696 -0.10317993 C49.59535067 -0.10184653 56.26232514 -0.13027782 62.92970848 -0.16472435 C68.0460202 -0.18693561 73.16222852 -0.19101924 78.27858353 -0.18996048 C80.73703097 -0.19232518 83.1954809 -0.20119724 85.65388107 -0.21662521 C89.08975997 -0.23616721 92.52470871 -0.23049284 95.96060181 -0.21841431 C96.98101059 -0.22965332 98.00141937 -0.24089233 99.05274963 -0.25247192 C105.92559106 -0.19091163 105.92559106 -0.19091163 109.17315674 2.11029053 C111.96555514 6.41511879 111.71823546 10.54567638 111.71286011 15.49102783 C111.71583123 16.33944217 111.71880235 17.1878565 111.72186351 18.06198037 C111.73056094 20.91546547 111.73205963 23.76890868 111.73355103 26.62240601 C111.73817841 28.66397186 111.74320296 30.70553685 111.74859619 32.74710083 C111.76172872 38.30080046 111.76816666 43.854488 111.77260685 49.40820074 C111.77553583 52.87587618 111.77964028 56.3435483 111.78411102 59.81122208 C111.79778739 70.6549277 111.80745371 81.49862575 111.81131291 92.3423394 C111.81579598 104.8709792 111.83335485 117.39951002 111.86231351 129.92811668 C111.88390748 139.60545987 111.89401595 149.28277235 111.89535403 158.96013939 C111.89640358 164.7433752 111.90234334 170.52650859 111.92017365 176.30971909 C111.9366151 181.7482897 111.93882893 187.18668047 111.93003464 192.62526703 C111.92926219 194.62274532 111.93363419 196.62023312 111.94349289 198.61768723 C111.95615172 201.34195939 111.95036871 204.06558873 111.93991089 206.78985596 C111.9519955 207.97891598 111.9519955 207.97891598 111.96432424 209.19199741 C111.9121799 214.98934545 110.63335615 218.2064876 106.57241821 222.26742554 C103.77587507 222.47179503 101.07754187 222.54982646 98.2792511 222.5415802 C97.41127343 222.54681688 96.54329575 222.55205356 95.64901572 222.55744892 C92.7232909 222.57252176 89.79773984 222.57315567 86.87197876 222.57382202 C84.78129783 222.58143867 82.69061972 222.5898653 80.59994507 222.5990448 C74.9077552 222.62104673 69.21561908 222.62979645 63.52339149 222.63487124 C59.96978408 222.63850839 56.41619089 222.6447451 52.86258888 222.65187263 C40.47264611 222.67638782 28.08274533 222.6894233 15.69277954 222.69296265 C4.13202805 222.69659856 -7.42845805 222.72649279 -18.98912841 222.76836723 C-28.90424843 222.80302597 -38.81928032 222.81851033 -48.73446053 222.81920868 C-54.66086133 222.82000306 -60.58699208 222.82881558 -66.51333046 222.85720634 C-72.08741531 222.88331089 -77.6610048 222.88563464 -83.23512268 222.8695507 C-85.28259546 222.86773009 -87.33009622 222.87448184 -89.37750816 222.89036942 C-92.17008498 222.91072033 -94.96091074 222.90034311 -97.75346375 222.88215637 C-98.97272906 222.90195632 -98.97272906 222.90195632 -100.21662599 222.92215627 C-104.20465042 222.86271648 -106.20080791 222.43670309 -109.43045235 220.0259037 C-111.51228191 217.15043591 -112.05322745 215.99342069 -112.05577087 212.51704407 C-112.06842484 211.59039444 -112.0810788 210.66374481 -112.09411621 209.70901489 C-112.08242401 208.70469421 -112.07073181 207.70037354 -112.0586853 206.6656189 C-112.06584061 205.59842117 -112.07299591 204.53122345 -112.08036804 203.4316864 C-112.09726778 199.90644443 -112.0778448 196.38247168 -112.05648804 192.85726929 C-112.05731655 190.40776972 -112.05977525 187.95827021 -112.063797 185.5087738 C-112.06665582 180.37664036 -112.05194362 175.24494315 -112.02450562 170.11288452 C-111.99040549 163.52952485 -111.99644665 156.94694441 -112.01516819 150.36354733 C-112.02572804 145.30638618 -112.01680975 140.24940688 -112.00178337 135.19226265 C-111.9965949 132.76453758 -111.99709139 130.33679357 -112.00332832 127.90907097 C-112.00876871 124.51890983 -111.98844207 121.12987097 -111.96102905 117.73983765 C-111.96755493 116.73349274 -111.97408081 115.72714783 -111.98080444 114.69030762 C-111.88716258 107.89165653 -111.88716258 107.89165653 -109.51924133 104.67539978 C-105.22125258 101.78226286 -101.42758331 102.13355317 -96.38803101 102.15390015 C-95.45139618 102.15375412 -94.51476135 102.15360809 -93.54974365 102.15345764 C-90.44389557 102.1541561 -87.33810694 102.16194539 -84.23226929 102.16976929 C-82.08278435 102.1716337 -79.93329899 102.1730575 -77.78381348 102.17405701 C-72.1186303 102.17788032 -66.45347264 102.18770903 -60.78829956 102.19876099 C-55.01051173 102.2089791 -49.23271979 102.21355549 -43.45492554 102.21859741 C-32.11246639 102.22933145 -20.77002621 102.24640565 -9.42758179 102.26742554 C-9.43757454 100.49882927 -9.43757454 100.49882927 -9.44776917 98.69450378 C-9.50857228 87.58540105 -9.55355065 76.47633206 -9.5830183 65.36710072 C-9.59867718 59.65566386 -9.61991975 53.94436128 -9.65390015 48.23300171 C-9.68648531 42.7216885 -9.70443313 37.2105045 -9.71221352 31.6991024 C-9.71775851 29.59594374 -9.72858644 27.49279218 -9.74477196 25.38968849 C-9.76653477 22.44488848 -9.76954916 19.50062305 -9.76815796 16.55575562 C-9.77894379 15.68541183 -9.78972961 14.81506805 -9.80084229 13.91835022 C-9.76514231 6.93920096 -8.09037444 0.03341463 0 0 Z M8.57241821 18.26742554 C8.57241821 45.98742554 8.57241821 73.70742554 8.57241821 102.26742554 C36.62241821 102.26742554 64.67241821 102.26742554 93.57241821 102.26742554 C93.57241821 74.54742554 93.57241821 46.82742554 93.57241821 18.26742554 C88.29241821 18.26742554 83.01241821 18.26742554 77.57241821 18.26742554 C77.49894165 20.87004272 77.49894165 20.87004272 77.42398071 23.52523804 C77.34892898 25.81431597 77.27338219 28.1033777 77.19741821 30.39242554 C77.16648071 31.53453491 77.13554321 32.67664429 77.10366821 33.85336304 C77.06499634 34.96195679 77.02632446 36.07055054 76.98648071 37.21273804 C76.93934937 38.73665161 76.93934937 38.73665161 76.89126587 40.29135132 C76.53455783 43.62080843 75.99656784 46.22725792 74.57241821 49.26742554 C70.45128983 51.9540053 65.67331435 51.55736152 60.91226196 51.53305054 C59.67192955 51.53592072 59.67192955 51.53592072 58.40653992 51.53884888 C56.66422215 51.54020588 54.92189411 51.53654338 53.17959595 51.52816772 C50.51538388 51.51744753 47.85184398 51.52808632 45.18765259 51.54086304 C43.49168756 51.53954162 41.79572295 51.5369796 40.09976196 51.53305054 C39.30488876 51.537099 38.51001556 51.54114746 37.6910553 51.5453186 C30.29389411 51.48266769 30.29389411 51.48266769 27.57241821 49.26742554 C25.55655045 45.58024499 25.28117291 42.24695953 25.15835571 38.09164429 C25.11968384 36.93471069 25.08101196 35.7777771 25.04116821 34.58578491 C25.01023071 33.38760132 24.97929321 32.18941772 24.94741821 30.95492554 C24.90874634 29.73740601 24.87007446 28.51988647 24.83023071 27.26547241 C24.73614117 24.26636811 24.6531983 21.26691783 24.57241821 18.26742554 C19.29241821 18.26742554 14.01241821 18.26742554 8.57241821 18.26742554 Z M42.57241821 18.26742554 C42.57241821 23.54742554 42.57241821 28.82742554 42.57241821 34.26742554 C48.18241821 34.26742554 53.79241821 34.26742554 59.57241821 34.26742554 C59.57241821 28.98742554 59.57241821 23.70742554 59.57241821 18.26742554 C53.96241821 18.26742554 48.35241821 18.26742554 42.57241821 18.26742554 Z M-93.42758179 120.26742554 C-93.42758179 147.98742554 -93.42758179 175.70742554 -93.42758179 204.26742554 C-65.70758179 204.26742554 -37.98758179 204.26742554 -9.42758179 204.26742554 C-9.42758179 176.54742554 -9.42758179 148.82742554 -9.42758179 120.26742554 C-14.70758179 120.26742554 -19.98758179 120.26742554 -25.42758179 120.26742554 C-25.48816772 122.32605835 -25.54875366 124.38469116 -25.61117554 126.50570679 C-25.67375837 128.50140382 -25.73637305 130.49710001 -25.79989624 132.49276733 C-25.84318397 133.87878536 -25.88486342 135.2648546 -25.92489624 136.65097046 C-25.98274763 138.64434352 -26.04687955 140.63753119 -26.11117554 142.63070679 C-26.14783325 143.82993774 -26.18449097 145.0291687 -26.22225952 146.26473999 C-26.42758179 149.26742554 -26.42758179 149.26742554 -27.42758179 152.26742554 C-30.1625676 153.17908747 -31.76272786 153.39375573 -34.57601929 153.39682007 C-35.82246216 153.40154831 -35.82246216 153.40154831 -37.09408569 153.40637207 C-37.9878894 153.40434784 -38.88169312 153.40232361 -39.80258179 153.40023804 C-40.72345581 153.40119476 -41.64432983 153.40215149 -42.59310913 153.40313721 C-44.53988717 153.40381764 -46.48666748 153.40197288 -48.43344116 153.39779663 C-51.4159148 153.39244647 -54.39823784 153.39774625 -57.38070679 153.40414429 C-59.27133212 153.40348348 -61.16195736 153.40220227 -63.05258179 153.40023804 C-63.9463855 153.40226227 -64.84018921 153.4042865 -65.76107788 153.40637207 C-66.59203979 153.40321991 -67.42300171 153.40006775 -68.27914429 153.39682007 C-69.00955933 153.39602448 -69.73997437 153.39522888 -70.49252319 153.39440918 C-72.42758179 153.26742554 -72.42758179 153.26742554 -75.42758179 152.26742554 C-76.77461781 148.92815525 -76.6307592 145.31042098 -76.74398804 141.75180054 C-76.78588257 140.50140991 -76.8277771 139.25101929 -76.87094116 137.96273804 C-76.91025757 136.66078491 -76.94957397 135.35883179 -76.99008179 134.01742554 C-77.03326538 132.70000366 -77.07644897 131.38258179 -77.12094116 130.02523804 C-77.22700033 126.772757 -77.32779332 123.52010501 -77.42758179 120.26742554 C-82.70758179 120.26742554 -87.98758179 120.26742554 -93.42758179 120.26742554 Z M-59.42758179 120.26742554 C-59.42758179 125.54742554 -59.42758179 130.82742554 -59.42758179 136.26742554 C-54.14758179 136.26742554 -48.86758179 136.26742554 -43.42758179 136.26742554 C-43.42758179 130.98742554 -43.42758179 125.70742554 -43.42758179 120.26742554 C-48.70758179 120.26742554 -53.98758179 120.26742554 -59.42758179 120.26742554 Z M8.57241821 120.26742554 C8.57241821 147.98742554 8.57241821 175.70742554 8.57241821 204.26742554 C36.62241821 204.26742554 64.67241821 204.26742554 93.57241821 204.26742554 C93.57241821 176.54742554 93.57241821 148.82742554 93.57241821 120.26742554 C88.29241821 120.26742554 83.01241821 120.26742554 77.57241821 120.26742554 C77.49894165 122.99572632 77.49894165 122.99572632 77.42398071 125.77914429 C77.34893939 128.17108646 77.27339215 130.5630128 77.19741821 132.95492554 C77.16648071 134.15310913 77.13554321 135.35129272 77.10366821 136.58578491 C77.06499634 137.74271851 77.02632446 138.8996521 76.98648071 140.09164429 C76.93934937 141.68625488 76.93934937 141.68625488 76.89126587 143.31307983 C76.56250471 146.35928105 75.98134933 148.55172413 74.57241821 151.26742554 C71.53835261 153.29013594 70.93729045 153.51997215 67.53164673 153.54208374 C66.72393326 153.55161575 65.91621979 153.56114777 65.08403015 153.57096863 C63.78084084 153.56960152 63.78084084 153.56960152 62.45132446 153.56820679 C61.55501816 153.57249191 60.65871185 153.57677704 59.73524475 153.58119202 C57.83975062 153.58693453 55.94423444 153.58743615 54.04873657 153.58309937 C51.1493466 153.57994125 48.25097875 153.6033928 45.35171509 153.62875366 C43.5099195 153.63102685 41.66812117 153.63173006 39.82632446 153.63070679 C38.95955582 153.63991653 38.09278717 153.64912628 37.19975281 153.65861511 C33.68249083 153.63159672 31.22652841 153.59832088 28.05654907 151.99472046 C25.07389823 148.52338393 25.40772207 144.61056662 25.25601196 140.18930054 C25.21411743 139.02914429 25.1722229 137.86898804 25.12905884 136.67367554 C25.08974243 135.46711304 25.05042603 134.26055054 25.00991821 133.01742554 C24.96673462 131.79539429 24.92355103 130.57336304 24.87905884 129.31430054 C24.77304538 126.29880673 24.67223381 123.28313086 24.57241821 120.26742554 C19.29241821 120.26742554 14.01241821 120.26742554 8.57241821 120.26742554 Z M42.57241821 120.26742554 C42.57241821 125.54742554 42.57241821 130.82742554 42.57241821 136.26742554 C48.18241821 136.26742554 53.79241821 136.26742554 59.57241821 136.26742554 C59.57241821 130.98742554 59.57241821 125.70742554 59.57241821 120.26742554 C53.96241821 120.26742554 48.35241821 120.26742554 42.57241821 120.26742554 Z " fill="#000000" transform="translate(324.4275817871094,289.7325744628906)"/>
<path d="M0 0 C0.88973511 -0.00832352 1.77947021 -0.01664703 2.69616699 -0.02522278 C5.64270379 -0.04935367 8.58901935 -0.05809859 11.53564453 -0.06469727 C13.58204211 -0.07366111 15.628439 -0.08278291 17.67483521 -0.09205627 C21.96715896 -0.10855713 26.2594046 -0.11624841 30.55175781 -0.11914062 C36.05225399 -0.1245261 41.55201635 -0.16220851 47.05230522 -0.20788479 C51.27994468 -0.23762508 55.50740677 -0.24486352 59.73514175 -0.24586678 C61.76295458 -0.25007495 63.79076765 -0.26253309 65.81847763 -0.28338432 C68.65557585 -0.31023623 71.49096466 -0.30549184 74.328125 -0.29296875 C75.16570343 -0.30780304 76.00328186 -0.32263733 76.86624146 -0.33792114 C81.15523022 -0.28400151 82.80142899 -0.07929754 86.29129028 2.65635681 C89.61910983 7.06101184 89.45362774 10.99894758 89.46142578 16.29858398 C89.46641838 17.47301559 89.46641838 17.47301559 89.47151184 18.6711731 C89.47657222 20.32708143 89.47892044 21.98299995 89.47875977 23.63891602 C89.48094283 26.16496715 89.4990982 28.69057905 89.51806641 31.21655273 C89.52100125 32.82722833 89.52298544 34.43790599 89.52392578 36.04858398 C89.5311113 36.80082245 89.53829681 37.55306091 89.54570007 38.32809448 C89.52414386 43.30747338 89.28753385 47.20191426 85.76748657 50.91685486 C82.12281058 52.96389145 78.54537671 52.73232269 74.47338867 52.71044922 C73.58350754 52.71731247 72.6936264 52.72417572 71.77677917 52.73124695 C68.8355615 52.74954625 65.89487566 52.74567292 62.95361328 52.73999023 C60.90864386 52.7445506 58.86367598 52.74985573 56.81871033 52.75587463 C52.53231583 52.76481194 48.24610758 52.76237559 43.9597168 52.75244141 C38.46716762 52.74095221 32.97526137 52.76115953 27.48279667 52.79035854 C23.25943417 52.80870645 19.03622613 52.80843086 14.81283379 52.80272102 C12.78783707 52.80256763 10.76283001 52.80862682 8.73787117 52.8210125 C5.90581077 52.83589356 3.07494304 52.82526653 0.24291992 52.80810547 C-0.59308746 52.81777344 -1.42909485 52.82744141 -2.29043579 52.83740234 C-6.30787917 52.78643698 -8.24488876 52.60127363 -11.71589661 50.38420105 C-15.6064774 46.32327557 -14.87913883 41.62491038 -14.90966797 36.25170898 C-14.91536804 35.4725412 -14.92106812 34.69337341 -14.92694092 33.89059448 C-14.93636943 32.24486643 -14.94291635 30.59911968 -14.94677734 28.95336914 C-14.95648251 26.44700935 -14.98752504 23.94147027 -15.01904297 21.43530273 C-15.02557389 19.83244299 -15.03082401 18.22957742 -15.03466797 16.62670898 C-15.04701477 15.88276886 -15.05936157 15.13882874 -15.07208252 14.37234497 C-15.05184929 9.60320877 -14.28198754 6.33100012 -11.70654297 2.30639648 C-7.80991165 -0.29135773 -4.52206597 0.00357129 0 0 Z M3.29345703 18.30639648 C3.29345703 23.58639648 3.29345703 28.86639648 3.29345703 34.30639648 C25.73345703 34.30639648 48.17345703 34.30639648 71.29345703 34.30639648 C71.29345703 29.02639648 71.29345703 23.74639648 71.29345703 18.30639648 C48.85345703 18.30639648 26.41345703 18.30639648 3.29345703 18.30639648 Z " fill="#000000" transform="translate(218.70654296875,118.693603515625)"/>
</svg>
