<?xml version="1.0" encoding="utf-8"?>
<!-- Generator: Adobe Illustrator 15.0.2, SVG Export Plug-In . SVG Version: 6.00 Build 0)  -->
<svg version="1.2" baseProfile="tiny" id="Calque_1"
	 xmlns="http://www.w3.org/2000/svg" xmlns:xlink="http://www.w3.org/1999/xlink" x="0px" y="0px" width="428.667px"
	 height="211.333px" viewBox="-35.475 -33.089 428.667 211.333" overflow="inherit" xml:space="preserve">
<g>
	<g>
		<path fill="#FFFFFF" d="M178.859,166.345c-53.634,0-104.082-9.646-142.05-27.162c-38.337-17.687-59.45-41.341-59.45-66.605
			s21.113-48.919,59.45-66.605c37.968-17.516,88.416-27.163,142.05-27.163c53.635,0,104.082,9.646,142.05,27.163
			c38.337,17.687,59.45,41.341,59.45,66.605s-21.113,48.919-59.45,66.605C282.941,156.698,232.494,166.345,178.859,166.345z"/>
		<path fill="#2B4233" d="M178.859-19.691c110.458,0,200,41.31,200,92.268s-89.542,92.268-200,92.268
			c-110.457,0-200-41.31-200-92.268S68.402-19.691,178.859-19.691 M178.859-22.691c-53.847,0-104.518,9.696-142.678,27.301
			C-2.718,22.556-24.141,46.693-24.141,72.577s21.423,50.021,60.322,67.967c38.161,17.605,88.832,27.301,142.678,27.301
			s104.518-9.695,142.679-27.301c38.898-17.945,60.321-42.083,60.321-67.967S360.436,22.556,321.538,4.61
			C283.376-12.995,232.706-22.691,178.859-22.691L178.859-22.691z"/>
	</g>
	<path id="path3653_4_" fill="#2B4233" d="M175.351,144.834c-14.949-1.571-31.954-7.844-47.224-17.405
		c-5.705-3.573-11.706-7.888-10.143-7.288c0.521,0.199,4.004,1.586,7.737,3.107c18.941,7.646,38.836,11.82,58.329,12.237
		c19.949,0.425,36.482-2.891,52.156-10.457l6.639-3.2l-3.68,3.274c-10.156,9.043-26.027,16.438-40.498,18.862
		C191.463,145.176,181.905,145.528,175.351,144.834z"/>
	<path fill="#CE2019" d="M69.527,17.339c0,5.043-0.165,10.783-0.5,17.215c-0.555,9.312-1.276,14.496-2.162,15.549
		c-0.165,0.223-0.389,0.333-0.666,0.333c-0.609,0-1.191-0.582-1.745-1.746c-0.61-1.22-0.915-2.247-0.915-3.073l0.915-13.559
		c0.666-5.986,0.996-10.504,0.996-13.555c0-4.1-0.608-6.622-1.827-7.567c-0.556-0.386-0.833-0.802-0.833-1.246
		c0-0.943,0.776-1.413,2.328-1.413C68.058,8.276,69.527,11.295,69.527,17.339z"/>
	<path fill="#CE2019" d="M86.159,24.324c1.498,1.83,2.247,3.797,2.247,5.904c0,2.163-0.888,4.239-2.661,6.235
		c-1.774,1.996-3.493,2.996-5.155,2.996l-2.078-0.669c-0.886-0.442-1.606-0.663-2.161-0.663H76.1
		c-0.888,0.718-1.329,1.94-1.329,3.658c0,2.217,0.581,3.686,1.745,4.406c0.721,0.667,1.995,0.996,3.826,0.996l2.993-0.331
		l3.161-0.417c1.607,0.113,2.412,0.722,2.412,1.831c0,1.222-1.415,2.356-4.243,3.407c-2.382,0.888-4.24,1.333-5.571,1.333
		c-5.432-0.112-8.149-4.49-8.149-13.141c0-3.935,1.054-7.871,3.16-11.806c2.162-4.38,4.629-6.57,7.401-6.57
		C83.109,21.499,84.662,22.44,86.159,24.324z M79.007,29.23c-0.722,0.721-1.082,1.526-1.082,2.412c0,0.72,0.277,1.357,0.832,1.912
		c0.556,0.555,1.109,0.834,1.664,0.834c0.721,0,1.581-0.469,2.578-1.413c0.941-0.887,1.413-1.773,1.413-2.661
		c0-1.443-1.024-2.164-3.076-2.164C80.616,28.15,79.84,28.51,79.007,29.23z"/>
	<path fill="#CE2019" d="M181.208,76.631l-0.5,3.16l-0.418,3.16c0,1.664,0.809,4.186,2.412,7.565c1.553,3.381,2.33,5.6,2.33,6.653
		c0.056,0.777-0.388,1.164-1.331,1.164c-0.719,0-1.411-0.444-2.077-1.332l-1.664-2.246c-1.773,1.222-3.132,1.83-4.075,1.83
		c-1.552,0-2.911-0.664-4.075-1.994c-1.33-1.442-1.996-3.162-1.996-5.156c0-1.664,0.499-3.078,1.497-4.241l2.829-2.493
		c1.329-1.108,2.133-2.273,2.41-3.493l0.417-1.66c0-0.89-0.555-1.309-1.663-1.25c-1.164-0.057-2.274,0.667-3.328,2.163
		c-0.999,1.549-1.719,2.329-2.162,2.329c-0.556,0-1.026-0.278-1.415-0.833l-0.747-1.992c0-1.613,1.054-3.248,3.16-4.91
		c1.941-1.608,3.547-2.412,4.822-2.412s2.466,0.607,3.576,1.831C180.545,73.747,181.208,75.137,181.208,76.631z M178.297,87.773
		c-0.33-1.055-0.774-1.58-1.328-1.58c-0.665,0-1.525,0.441-2.581,1.331c-0.94,0.94-1.412,1.829-1.412,2.66
		c0,0.608,0.445,1.164,1.331,1.661l1.913,0.499c1.719,0,2.578-0.719,2.578-2.16C178.796,89.466,178.63,88.66,178.297,87.773z"/>
	<path fill="#CE2019" d="M172.229,61.165c1.827,0.554,3.603,1.358,5.321,2.409l4.908,3.163c0.166,0.165,0.244,0.527,0.244,1.08
		l-0.078,1.081v1.162l-0.166,0.998l-4.908-3.161c-1.719-1.053-3.492-1.857-5.321-2.41l-0.249-1.163l0.165-2.082L172.229,61.165z"/>
	<path fill="#CE2019" d="M210.314,60.582c-1.552,0-2.825,2.574-3.827,7.73c-0.666,3.771-0.998,7.18-0.998,10.229
		c0,2.552,0.279,4.354,0.833,5.408h2.993c1.608,0,3.189-1.776,4.739-5.324l1.08-3.91l0.501-4.49l0.249-3.491l-0.166-1.246
		l-0.5-0.418l-0.666-1.246C213.333,61.663,211.922,60.582,210.314,60.582z M198.005,76.965
		c-0.056-16.465,4.132-24.696,12.558-24.696c2.991,0,5.682,2.494,8.064,7.483c2.107,4.49,3.16,8.814,3.16,12.972
		c0,3.16-0.694,6.375-2.082,9.647c-1.44,3.659-3.156,6.151-5.153,7.486c-0.669,0.498-1.882,0.831-3.659,0.995l-4.076,0.249
		l-1.332,16.048c-0.663,8.316-1.718,12.476-3.158,12.476h-0.582c-2.493,0-3.745-3.051-3.745-9.149l0.252-9.478l0.333-9.646
		l-0.333-7.15L198.005,76.965z"/>
	<path fill="#CE2019" d="M232.015,78.295c0,1.998-0.603,6.736-1.827,14.221c-1.273,7.93-2.188,12.196-2.742,12.804
		c-0.612,0.555-1.196,0.834-1.749,0.834c-0.883,0-1.605-0.722-2.161-2.163c-0.39-1.22-0.583-2.468-0.583-3.743l0.331-4.988
		l0.834-4.824l0.996-15.964c-0.054-0.998,0.197-2.05,0.75-3.16c0.441-1.053,1.076-1.581,1.912-1.581
		C230.604,69.729,232.015,72.584,232.015,78.295z"/>
	<path fill="#CE2019" d="M257.468,65.655c-1.552,0-3.859,0.691-6.906,2.078c-2.991,1.333-5.294,1.996-6.901,1.996
		c-3.494,0.111-5.295-1.857-5.405-5.901c-0.059-4.161,4.603-6.297,13.969-6.404l2.165-0.084h2.328c1.831,0,3.964,0.804,6.399,2.413
		c2.773,1.831,4.161,3.88,4.161,6.153c0.113,1.941-1.632,4.631-5.24,8.065l-10.061,8.65c-3.493,3.104-5.238,5.016-5.238,5.737
		c0,0.442,0.5,0.665,1.495,0.665c1.55,0,3.771-0.581,6.655-1.748c2.823-1.22,4.877-1.911,6.147-2.076l3.413-0.252l5.073,0.585
		c2.438,0.554,3.662,1.441,3.662,2.66c0,1.386-3.358,3.075-10.068,5.072l-13.053,3.409l-7.981,2.745
		c-1.109,0.054-2.386-0.805-3.827-2.578c-1.446-1.665-2.164-3.215-2.164-4.655c0-2.107,1.882-5.158,5.656-9.148l10.729-10.146
		c3.882-3.548,5.82-5.766,5.82-6.653C258.294,65.848,258.021,65.655,257.468,65.655z"/>
	<path fill="#CE2019" d="M306.11,66.156c-0.051,1.828-1.857,4.46-5.401,7.898l-10.146,8.482c-3.604,3.047-5.409,4.933-5.409,5.653
		c0,0.498,0.531,0.748,1.578,0.748c1.501,0,3.718-0.607,6.655-1.827c2.774-1.11,4.828-1.749,6.153-1.914l3.327-0.165l4.988,0.666
		c2.551,0.609,3.829,1.522,3.829,2.742c0,1.388-3.467,3.021-10.398,4.906l-12.886,3.159l-8.065,2.744
		c-1.11-0.056-2.358-0.913-3.745-2.577c-1.441-1.771-2.158-3.383-2.158-4.824c0-2.104,1.939-5.125,5.819-9.062l10.808-9.978
		c4.051-3.495,6.075-5.684,6.075-6.571c-0.119-0.389-0.446-0.582-0.999-0.582c-1.445,0-3.688,0.637-6.737,1.912
		c-3.159,1.386-5.49,2.078-6.983,2.078c-3.548,0-5.323-2.05-5.323-6.153c0-4.101,4.657-6.152,13.968-6.152h2.331h2.165
		c1.828,0,3.961,0.832,6.4,2.494C304.725,61.718,306.11,63.824,306.11,66.156z"/>
	<path fill="#CE2019" d="M327.486,63.408c-2.163,0-4.19,1.359-6.074,4.078c-1.828,2.715-3.157,4.076-3.991,4.076
		c-0.993-0.056-1.855-0.583-2.575-1.581c-0.832-0.943-1.244-2.105-1.244-3.494c0-2.88,1.878-5.875,5.651-8.981
		c3.547-2.938,6.515-4.407,8.898-4.407c2.275,0,4.465,1.081,6.569,3.246c2.218,2.437,3.324,5.071,3.324,7.897l-0.661,5.654
		c-0.501,2.495-0.753,4.379-0.753,5.656c0,2.993,1.444,7.566,4.325,13.724c2.826,6.097,4.241,10.115,4.241,12.058
		c0,1.385-0.861,2.079-2.574,2.079c-1.165,0.053-2.413-0.723-3.746-2.33l-2.991-4.158c-3.214,2.216-5.658,3.324-7.322,3.324
		c-2.826,0-5.374-1.164-7.646-3.492c-2.221-2.66-3.383-5.793-3.496-9.396c0.113-3.049,0.998-5.626,2.66-7.729l5.326-4.659
		c2.272-1.938,3.766-4.046,4.486-6.319l0.585-2.992C330.478,64.158,329.479,63.408,327.486,63.408z M325.989,83.863
		c-1.827,1.61-2.747,3.216-2.747,4.822c0,1.11,0.803,2.081,2.414,2.909l3.492,0.833c2.993,0,4.49-1.244,4.49-3.744
		c0-1.383-0.277-2.882-0.834-4.486c-0.612-1.829-1.359-2.744-2.244-2.744C329.287,81.454,327.762,82.257,325.989,83.863z"/>
	<path fill="#CE2019" d="M368.315,65.655c0,2.55-0.806,4.184-2.414,4.906l-4.322,1.162c-1.605,0.498-2.414,1.607-2.414,3.328
		c0,0.719,0.669,1.355,2,1.912c1.939,0.719,3.158,1.33,3.66,1.827c1.385,0.999,2.075,2.554,2.075,4.657
		c-0.111,2.886-2.384,6.349-6.821,10.395c-4.319,3.77-7.676,5.656-10.062,5.656c-2.27,0-3.405-0.888-3.405-2.658
		c0-1.608,0.966-3.215,2.91-4.825l5.32-3.408c1.998-1.11,2.991-1.969,2.991-2.576c-0.106-1.942-0.912-3.161-2.409-3.659
		l-3.743-0.336c-2.438,0-3.604-1.577-3.491-4.739c-0.112-3.826,1.8-6.596,5.738-8.313c0.999-0.389,3.049-1.885,6.15-4.49
		c2.829-2.386,4.575-3.576,5.243-3.576c0.94,0,1.688,0.471,2.245,1.415C368.063,63.324,368.315,64.435,368.315,65.655z"/>
	<path fill="#CE2019" d="M226.943,50.269l0.086-0.082l2.993,0.334c0.993,0.277,1.746,0.941,2.248,1.996
		c0.606,1.884,0.802,3.851,0.579,5.901c-0.11,1.829-0.472,3.549-1.078,5.155l-0.834,1.666l-2.076,0.416
		c-2.554-0.112-4.08-1.136-4.575-3.075c-0.502-1.887-0.387-4.048,0.33-6.486C225.281,53.706,226.059,51.768,226.943,50.269z"/>
	<path fill="#CE2019" d="M21.546,66.322c1.165,0.995,1.745,2.243,1.745,3.739c0,1.275-1.499,2.884-4.491,4.824
		c-2.883,1.997-4.323,3.383-4.323,4.16c0,1.22,1.246,3.103,3.741,5.654c3.716,3.883,5.985,6.456,6.818,7.734
		c2.495,3.492,3.744,6.704,3.744,9.644c0,1.385-0.498,2.081-1.498,2.081l-0.747-0.168c-3.216-4.379-5.822-7.621-7.817-9.729
		c-2.494-2.663-5.626-5.104-9.397-7.318l-0.415-0.25c-0.611,0-0.888,2.355-0.832,7.069c-0.056,4.102-0.665,6.152-1.828,6.152
		c-2.662,0-3.993-1.997-3.993-5.987l0.497-5.321l0.499-5.571v-0.753L2.085,66.07c-0.666-6.985-0.997-12.418-0.997-16.299l0.082-4.24
		c0.332-1.108,1.22-1.664,2.662-1.664c2.106,0,3.438,2.413,3.991,7.234l0.499,10.396l1.166,9.481h0.748
		c1.108,0,2.522-1.057,4.24-3.16c1.663-2.162,2.938-3.245,3.824-3.245C19.356,64.686,20.437,65.265,21.546,66.322z"/>
	<path fill="#CE2019" d="M40.919,77.879c0,1.996-0.608,6.736-1.827,14.22c-1.386,7.929-2.301,12.196-2.745,12.807
		c-0.611,0.554-1.19,0.831-1.746,0.831c-0.887,0-1.608-0.724-2.162-2.165l-0.582-3.741l0.333-4.989l0.833-4.821l0.915-15.966
		c0.055-0.999,0.332-2.052,0.831-3.161c0.444-1.055,1.081-1.581,1.912-1.581C39.506,69.312,40.919,72.168,40.919,77.879z"/>
	<path fill="#CE2019" d="M61.044,64.988c2.104,5.547,3.16,10.23,3.16,14.057c0,3.657-1.08,7.262-3.244,10.812
		c-2.327,3.877-4.822,5.819-7.484,5.819c-2.827,0-5.044-1.332-6.652-3.992c-1.606-2.663-2.411-5.848-2.411-9.562l1.247-7.32
		l1.664-7.401l0.5-1.744c0-0.278-0.084-0.417-0.249-0.417c-0.223,0-0.584,0.139-1.082,0.417l-1.079,0.333
		c-0.334,0.112-0.527-0.221-0.583-0.999c0.056-2.217,1.164-4.378,3.326-6.486c1.941-1.94,3.797-2.938,5.572-2.992
		C56.278,55.564,58.717,58.725,61.044,64.988z M58.633,77.294c0-5.042-1.247-7.565-3.742-7.565c-1.663,0-3.021,1.58-4.074,4.74
		c-0.719,2.551-1.08,5.1-1.08,7.648c0,1.718,0.167,2.938,0.498,3.661c0.223,0.722,0.943,1.44,2.164,2.16l0.831,0.251
		c1.551-0.111,2.883-1.44,3.991-3.99C58.164,81.868,58.633,79.568,58.633,77.294z"/>
	<path fill="#CE2019" d="M86.826,65.322c0,2.551-0.804,4.186-2.413,4.904l-4.323,1.167c-1.609,0.5-2.413,1.608-2.413,3.324
		c0,0.722,0.666,1.359,1.996,1.914c1.939,0.722,3.16,1.334,3.659,1.83c1.386,0.998,2.022,2.548,1.912,4.655
		c0.11,2.884-2.108,6.35-6.653,10.397c-4.323,3.769-7.678,5.656-10.062,5.656c-2.273,0-3.408-0.892-3.408-2.663
		c0-1.662,0.914-3.272,2.743-4.822l5.488-3.41c1.883-1.161,2.827-2.079,2.827-2.742c0.111-1.83-0.638-2.993-2.246-3.496
		l-3.742-0.328c-2.439,0-3.658-1.583-3.658-4.741c0.109-3.829,2.078-6.597,5.904-8.317c0.998-0.388,3.05-1.885,6.153-4.488
		c2.827-2.385,4.572-3.577,5.238-3.577c0.942,0,1.691,0.47,2.245,1.411C86.575,62.994,86.826,64.102,86.826,65.322z"/>
	<path fill="#CE2019" d="M106.782,60.331c-0.11,3.497-0.609,9.344-1.497,17.55c-0.609,7.539-0.914,13.443-0.914,17.711
		c-0.112,4.821,0.082,8.121,0.582,9.895l0.332,2.414c0.112,1.441,0.082,2.689-0.083,3.741c-0.277,0.832-1.525,1.248-3.742,1.248
		c-2.662,0-3.992-0.609-3.992-1.829l0.081-1.497l0.249-0.833l0.416-2.412l0.331-2.661l0.249-0.914l0.082-1.578
		c-3.824-0.057-6.708-2.801-8.648-8.233c-1.386-4.16-2.08-9.176-2.08-15.051c0-4.713,1.083-9.981,3.244-15.803
		c2.607-6.653,5.545-9.979,8.815-9.979c1.717,0,3.242,0.724,4.572,2.164c1.331,1.385,1.995,3.16,1.995,5.323v0.745H106.782z
		 M93.724,80.455c0,6.264,0.998,9.398,2.997,9.398c2.271-0.113,3.407-5.27,3.407-15.47c0-7.708-0.859-11.557-2.576-11.557
		c-1.165,0-2.162,2.521-2.993,7.565C94.003,74.274,93.724,77.627,93.724,80.455z"/>
	<path fill="#CE2019" d="M132.977,66.654c0,1.883-0.248,4.739-0.747,8.564l-0.668,8.983l0.334,5.901l0.332,5.739
		c0,6.098-0.998,9.147-2.995,9.147c-1.385,0-2.077-0.915-2.077-2.745c0-2.161-0.666-4.957-1.995-8.398
		c-4.049,3.994-6.598,6.015-7.652,6.072c-2.716-0.058-4.879-2.328-6.484-6.82c-1.275-3.714-1.915-7.567-1.915-11.56
		c0-2.993,0.888-7.455,2.662-13.388c1.941-6.763,3.796-10.144,5.571-10.144c2.384,0,3.576,1.441,3.576,4.325
		c0,1.276-0.525,2.798-1.58,4.57c-1.441,2.496-2.355,4.436-2.744,5.823c-1.053,3.048-1.58,6.709-1.58,10.976
		c0,3.271,0.889,4.906,2.662,4.906c2.495,0,4.354-2.606,5.569-7.816l2.415-14.385c0.719-5.045,1.718-7.565,2.993-7.565
		s2.329,0.912,3.159,2.743C132.587,63.185,132.977,64.878,132.977,66.654z"/>
	<path fill="#CE2019" d="M150.854,71.974c0-1.776-1.328-2.659-3.99-2.659c-0.998,0-1.941,0.442-2.828,1.328
		c-0.942,0.889-1.412,1.884-1.412,2.995c0,0.833,0.359,1.609,1.08,2.328c0.721,0.723,1.443,1.081,2.162,1.081
		c0.832,0,1.831-0.609,2.992-1.829C150.189,74.107,150.854,73.028,150.854,71.974z M140.294,81.619
		c-0.996,0.889-1.497,2.357-1.497,4.409c0,2.771,0.666,4.629,1.996,5.569c0.996,0.722,2.605,1.082,4.823,1.082l3.742-0.335
		l3.906-0.331c1.886,0,2.886,0.72,2.996,2.163c-0.113,1.442-1.887,2.801-5.323,4.077c-2.994,1.109-5.293,1.661-6.902,1.661
		c-6.705,0-10.06-5.405-10.06-16.215c0-4.82,1.273-9.701,3.823-14.632c2.717-5.381,5.851-8.068,9.399-8.068
		c1.938,0,3.825,1.164,5.652,3.493c1.886,2.273,2.829,4.711,2.829,7.316c0,2.607-1.137,5.186-3.411,7.735
		c-2.16,2.493-4.297,3.743-6.402,3.743l-2.495-0.832c-1.165-0.665-2.051-0.939-2.659-0.832h-0.418V81.619z"/>
	<path fill="#CE2019" d="M31.939,63.408c-0.498-1.885-0.388-4.045,0.333-6.486c0.666-2.382,1.442-4.321,2.329-5.821l0.082-0.082
		l2.994,0.332c0.998,0.277,1.745,0.941,2.246,1.996c0.61,1.885,0.802,3.854,0.582,5.905c-0.11,1.714-0.472,3.463-1.083,5.238
		l-0.83,1.58l-2.078,0.414C33.963,66.375,32.439,65.35,31.939,63.408z"/>
	<path fill="#CE2019" d="M301.866,59.93c2.809,1.852,4.215,3.937,4.215,6.265c-0.082,1.848-1.888,4.494-5.418,7.952l-10.118,8.43
		c-3.612,3.054-5.425,4.938-5.425,5.662c0,0.48,0.526,0.722,1.566,0.722c1.531,0,3.737-0.602,6.625-1.807
		c2.809-1.125,4.859-1.766,6.144-1.926l3.368-0.122l4.942,0.604c2.568,0.643,3.851,1.565,3.851,2.77
		c0,1.364-3.452,3.011-10.355,4.938l-12.887,3.13l-8.07,2.771c-1.125-0.082-2.365-0.964-3.728-2.647
		c-1.451-1.767-2.176-3.374-2.176-4.819c0-2.087,1.93-5.098,5.785-9.031l10.837-10c4.015-3.45,6.021-5.619,6.021-6.503
		c-0.082-0.401-0.401-0.602-0.964-0.602c-1.445,0-3.694,0.643-6.744,1.929l-6.982,2.044c-3.536,0-5.304-2.044-5.304-6.138
		c0-4.097,4.658-6.143,13.973-6.143h2.287h2.167C297.331,57.401,299.459,58.246,301.866,59.93z"/>
	<path fill="#CE2019" d="M226.951,50.296l0.12-0.122l3.008,0.361c0.968,0.242,1.689,0.882,2.173,1.928l0.602,2.89v3.012
		c-0.081,1.849-0.441,3.575-1.085,5.182l-0.842,1.687l-2.047,0.36c-2.568-0.08-4.093-1.084-4.575-3.01
		c-0.483-1.929-0.36-4.096,0.358-6.505C225.306,53.668,226.068,51.74,226.951,50.296z"/>
	<path fill="#CE2019" d="M39.549,54.389c0.802,1.045,1.123,2.369,0.963,3.976l-0.845,3.975l-0.722,1.928
		c-2.97,0.561-4.897,0.321-5.781-0.722c-0.881-1.045-1.162-2.37-0.842-3.976l1.446-4.455l1.083-2.171
		C37.261,52.785,38.826,53.266,39.549,54.389z"/>
</g>
</svg>
